<svg width="1701" height="1222" viewBox="0 0 1701 1222" fill="none" xmlns="http://www.w3.org/2000/svg">
<path d="M686.009 90.7985L660.329 107.086L675.916 78.7438C671.502 75.2246 666.041 73.2754 660.395 73.2043H659.981C658.197 73.2365 656.414 73.1092 654.653 72.824L645.95 78.3304L649.673 71.5507C643.503 69.3939 638.175 65.3423 634.45 59.9756L618.879 69.8971L628.774 51.9888C619.674 41.0751 607.396 34.3616 593.877 34.3616C577.678 34.3616 563.249 44.002 553.934 59C551.179 63.5034 547.275 67.1937 542.623 69.6926C537.971 72.1915 532.737 73.4092 527.459 73.2208H526.598C508.711 73.2208 494.217 93.4938 494.217 118.479C494.217 143.465 508.711 163.738 526.598 163.738C530.526 163.723 534.393 162.759 537.867 160.927C549.532 154.858 564.854 154.743 577.066 160.15C582.309 162.488 587.987 163.697 593.728 163.697C599.47 163.697 605.148 162.488 610.391 160.15C616.54 157.487 623.189 156.175 629.889 156.303C636.59 156.432 643.184 157.997 649.226 160.894C652.675 162.693 656.505 163.64 660.395 163.655C678.282 163.655 692.777 143.399 692.777 118.397C692.867 108.776 690.54 99.2872 686.009 90.7985Z" fill="#F2F2F2"/>
<path opacity="0.03" d="M637.61 157.024C628.265 155.253 618.604 156.306 609.861 160.05C604.621 162.388 598.946 163.597 593.207 163.597C587.468 163.597 581.793 162.388 576.553 160.05C570.354 157.333 563.638 155.994 556.87 156.125C550.102 156.257 543.443 157.855 537.354 160.811C533.884 162.656 530.016 163.626 526.085 163.639C510.184 163.639 496.98 147.649 494.217 126.549C497.392 124.232 500.089 121.323 502.159 117.983C511.475 102.985 525.903 93.3613 542.103 93.3613C558.302 93.3613 572.565 102.869 581.815 117.719C584.594 122.199 588.484 125.886 593.108 128.424C597.731 130.962 602.932 132.264 608.207 132.204H608.62C621.328 132.121 632.282 142.258 637.61 157.024Z" fill="black"/>
<path d="M466.832 795.821L456.424 789.356C455.431 788.744 454.455 788.083 453.462 787.454C475.613 783.646 495.809 772.422 510.733 755.627C525.656 738.831 534.42 717.463 535.585 695.032C536.749 672.6 530.245 650.44 517.14 632.192C504.036 613.943 485.11 600.691 463.473 594.613L463.986 635.39L441.565 591.025H441.284C415.047 589.808 389.4 599.053 369.983 616.728C350.565 634.403 338.965 659.06 337.734 685.279C337.635 687.181 337.734 689.033 337.734 690.901C329.941 682.005 322.842 672.464 318.16 662.013C308.679 640.864 308.497 616.903 309.241 587.767C310.73 530.057 313.229 471.884 316.472 413.909C339.885 411.304 361.602 400.444 377.723 383.278C393.845 366.112 403.315 343.765 404.434 320.25C404.567 317.224 404.517 314.247 404.434 311.271C404.434 310.527 404.434 309.799 404.318 309.055C404.12 306.178 403.855 303.334 403.408 300.523C403.408 300.06 403.243 299.613 403.16 299.167C402.763 296.786 402.267 294.437 401.704 292.122C401.489 291.246 401.274 290.386 401.042 289.526C400.347 286.996 399.586 284.566 398.693 282.052C398.395 281.242 398.047 280.399 397.733 279.638C397.038 277.835 396.277 276.05 395.466 274.297C395.036 273.371 394.622 272.445 394.175 271.535C394.043 271.304 393.96 271.056 393.828 270.824C383.369 250.195 366.011 233.878 344.767 224.707C323.524 215.536 299.737 214.09 277.538 220.621L278.2 273.702L256.027 229.848C237.795 240.267 223.371 256.233 214.855 275.418C206.339 294.604 204.178 316.006 208.687 336.505H208.588C208.736 337.216 208.952 337.894 209.117 338.588C209.431 339.895 209.762 341.184 210.126 342.474C210.59 344.128 211.119 345.781 211.665 347.435C212.079 348.659 212.476 349.866 212.939 351.073C213.618 352.826 214.379 354.529 215.14 356.232C215.587 357.224 215.984 358.249 216.464 359.225C217.721 361.783 219.089 364.279 220.567 366.716C221.08 367.576 221.659 368.369 222.222 369.213C223.281 370.866 224.34 372.52 225.531 374.058C226.243 375.033 227.004 375.976 227.749 376.918C228.841 378.291 229.949 379.647 231.058 380.953C231.869 381.896 232.713 382.805 233.557 383.698C234.781 384.988 236.022 386.228 237.313 387.435C238.173 388.245 238.967 389.089 239.91 389.849C241.367 391.156 242.889 392.379 244.428 393.586C245.205 394.198 245.967 394.827 246.761 395.422C249.11 397.076 251.526 398.729 254.025 400.383C254.488 400.664 255.001 400.895 255.464 401.176C257.566 402.4 259.684 403.574 261.868 404.632C262.811 405.095 263.771 405.509 264.731 405.939C266.518 406.732 268.321 407.51 270.174 408.221L273.484 409.378C275.304 409.99 277.157 410.569 279.027 411.032C280.119 411.329 281.228 411.644 282.336 411.908C284.355 412.388 286.423 412.785 288.508 413.148L288.905 413.231C287.548 437.693 286.335 462.161 285.265 486.634C279.363 474.515 271.046 463.728 260.824 454.937C250.601 446.145 238.689 439.534 225.818 435.508C212.947 431.482 199.389 430.127 185.975 431.525C172.561 432.924 159.574 437.046 147.812 443.641L165.318 491.595L129.296 457.035C109.984 474.682 98.4737 499.269 97.2945 525.394C96.8348 534.556 97.6817 543.737 99.8096 552.661C104.35 571.956 114.584 589.443 129.186 602.857C143.788 616.271 162.084 624.994 181.704 627.895C201.325 630.796 221.365 627.741 239.228 619.127C257.091 610.513 271.953 596.736 281.889 579.582C281.889 582.062 281.724 584.543 281.658 587.04C280.996 612.736 280.169 644.717 292.992 673.274C301.679 692.621 315.645 708.347 329.395 722.435C338.38 731.596 347.696 740.476 357.243 749.058C366.643 761.668 378.904 771.87 393.017 778.822C408.703 790.894 424.952 802.254 441.747 812.737L452.238 819.253C461.669 825.09 471.333 831.092 480.797 837.326C479.143 837.161 477.488 836.979 475.833 836.896C454.834 835.919 434.068 841.64 416.536 853.232C399.005 864.825 385.617 881.689 378.307 901.386L440.225 951.639L372.152 935.864C372.17 952.602 376.433 969.063 384.544 983.708C392.654 998.354 404.347 1010.71 418.529 1019.61C432.712 1028.52 448.922 1033.68 465.644 1034.63C482.367 1035.58 499.057 1032.27 514.155 1025.02L509.638 1030.73C506.593 1034.51 503.587 1038.27 500.62 1042.01C460.345 1092.99 449.143 1141.37 469.082 1178.26L493.34 1165.18C473.848 1129.27 503.019 1083.3 522.164 1059.12C525.076 1055.45 528.032 1051.76 531.033 1048.04C556.763 1016.1 585.918 979.882 585.207 935.467C584.098 868.48 519.086 828.199 466.832 795.821Z" fill="#F2F2F2"/>
<path d="M915.148 722.634L928.12 714.564C929.361 713.787 930.569 712.911 931.81 712.183C904.067 707.415 878.783 693.325 860.143 672.243C841.502 651.161 830.623 624.352 829.304 596.25C828.365 576.93 832.022 557.662 839.976 540.028C847.396 523.508 858.355 508.818 872.079 496.994C885.803 485.171 901.957 476.503 919.4 471.603L918.755 522.484L946.669 467.138H947C979.742 465.616 1011.75 477.152 1035.98 499.209C1060.21 521.266 1074.68 552.038 1076.21 584.758C1076.33 587.122 1076.21 589.437 1076.21 591.769C1085.96 580.673 1094.8 568.767 1100.64 555.737C1112.48 529.28 1112.72 499.515 1111.77 463.136C1109.92 391.123 1106.81 318.563 1102.75 246.236C1073.54 242.987 1046.45 229.437 1026.33 208.019C1006.22 186.6 994.407 158.717 993.017 129.377C992.851 125.607 992.901 121.886 993.017 118.182C993.017 117.256 993.066 116.33 993.166 115.404C993.397 111.816 993.745 108.26 994.274 104.771C994.357 104.193 994.489 103.63 994.589 103.118C995.096 100.141 995.708 97.2089 996.425 94.3206C996.69 93.2458 996.955 92.1544 997.236 91.0135C998.113 87.8716 999.056 84.7464 1000.16 81.7038C1000.53 80.6786 1000.96 79.7029 1001.36 78.6942C1002.25 76.4288 1003.19 74.213 1004.2 72.0799C1004.73 70.9389 1005.24 69.7814 1005.86 68.6405C1005.99 68.3593 1006.12 68.0452 1006.27 67.7641C1019.31 42.0168 1040.96 21.651 1067.47 10.2097C1093.98 -1.23171 1123.66 -3.02464 1151.35 5.14275L1150.52 71.2862L1178.19 16.5856C1200.94 29.5826 1218.93 49.5037 1229.54 73.4416C1240.16 97.3794 1242.84 124.081 1237.2 149.65H1237.33C1237.15 150.526 1236.87 151.303 1236.67 152.246C1236.27 153.899 1235.86 155.553 1235.41 157.091C1234.83 159.158 1234.17 161.175 1233.49 163.193C1232.98 164.714 1232.48 166.235 1231.84 167.74C1230.99 169.923 1230.05 172.056 1229.09 174.172C1228.53 175.413 1228.03 176.686 1227.43 177.909C1225.78 181.101 1224.12 184.226 1222.32 187.252C1221.69 188.327 1220.96 189.336 1220.29 190.377C1218.96 192.428 1217.62 194.445 1216.18 196.413C1215.29 197.637 1214.35 198.794 1213.42 199.985C1212.06 201.638 1210.69 203.391 1209.23 205.028C1208.22 206.131 1207.17 207.272 1206.1 208.451C1204.6 210.105 1203.03 211.593 1201.44 213.114C1200.36 214.123 1199.3 215.148 1198.13 216.124C1196.29 217.777 1194.41 219.266 1192.47 220.77C1191.51 221.531 1190.57 222.341 1189.57 223.069C1186.65 225.218 1183.63 227.269 1180.51 229.171C1179.93 229.518 1179.3 229.815 1178.7 230.163C1176.11 231.706 1173.45 233.145 1170.73 234.479C1169.55 235.057 1168.35 235.553 1167.15 236.132C1164.92 237.141 1162.67 238.1 1160.37 238.976C1159.01 239.489 1157.66 239.968 1156.3 240.431C1154.02 241.209 1151.72 241.903 1149.38 242.548C1148.01 242.928 1146.64 243.309 1145.23 243.656C1142.7 244.251 1140.13 244.747 1137.54 245.194L1137.02 245.293C1138.74 275.818 1140.26 306.349 1141.57 336.885C1148.94 321.766 1159.32 308.311 1172.07 297.345C1184.83 286.38 1199.69 278.135 1215.75 273.118C1231.81 268.101 1248.73 266.417 1265.46 268.169C1282.19 269.922 1298.39 275.074 1313.06 283.309L1291.37 343.119L1336.29 300.01C1360.39 322.02 1374.75 352.694 1376.22 385.286C1376.79 396.676 1375.74 408.089 1373.09 419.184C1367.44 443.273 1354.68 465.11 1336.46 481.862C1318.24 498.615 1295.41 509.51 1270.92 513.135C1246.43 516.761 1221.41 512.948 1199.11 502.193C1176.82 491.438 1158.27 474.236 1145.88 452.818C1145.88 455.91 1146.09 459.036 1146.17 462.128C1147 494.191 1148.03 534.092 1132.04 569.71C1121.2 593.869 1103.76 613.464 1086.52 631.042C1075.3 642.484 1063.72 653.558 1051.77 664.262C1040.03 679.986 1024.72 692.698 1007.1 701.352C987.523 716.416 967.253 730.587 946.305 743.684L933.233 751.836C921.469 759.112 909.423 766.603 897.592 774.374C899.677 774.176 901.729 773.944 903.846 773.845C930.037 772.623 955.938 779.752 977.808 794.204C999.678 808.655 1016.38 829.681 1025.51 854.243L948.307 917.079L1033.24 897.418C1033.21 918.3 1027.89 938.834 1017.77 957.103C1007.64 975.371 993.055 990.779 975.36 1001.89C957.665 1012.99 937.442 1019.44 916.58 1020.62C895.718 1021.8 874.896 1017.68 856.06 1008.64C857.979 1011.02 859.882 1013.4 861.801 1015.76C865.591 1020.48 869.38 1025.17 873.07 1029.84C923.305 1093.42 937.287 1153.86 912.401 1199.83L882.154 1183.5C906.362 1138.69 869.942 1081.35 846.065 1051.22C842.442 1046.64 838.735 1042.02 835.012 1037.39C802.912 997.542 766.525 952.366 767.419 896.955C768.792 813.267 849.937 763.014 915.148 722.634Z" fill="#F2F2F2"/>
<path d="M1453.89 311.221V890.936C1453.89 892.501 1453.58 894.052 1452.98 895.498C1452.38 896.945 1451.51 898.259 1450.4 899.366C1449.29 900.473 1447.97 901.351 1446.53 901.95C1445.08 902.55 1443.53 902.858 1441.96 902.858H259.551C257.986 902.858 256.435 902.549 254.988 901.95C253.542 901.351 252.228 900.472 251.121 899.365C250.015 898.258 249.138 896.943 248.54 895.497C247.942 894.05 247.636 892.5 247.638 890.936V311.221C247.636 309.657 247.942 308.107 248.54 306.66C249.138 305.214 250.015 303.899 251.121 302.792C252.228 301.685 253.542 300.806 254.988 300.207C256.435 299.608 257.986 299.299 259.551 299.299H1441.96C1445.13 299.299 1448.16 300.555 1450.4 302.791C1452.63 305.027 1453.89 308.059 1453.89 311.221V311.221Z" fill="#3F3D56"/>
<path d="M1453.89 307.253V334.024H247.638V307.253C247.638 305.143 248.476 303.12 249.969 301.629C251.462 300.137 253.486 299.299 255.597 299.299H1445.93C1448.04 299.299 1450.07 300.137 1451.56 301.629C1453.05 303.12 1453.89 305.143 1453.89 307.253Z" fill="#CBCEDA"/>
<path d="M274.113 324.103C278.682 324.103 282.386 320.401 282.386 315.835C282.386 311.269 278.682 307.567 274.113 307.567C269.543 307.567 265.839 311.269 265.839 315.835C265.839 320.401 269.543 324.103 274.113 324.103Z" fill="#3362F3"/>
<path d="M297.278 324.103C301.847 324.103 305.551 320.401 305.551 315.835C305.551 311.269 301.847 307.567 297.278 307.567C292.709 307.567 289.005 311.269 289.005 315.835C289.005 320.401 292.709 324.103 297.278 324.103Z" fill="#3362F3"/>
<path d="M320.443 324.103C325.013 324.103 328.717 320.401 328.717 315.835C328.717 311.269 325.013 307.567 320.443 307.567C315.874 307.567 312.17 311.269 312.17 315.835C312.17 320.401 315.874 324.103 320.443 324.103Z" fill="#3362F3"/>
<path opacity="0.2" d="M1260 722.567V822.08L440.605 822.527L439.861 623.6C448.515 649.082 469.876 653.663 507.487 608.718C599.404 499.019 724.348 470.148 821.063 467.122C887.25 465.038 953.288 478.697 1016.31 505.832C1042.49 517.126 1145.94 529.28 1214.21 534.704C1226.6 535.68 1238.17 541.281 1246.62 550.393C1255.07 559.505 1259.77 571.46 1259.8 583.881L1260 722.567Z" fill="#3362F3"/>
<path opacity="0.2" d="M1260 625.254V823.023H439.861V780.029C463.307 774.126 551.005 751.422 593.05 688.718C643.352 613.646 711.723 593.902 764.623 591.835C800.876 590.396 836.965 599.706 871.415 618.292C910.167 639.194 984.876 664.411 1041.63 591.207C1104.41 510.264 1200.84 576.969 1225.3 601.492C1234.04 610.157 1260 625.254 1260 625.254Z" fill="#3362F3"/>
<path d="M439.861 415.513V819.914H1260" stroke="#3362F3" stroke-width="2" stroke-miterlimit="10"/>
<path d="M543.195 819.914V573.381" stroke="#3362F3" stroke-miterlimit="10"/>
<path d="M642.74 819.914V507.436" stroke="#3362F3" stroke-miterlimit="10"/>
<path d="M742.285 819.914V476.067" stroke="#3362F3" stroke-miterlimit="10"/>
<path d="M841.83 819.914V466.344" stroke="#3362F3" stroke-miterlimit="10"/>
<path d="M941.374 819.914V477.159" stroke="#3362F3" stroke-miterlimit="10"/>
<path d="M1040.92 819.914V517.159" stroke="#3362F3" stroke-miterlimit="10"/>
<path d="M1140.46 819.914V537.697" stroke="#3362F3" stroke-miterlimit="10"/>
<path d="M542.649 588.528C552.811 588.528 561.049 580.295 561.049 570.14C561.049 559.985 552.811 551.752 542.649 551.752C532.487 551.752 524.249 559.985 524.249 570.14C524.249 580.295 532.487 588.528 542.649 588.528Z" fill="#3362F3"/>
<path d="M642.194 525.824C652.356 525.824 660.594 517.591 660.594 507.436C660.594 497.281 652.356 489.048 642.194 489.048C632.032 489.048 623.794 497.281 623.794 507.436C623.794 517.591 632.032 525.824 642.194 525.824Z" fill="#3362F3"/>
<path d="M741.739 495.547C751.901 495.547 760.139 487.314 760.139 477.159C760.139 467.003 751.901 458.771 741.739 458.771C731.577 458.771 723.339 467.003 723.339 477.159C723.339 487.314 731.577 495.547 741.739 495.547Z" fill="#3362F3"/>
<path d="M841.267 484.732C851.429 484.732 859.667 476.5 859.667 466.344C859.667 456.189 851.429 447.956 841.267 447.956C831.105 447.956 822.867 456.189 822.867 466.344C822.867 476.5 831.105 484.732 841.267 484.732Z" fill="#3362F3"/>
<path d="M940.812 495.547C950.974 495.547 959.212 487.314 959.212 477.159C959.212 467.003 950.974 458.771 940.812 458.771C930.65 458.771 922.412 467.003 922.412 477.159C922.412 487.314 930.65 495.547 940.812 495.547Z" fill="#3362F3"/>
<path d="M1040.36 536.622C1050.52 536.622 1058.76 528.389 1058.76 518.234C1058.76 508.078 1050.52 499.846 1040.36 499.846C1030.19 499.846 1021.96 508.078 1021.96 518.234C1021.96 528.389 1030.19 536.622 1040.36 536.622Z" fill="#3362F3"/>
<path d="M1139.9 558.251C1150.06 558.251 1158.3 550.018 1158.3 539.863C1158.3 529.707 1150.06 521.475 1139.9 521.475C1129.74 521.475 1121.5 529.707 1121.5 539.863C1121.5 550.018 1129.74 558.251 1139.9 558.251Z" fill="#3362F3"/>
<path d="M850.5 1222C1320.22 1222 1701 1206.45 1701 1187.27C1701 1168.1 1320.22 1152.55 850.5 1152.55C380.782 1152.55 0 1168.1 0 1187.27C0 1206.45 380.782 1222 850.5 1222Z" fill="#3F3D56"/>
<path d="M95.2096 583.253C95.1433 584.685 94.6792 586.071 93.8694 587.255C100.488 587.056 106.362 582.707 112.468 580.64C111.376 587.056 112.468 594.663 113.295 600.119C114.093 605.412 115.412 610.613 117.233 615.647C121.42 633.621 129.048 651.298 135.881 668.561C138.827 675.404 141.046 682.537 142.5 689.843C147.15 717.706 131.066 744.659 128.022 772.721C127.79 774.266 127.79 775.838 128.022 777.384C127.748 777.673 127.504 777.989 127.294 778.326C116.058 795.557 117.515 824.395 119.533 844.801C121.552 865.206 128.022 884.883 134.127 904.478C135.947 909.879 137.368 915.406 138.38 921.014C139.35 928.693 139.505 936.453 138.843 944.165C136.825 980.064 131.761 1016.28 137.735 1051.65C142.086 1077.43 151.584 1100.87 152.627 1126.99C153.414 1125.06 154.665 1123.35 156.267 1122.02L158.054 1190.6C157.972 1191.24 158.046 1191.89 158.271 1192.49C158.496 1193.1 158.864 1193.64 159.345 1194.07C160.619 1194.88 162.273 1194.07 163.779 1193.86C168.147 1193.33 170.944 1198.07 173.84 1201.36C178.191 1206.32 184.893 1208.67 191.462 1209.18C198.075 1209.43 204.692 1208.83 211.152 1207.4C214.18 1206.85 217.39 1206.22 219.657 1204.09C220.817 1202.91 221.682 1201.47 222.182 1199.9C222.682 1198.32 222.804 1196.65 222.536 1195.01C221.246 1184.91 210.358 1179.16 204.881 1170.54C198.411 1160.35 199.917 1146.71 193.596 1136.41C191.429 1132.89 188.434 1129.91 186.498 1126.26C185.521 1124.01 184.751 1121.67 184.198 1119.28C186.162 1119.87 188.026 1120.76 189.724 1121.91C189.129 1116.55 188.516 1111.18 187.921 1105.8L187.656 1103.49C186.845 1096.23 186.001 1088.99 185.406 1081.71C183.37 1057.77 190.171 1034.3 185.406 1010.74C184.413 1005.78 186.001 1000.6 187.474 995.723C195.84 967.934 200.944 939.267 202.68 910.299C203.276 900.08 203.26 890.225 206.536 880.535C210.375 896.161 222.239 908.48 229.701 922.817C234.301 931.746 237.164 941.502 242.177 950.2C244.593 954.433 247.538 958.468 249.077 963.065C251.46 970.258 250.203 978.063 249.077 985.57C243.7 1024.43 244.328 1063.98 246.049 1103.17C244.415 1118.17 240.965 1132.91 235.774 1147.08C233.722 1152.67 231.488 1159.18 234.665 1164.22C236.005 1166.07 237.691 1167.65 239.629 1168.85C244.332 1172.2 249.277 1175.19 254.422 1177.8C255.95 1178.8 257.788 1179.23 259.601 1178.99C260.726 1178.6 261.786 1178.04 262.745 1177.34C266.766 1174.92 271.961 1175.3 276.396 1176.86C280.83 1178.41 284.835 1181.01 289.137 1182.88C298.156 1186.75 308.222 1187.46 317.696 1184.89C321.701 1183.79 325.97 1181.67 327.211 1177.75C328.452 1173.83 326.168 1169.7 323.008 1167.12C319.848 1164.54 315.943 1163.15 312.319 1161.26C304.377 1157.13 297.893 1150.66 293.737 1142.73C291.24 1137.5 289.277 1132.03 287.879 1126.41C285.96 1119.66 284.046 1112.91 282.138 1106.17C283.227 1106.88 284.267 1107.67 285.248 1108.53C287.946 1075.13 290.676 1041.63 297.84 1008.89C301.266 993.226 305.733 977.369 303.996 961.445C303.086 953.077 300.471 944.991 297.989 936.938C290.268 911.815 283.505 886.427 277.703 860.774C279.866 858.357 281.551 855.551 282.667 852.506C284.529 846.843 285.549 840.938 285.695 834.978C288.471 794.785 288.36 754.444 285.364 714.267C284.603 704.08 283.412 693.382 279.407 684.122H281.757C278.961 684.122 274.394 656.374 273.848 653.282C271.978 642.567 270.671 631.786 268.735 621.087C267.792 615.878 266.733 610.669 265.425 605.543C264.532 602.137 260.958 580.987 258.112 578.623C257.806 578.368 257.459 578.167 257.086 578.028C255.658 573.275 252.531 569.214 248.3 566.618C243.716 564.038 238.256 563.956 232.911 564.369C231.4 562.164 229.889 559.987 228.377 557.837C225.601 554.276 223.477 550.25 222.106 545.948C221.678 544.146 221.423 542.308 221.345 540.458C221.345 539.218 221.262 537.978 221.213 536.737C221.213 536.109 221.213 535.497 221.213 534.869C221.155 533.633 221.022 532.401 220.816 531.181V531.181C220.65 530.173 220.402 529.197 220.137 528.205C220.021 527.792 219.872 527.362 219.74 526.948C218.979 524.451 218.085 521.988 217.424 519.474C215.388 511.355 216.414 502.839 216.729 494.472C217.043 486.105 216.497 477.241 211.765 470.263C208.306 465.137 202.763 461.251 200.91 455.381C200.033 452.587 200.083 449.511 198.792 446.865C197.116 443.924 194.438 441.682 191.247 440.548C187.507 438.895 179.995 436.712 175.974 438.647C175.22 439.021 174.555 439.551 174.022 440.201C169.769 440.416 165.483 440.995 161.744 439.126C158.865 437.688 156.78 434.959 153.983 433.388C147.365 429.684 138.926 433.388 133.035 438.217C123.672 445.883 116.829 456.183 113.394 467.783C110.78 476.729 109.721 487.18 102.225 492.818C99.1147 495.15 95.1104 496.44 92.8435 499.565C91.3011 502.108 90.4459 505.009 90.3615 507.982C89.5838 514.761 88.9385 521.739 90.742 528.321C92.0989 533.282 94.7629 537.713 96.4176 542.542C98.6234 549.373 98.8183 556.694 96.979 563.634C95.1396 570.573 91.3436 576.837 86.0428 581.682C88.7772 583.378 92.0659 583.942 95.2096 583.253ZM254.323 783.882C256.575 782.664 258.538 780.974 260.077 778.927C261.616 776.881 262.696 774.527 263.241 772.026C263.423 772.671 263.572 773.316 263.738 773.961C265.861 782.595 265.429 791.66 262.497 800.055C260.3 794.413 257.563 788.997 254.323 783.882V783.882ZM257.632 747.272C254.876 743.324 252.546 739.095 250.682 734.655C248.134 727.512 248.713 719.773 249.326 712.133C249.653 706.368 250.45 700.638 251.708 695.002C252.439 712.546 254.436 730.015 257.682 747.272H257.632Z" fill="url(#paint0_linear)"/>
<path d="M193.596 444.914C196.739 446.048 199.369 448.272 201.009 451.181C202.267 453.81 202.234 456.869 203.094 459.647C204.914 465.501 210.375 469.37 213.75 474.53C218.35 481.458 218.896 490.288 218.582 498.589C218.267 506.89 217.275 515.373 219.277 523.393C220.253 527.312 221.941 531.066 222.586 535.051C223.413 539.912 222.719 544.972 223.926 549.751C225.27 554.02 227.359 558.017 230.098 561.558L240.87 577.3C236.06 576.144 231.324 574.697 226.69 572.967C228.121 577.465 230.78 581.474 234.367 584.543L226.574 575.117C224.994 572.95 223.032 571.089 220.783 569.627C217.92 567.974 214.544 567.742 211.334 567.097C205.146 565.841 198.974 562.682 195.946 557.176C191.925 549.768 194.49 540.475 192.256 532.372C190.601 526.452 186.531 521.574 183.718 516.101C177.364 503.748 177.745 489.164 175.759 475.389C174.915 469.552 173.608 463.814 173.575 457.828C173.575 453.479 174.005 445.178 178.539 442.946C182.527 441.094 189.906 443.343 193.596 444.914Z" fill="#3F3D56"/>
<path d="M280.334 1097.5L288.607 1126.89C289.977 1132.47 291.906 1137.91 294.366 1143.11C298.402 1150.97 304.755 1157.41 312.567 1161.54C316.125 1163.41 319.98 1164.85 323.074 1167.37C326.168 1169.88 328.386 1174.1 327.194 1177.93C326.003 1181.77 321.784 1183.93 317.845 1185.04C308.511 1187.59 298.585 1186.87 289.716 1183.01C285.497 1181.14 281.558 1178.56 277.207 1177.02C272.855 1175.48 267.725 1175.09 263.787 1177.5C262.844 1178.2 261.801 1178.76 260.693 1179.16C258.908 1179.4 257.095 1178.98 255.597 1177.98C250.532 1175.38 245.671 1172.41 241.052 1169.09C239.169 1167.88 237.539 1166.32 236.254 1164.49C233.11 1159.53 235.327 1152.91 237.329 1147.44C242.649 1132.78 246.112 1117.51 247.638 1101.98C247.609 1101.3 247.728 1100.61 247.988 1099.97C248.248 1099.34 248.642 1098.77 249.144 1098.3C249.877 1097.91 250.699 1097.73 251.526 1097.77L286.87 1096.11" fill="#575A89"/>
<path d="M188.831 1126.92C190.734 1130.54 193.696 1133.53 195.814 1137.02C202.019 1147.26 200.546 1160.82 206.916 1170.94C212.294 1179.5 223 1185.24 224.274 1195.28C224.535 1196.9 224.416 1198.55 223.925 1200.12C223.434 1201.68 222.584 1203.11 221.444 1204.29C219.211 1206.36 216.05 1206.97 213.072 1207.5C206.729 1208.93 200.227 1209.53 193.729 1209.28C187.259 1208.77 180.673 1206.39 176.404 1201.5C173.542 1198.19 170.812 1193.51 166.476 1194.05C164.987 1194.24 163.365 1195.06 162.108 1194.25C161.64 1193.82 161.281 1193.28 161.062 1192.69C160.844 1192.09 160.771 1191.45 160.85 1190.81L158.898 1115.62C165.153 1114.95 175.991 1112.47 182.063 1114.62C187.292 1116.45 186.448 1122.34 188.831 1126.92Z" fill="#575A89"/>
<path d="M250.583 779.352C265.839 798.318 270.356 823.436 275.254 847.281C281.564 878.038 289.319 908.453 298.519 938.526C300.968 946.529 303.483 954.566 304.426 962.883C306.081 978.724 301.746 994.483 298.37 1010.04C291.338 1042.6 288.657 1075.91 286.01 1109.11C280.717 1104.6 274.087 1101.96 267.143 1101.59C260.2 1101.23 253.328 1103.15 247.588 1107.08C245.801 1067.04 244.99 1026.6 250.418 986.877C251.444 979.419 252.685 971.664 250.418 964.52C248.895 959.923 246.016 955.938 243.617 951.738C238.653 943.073 235.873 933.383 231.356 924.503C224.092 910.25 212.426 898.046 208.654 882.469C205.427 892.126 205.444 901.915 204.865 912.068C203.184 940.888 198.187 969.419 189.973 997.096C188.516 1001.96 186.961 1007.02 187.937 1011.98C192.57 1035.43 185.886 1058.74 187.937 1082.55C188.533 1089.78 189.344 1096.99 190.138 1104.2L190.403 1106.51L192.19 1122.52C185.571 1118.01 178.572 1118.65 170.58 1119.06C167.883 1119.07 165.207 1119.54 162.671 1120.45C161.063 1121.1 159.604 1122.07 158.378 1123.29C157.153 1124.52 156.187 1125.97 155.539 1127.58C154.579 1101.62 145.23 1078.3 140.961 1052.69C135.087 1017.43 140.051 981.42 142.053 945.735C142.703 938.051 142.547 930.32 141.59 922.668C140.593 917.063 139.194 911.537 137.404 906.132C131.414 886.653 125.043 867.091 123.058 846.801C121.072 826.512 119.649 797.855 130.686 780.658C134.094 775.366 142.484 777.748 147.779 774.308C151.951 771.695 156.54 769.816 161.347 768.752C190.287 762.039 220.998 776.805 250.583 779.352Z" fill="#3C354C"/>
<path d="M198.345 543.98C198.991 551.206 200.513 559.722 207.098 562.765C210.838 564.418 215.173 563.84 219.211 564.501C226.855 565.741 233.143 571.611 236.684 578.49C240.225 585.369 241.449 593.191 242.277 600.88C243.303 610.52 243.634 620.971 238.339 629.09C234.07 635.705 226.756 639.657 219.078 641.69C211.452 643.688 203.48 643.983 195.727 642.554C187.974 641.125 180.631 638.007 174.22 633.423C168.093 628.645 162.54 623.174 157.673 617.118C146.686 604.336 135.617 590.33 133.366 573.629C133.102 571.727 133.118 569.429 134.674 568.304C135.749 567.699 136.99 567.455 138.215 567.61L148.755 567.792C151.419 567.792 154.43 567.792 156.25 565.791C158.071 563.79 157.905 561.243 157.905 558.796L157.194 528.221C157.038 527.138 157.291 526.036 157.905 525.129C158.571 524.521 159.422 524.154 160.321 524.087C166.129 523.112 172.201 524.087 177.877 522.516C183.288 521.028 191.776 514.827 195.747 521.194C199.057 526.667 197.799 537.812 198.345 543.98Z" fill="#FFC1C7"/>
<path opacity="0.1" d="M198.345 543.98C198.991 551.206 200.513 559.722 207.098 562.765C210.838 564.418 215.173 563.84 219.211 564.501C226.855 565.741 233.143 571.611 236.684 578.49C240.225 585.369 241.449 593.191 242.277 600.88C243.303 610.52 243.634 620.971 238.339 629.09C234.07 635.705 226.756 639.657 219.078 641.69C211.452 643.688 203.48 643.983 195.727 642.554C187.974 641.125 180.631 638.007 174.22 633.423C168.093 628.645 162.54 623.174 157.673 617.118C146.686 604.336 135.617 590.33 133.366 573.629C133.102 571.727 133.118 569.429 134.674 568.304C135.749 567.699 136.99 567.455 138.215 567.61L148.755 567.792C151.419 567.792 154.43 567.792 156.25 565.791C158.071 563.79 157.905 561.243 157.905 558.796L157.194 528.221C157.038 527.138 157.291 526.036 157.905 525.129C158.571 524.521 159.422 524.154 160.321 524.087C166.129 523.112 172.201 524.087 177.877 522.516C183.288 521.028 191.776 514.827 195.747 521.194C199.057 526.667 197.799 537.812 198.345 543.98Z" fill="black"/>
<path d="M171.821 541.979C194.055 541.979 212.079 523.967 212.079 501.748C212.079 479.528 194.055 461.516 171.821 461.516C149.587 461.516 131.563 479.528 131.563 501.748C131.563 523.967 149.587 541.979 171.821 541.979Z" fill="#FFC1C7"/>
<path d="M215.107 613.662C221.61 613.778 228.957 612.009 232.1 606.254C234.252 602.352 233.904 597.606 233.49 593.174L231.157 568.37C237.478 567.709 244.279 567.147 249.789 570.272C257.119 574.423 259.717 583.617 260.577 591.984C262.116 607.693 259.618 623.551 260.478 639.309C261.206 652.538 264.267 666.197 260.362 678.88C258.708 684.171 255.961 689.049 254.174 694.291C251.94 700.905 251.361 708.016 250.864 715.011C250.252 722.518 249.673 730.29 252.188 737.4C254.29 743.353 258.393 748.363 261.322 753.936C266.12 763.163 267.146 775.598 259.932 783.089C253.313 789.935 242.426 790.216 233.176 788.049C223.926 785.883 214.975 781.749 205.543 781.352C188.798 780.641 173.873 791.505 157.558 795.028C155.37 795.613 153.079 795.692 150.856 795.259C148.89 794.623 147.06 793.625 145.462 792.316L136.494 785.867C134.701 784.795 133.21 783.288 132.158 781.485C131.407 779.479 131.213 777.308 131.596 775.201C134.607 747.288 150.409 720.5 145.843 692.803C144.423 685.541 142.249 678.448 139.356 671.637C127.989 642.567 114.354 612.372 118.772 581.467C119.732 574.621 121.751 567.626 126.466 562.566C131.182 557.506 139.158 554.993 145.263 558.234C151.369 561.475 153.537 568.685 156.234 574.952C161.431 587.135 169.683 597.773 180.193 605.841C184.628 609.247 190.006 613.596 195.814 613.745C201.87 613.96 208.488 613.53 215.107 613.662Z" fill="#F9A826"/>
<path d="M273.418 676.168C283.18 686.999 285.099 702.625 286.175 717.144C289.134 757.091 289.239 797.199 286.489 837.161C286.35 843.088 285.352 848.964 283.528 854.606C281.443 860.146 277.538 865.272 272.044 867.488C268.52 868.91 263.605 868.529 262.017 865.074C260.561 861.915 262.728 858.459 264.366 855.317C268.129 848.258 269.389 840.133 267.941 832.266C265.938 833.721 265.227 836.351 264.631 838.765L261.438 852.192C257.119 851.564 255.497 846.289 254.819 841.989C253.561 834.184 252.354 825.867 255.481 818.608C257.136 814.738 259.949 811.448 261.62 807.578C265.839 797.855 267.494 786.743 264.78 776.491C255.632 741.878 251.64 706.107 252.933 670.331C259.199 673.877 266.222 675.878 273.418 676.168V676.168Z" fill="#FFC1C7"/>
<path d="M282.634 687.065C270.618 687.186 258.661 688.763 247.026 691.761C245.487 684.188 246.231 676.35 247.026 668.611L252.155 615.696C252.536 611.777 251.808 575.778 259.403 582.145C262.199 584.493 265.723 605.527 266.6 608.916C267.924 614.009 268.966 619.169 269.91 624.361C271.813 634.993 273.103 645.725 274.874 656.374C275.387 659.533 279.887 687.065 282.634 687.065Z" fill="#F9A826"/>
<path d="M187.176 450.602C187.226 449.343 186.94 448.094 186.349 446.981C185.825 446.325 185.17 445.786 184.427 445.396C183.684 445.006 182.868 444.774 182.03 444.715C176.206 443.806 169.835 446.154 164.59 443.492C161.744 442.053 159.725 439.358 156.962 437.787C150.343 434.099 142.07 437.787 136.361 442.599C127.141 450.244 120.422 460.472 117.068 471.966C114.487 480.863 113.444 491.264 106.081 496.869C103.02 499.184 99.0816 500.474 96.8478 503.583C95.3446 506.087 94.5072 508.933 94.4154 511.851C93.6543 518.598 93.0089 525.543 94.7794 532.091C96.1197 537.052 98.7341 541.417 100.372 546.212C102.565 553.019 102.766 560.31 100.951 567.227C99.1369 574.143 95.3823 580.398 90.1298 585.254C92.8155 586.934 96.0541 587.492 99.1478 586.808C99.0782 588.23 98.6267 589.606 97.8406 590.793C107.256 590.495 115.446 581.318 124.663 583.319C131.712 584.84 135.633 592.099 140.879 597.044C147.646 603.393 158.153 606.056 166.642 602.286C175.13 598.515 180.293 587.8 176.686 579.235C172.582 569.495 159.924 565.642 155.539 556.084C152.147 548.643 154.662 539.929 153.884 531.777C153.272 524.782 150.244 518.25 148.358 511.471C146.471 504.691 145.859 496.952 149.698 491.065C153.768 484.798 161.562 482.367 168.66 480.052C184.694 474.844 187.772 466.774 187.176 450.602Z" fill="#3F3D56"/>
<path d="M177.281 595.241C178.423 589.619 179.565 583.666 177.529 578.275C173.773 568.354 161.446 565.163 152.925 558.73C147.988 554.98 144.195 549.93 141.971 544.145C140.432 540.078 140.217 534.489 144.022 532.405C145.503 531.711 147.142 531.42 148.771 531.562C162.009 531.876 174.237 539.085 184.413 547.635C190.337 552.595 195.996 558.284 198.908 565.427C200.756 570.576 201.87 575.958 202.217 581.417L204.352 599.425C205.751 609.761 206.58 620.167 206.834 630.595C206.84 636.56 206.464 642.52 205.708 648.437C205.179 652.637 204.385 656.986 201.919 660.426C197.336 666.842 188.483 668.28 180.591 668.495C177.606 668.665 174.612 668.476 171.672 667.933C158.55 665.089 148.589 646.717 158.534 635.374C162.753 630.562 169.074 630.413 171.49 623.799C174.601 615.018 175.395 604.386 177.281 595.241Z" fill="#FFC1C7"/>
<path d="M166.609 598.4L177.05 615.316C177.671 616.188 178.104 617.179 178.324 618.226C178.605 620.426 176.967 622.377 175.66 624.179C166.724 636.35 169.041 653.117 171.688 667.966C157.437 663.467 144.746 655.041 135.072 643.657C125.398 632.272 119.135 618.391 117.002 603.609C115.694 594.762 113.593 580.194 121.453 574.439C140.299 560.549 157.74 583.898 166.609 598.4Z" fill="#F9A826"/>
<path d="M219.211 564.501C215.173 563.84 210.838 564.501 207.098 562.765C200.48 559.722 198.991 551.19 198.345 543.98C198.345 543.302 198.262 542.575 198.229 541.797C200.591 539.379 203.154 537.167 205.89 535.183C208.359 533.738 210.985 532.578 213.717 531.727L221.031 529.164C221.729 531.099 222.282 533.083 222.685 535.1C223.513 539.962 222.818 545.022 224.026 549.801C225.369 554.07 227.459 558.067 230.198 561.607L240.969 577.35C239.017 576.887 237.081 576.374 235.162 575.812C231.405 570.107 225.829 565.576 219.211 564.501Z" fill="#3F3D56"/>
<path d="M1679.49 634.15C1677.57 624.841 1673.98 615.961 1671.81 606.734C1670.92 601.916 1669.72 597.16 1668.22 592.496C1667.45 590.469 1666.5 588.52 1665.36 586.676L1666.38 585.717C1662.98 579.962 1662.84 572.753 1661.24 566.204C1659.85 560.566 1657.08 555.406 1655.41 549.85C1653.1 542.145 1652.78 533.447 1648 527.081C1646.11 524.567 1643.65 522.599 1641.55 520.268C1639.13 517.606 1637.23 514.48 1634.78 511.868C1627.66 504.294 1616.94 501.946 1606.8 500.855C1596.66 499.763 1586.17 499.78 1576.82 495.563C1572.9 493.794 1568.76 491.264 1564.66 491.562C1562.35 489.341 1560.23 486.935 1558.32 484.368C1555.2 480.59 1552.37 476.582 1549.85 472.38C1551.82 469.045 1553.34 465.464 1554.38 461.731L1555.06 461.251C1557.72 459.234 1560.02 456.605 1562.64 454.637C1564.94 452.983 1567.9 451.247 1568.15 448.304C1568.39 445.36 1565.73 443.111 1564.08 440.681C1558.1 431.966 1564.7 418.324 1558.58 409.709C1555.52 405.393 1550.18 403.756 1545.35 401.656C1538.73 398.746 1532.82 394.562 1526.25 391.735C1519.68 388.907 1512.09 387.369 1505.47 390.081C1493.09 395.207 1488.64 412.818 1476.06 417.415C1474.7 417.691 1473.47 418.419 1472.57 419.482C1471.03 421.995 1469 436.795 1469.36 439.854C1469.84 443.905 1470.82 445.906 1473.62 447.328C1473.62 448.188 1473.62 449.064 1473.62 449.941C1473.62 470.991 1488.21 488.469 1507.45 492.074C1509.3 494.017 1510.87 496.203 1512.12 498.573C1513.09 501.084 1513.65 503.737 1513.77 506.427C1513.08 506.097 1512.32 505.938 1511.56 505.964C1510.33 506.138 1509.19 506.664 1508.25 507.477C1507.32 508.29 1506.65 509.356 1506.31 510.545C1505.63 512.973 1505.35 515.5 1505.5 518.019C1505.61 518.797 1505.53 519.588 1505.28 520.331C1505.02 521.074 1504.6 521.749 1504.04 522.302C1503.44 522.668 1502.75 522.883 1502.04 522.93C1499.49 523.409 1496.9 523.674 1494.3 523.724C1490 523.724 1485.38 522.649 1481.59 524.749C1477.8 526.849 1476.08 531.363 1474.26 535.448C1471.62 541.292 1468.15 546.723 1463.95 551.57C1459.32 556.928 1453.56 562.004 1452.25 569.098C1452.24 569.263 1452.24 569.429 1452.25 569.594C1448.63 571.248 1444.92 575.216 1442.33 577.217C1437.34 581.072 1432.55 585.173 1427.98 589.503C1423.33 593.985 1417.06 599.541 1414.18 605.527C1412.71 608.087 1410.76 610.334 1408.42 612.141C1403.71 615.2 1397.62 613.58 1392.3 611.86C1377.58 607.114 1362.77 602.319 1349.04 595.059C1348.36 594.592 1347.54 594.387 1346.72 594.481C1346.27 594.622 1345.87 594.885 1345.56 595.241C1345.45 595.069 1345.33 594.904 1345.2 594.745C1341.49 590.744 1335.67 590.479 1333.61 584.361C1333.04 582.419 1332.64 580.434 1332.41 578.424C1331.11 572.575 1329.01 566.933 1326.17 561.657C1325.75 560.569 1325.04 559.618 1324.12 558.912C1323.24 558.491 1322.24 558.418 1321.32 558.711C1320.4 559.003 1319.62 559.637 1319.15 560.483C1318.2 562.212 1317.83 564.2 1318.09 566.155C1318.23 568.304 1318.54 570.801 1317.05 572.339C1316.45 572.902 1315.72 573.311 1314.93 573.53C1310.15 575.084 1304.89 573.695 1300.42 571.364C1295.95 569.032 1291.93 565.791 1287.51 563.327C1285.18 562.049 1282.77 560.912 1280.3 559.921C1277.75 558.862 1274.21 558.168 1272.79 560.599C1271.65 562.55 1272.79 565.047 1274.11 566.899C1276.33 570.097 1278.91 573.027 1281.81 575.63C1290.41 583.319 1301.25 587.602 1311.34 592.959C1320.14 597.637 1328.46 603.177 1336.16 609.495C1335.86 610.457 1335.68 611.451 1335.62 612.455C1335.62 614.408 1336.03 616.338 1336.82 618.123C1337.62 619.909 1338.77 621.509 1340.22 622.823C1343.07 625.363 1346.29 627.469 1349.76 629.074C1367.28 638.168 1384.93 647.026 1402.71 655.647C1403.84 656.303 1405.1 656.709 1406.4 656.837C1410.01 656.92 1412.31 653.018 1415.21 650.769C1418.1 648.52 1421.82 647.892 1425.32 646.718C1431.52 644.584 1436.9 640.533 1442.21 636.531L1459.14 623.733C1467.66 617.3 1476.4 610.504 1483.54 602.567C1484.45 604.462 1485.73 606.151 1487.32 607.528C1485.93 610.62 1488.82 613.828 1489.52 617.168C1489.76 619.364 1489.82 621.576 1489.7 623.782C1489.99 627.002 1490.55 630.192 1491.35 633.323C1492.17 638.436 1492.54 643.608 1492.48 648.785C1492.48 654.556 1492.66 660.36 1492.74 666.114C1492.86 673.588 1492.97 681.145 1491.4 688.437C1489.27 698.359 1484.04 707.784 1484.45 717.971C1484.75 719.871 1484.57 721.817 1483.91 723.626C1479.59 731.894 1476.18 741.005 1471.53 749.141C1470.16 751.117 1469.04 753.262 1468.22 755.524C1467.64 757.885 1467.88 760.372 1468.88 762.584C1467.04 765.884 1466 769.573 1465.85 773.349C1465.54 782.692 1469.3 791.539 1471.1 800.749C1472.75 809.199 1472.75 817.864 1473 826.479C1474.28 866.793 1482.17 906.645 1483.81 946.943C1484.58 965.523 1484.03 984.134 1482.15 1002.64C1480.95 1014.57 1479.16 1026.48 1478.5 1038.49C1476.59 1072.55 1483.71 1106.28 1490.77 1139.68C1492.91 1137.18 1495.91 1135.55 1499.18 1135.14C1498.32 1138.44 1497.18 1142.74 1495.99 1145.92C1494.26 1146.16 1492.6 1146.76 1491.12 1147.67C1487 1150.3 1485.6 1155.69 1483.2 1160.06C1477.95 1169.56 1467.64 1174.44 1459.19 1180.97C1455.13 1184.1 1451.05 1188.88 1452.32 1193.96C1466.96 1198.21 1482.91 1201.98 1497 1196.12C1502.72 1193.76 1508.08 1189.84 1514.22 1189.64C1518.89 1189.49 1523.65 1191.52 1528.12 1190.14C1529.23 1189.84 1530.2 1189.17 1530.87 1188.23C1531.39 1187.21 1531.64 1186.07 1531.59 1184.93C1531.98 1177.15 1531.94 1169.36 1531.5 1161.59C1531.12 1154.98 1531.79 1150.02 1526.42 1149.09C1525.08 1145.77 1524.09 1142.32 1523.45 1138.79C1523.45 1138.15 1523.31 1137.47 1523.22 1136.79C1524.7 1136.8 1526.18 1136.68 1527.64 1136.43C1528.54 1136.27 1529.43 1136.06 1530.3 1135.8C1530.02 1134.66 1529.77 1133.5 1529.54 1132.36C1529.08 1130.06 1528.72 1127.76 1528.42 1125.46C1528.12 1123.17 1527.9 1120.83 1527.74 1118.52C1527.74 1117.34 1527.61 1116.19 1527.56 1115.01C1527.46 1112.68 1527.43 1110.35 1527.44 1108C1527.46 1105.65 1527.44 1103.32 1527.61 1100.97C1527.77 1098.63 1527.84 1096.28 1528 1093.93C1528.4 1088.06 1528.98 1082.19 1529.56 1076.37C1531.25 1059.27 1532.95 1042.18 1534.66 1025.11C1535.15 1019.98 1535.67 1014.84 1535.73 1009.7C1535.8 1006.62 1535.65 1003.54 1535.3 1000.49C1534.42 993.078 1532.09 985.603 1531.99 978.295C1531.96 977.075 1532.01 975.854 1532.12 974.64C1532.24 973.414 1532.44 972.198 1532.74 971.002C1532.89 970.341 1533.08 969.679 1533.28 969.035C1533.7 967.728 1534.16 966.455 1534.57 965.149C1534.79 964.504 1534.99 963.842 1535.17 963.181C1535.84 960.388 1536.25 957.536 1536.38 954.665C1536.38 953.706 1536.49 952.747 1536.54 951.788L1538.58 911.473C1538.91 905.008 1539.45 898.03 1541.99 892.259C1543.07 889.712 1544.67 887.411 1546.67 885.495C1546.16 884.123 1546.67 881.808 1548.09 881.444C1549.76 902.024 1549.55 922.712 1547.48 943.255C1546.75 949.704 1545.68 956.104 1545.38 962.586C1544.75 976.873 1547.91 991.011 1549.02 1005.26C1550.13 1019.52 1549.02 1034.2 1549.02 1048.67C1548.9 1073.56 1551.65 1098.36 1554.38 1123.08L1556.03 1124.17C1556.03 1126.36 1556.28 1128.74 1556.25 1130.79C1556.19 1131.5 1556.27 1132.22 1556.46 1132.9H1555.77C1554.17 1133.04 1552.62 1133.56 1551.27 1134.43C1549.91 1135.29 1548.79 1136.47 1547.99 1137.87C1546.35 1140.7 1545.17 1143.76 1544.47 1146.96C1543.66 1149.32 1543.32 1151.81 1543.48 1154.3C1544.1 1159.02 1548.11 1162.57 1549.17 1167.2C1551.1 1175.58 1542.88 1184.63 1546.62 1192.33C1549 1197.3 1555.01 1198.67 1560.25 1199.53C1568.26 1200.83 1577.38 1201.88 1583.68 1196.57C1585.4 1195.08 1586.77 1193.24 1587.69 1191.17C1588.62 1189.11 1589.09 1186.86 1589.06 1184.6C1589.06 1178.54 1585.47 1173.15 1583.9 1167.33C1581.68 1159.16 1584.99 1148.18 1581.5 1140.64C1581.22 1139.85 1580.78 1139.12 1580.21 1138.49H1581.4C1581.12 1135.73 1580.84 1132.95 1580.54 1130.23L1583.32 1128.8C1586.18 1127.37 1589.49 1126.27 1592.47 1127.4C1591.36 1113.19 1591.05 1097.5 1594.32 1083.68C1596.87 1072.76 1601.44 1062.41 1603.56 1051.4C1605.21 1042.32 1605.33 1033 1605.36 1023.75C1605.36 1006.59 1605.36 989.307 1602.48 972.491C1601.32 965.744 1599.67 958.832 1600.93 952.085C1601.75 947.637 1603.77 943.536 1604.96 939.171C1607.74 928.968 1605.71 918.005 1607.36 907.538C1611.3 882.535 1613.39 856.442 1616.38 831.324C1617.87 817.089 1618.38 802.768 1617.9 788.463V788.298L1623.84 776.722C1628.1 768.455 1632.41 760.054 1635 751.175C1635.89 752.422 1636.6 753.785 1637.13 755.226L1663.24 711.869C1664.93 709.304 1666.28 706.523 1667.23 703.601C1667.82 701.501 1668.02 699.302 1668.47 697.168C1669.64 691.629 1672.46 686.635 1674.71 681.476C1681.09 666.556 1682.76 650.044 1679.49 634.15V634.15ZM1640.42 655.911C1639.21 663.036 1637.55 670.077 1635.46 676.995C1632.02 688.867 1628.03 700.542 1624.04 712.233L1620.62 722.154C1619.43 726.149 1617.66 729.945 1615.35 733.415C1614.83 734.282 1614.36 735.182 1613.95 736.11C1610.41 722.882 1614.25 707.999 1613.43 693.894C1612.82 683.229 1609.51 672.398 1612 662.063C1613.65 655.101 1617.82 649.115 1620.75 642.6C1623.48 636.548 1625.18 629.95 1628.26 624.113C1628.26 624.229 1628.26 624.328 1628.38 624.427C1631.11 631.616 1634.39 638.587 1638.19 645.279C1639.25 646.791 1640.06 648.466 1640.59 650.24C1640.93 652.13 1640.89 654.07 1640.47 655.945L1640.42 655.911Z" fill="url(#paint1_linear)"/>
<path d="M1333.18 584.311C1332.59 582.368 1332.17 580.376 1331.93 578.358C1330.85 572.422 1328.1 566.948 1325.41 561.541C1324.98 560.434 1324.24 559.474 1323.27 558.78C1322.37 558.379 1321.36 558.318 1320.41 558.606C1319.47 558.895 1318.66 559.515 1318.14 560.351C1317.16 562.076 1316.77 564.073 1317.03 566.039C1317.18 568.222 1317.51 570.719 1315.98 572.256C1315.34 572.824 1314.57 573.232 1313.74 573.447C1308.78 575.018 1303.27 573.612 1298.58 571.281C1293.9 568.949 1289.73 565.675 1285.12 563.211C1282.67 561.932 1280.16 560.795 1277.59 559.805C1274.92 558.73 1271.23 558.036 1269.74 560.483C1268.55 562.434 1269.74 564.931 1271.12 566.8C1273.44 570.026 1276.14 572.962 1279.16 575.547C1288.13 583.269 1299.46 587.569 1310 592.943C1321.81 598.965 1332.82 606.443 1342.76 615.2C1343.73 614.057 1344.31 612.64 1344.42 611.149C1345.21 606.932 1348.7 598.4 1345.18 594.745C1341.32 590.727 1335.32 590.462 1333.18 584.311Z" fill="#A0616A"/>
<path d="M1499.13 1152.14C1507.96 1159.03 1519.16 1162.16 1530.29 1160.87C1532.6 1160.59 1535.25 1159.76 1536.01 1157.56C1536.29 1156.22 1536.14 1154.84 1535.58 1153.59C1533.83 1149.43 1532.49 1145.11 1531.56 1140.69C1530.98 1136.67 1531.13 1131.9 1527.86 1129.48C1523.12 1125.99 1510.75 1126.17 1507.67 1131.58C1506.94 1132.74 1502.31 1154.8 1499.13 1152.14Z" fill="#3C354C"/>
<path d="M1565.8 1132.62C1565.68 1133.06 1565.66 1133.52 1565.74 1133.96C1565.82 1134.41 1565.99 1134.83 1566.25 1135.21C1566.5 1135.58 1566.84 1135.89 1567.22 1136.13C1567.61 1136.36 1568.04 1136.51 1568.49 1136.56C1576.09 1138.91 1583.97 1140.23 1591.92 1140.48L1590.27 1124.57C1590.3 1124.22 1590.26 1123.86 1590.14 1123.52C1590.02 1123.18 1589.82 1122.88 1589.57 1122.62C1589.32 1122.37 1589.02 1122.17 1588.69 1122.05C1588.35 1121.92 1587.99 1121.87 1587.64 1121.89C1583.07 1121.13 1573.47 1118.04 1569.09 1119.63C1564.16 1121.41 1565.9 1127.88 1565.8 1132.62Z" fill="#3C354C"/>
<path d="M1519.58 498.126C1520.87 501.465 1521.5 505.017 1521.45 508.593C1521.87 521.409 1519.66 535.249 1510.73 544.443C1520.76 541.45 1532.03 543.253 1541.49 538.788C1545.87 536.721 1549.56 533.43 1553.67 530.867C1560.98 526.303 1569.5 524.088 1577.11 520.02C1584.73 515.952 1591.78 509.09 1592.21 500.491C1588.9 497.018 1583.58 496.522 1579.25 494.422C1574.58 492.14 1571.13 487.973 1567.83 483.955C1563.95 479.525 1560.54 474.698 1557.67 469.552C1554.79 464.369 1553.63 458.405 1554.36 452.52C1545.91 454.042 1539.77 461.417 1531.78 464.575C1528.67 465.799 1525.31 466.361 1522.28 467.766C1517.96 469.751 1509.21 476.497 1509.04 481.789C1509.06 487.56 1517.33 493.033 1519.58 498.126Z" fill="#A0616A"/>
<path opacity="0.1" d="M1519.58 498.126C1520.87 501.465 1521.5 505.017 1521.45 508.593C1521.87 521.409 1519.66 535.249 1510.73 544.443C1520.76 541.45 1532.03 543.253 1541.49 538.788C1545.87 536.721 1549.56 533.43 1553.67 530.867C1560.98 526.303 1569.5 524.088 1577.11 520.02C1584.73 515.952 1591.78 509.09 1592.21 500.491C1588.9 497.018 1583.58 496.522 1579.25 494.422C1574.58 492.14 1571.13 487.973 1567.83 483.955C1563.95 479.525 1560.54 474.698 1557.67 469.552C1554.79 464.369 1553.63 458.405 1554.36 452.52C1545.91 454.042 1539.77 461.417 1531.78 464.575C1528.67 465.799 1525.31 466.361 1522.28 467.766C1517.96 469.751 1509.21 476.497 1509.04 481.789C1509.06 487.56 1517.33 493.033 1519.58 498.126Z" fill="black"/>
<path d="M1628.44 832.084C1625.32 857.285 1623.15 883.478 1619.03 908.563C1617.37 919.063 1619.42 930.059 1616.53 940.312C1615.29 944.694 1613.22 948.811 1612.31 953.259C1611 960.039 1612.72 966.967 1613.96 973.747C1617.01 990.696 1617.01 1008.04 1616.96 1025.27C1616.96 1034.55 1616.96 1043.91 1615.09 1053.02C1612.87 1064.08 1608.11 1074.52 1605.44 1085.4C1602.02 1099.29 1602.35 1115.03 1603.51 1129.28C1600.4 1128.16 1596.89 1129.28 1593.94 1130.69C1591 1132.09 1588.02 1134 1584.73 1134.21C1580.28 1134.62 1576.09 1132.28 1572.25 1129.99C1569.3 1128.26 1566.74 1126.69 1563.81 1124.9C1560.95 1100.1 1558.09 1075.19 1558.2 1050.21C1558.2 1035.69 1559.34 1021.14 1558.2 1006.65C1557.06 992.168 1553.73 978.146 1554.41 963.826C1554.73 957.31 1555.84 950.895 1556.58 944.429C1559.03 923.495 1558.7 903.42 1557.23 882.403C1555.79 882.767 1555.21 885.082 1555.74 886.454C1553.63 888.357 1551.95 890.67 1550.77 893.25C1548.13 899.038 1547.56 906.049 1547.22 912.531L1545.08 952.995C1545.02 956.844 1544.55 960.675 1543.66 964.421C1542.91 967.083 1541.79 969.597 1541.11 972.275C1538.68 981.965 1542.58 991.953 1543.82 1001.86C1544.83 1010.13 1543.97 1018.39 1543.13 1026.56L1537.82 1078.02C1535.88 1096.74 1533.99 1115.86 1537.82 1134.24C1538.06 1135.39 1538.31 1136.54 1538.61 1137.7C1537.7 1137.96 1536.77 1138.17 1535.83 1138.33C1532.54 1138.79 1529.2 1138.79 1525.9 1138.33C1522.83 1138.01 1519.71 1137.49 1516.67 1137.12C1509.36 1136.29 1502.06 1135.98 1497.21 1141.5C1489.83 1108.07 1482.42 1074.12 1484.39 1039.94C1485.08 1027.9 1486.94 1015.95 1488.21 1003.96C1490.19 985.404 1490.79 966.727 1490 948.083C1488.34 907.637 1480.07 867.636 1478.7 827.173C1478.41 818.541 1478.45 809.827 1476.73 801.361C1474.84 792.183 1470.92 783.171 1471.23 773.862C1471.55 764.552 1478.35 754.217 1487.78 754.73C1513.81 756.168 1537.59 741.815 1563.55 739.368C1575.33 738.243 1587.31 736.573 1598.97 738.673C1610.64 740.773 1622.25 747.371 1626.84 758.285C1629.32 764.221 1629.52 770.802 1629.7 777.218C1630.23 795.54 1630.71 813.911 1628.44 832.084Z" fill="#575A89"/>
<path d="M1497.69 1149.52C1493.39 1152.17 1491.92 1157.58 1489.42 1161.96C1483.94 1171.5 1473.19 1176.39 1464.35 1182.94C1460.11 1186.1 1455.84 1190.88 1457.18 1195.99C1472.47 1200.24 1489.12 1204.03 1503.86 1198.16C1509.84 1195.77 1515.45 1191.84 1521.85 1191.64C1526.73 1191.49 1531.78 1193.54 1536.36 1192.14C1537.52 1191.87 1538.54 1191.19 1539.24 1190.23C1539.78 1189.22 1540.04 1188.08 1540 1186.93C1540.4 1179.12 1540.36 1171.3 1539.88 1163.5C1539.42 1155.87 1540.45 1150.48 1531.74 1150.81C1521.75 1151.24 1506.36 1144.18 1497.69 1149.52Z" fill="#CBCEDA"/>
<path d="M1570.96 1135.96C1569.15 1135.24 1567.24 1134.81 1565.3 1134.69C1563.65 1134.82 1562.06 1135.34 1560.64 1136.2C1559.23 1137.06 1558.04 1138.24 1557.18 1139.65C1555.47 1142.48 1554.23 1145.56 1553.5 1148.78C1552.66 1151.14 1552.31 1153.64 1552.48 1156.14C1553.12 1160.87 1557.31 1164.41 1558.42 1169.07C1560.42 1177.49 1551.8 1186.56 1555.74 1194.3C1558.23 1199.26 1564.51 1200.65 1569.98 1201.51C1578.36 1202.84 1587.87 1203.88 1594.46 1198.54C1596.23 1197.08 1597.65 1195.25 1598.62 1193.18C1599.59 1191.1 1600.09 1188.84 1600.08 1186.55C1599.98 1180.46 1596.33 1175.05 1594.67 1169.2C1592.37 1160.93 1595.83 1149.99 1592.17 1142.43C1589.04 1135.96 1577.63 1138.1 1570.96 1135.96Z" fill="#CBCEDA"/>
<path d="M1522.38 492.306C1546.13 492.306 1565.38 473.064 1565.38 449.329C1565.38 425.594 1546.13 406.352 1522.38 406.352C1498.63 406.352 1479.37 425.594 1479.37 449.329C1479.37 473.064 1498.63 492.306 1522.38 492.306Z" fill="#A0616A"/>
<path d="M1545.18 519.755C1540.54 517.784 1535.38 517.395 1530.5 518.647L1526.58 511.818C1524.93 508.808 1522.46 505.402 1519 505.534C1517.74 505.697 1516.56 506.219 1515.59 507.037C1514.61 507.855 1513.9 508.935 1513.53 510.148C1512.81 512.576 1512.52 515.111 1512.67 517.639C1512.78 518.426 1512.7 519.229 1512.44 519.98C1512.18 520.731 1511.74 521.408 1511.16 521.954C1510.52 522.306 1509.81 522.52 1509.08 522.583C1506.4 523.053 1503.7 523.319 1500.98 523.377C1496.48 523.377 1491.67 522.285 1487.75 524.402C1483.82 526.518 1482 531.016 1480.1 535.15C1477.33 541.037 1473.7 546.486 1469.35 551.322C1464.5 556.696 1458.49 561.789 1457.12 568.9C1456.54 571.926 1459.29 574.175 1461.47 576.357C1470.16 584.973 1482.27 590.264 1488.71 600.682C1490.21 603.112 1491.44 605.857 1493.75 607.527C1492.31 610.653 1495.41 613.861 1496.05 617.218C1496.31 619.413 1496.37 621.626 1496.23 623.832C1496.52 627.063 1497.08 630.266 1497.89 633.406C1498.74 638.532 1499.13 643.722 1499.06 648.917L1499.35 666.313C1499.46 673.82 1499.58 681.393 1497.94 688.719C1495.71 698.64 1490.24 708.148 1490.68 718.351C1490.99 720.263 1490.8 722.226 1490.11 724.039C1485.6 732.307 1482.04 741.468 1477.19 749.637C1475.81 751.618 1474.69 753.776 1473.88 756.053C1472.59 760.765 1475.24 765.875 1479.14 768.818C1483.05 771.762 1487.98 772.969 1492.78 773.878C1537.35 782.411 1583.63 772.142 1625.76 755.275C1626.87 754.928 1627.9 754.367 1628.79 753.622C1631.87 750.629 1629.45 745.585 1627.7 741.683C1621.08 727.148 1626.36 710.265 1625.41 694.39C1624.79 683.692 1621.31 672.894 1623.93 662.443C1625.58 655.465 1630 649.446 1633.06 642.931C1636.37 635.87 1638.22 628.049 1642.56 621.6C1645.8 617.168 1649.6 613.167 1653.86 609.694L1680.75 585.75C1677.19 579.979 1677.04 572.736 1675.37 566.171C1673.91 560.516 1671.02 555.324 1669.28 549.768C1666.86 542.029 1666.53 533.232 1661.54 526.899C1659.57 524.369 1657 522.401 1654.8 520.069C1652.29 517.391 1650.3 514.265 1647.74 511.636C1640.31 504.03 1629.1 501.615 1618.53 500.59C1607.96 499.565 1597.02 499.515 1587.23 495.282C1582.43 493.215 1577.3 490.09 1572.33 491.644C1568.39 492.868 1565.86 496.721 1564.26 500.54C1562.65 504.36 1561.53 508.478 1558.9 511.669C1555.65 515.472 1549.91 517.986 1545.18 519.755Z" fill="#3C354C"/>
<path d="M1417.22 605.543C1415.67 608.12 1413.62 610.367 1411.2 612.158C1406.24 615.217 1399.93 613.596 1394.39 611.876C1379.02 607.098 1363.55 602.302 1349.2 595.01C1348.49 594.534 1347.63 594.329 1346.78 594.431C1346.12 594.644 1345.54 595.061 1345.13 595.622C1342.87 598.121 1340.8 600.779 1338.93 603.575C1336.94 606.169 1335.7 609.248 1335.32 612.488C1335.33 614.462 1335.76 616.41 1336.59 618.204C1337.41 619.997 1338.61 621.595 1340.1 622.889C1343.09 625.441 1346.44 627.551 1350.03 629.156C1368.33 638.284 1386.75 647.175 1405.29 655.829C1406.48 656.489 1407.8 656.895 1409.15 657.019C1412.92 657.102 1415.32 653.183 1418.33 650.934C1421.34 648.685 1425.3 648.057 1428.89 646.866C1435.38 644.733 1441.02 640.665 1446.54 636.647L1464.22 623.815C1479.7 612.571 1495.97 600.318 1502.74 582.476L1481.23 575.398C1474.77 573.265 1467.99 570.024 1461.29 568.784C1456.32 567.825 1450.35 574.373 1446.63 577.168C1441.39 581.046 1436.36 585.191 1431.55 589.586C1426.79 593.952 1420.24 599.541 1417.22 605.543Z" fill="#3C354C"/>
<path d="M1620.83 746.71C1614.76 749.124 1607.88 745.486 1601.44 746.561C1598.42 747.235 1595.54 748.426 1592.93 750.083L1574.14 760.583C1572.98 761.212 1571.72 762.75 1572.73 763.576C1573.02 763.769 1573.36 763.883 1573.71 763.907C1579.98 764.717 1585.84 760.898 1592.07 759.839C1594.81 759.466 1597.59 759.361 1600.35 759.525C1600.8 759.498 1601.26 759.566 1601.69 759.724C1602.14 759.985 1602.52 760.371 1602.76 760.837C1603.01 761.302 1603.12 761.828 1603.08 762.353C1603.08 763.411 1602.76 764.436 1602.73 765.495C1602.92 767.932 1603.87 770.248 1605.46 772.109C1611.44 780.69 1618.08 788.795 1625.32 796.351C1627.15 794.032 1628.74 791.526 1630.05 788.876L1636.24 777.301C1642.66 765.362 1649.23 752.977 1650.25 739.467C1645.62 737.995 1637.01 733.117 1632.23 735.68C1627.45 738.244 1626.34 744.941 1620.83 746.71Z" fill="#A0616A"/>
<path d="M1516.93 442.467C1529.05 443.756 1540.1 449.478 1550.94 455.1C1549.08 458.01 1551.43 462.194 1554.73 463.186C1558.02 464.178 1561.63 462.773 1564.42 460.739C1567.22 458.705 1569.52 456.076 1572.33 454.124C1574.75 452.471 1577.83 450.718 1578.09 447.775C1578.36 444.831 1575.58 442.566 1573.84 440.119C1567.6 431.371 1574.5 417.679 1568.11 409.031C1564.9 404.699 1559.33 403.062 1554.38 400.945C1547.53 398.035 1541.29 393.835 1534.42 390.941C1527.56 388.047 1519.65 386.542 1512.73 389.287C1499.79 394.43 1495.16 412.107 1482.02 416.72C1480.61 416.999 1479.32 417.73 1478.36 418.804C1476.71 421.317 1474.64 436.183 1475.05 439.242C1475.68 444.352 1477.09 446.237 1482.12 447.758C1492.88 450.966 1505.42 441.226 1516.93 442.467Z" fill="#3F3D56"/>
<path d="M1673.75 579.582C1677.64 583.115 1680.67 587.494 1682.6 592.381C1684.17 597.053 1685.42 601.826 1686.34 606.668C1688.61 615.961 1692.35 624.857 1694.35 634.183C1697.76 650.118 1696.02 666.723 1689.38 681.608C1687.03 686.8 1684.09 691.794 1682.86 697.367C1682.4 699.5 1682.19 701.716 1681.57 703.816C1680.56 706.747 1679.16 709.528 1677.4 712.084L1650.27 755.722C1649.23 753.176 1647.66 750.88 1645.66 748.987C1643.66 747.094 1641.28 745.647 1638.69 744.742C1633.46 742.981 1627.87 742.644 1622.47 743.766C1624.49 740.591 1625.38 737.036 1627.43 733.845C1628.56 732.15 1629.59 730.395 1630.53 728.586C1631.45 726.624 1632.26 724.609 1632.94 722.551L1636.5 712.514C1640.67 700.79 1644.77 689.066 1648.43 677.16C1650.63 670.226 1652.38 663.156 1653.66 655.994C1654.06 654.173 1654.1 652.292 1653.79 650.454C1653.24 648.641 1652.39 646.932 1651.28 645.394C1647.33 638.701 1643.91 631.713 1641.03 624.493C1638.88 619.45 1636.72 613.778 1638.65 608.652C1639.88 605.938 1641.7 603.532 1643.98 601.608C1653 593.121 1662.99 585.728 1673.75 579.582V579.582Z" fill="#3C354C"/>
<path opacity="0.1" d="M1535.85 1138.3L1537.83 1134.21C1534.03 1115.86 1535.91 1096.74 1537.83 1077.99L1543.14 1026.53C1543.99 1018.26 1544.8 1009.99 1543.84 1001.82C1542.6 991.903 1538.69 981.982 1541.13 972.242C1541.8 969.564 1542.93 967.05 1543.67 964.388C1544.56 960.642 1545.04 956.811 1545.1 952.962L1547.23 912.498C1547.58 906.016 1548.14 899.005 1550.79 893.217V892.11L1543.97 833.473L1525.97 1138.3H1535.85Z" fill="black"/>
<path d="M1380.99 1163.58C1385.95 1154.47 1380.33 1143.29 1373.89 1135.17C1367.45 1127.05 1359.64 1118.63 1359.81 1108.23C1360.06 1093.35 1375.86 1084.57 1388.48 1076.67C1397.86 1070.82 1406.5 1063.87 1414.23 1055.98C1417.47 1052.94 1420.15 1049.36 1422.14 1045.4C1424.75 1039.58 1424.69 1032.96 1424.52 1026.6C1423.96 1005.36 1422.91 984.148 1421.36 962.949" stroke="#3F3D56" stroke-width="4" stroke-miterlimit="10"/>
<path d="M1445.37 961.792C1445.19 957.905 1444.04 954.125 1442.02 950.801C1439.99 947.477 1437.16 944.717 1433.79 942.775L1428.59 953.061L1428.76 940.609C1426.27 939.881 1423.68 939.569 1421.1 939.683C1416.53 939.91 1412.12 941.484 1408.45 944.207C1404.77 946.93 1401.99 950.681 1400.44 954.985C1398.89 959.289 1398.66 963.954 1399.76 968.392C1400.87 972.83 1403.26 976.841 1406.65 979.92C1410.03 983 1414.25 985.009 1418.77 985.694C1423.3 986.379 1427.92 985.71 1432.07 983.771C1436.21 981.831 1439.69 978.709 1442.06 974.797C1444.43 970.886 1445.59 966.36 1445.39 961.792H1445.37Z" fill="#57B894"/>
<path d="M1403.95 1118.87C1401.52 1123.58 1397.53 1127.32 1392.67 1129.45C1387.8 1131.59 1382.35 1131.98 1377.23 1130.57C1372.11 1129.17 1367.62 1126.04 1364.53 1121.73C1361.44 1117.41 1359.92 1112.16 1360.24 1106.86C1360.56 1101.56 1362.69 1096.53 1366.28 1092.62C1369.87 1088.7 1374.7 1086.14 1379.95 1085.35C1385.21 1084.57 1390.57 1085.62 1395.14 1088.32C1399.72 1091.02 1403.23 1095.2 1405.08 1100.18L1390.57 1112.04L1406.54 1108.35C1406.52 1112.01 1405.63 1115.61 1403.95 1118.87V1118.87Z" fill="#57B894"/>
<path d="M1392.49 1073.81C1386.72 1074.21 1381 1072.45 1376.47 1068.86C1371.94 1065.27 1368.91 1060.11 1367.99 1054.41C1367.06 1048.7 1368.31 1042.86 1371.48 1038.02C1374.65 1033.19 1379.52 1029.71 1385.12 1028.28L1384.99 1037.84L1390.25 1027.44C1393.3 1027.29 1396.35 1027.74 1399.22 1028.77C1402.09 1029.81 1404.73 1031.39 1406.98 1033.45C1409.24 1035.5 1411.07 1037.98 1412.36 1040.74C1413.66 1043.5 1414.39 1046.49 1414.53 1049.53C1414.66 1052.21 1414.33 1054.89 1413.53 1057.45C1412.14 1062.01 1409.37 1066.03 1405.6 1068.96C1401.83 1071.88 1397.25 1073.58 1392.49 1073.81Z" fill="#57B894"/>
<path d="M1448.86 1036.32C1445.3 1036.45 1441.75 1035.76 1438.5 1034.29C1435.25 1032.83 1432.37 1030.63 1430.11 1027.88C1427.85 1025.12 1426.25 1021.88 1425.44 1018.41C1424.64 1014.94 1424.65 1011.33 1425.47 1007.86C1426.29 1004.39 1427.9 1001.16 1430.17 998.412C1432.45 995.667 1435.33 993.485 1438.59 992.035C1441.85 990.585 1445.4 989.907 1448.96 990.054C1452.53 990.2 1456.01 991.167 1459.14 992.879L1455.03 1004.12L1463.47 996.021C1467.99 1000.16 1470.69 1005.92 1470.97 1012.04C1471.08 1014.19 1470.88 1016.35 1470.39 1018.44C1469.24 1023.36 1466.52 1027.77 1462.63 1031C1458.75 1034.22 1453.91 1036.09 1448.86 1036.32V1036.32Z" fill="#57B894"/>
<path opacity="0.1" d="M1442.24 967.976C1436.88 968.555 1431.67 970.225 1426.29 970.556C1420.91 970.886 1415.01 969.613 1411.6 965.43C1409.78 963.181 1408.85 960.337 1407.31 957.873C1405.84 955.584 1403.83 953.692 1401.46 952.366C1400.05 955.293 1399.28 958.482 1399.2 961.725C1399.11 964.969 1399.7 968.195 1400.94 971.193C1402.18 974.192 1404.04 976.897 1406.39 979.133C1408.74 981.369 1411.54 983.086 1414.6 984.172C1417.66 985.258 1420.91 985.689 1424.15 985.437C1427.39 985.185 1430.53 984.257 1433.39 982.711C1436.24 981.165 1438.74 979.037 1440.72 976.464C1442.7 973.891 1444.11 970.932 1444.87 967.778C1444 967.811 1443.13 967.877 1442.24 967.976Z" fill="black"/>
<path opacity="0.1" d="M1448.86 1036.32C1444.86 1036.52 1440.87 1035.68 1437.28 1033.88C1433.7 1032.08 1430.65 1029.38 1428.42 1026.05C1426.19 1022.72 1424.87 1018.86 1424.58 1014.87C1424.29 1010.87 1425.05 1006.87 1426.77 1003.25C1428.61 1004.49 1430.2 1006.07 1431.44 1007.91C1433.09 1010.41 1434.1 1013.3 1436.04 1015.58C1439.66 1019.83 1445.83 1021.22 1451.44 1020.97C1457.05 1020.73 1462.46 1019.12 1467.99 1018.61C1468.77 1018.61 1469.54 1018.49 1470.34 1018.48C1469.19 1023.38 1466.47 1027.78 1462.59 1031C1458.72 1034.22 1453.9 1036.08 1448.86 1036.32V1036.32Z" fill="black"/>
<path opacity="0.1" d="M1392.49 1073.81C1388.52 1074.01 1384.57 1073.18 1381.01 1071.42C1377.45 1069.65 1374.41 1067 1372.17 1063.72C1369.93 1060.44 1368.58 1056.64 1368.24 1052.68C1367.89 1048.72 1368.58 1044.75 1370.22 1041.13C1372.14 1042.39 1373.82 1043.99 1375.18 1045.84C1376.98 1048.39 1378.11 1051.33 1380.23 1053.68C1384.15 1058.03 1390.73 1059.57 1396.66 1059.44C1402.58 1059.3 1407.96 1057.9 1413.67 1057.45C1412.26 1062.03 1409.47 1066.07 1405.68 1068.99C1401.89 1071.92 1397.28 1073.6 1392.49 1073.81V1073.81Z" fill="black"/>
<path opacity="0.1" d="M1403.95 1118.87C1401.44 1124.48 1396.8 1128.86 1391.05 1131.05C1385.31 1133.25 1378.92 1133.07 1373.31 1130.56C1367.69 1128.05 1363.31 1123.41 1361.11 1117.67C1358.92 1111.92 1359.1 1105.54 1361.61 1099.93C1363.53 1101.18 1365.25 1102.72 1366.71 1104.48C1368.92 1107.16 1370.38 1110.22 1372.93 1112.75C1377.68 1117.41 1385.34 1119.36 1392.17 1119.51C1396.11 1119.53 1400.04 1119.31 1403.95 1118.87V1118.87Z" fill="black"/>
<path d="M1345.96 1153.08C1345.96 1153.08 1364.29 1152.52 1369.82 1148.58C1375.34 1144.65 1397.95 1139.97 1399.37 1146.27C1400.79 1152.57 1426.92 1177.68 1406.24 1177.78C1385.55 1177.88 1358.15 1174.58 1352.63 1171.17C1347.1 1167.76 1345.96 1153.08 1345.96 1153.08Z" fill="#656380"/>
<path opacity="0.2" d="M1406.6 1175.6C1385.9 1175.77 1358.52 1172.29 1353.01 1168.99C1348.8 1166.42 1347.13 1157.26 1346.57 1153.03H1345.96C1345.96 1153.03 1347.12 1167.81 1352.58 1171.22C1358.04 1174.62 1385.49 1177.95 1406.19 1177.83C1412.16 1177.83 1414.21 1175.67 1414.1 1172.52C1413.32 1174.38 1411.05 1175.55 1406.6 1175.6Z" fill="black"/>
<path d="M96.6327 1181.77C91.6687 1172.66 97.2946 1161.48 103.731 1153.36C110.168 1145.24 117.978 1136.82 117.812 1126.42C117.564 1111.54 101.762 1102.76 89.137 1094.86C79.7624 1089.01 71.1192 1082.06 63.3904 1074.17C60.1513 1071.13 57.4738 1067.55 55.4811 1063.59C52.8667 1057.77 52.9329 1051.15 53.0983 1044.79C53.6609 1023.55 54.7144 1002.34 56.2587 981.139" stroke="#3F3D56" stroke-width="4" stroke-miterlimit="10"/>
<path d="M32.2495 979.981C32.4254 976.094 33.5789 972.314 35.6034 968.99C37.6278 965.667 40.4579 962.906 43.8322 960.965L49.0278 971.25L48.8624 958.799C51.3477 958.071 53.9362 957.758 56.5235 957.873C61.0939 958.099 65.4947 959.673 69.1709 962.396C72.8471 965.12 75.6339 968.87 77.1797 973.174C78.7255 977.478 78.9611 982.144 77.8568 986.581C76.7524 991.019 74.3577 995.031 70.9745 998.11C67.5914 1001.19 63.3714 1003.2 58.8471 1003.88C54.3228 1004.57 49.6967 1003.9 45.5526 1001.96C41.4084 1000.02 37.9318 996.899 35.5613 992.987C33.1908 989.075 32.0327 984.55 32.233 979.981H32.2495Z" fill="#57B894"/>
<path d="M73.6659 1137.06C76.1018 1141.77 80.0865 1145.51 84.9522 1147.64C89.8179 1149.77 95.2689 1150.17 100.392 1148.76C105.514 1147.36 109.998 1144.23 113.09 1139.91C116.182 1135.6 117.695 1130.35 117.376 1125.05C117.057 1119.75 114.925 1114.72 111.337 1110.81C107.749 1106.89 102.923 1104.33 97.6687 1103.54C92.4141 1102.76 87.0499 1103.81 82.4751 1106.51C77.9003 1109.2 74.3928 1113.39 72.5407 1118.37L87.0521 1130.16L71.1508 1126.47C71.1362 1130.15 71.9983 1133.78 73.6659 1137.06V1137.06Z" fill="#57B894"/>
<path d="M85.1327 1091.99C90.9028 1092.4 96.6166 1090.64 101.151 1087.05C105.684 1083.46 108.71 1078.3 109.633 1072.6C110.556 1066.89 109.31 1061.04 106.138 1056.21C102.967 1051.38 98.1006 1047.9 92.496 1046.47L92.6284 1056.03L87.3665 1045.63C84.3196 1045.48 81.2732 1045.93 78.4023 1046.96C75.5314 1048 72.8925 1049.58 70.6371 1051.63C68.3817 1053.69 66.5542 1056.17 65.2595 1058.93C63.9647 1061.69 63.2283 1064.67 63.0925 1067.72C62.9566 1070.4 63.2926 1073.08 64.0853 1075.64C65.4808 1080.2 68.2516 1084.22 72.0189 1087.15C75.7862 1090.07 80.3661 1091.77 85.1327 1091.99Z" fill="#57B894"/>
<path d="M28.7581 1054.51C32.3228 1054.64 35.8697 1053.95 39.1221 1052.48C42.3746 1051.02 45.2448 1048.82 47.509 1046.07C49.7733 1043.31 51.3705 1040.07 52.176 1036.6C52.9815 1033.13 52.9737 1029.52 52.1531 1026.05C51.3324 1022.58 49.7212 1019.35 47.445 1016.6C45.1688 1013.86 42.2891 1011.67 39.0303 1010.22C35.7715 1008.77 32.2217 1008.1 28.6576 1008.24C25.0935 1008.39 21.6114 1009.36 18.4826 1011.07L22.5862 1022.31L14.1474 1014.21C9.61289 1018.34 6.90511 1024.11 6.61867 1030.23C6.5085 1032.38 6.70348 1034.54 7.1978 1036.63C8.3457 1041.56 11.0747 1045.97 14.9678 1049.2C18.861 1052.42 23.7043 1054.29 28.7581 1054.51V1054.51Z" fill="#57B894"/>
<path opacity="0.1" d="M35.3768 986.166C40.738 986.744 45.9502 988.414 51.3278 988.745C56.7055 989.076 62.6127 987.803 66.0213 983.619C67.8414 981.37 68.7681 978.526 70.3069 976.062C71.7766 973.773 73.7885 971.882 76.1644 970.556C77.5656 973.483 78.3354 976.671 78.424 979.915C78.5125 983.158 77.9179 986.384 76.6785 989.383C75.4392 992.382 73.5829 995.087 71.23 997.323C68.8771 999.559 66.0801 1001.28 63.0206 1002.36C59.9611 1003.45 56.7073 1003.88 53.4703 1003.63C50.2333 1003.37 47.0854 1002.45 44.2308 1000.9C41.3762 999.354 38.8786 997.226 36.9 994.654C34.9215 992.081 33.5062 989.122 32.7459 985.967C33.6174 986 34.4943 986.066 35.3768 986.166Z" fill="black"/>
<path opacity="0.1" d="M28.7582 1054.51C32.7633 1054.71 36.7526 1053.87 40.3357 1052.07C43.9188 1050.27 46.973 1047.57 49.1994 1044.24C51.4258 1040.91 52.7482 1037.05 53.0372 1033.06C53.3262 1029.06 52.5719 1025.06 50.848 1021.44C49.0054 1022.67 47.4207 1024.26 46.1819 1026.1C44.5272 1028.6 43.5178 1031.49 41.5819 1033.77C37.9581 1038.02 31.7862 1039.41 26.1769 1039.16C20.5676 1038.91 15.1568 1037.31 9.63021 1036.8C8.85251 1036.8 8.07482 1036.68 7.28058 1036.67C8.43081 1041.57 11.1502 1045.97 15.0262 1049.19C18.9022 1052.41 23.7233 1054.27 28.7582 1054.51V1054.51Z" fill="black"/>
<path opacity="0.1" d="M85.1327 1092C89.1006 1092.2 93.0534 1091.37 96.6114 1089.61C100.169 1087.84 103.213 1085.19 105.45 1081.91C107.686 1078.63 109.041 1074.82 109.383 1070.87C109.726 1066.91 109.044 1062.94 107.405 1059.32C105.478 1060.58 103.796 1062.17 102.441 1064.03C100.637 1066.58 99.5118 1069.52 97.4765 1071.87C93.555 1076.22 86.9694 1077.76 81.0456 1077.63C75.1219 1077.49 69.7443 1076.09 64.0356 1075.64C65.434 1080.21 68.2123 1084.23 71.9893 1087.16C75.7664 1090.09 80.3574 1091.78 85.1327 1092Z" fill="black"/>
<path opacity="0.1" d="M73.6659 1137.06C76.1783 1142.67 80.8183 1147.05 86.5653 1149.24C92.3122 1151.44 98.6953 1151.26 104.31 1148.75C109.925 1146.24 114.312 1141.6 116.506 1135.86C118.7 1130.11 118.521 1123.73 116.009 1118.12C114.092 1119.37 112.374 1120.91 110.912 1122.67C108.695 1125.35 107.239 1128.41 104.691 1130.94C99.942 1135.6 92.2809 1137.55 85.4471 1137.7C81.5107 1137.72 77.5767 1137.5 73.6659 1137.06V1137.06Z" fill="black"/>
<path d="M131.662 1171.27C131.662 1171.27 113.328 1170.71 107.802 1166.77C102.275 1162.83 79.6724 1158.16 78.2493 1164.46C76.8263 1170.76 50.6991 1195.87 71.3825 1195.97C92.0658 1196.07 119.467 1192.76 124.994 1189.36C130.52 1185.95 131.662 1171.27 131.662 1171.27Z" fill="#656380"/>
<path opacity="0.2" d="M71.0184 1193.79C91.7183 1193.96 119.103 1190.48 124.613 1187.18C128.816 1184.61 130.487 1175.45 131.05 1171.22H131.662C131.662 1171.22 130.504 1186 125.043 1189.41C119.583 1192.81 92.132 1196.14 71.4321 1196.02C65.4587 1196.02 63.4069 1193.86 63.5227 1190.71C64.3004 1192.57 66.5673 1193.74 71.0184 1193.79Z" fill="black"/>
<defs>
<linearGradient id="paint0_linear" x1="206.817" y1="1209.38" x2="206.817" y2="431.768" gradientUnits="userSpaceOnUse">
<stop stop-color="#808080" stop-opacity="0.25"/>
<stop offset="0.54" stop-color="#808080" stop-opacity="0.12"/>
<stop offset="1" stop-color="#808080" stop-opacity="0.1"/>
</linearGradient>
<linearGradient id="paint1_linear" x1="401282" y1="655200" x2="401282" y2="256548" gradientUnits="userSpaceOnUse">
<stop stop-color="#808080" stop-opacity="0.25"/>
<stop offset="0.54" stop-color="#808080" stop-opacity="0.12"/>
<stop offset="1" stop-color="#808080" stop-opacity="0.1"/>
</linearGradient>
</defs>
</svg>
