<?xml version="1.0" standalone="no"?>
<!DOCTYPE svg PUBLIC "-//W3C//DTD SVG 20010904//EN"
 "http://www.w3.org/TR/2001/REC-SVG-20010904/DTD/svg10.dtd">
<svg version="1.0" xmlns="http://www.w3.org/2000/svg"
 width="364.000000pt" height="347.000000pt" viewBox="0 0 364.000000 347.000000"
 preserveAspectRatio="xMidYMid meet">

<g transform="translate(0.000000,347.000000) scale(0.100000,-0.100000)"
fill="#000000" stroke="none">
<path d="M1857 3074 c-12 -13 -8 -42 8 -48 25 -9 46 5 43 28 -3 21 -37 34 -51
20z"/>
<path d="M2134 3065 c-8 -21 2 -45 19 -45 20 0 40 27 33 45 -7 19 -45 20 -52
0z"/>
<path d="M1948 2873 c39 -2 105 -2 145 0 39 1 7 3 -73 3 -80 0 -112 -2 -72 -3z"/>
<path d="M1042 2748 c-26 -26 -8 -58 33 -58 19 0 29 38 15 55 -15 18 -32 19
-48 3z"/>
<path d="M1317 2754 c-15 -16 -7 -53 14 -59 30 -10 58 19 43 43 -12 18 -45 28
-57 16z"/>
<path d="M2946 2741 c-16 -17 -16 -20 -1 -35 20 -19 27 -20 43 -4 17 17 15 36
-7 47 -14 8 -22 6 -35 -8z"/>
<path d="M2663 2734 c-3 -8 2 -23 11 -32 15 -15 17 -15 32 0 21 21 11 48 -16
48 -11 0 -23 -7 -27 -16z"/>
<path d="M1120 2559 c-42 -19 -60 -34 -60 -52 0 -4 19 3 43 17 78 45 160 43
214 -7 26 -23 43 -16 22 9 -22 26 -90 54 -134 54 -22 0 -60 -10 -85 -21z"/>
<path d="M2724 2538 c68 -44 143 -46 205 -5 56 37 47 45 -14 12 -62 -33 -117
-33 -170 0 -59 36 -78 30 -21 -7z"/>
<path d="M1833 2389 c-64 -13 -131 -68 -174 -144 -16 -29 -52 -78 -80 -110
-28 -32 -55 -69 -60 -82 -15 -39 -10 -103 12 -183 12 -41 21 -102 22 -135 0
-54 -6 -72 -61 -184 -54 -108 -62 -130 -62 -180 0 -72 13 -87 52 -60 15 11 77
32 136 45 143 33 203 52 232 74 22 17 25 27 28 103 4 79 1 90 -36 183 -47 117
-55 156 -41 206 11 44 41 68 154 128 101 54 170 105 184 138 l12 25 23 -23
c34 -31 81 -124 102 -197 12 -45 23 -64 40 -72 42 -19 44 -102 5 -146 -10 -11
-29 -45 -42 -75 -12 -30 -39 -76 -61 -102 -27 -33 -38 -56 -38 -80 0 -46 20
-80 55 -97 31 -15 237 -71 261 -71 7 0 20 22 28 51 17 57 9 117 -24 179 -84
154 -97 202 -76 292 40 175 33 289 -24 376 -32 50 -49 65 -104 92 -54 27 -83
34 -168 41 -211 17 -244 18 -295 8z"/>
<path d="M760 2201 c-83 -17 -186 -108 -227 -201 -23 -51 -23 -194 0 -240 36
-72 48 -88 90 -127 87 -81 227 -105 342 -61 142 54 237 222 205 360 -28 118
-88 197 -189 246 -50 25 -160 36 -221 23z"/>
<path d="M2961 1931 c-13 -24 8 -55 34 -50 28 6 42 34 26 53 -18 22 -48 20
-60 -3z"/>
<path d="M3242 1938 c-26 -26 1 -65 38 -53 16 5 20 14 18 33 -3 30 -35 41 -56
20z"/>
<path d="M2955 1800 c-4 -6 5 -26 19 -44 59 -78 157 -105 235 -64 53 27 110
93 95 108 -7 7 -18 -2 -35 -26 -65 -99 -215 -97 -283 2 -15 22 -27 31 -31 24z"/>
<path d="M2118 1123 c7 -3 16 -2 19 1 4 3 -2 6 -13 5 -11 0 -14 -3 -6 -6z"/>
</g>
</svg>
