<svg width="650" height="501" viewBox="0 0 650 501" fill="none" xmlns="http://www.w3.org/2000/svg">
<path opacity="0.1" d="M389.854 501C431.759 501 465.73 493.721 465.73 484.742C465.73 475.763 431.759 468.484 389.854 468.484C347.949 468.484 313.978 475.763 313.978 484.742C313.978 493.721 347.949 501 389.854 501Z" fill="#F9A826"/>
<path opacity="0.3" d="M604.369 434.703C590.623 447.545 571.062 452.86 552.145 456.216L548.961 456.763C515.897 462.319 482.167 463.451 448.595 464.57C354.958 467.691 261.078 470.806 167.689 463.61C126.389 460.431 84.0668 454.862 47.8698 435.829L46.927 435.327C46.4585 435.079 45.9899 434.831 45.5214 434.57C39.0945 431.115 32.9382 427.055 27.118 422.434C16.7816 414.131 8.24605 403.998 3.73553 391.976C-3.33227 373.121 0.404857 351.925 8.4775 333.489C16.5501 315.053 28.6873 298.448 39.1536 281.086C42.2246 276.001 45.1375 270.724 47.8472 265.314C64.7828 231.385 73.1829 192.123 55.4287 159.427C53.0852 155.259 50.5548 151.227 47.8472 147.349C43.5173 140.991 39.114 134.634 36.139 127.596C29.2011 111.22 30.6914 92.8031 33.2204 75.3079C36.6076 52.0467 42.8455 26.9927 62.2255 12.46C82.362 -2.6322 110.944 -1.86933 135.935 3.55978C174.791 11.945 210.655 29.4975 246.858 45.3271C283.06 61.1567 321.007 75.5749 360.812 77.1261C395.959 78.5056 436.96 68.2259 460.297 41.4745C482.963 15.5051 525.556 13.5407 556.266 29.2241C585.57 44.1891 604.521 75.861 603.121 107.495C601.337 146.973 572.112 178.588 548.984 212.199C545.139 217.787 541.458 223.439 538.1 229.186C527.137 247.959 519.386 270.508 526.933 290.775C531.167 302.123 539.246 310.781 548.984 318.34C570.802 335.269 600.919 346.662 614.468 370.362C626.137 390.807 621.812 418.397 604.369 434.703Z" fill="#A26709" fill-opacity="0.5"/>
<path d="M602.066 444.531C621.558 444.531 637.36 441.484 637.36 437.725C637.36 433.965 621.558 430.918 602.066 430.918C582.573 430.918 566.771 433.965 566.771 437.725C566.771 441.484 582.573 444.531 602.066 444.531Z" fill="#F9A826"/>
<path d="M601.478 440.227C603.748 440.227 605.589 437.811 605.589 434.83C605.589 431.85 603.748 429.434 601.478 429.434C599.208 429.434 597.367 431.85 597.367 434.83C597.367 437.811 599.208 440.227 601.478 440.227Z" fill="#3F3D56"/>
<path d="M601.478 433.632C603.748 433.632 605.589 431.216 605.589 428.235C605.589 425.255 603.748 422.839 601.478 422.839C599.208 422.839 597.367 425.255 597.367 428.235C597.367 431.216 599.208 433.632 601.478 433.632Z" fill="#3F3D56"/>
<path d="M601.478 427.031C603.748 427.031 605.589 424.614 605.589 421.634C605.589 418.653 603.748 416.237 601.478 416.237C599.208 416.237 597.367 418.653 597.367 421.634C597.367 424.614 599.208 427.031 601.478 427.031Z" fill="#3F3D56"/>
<path d="M601.478 420.435C603.748 420.435 605.589 418.019 605.589 415.039C605.589 412.058 603.748 409.642 601.478 409.642C599.208 409.642 597.367 412.058 597.367 415.039C597.367 418.019 599.208 420.435 601.478 420.435Z" fill="#3F3D56"/>
<path d="M601.478 413.84C603.748 413.84 605.589 411.424 605.589 408.444C605.589 405.463 603.748 403.047 601.478 403.047C599.208 403.047 597.367 405.463 597.367 408.444C597.367 411.424 599.208 413.84 601.478 413.84Z" fill="#3F3D56"/>
<path d="M601.478 407.245C603.748 407.245 605.589 404.829 605.589 401.848C605.589 398.868 603.748 396.452 601.478 396.452C599.208 396.452 597.367 398.868 597.367 401.848C597.367 404.829 599.208 407.245 601.478 407.245Z" fill="#3F3D56"/>
<path d="M601.478 400.65C603.748 400.65 605.589 398.234 605.589 395.253C605.589 392.273 603.748 389.856 601.478 389.856C599.208 389.856 597.367 392.273 597.367 395.253C597.367 398.234 599.208 400.65 601.478 400.65Z" fill="#3F3D56"/>
<path d="M616.862 350.117C617.424 349.401 617.935 348.646 618.391 347.857L607.594 346.081L619.27 346.168C620.394 343.723 621.007 341.073 621.072 338.382C621.137 335.691 620.652 333.015 619.648 330.518L603.979 338.685L618.428 328.034C617.078 325.681 615.259 323.632 613.084 322.015C610.909 320.399 608.425 319.25 605.787 318.64C603.149 318.03 600.414 317.973 597.753 318.471C595.092 318.969 592.562 320.012 590.321 321.535C588.081 323.058 586.177 325.029 584.729 327.323C583.282 329.617 582.321 332.187 581.908 334.87C581.495 337.554 581.638 340.294 582.329 342.919C583.019 345.545 584.241 348 585.92 350.13C585.043 351.245 584.289 352.453 583.673 353.732L597.689 361.041L582.744 356.011C581.693 359.123 581.433 362.449 581.988 365.687C582.543 368.925 583.894 371.973 585.92 374.554C583.637 377.468 582.217 380.966 581.823 384.651C581.428 388.335 582.075 392.057 583.69 395.39C585.304 398.723 587.821 401.533 590.952 403.499C594.083 405.465 597.703 406.508 601.397 406.508C605.091 406.508 608.711 405.465 611.842 403.499C614.973 401.533 617.49 398.723 619.105 395.39C620.719 392.057 621.366 388.335 620.972 384.651C620.577 380.966 619.157 377.468 616.874 374.554C619.606 371.075 621.091 366.774 621.091 362.345C621.091 357.916 619.606 353.616 616.874 350.136L616.862 350.117Z" fill="#F9A826"/>
<path opacity="0.1" d="M581.704 362.327C581.699 366.757 583.185 371.058 585.92 374.536C583.637 377.449 582.217 380.948 581.823 384.632C581.428 388.317 582.075 392.038 583.69 395.371C585.304 398.704 587.821 401.515 590.952 403.481C594.084 405.447 597.703 406.489 601.397 406.489C605.092 406.489 608.711 405.447 611.842 403.481C614.974 401.515 617.49 398.704 619.105 395.371C620.719 392.038 621.366 388.317 620.972 384.632C620.578 380.948 619.158 377.449 616.875 374.536C619.5 371.176 581.704 360.11 581.704 362.327Z" fill="black"/>
<path d="M83.4101 418.51C83.4101 421.982 69.9077 424.851 52.4555 425.261H51.4216C50.9078 425.018 50.3939 424.776 49.8801 424.522C42.8393 421.154 36.0941 417.196 29.7163 412.691C33.9571 412.194 38.7798 411.859 43.9554 411.747H44.655C45.7817 411.747 46.927 411.71 48.0847 411.71C48.84 411.71 49.5891 411.71 50.3258 411.71H51.0564C51.5269 411.71 51.9912 411.71 52.4493 411.71C69.9077 412.163 83.4101 415.07 83.4101 418.51Z" fill="#F9A826"/>
<path d="M47.5214 421.013C49.7917 421.013 51.6322 418.597 51.6322 415.616C51.6322 412.636 49.7917 410.22 47.5214 410.22C45.2511 410.22 43.4106 412.636 43.4106 415.616C43.4106 418.597 45.2511 421.013 47.5214 421.013Z" fill="#3F3D56"/>
<path d="M47.5214 414.418C49.7917 414.418 51.6322 412.001 51.6322 409.021C51.6322 406.041 49.7917 403.624 47.5214 403.624C45.2511 403.624 43.4106 406.041 43.4106 409.021C43.4106 412.001 45.2511 414.418 47.5214 414.418Z" fill="#3F3D56"/>
<path d="M47.5214 407.823C49.7917 407.823 51.6322 405.406 51.6322 402.426C51.6322 399.445 49.7917 397.029 47.5214 397.029C45.2511 397.029 43.4106 399.445 43.4106 402.426C43.4106 405.406 45.2511 407.823 47.5214 407.823Z" fill="#3F3D56"/>
<path d="M47.5214 401.227C49.7917 401.227 51.6322 398.811 51.6322 395.831C51.6322 392.85 49.7917 390.434 47.5214 390.434C45.2511 390.434 43.4106 392.85 43.4106 395.831C43.4106 398.811 45.2511 401.227 47.5214 401.227Z" fill="#3F3D56"/>
<path d="M47.5214 394.632C49.7917 394.632 51.6322 392.216 51.6322 389.235C51.6322 386.255 49.7917 383.839 47.5214 383.839C45.2511 383.839 43.4106 386.255 43.4106 389.235C43.4106 392.216 45.2511 394.632 47.5214 394.632Z" fill="#3F3D56"/>
<path d="M47.5214 388.037C49.7917 388.037 51.6322 385.621 51.6322 382.64C51.6322 379.66 49.7917 377.244 47.5214 377.244C45.2511 377.244 43.4106 379.66 43.4106 382.64C43.4106 385.621 45.2511 388.037 47.5214 388.037Z" fill="#3F3D56"/>
<path d="M47.5214 381.435C49.7917 381.435 51.6322 379.019 51.6322 376.039C51.6322 373.058 49.7917 370.642 47.5214 370.642C45.2511 370.642 43.4106 373.058 43.4106 376.039C43.4106 379.019 45.2511 381.435 47.5214 381.435Z" fill="#3F3D56"/>
<path d="M62.906 330.903C63.4682 330.188 63.9812 329.434 64.4413 328.649L53.6382 326.885L65.3204 326.972C66.4415 324.528 67.0528 321.879 67.1166 319.189C67.1805 316.499 66.6957 313.824 65.6919 311.329L50.0289 319.483L64.4784 308.826C63.1258 306.477 61.3054 304.434 59.1307 302.822C56.9559 301.21 54.4735 300.065 51.8382 299.458C49.2029 298.851 46.4712 298.795 43.8133 299.293C41.1554 299.792 38.6284 300.834 36.3898 302.355C34.1513 303.877 32.2491 305.844 30.8019 308.135C29.3546 310.426 28.3934 312.992 27.9782 315.672C27.5629 318.352 27.7025 321.09 28.3882 323.713C29.0739 326.337 30.2911 328.791 31.9638 330.922C31.0902 332.04 30.3369 333.247 29.7165 334.524L43.7327 341.79L28.7878 336.778C27.7417 339.89 27.4842 343.215 28.0386 346.453C28.5931 349.69 29.942 352.738 31.9638 355.322C29.6807 358.235 28.2609 361.734 27.8665 365.418C27.4721 369.102 28.1191 372.824 29.7335 376.157C31.3479 379.49 33.8647 382.3 36.996 384.266C40.1273 386.232 43.7469 387.275 47.4411 387.275C51.1352 387.275 54.7548 386.232 57.8861 384.266C61.0175 382.3 63.5342 379.49 65.1486 376.157C66.763 372.824 67.41 369.102 67.0156 365.418C66.6212 361.734 65.2014 358.235 62.9183 355.322C65.6498 351.842 67.1349 347.541 67.1349 343.112C67.1349 338.683 65.6498 334.383 62.9183 330.903H62.906Z" fill="#F9A826"/>
<path opacity="0.1" d="M27.7539 343.113C27.7467 347.542 29.23 351.844 31.9637 355.322C29.6807 358.235 28.2608 361.734 27.8665 365.418C27.4721 369.103 28.1191 372.824 29.7335 376.157C31.3479 379.49 33.8646 382.3 36.996 384.266C40.1273 386.232 43.7469 387.275 47.441 387.275C51.1351 387.275 54.7547 386.232 57.8861 384.266C61.0174 382.3 63.5341 379.49 65.1486 376.157C66.763 372.824 67.41 369.103 67.0156 365.418C66.6212 361.734 65.2013 358.235 62.9183 355.322C65.5432 351.962 27.7539 340.895 27.7539 343.113Z" fill="black"/>
<g opacity="0.2">
<path opacity="0.2" d="M189.343 344.845C189.343 345.429 189.281 346 189.219 346.559C184.415 344.622 179.685 342.566 175.029 340.392C172.553 340.065 170.249 338.938 168.467 337.182C167.111 336.499 165.762 335.791 164.418 335.076C164.721 334.434 165.064 333.812 165.446 333.213C168.046 329.077 172.008 326.488 176.373 326.631C180.737 326.773 184.514 329.599 186.854 333.872C188.647 337.24 189.507 341.03 189.343 344.845Z" fill="#3F3D56"/>
<path opacity="0.2" d="M190.061 323.159C189.972 326.964 188.875 330.676 186.885 333.915C184.279 338.039 180.323 340.628 175.958 340.486C175.655 340.486 175.339 340.448 175.06 340.423C172.583 340.096 170.28 338.969 168.498 337.213C167.287 336.064 166.267 334.729 165.477 333.257C163.726 329.878 162.87 326.106 162.989 322.3C163.108 318.494 164.199 314.783 166.158 311.521C168.764 307.385 172.72 304.796 177.085 304.938C181.449 305.081 185.226 307.907 187.566 312.18C189.36 315.55 190.221 319.342 190.061 323.159V323.159Z" fill="#3F3D56"/>
<path opacity="0.2" d="M190.719 301.429C191.028 291.615 185.22 283.466 177.746 283.229C170.272 282.992 163.962 290.757 163.653 300.571C163.344 310.386 169.152 318.534 176.626 318.771C184.1 319.008 190.409 311.244 190.719 301.429Z" fill="#3F3D56"/>
<path opacity="0.2" d="M191.401 279.71C191.71 269.895 185.902 261.747 178.428 261.51C170.954 261.273 164.645 269.037 164.336 278.852C164.027 288.666 169.835 296.815 177.309 297.052C184.783 297.288 191.092 289.524 191.401 279.71Z" fill="#3F3D56"/>
<path opacity="0.2" d="M192.084 257.99C192.393 248.176 186.585 240.027 179.111 239.79C171.637 239.553 165.327 247.318 165.018 257.132C164.709 266.947 170.517 275.095 177.991 275.332C185.465 275.569 191.774 267.805 192.084 257.99Z" fill="#3F3D56"/>
<path opacity="0.2" d="M132.56 107.331C130.787 104.91 129.182 102.37 127.756 99.7293L163.49 94.9972L125.056 94.0657C121.622 85.8995 119.885 77.1165 119.951 68.2537C120.017 59.391 121.885 50.6349 125.44 42.5212L176.206 70.9948L129.681 34.3858C134.389 26.8143 140.599 20.2953 147.925 15.2342C155.252 10.173 163.538 6.6781 172.269 4.96667C180.999 3.25523 189.987 3.36392 198.674 5.28596C207.361 7.208 215.561 10.9023 222.764 16.1391C229.967 21.3759 236.018 28.0432 240.543 35.7263C245.067 43.4095 247.967 51.9442 249.062 60.7997C250.158 69.6552 249.425 78.6421 246.91 87.2015C244.395 95.7609 240.152 103.71 234.444 110.554C237.202 114.319 239.549 118.371 241.445 122.639L194.537 145.231L244.269 130.221C247.398 140.578 247.904 151.553 245.742 162.155C243.58 172.758 238.818 182.652 231.887 190.944C239.108 200.772 243.426 212.441 244.347 224.614C245.269 236.788 242.756 248.977 237.097 259.786C231.438 270.595 222.861 279.588 212.347 285.737C201.832 291.887 189.805 294.944 177.64 294.559C165.475 294.174 153.663 290.363 143.556 283.561C133.448 276.759 125.453 267.242 120.484 256.096C115.515 244.951 113.774 232.628 115.458 220.537C117.142 208.445 122.185 197.073 130.009 187.721C121.382 175.978 116.941 161.667 117.399 147.087C117.857 132.507 123.188 118.505 132.535 107.331H132.56Z" fill="#F9A826"/>
<path opacity="0.1" d="M247.048 151.187C246.61 165.766 241.279 179.771 231.918 190.932C239.135 200.76 243.45 212.427 244.37 224.599C245.289 236.771 242.776 248.957 237.117 259.764C231.458 270.57 222.883 279.562 212.37 285.711C201.858 291.859 189.832 294.917 177.669 294.534C165.507 294.15 153.696 290.342 143.589 283.544C133.482 276.746 125.486 267.232 120.514 256.09C115.543 244.948 113.797 232.628 115.476 220.538C117.155 208.448 122.191 197.076 130.009 187.721C121.695 176.388 247.277 143.89 247.048 151.187Z" fill="black"/>
</g>
<g opacity="0.2">
<path opacity="0.2" d="M494.146 298.405C494.146 298.821 494.103 299.225 494.06 299.647C490.63 298.285 487.264 296.824 483.962 295.263C482.199 295.027 480.559 294.225 479.288 292.977C478.328 292.487 477.363 291.984 476.409 291.481C476.625 291.025 476.869 290.583 477.14 290.158C478.997 287.214 481.808 285.376 484.916 285.476C488.023 285.575 490.71 287.587 492.376 290.63C493.644 293.018 494.256 295.702 494.146 298.405V298.405Z" fill="#3F3D56"/>
<path opacity="0.2" d="M494.654 282.948C494.592 285.656 493.812 288.299 492.394 290.605C490.537 293.536 487.726 295.381 484.618 295.281L483.999 295.238C482.236 295.002 480.596 294.2 479.325 292.953C478.466 292.131 477.742 291.18 477.177 290.133C475.935 287.731 475.328 285.049 475.412 282.345C475.497 279.64 476.27 277.002 477.66 274.682C479.517 271.739 482.334 269.894 485.436 269.994C488.537 270.093 491.236 272.105 492.896 275.148C494.163 277.545 494.77 280.237 494.654 282.948V282.948Z" fill="#3F3D56"/>
<path opacity="0.2" d="M495.15 267.509C495.37 260.526 491.238 254.729 485.92 254.56C480.603 254.392 476.114 259.916 475.894 266.899C475.674 273.882 479.806 279.679 485.124 279.848C490.441 280.016 494.93 274.492 495.15 267.509Z" fill="#3F3D56"/>
<path opacity="0.2" d="M495.632 252.055C495.852 245.072 491.72 239.274 486.402 239.106C481.084 238.937 476.595 244.462 476.375 251.445C476.155 258.428 480.288 264.225 485.605 264.394C490.923 264.562 495.412 259.038 495.632 252.055Z" fill="#3F3D56"/>
<path opacity="0.2" d="M496.119 236.601C496.339 229.618 492.207 223.82 486.889 223.652C481.572 223.483 477.083 229.007 476.863 235.99C476.643 242.973 480.775 248.771 486.093 248.939C491.41 249.108 495.899 243.584 496.119 236.601Z" fill="#3F3D56"/>
<path opacity="0.2" d="M453.738 129.401C452.474 127.681 451.332 125.873 450.321 123.992L475.753 120.626L448.383 119.962C445.938 114.151 444.7 107.9 444.746 101.593C444.792 95.2851 446.12 89.0533 448.649 83.2783L484.748 103.517L451.689 77.478C455.025 72.0619 459.44 67.3942 464.656 63.7669C469.872 60.1395 475.778 57.6303 482.005 56.3962C488.231 55.162 494.645 55.2295 500.844 56.5942C507.044 57.959 512.896 60.5918 518.035 64.3281C523.174 68.0643 527.49 72.8238 530.713 78.3089C533.935 83.794 535.995 89.8869 536.764 96.2068C537.533 102.527 536.994 108.938 535.181 115.039C533.368 121.141 530.32 126.802 526.227 131.668C528.194 134.349 529.867 137.235 531.217 140.275L497.854 156.354L533.248 145.672C535.479 153.041 535.842 160.851 534.305 168.396C532.768 175.941 529.379 182.983 524.444 188.882C529.581 195.876 532.652 204.179 533.307 212.841C533.962 221.503 532.173 230.176 528.146 237.866C524.119 245.557 518.016 251.956 510.534 256.331C503.053 260.706 494.495 262.881 485.839 262.608C477.183 262.334 468.779 259.623 461.587 254.784C454.394 249.945 448.705 243.173 445.168 235.244C441.632 227.314 440.391 218.546 441.588 209.942C442.785 201.339 446.371 193.246 451.937 186.591C445.805 178.235 442.649 168.054 442.976 157.684C443.302 147.313 447.092 137.353 453.738 129.401V129.401Z" fill="#F9A826"/>
<path opacity="0.1" d="M535.217 160.589C534.907 170.968 531.111 180.938 524.444 188.883C529.581 195.876 532.653 204.179 533.307 212.841C533.962 221.503 532.173 230.176 528.146 237.866C524.119 245.557 518.016 251.956 510.534 256.331C503.053 260.706 494.495 262.881 485.839 262.608C477.183 262.334 468.779 259.623 461.587 254.784C454.394 249.945 448.705 243.174 445.168 235.244C441.632 227.314 440.391 218.546 441.588 209.943C442.785 201.339 446.371 193.247 451.937 186.591C446.006 178.518 535.378 155.397 535.217 160.589Z" fill="black"/>
</g>
<g opacity="0.2">
<path opacity="0.2" d="M362.168 249.935C362.168 250.351 362.119 250.754 362.075 251.177C358.646 249.815 355.28 248.353 351.978 246.792C350.217 246.557 348.579 245.755 347.31 244.507C346.344 244.016 345.385 243.513 344.431 243.01C344.644 242.554 344.886 242.112 345.156 241.688C347.013 238.75 349.83 236.906 352.932 237.005C356.033 237.104 358.726 239.117 360.392 242.16C361.663 244.547 362.276 247.231 362.168 249.935V249.935Z" fill="#3F3D56"/>
<path opacity="0.2" d="M362.626 234.478C362.564 237.186 361.784 239.829 360.367 242.135C358.509 245.066 355.699 246.91 352.591 246.811C352.374 246.811 352.17 246.811 351.972 246.767C350.21 246.532 348.573 245.73 347.304 244.482C346.441 243.663 345.714 242.711 345.149 241.663C343.907 239.26 343.299 236.578 343.385 233.873C343.471 231.168 344.246 228.53 345.638 226.212C347.496 223.268 350.306 221.424 353.414 221.523C356.522 221.622 359.209 223.635 360.843 226.678C362.12 229.072 362.735 231.765 362.626 234.478V234.478Z" fill="#3F3D56"/>
<path opacity="0.2" d="M362.651 218.438C362.86 211.451 358.716 205.658 353.396 205.498C348.076 205.338 343.594 210.871 343.385 217.858C343.176 224.844 347.319 230.638 352.639 230.798C357.96 230.958 362.442 225.424 362.651 218.438Z" fill="#3F3D56"/>
<path opacity="0.2" d="M363.613 203.584C363.833 196.601 359.701 190.803 354.383 190.635C349.066 190.466 344.577 195.99 344.357 202.973C344.137 209.956 348.269 215.754 353.586 215.922C358.904 216.091 363.393 210.567 363.613 203.584Z" fill="#3F3D56"/>
<path opacity="0.2" d="M364.107 188.123C364.327 181.14 360.194 175.342 354.877 175.174C349.559 175.005 345.07 180.529 344.85 187.512C344.63 194.495 348.763 200.293 354.08 200.461C359.398 200.63 363.887 195.106 364.107 188.123Z" fill="#3F3D56"/>
<path opacity="0.2" d="M321.733 80.9061C320.471 79.184 319.329 77.3767 318.315 75.4971L343.747 72.1311L316.359 71.4667C313.913 65.6554 312.675 59.4045 312.722 53.0967C312.769 46.7889 314.099 40.5572 316.631 34.7831L352.743 55.0469L319.69 29.0077C323.036 23.6144 327.454 18.97 332.668 15.3634C337.881 11.7568 343.779 9.2652 349.994 8.0438C356.209 6.82239 362.608 6.89728 368.793 8.2638C374.977 9.63032 380.816 12.2592 385.944 15.9869C391.072 19.7145 395.38 24.4611 398.601 29.9312C401.821 35.4012 403.885 41.4777 404.663 47.7824C405.442 54.087 404.918 60.4849 403.125 66.5777C401.331 72.6705 398.307 78.3279 394.24 83.1977C396.209 85.8788 397.884 88.7645 399.236 91.805L365.886 107.883L401.273 97.2016C403.504 104.57 403.868 112.381 402.33 119.926C400.793 127.471 397.404 134.512 392.47 140.412C397.6 147.409 400.665 155.712 401.313 164.373C401.962 173.033 400.169 181.703 396.138 189.39C392.108 197.076 386.002 203.471 378.521 207.842C371.039 212.213 362.482 214.384 353.828 214.108C345.174 213.832 336.772 211.119 329.582 206.279C322.393 201.439 316.705 194.668 313.17 186.74C309.635 178.811 308.395 170.045 309.592 161.443C310.789 152.841 314.374 144.751 319.937 138.096C313.8 129.737 310.641 119.553 310.967 109.177C311.292 98.8012 315.084 88.8362 321.733 80.8813V80.9061Z" fill="#F9A826"/>
<path opacity="0.1" d="M403.208 112.119C402.898 122.498 399.102 132.468 392.436 140.412C397.571 147.408 400.64 155.711 401.293 164.374C401.945 173.037 400.154 181.709 396.124 189.399C392.095 197.089 385.989 203.486 378.506 207.859C371.023 212.232 362.464 214.404 353.807 214.128C345.151 213.851 336.747 211.137 329.557 206.295C322.366 201.453 316.679 194.679 313.145 186.748C309.612 178.816 308.374 170.047 309.575 161.444C310.775 152.84 314.365 144.749 319.934 138.096C313.997 130.054 403.369 106.927 403.208 112.119Z" fill="black"/>
</g>
<path d="M602.004 311.012V446.226C565.743 451.654 528.753 452.759 491.935 453.852C389.247 456.901 286.292 459.944 183.876 452.915C138.583 449.809 92.1701 444.369 52.474 425.776V259.194C52.6225 144.306 52.0035 259.194 52.474 143.958V102.605C52.474 100.282 53.3936 98.055 55.0307 96.4128C56.6677 94.7707 58.888 93.8481 61.2031 93.8481H593.274C595.59 93.8481 597.81 94.7707 599.447 96.4128C601.084 98.055 602.004 100.282 602.004 102.605V207.327C602.375 310.739 601.756 207.65 602.004 311.012Z" fill="#3F3D56"/>
<path opacity="0.3" d="M438.186 135.227H216.292C214.507 135.227 213.06 136.678 213.06 138.468V149.721C213.06 151.512 214.507 152.963 216.292 152.963H438.186C439.971 152.963 441.418 151.512 441.418 149.721V138.468C441.418 136.678 439.971 135.227 438.186 135.227Z" fill="#F9A826"/>
<path d="M425.897 144.834H425.52L425.377 144.716C425.85 144.15 426.11 143.436 426.114 142.698C426.107 142.092 425.921 141.502 425.58 141.002C425.239 140.502 424.758 140.115 424.198 139.889C423.637 139.663 423.023 139.608 422.432 139.732C421.841 139.855 421.299 140.151 420.876 140.583C420.452 141.015 420.166 141.563 420.052 142.158C419.939 142.752 420.003 143.368 420.237 143.926C420.472 144.484 420.866 144.96 421.37 145.294C421.873 145.628 422.464 145.805 423.068 145.803C423.801 145.8 424.511 145.541 425.074 145.07L425.21 145.188V145.548L427.569 147.92L428.275 147.212L425.897 144.834ZM423.068 144.834C422.647 144.835 422.234 144.711 421.883 144.477C421.532 144.243 421.258 143.91 421.096 143.519C420.934 143.129 420.891 142.699 420.972 142.285C421.054 141.87 421.256 141.489 421.554 141.189C421.851 140.89 422.231 140.686 422.644 140.603C423.057 140.52 423.486 140.562 423.875 140.723C424.265 140.885 424.598 141.159 424.832 141.51C425.066 141.861 425.192 142.275 425.192 142.698C425.193 142.978 425.139 143.256 425.033 143.516C424.927 143.775 424.771 144.011 424.574 144.21C424.376 144.408 424.141 144.566 423.883 144.673C423.625 144.78 423.348 144.835 423.068 144.834V144.834Z" fill="#444053"/>
<path opacity="0.7" d="M156.172 306.286H141.054C139.344 306.286 137.958 307.676 137.958 309.391V310.571C137.958 312.286 139.344 313.676 141.054 313.676H156.172C157.881 313.676 159.267 312.286 159.267 310.571V309.391C159.267 307.676 157.881 306.286 156.172 306.286Z" fill="#3F3D56"/>
<path opacity="0.3" d="M168.009 324.761H141.054C139.344 324.761 137.958 326.151 137.958 327.866V329.046C137.958 330.761 139.344 332.151 141.054 332.151H168.009C169.718 332.151 171.104 330.761 171.104 329.046V327.866C171.104 326.151 169.718 324.761 168.009 324.761Z" fill="#F9A826"/>
<path opacity="0.3" d="M201.161 315.527H141.054C139.344 315.527 137.958 316.917 137.958 318.632V319.812C137.958 321.527 139.344 322.917 141.054 322.917H201.161C202.871 322.917 204.257 321.527 204.257 319.812V318.632C204.257 316.917 202.871 315.527 201.161 315.527Z" fill="#F9A826"/>
<path d="M101.884 324.531C101.417 324.527 100.953 324.614 100.52 324.789C100.086 324.964 99.6915 325.223 99.358 325.551C99.0244 325.88 98.7587 326.27 98.576 326.702C98.3933 327.133 98.2971 327.596 98.2931 328.065C98.2786 328.693 98.0199 329.291 97.5724 329.731C97.1248 330.17 96.5237 330.417 95.8972 330.419C96.4692 331.145 97.1957 331.734 98.0237 332.142C98.8517 332.55 99.7602 332.768 100.683 332.779C101.306 332.785 101.925 332.668 102.504 332.435C103.082 332.202 103.609 331.856 104.055 331.419C104.501 330.981 104.856 330.46 105.1 329.884C105.345 329.309 105.474 328.691 105.481 328.065C105.476 327.596 105.379 327.133 105.196 326.701C105.012 326.27 104.746 325.879 104.412 325.551C104.078 325.223 103.683 324.964 103.249 324.789C102.815 324.614 102.351 324.527 101.884 324.531ZM118.308 313.502L116.699 311.919C116.474 311.697 116.172 311.573 115.857 311.573C115.542 311.573 115.239 311.697 115.015 311.919L104.28 322.476L107.573 325.718L118.296 315.16C118.407 315.053 118.496 314.925 118.557 314.783C118.619 314.641 118.651 314.489 118.652 314.334C118.653 314.179 118.623 314.026 118.564 313.883C118.505 313.74 118.418 313.611 118.308 313.502Z" fill="#F9A826"/>
<path opacity="0.7" d="M156.172 214.661H141.054C139.344 214.661 137.958 216.051 137.958 217.766V218.946C137.958 220.661 139.344 222.051 141.054 222.051H156.172C157.881 222.051 159.267 220.661 159.267 218.946V217.766C159.267 216.051 157.881 214.661 156.172 214.661Z" fill="#3F3D56"/>
<path opacity="0.3" d="M168.009 233.136H141.054C139.344 233.136 137.958 234.526 137.958 236.241V237.421C137.958 239.136 139.344 240.526 141.054 240.526H168.009C169.718 240.526 171.104 239.136 171.104 237.421V236.241C171.104 234.526 169.718 233.136 168.009 233.136Z" fill="#F9A826"/>
<path opacity="0.3" d="M201.161 223.896H141.054C139.344 223.896 137.958 225.286 137.958 227.001V228.181C137.958 229.895 139.344 231.286 141.054 231.286H201.161C202.871 231.286 204.257 229.895 204.257 228.181V227.001C204.257 225.286 202.871 223.896 201.161 223.896Z" fill="#F9A826"/>
<path d="M118.358 234.838L108.96 225.349C109.426 224.128 109.528 222.798 109.252 221.521C108.976 220.244 108.334 219.075 107.406 218.157C106.421 217.177 105.161 216.522 103.794 216.281C102.428 216.039 101.02 216.221 99.7602 216.804L104.205 221.287L101.11 224.392L96.5781 219.934C95.9755 221.199 95.7811 222.621 96.0219 224.002C96.2627 225.384 96.9267 226.655 97.9215 227.64C98.8244 228.575 99.9819 229.222 101.249 229.5C102.517 229.779 103.838 229.676 105.047 229.205L114.426 238.701C114.52 238.8 114.632 238.878 114.756 238.932C114.881 238.986 115.015 239.014 115.151 239.014C115.286 239.014 115.421 238.986 115.545 238.932C115.67 238.878 115.782 238.8 115.875 238.701L118.252 236.304C118.368 236.224 118.464 236.119 118.533 235.997C118.603 235.875 118.644 235.739 118.654 235.599C118.664 235.459 118.643 235.319 118.592 235.188C118.54 235.057 118.46 234.94 118.358 234.844V234.838Z" fill="#F9A826"/>
<path opacity="0.7" d="M333.702 306.286H318.584C316.875 306.286 315.489 307.676 315.489 309.391V310.571C315.489 312.286 316.875 313.676 318.584 313.676H333.702C335.412 313.676 336.798 312.286 336.798 310.571V309.391C336.798 307.676 335.412 306.286 333.702 306.286Z" fill="#3F3D56"/>
<path opacity="0.3" d="M345.539 324.761H318.584C316.875 324.761 315.489 326.151 315.489 327.866V329.046C315.489 330.761 316.875 332.151 318.584 332.151H345.539C347.249 332.151 348.635 330.761 348.635 329.046V327.866C348.635 326.151 347.249 324.761 345.539 324.761Z" fill="#F9A826"/>
<path opacity="0.3" d="M378.692 315.527H318.584C316.875 315.527 315.489 316.917 315.489 318.632V319.812C315.489 321.527 316.875 322.917 318.584 322.917H378.692C380.401 322.917 381.787 321.527 381.787 319.812V318.632C381.787 316.917 380.401 315.527 378.692 315.527Z" fill="#F9A826"/>
<path d="M284.435 326.655C283.502 327.188 282.447 327.468 281.374 327.468C280.3 327.468 279.245 327.188 278.312 326.655C275.916 327.394 274.449 329.816 273.904 331.959H288.837C288.298 329.816 286.837 327.394 284.435 326.655ZM281.377 315.247C280.312 315.247 279.272 315.564 278.387 316.157C277.502 316.751 276.813 317.594 276.406 318.58C275.999 319.567 275.893 320.652 276.101 321.699C276.309 322.746 276.822 323.708 277.575 324.462C278.328 325.217 279.287 325.73 280.331 325.938C281.375 326.145 282.457 326.037 283.44 325.628C284.423 325.219 285.263 324.526 285.853 323.638C286.443 322.749 286.758 321.705 286.757 320.638C286.755 319.208 286.187 317.836 285.179 316.826C284.17 315.815 282.802 315.247 281.377 315.247V315.247ZM281.377 324.749C280.569 324.733 279.783 324.482 279.116 324.025C278.448 323.569 277.928 322.927 277.619 322.178H285.135C284.825 322.927 284.305 323.569 283.638 324.025C282.97 324.482 282.184 324.733 281.377 324.749V324.749Z" fill="#F9A826"/>
<path d="M292.266 323.78C291.482 324.224 290.611 324.492 289.713 324.566C288.815 324.64 287.912 324.518 287.066 324.209C286.685 324.87 286.205 325.469 285.642 325.985C286.897 326.56 287.953 327.496 288.676 328.674H296.668C296.421 327.545 295.885 326.5 295.113 325.642C294.342 324.784 293.361 324.142 292.266 323.78V323.78ZM289.208 312.366C288.305 312.365 287.416 312.593 286.623 313.027C285.83 313.461 285.159 314.088 284.67 314.85C285.483 315.322 286.187 315.961 286.736 316.726C287.286 317.49 287.668 318.361 287.858 319.284H292.966C292.654 320.03 292.133 320.669 291.466 321.123C290.799 321.577 290.014 321.827 289.208 321.843C288.768 321.841 288.332 321.761 287.92 321.607C287.849 322.044 287.737 322.475 287.586 322.892C288.11 323.061 288.658 323.145 289.208 323.14C290.635 323.14 292.003 322.572 293.012 321.56C294.021 320.548 294.588 319.175 294.588 317.744C294.588 316.313 294.021 314.94 293.012 313.928C292.003 312.916 290.635 312.347 289.208 312.347V312.366Z" fill="#F9A826"/>
<path opacity="0.7" d="M156.172 375.008H141.054C139.344 375.008 137.958 376.398 137.958 378.113V379.293C137.958 381.008 139.344 382.398 141.054 382.398H156.172C157.881 382.398 159.267 381.008 159.267 379.293V378.113C159.267 376.398 157.881 375.008 156.172 375.008Z" fill="#3F3D56"/>
<path opacity="0.3" d="M168.009 393.483H141.054C139.344 393.483 137.958 394.873 137.958 396.588V397.768C137.958 399.483 139.344 400.873 141.054 400.873H168.009C169.718 400.873 171.104 399.483 171.104 397.768V396.588C171.104 394.873 169.718 393.483 168.009 393.483Z" fill="#F9A826"/>
<path opacity="0.3" d="M201.161 384.249H141.054C139.344 384.249 137.958 385.639 137.958 387.354V388.534C137.958 390.249 139.344 391.639 141.054 391.639H201.161C202.871 391.639 204.257 390.249 204.257 388.534V387.354C204.257 385.639 202.871 384.249 201.161 384.249Z" fill="#F9A826"/>
<path d="M109.313 377.343H103.233C102.967 377.34 102.702 377.389 102.454 377.488C102.207 377.588 101.981 377.735 101.79 377.922C101.599 378.109 101.447 378.331 101.342 378.577C101.237 378.823 101.181 379.088 101.178 379.355V379.79H100.794C100.527 379.786 100.263 379.836 100.015 379.935C99.7675 380.035 99.5418 380.182 99.351 380.369C99.1601 380.556 99.0078 380.778 98.9028 381.024C98.7977 381.27 98.742 381.534 98.7388 381.802V396.477C98.742 397.022 98.9596 397.545 99.3444 397.931C99.7291 398.317 100.25 398.535 100.794 398.538H111.368C111.635 398.535 111.898 398.479 112.143 398.374C112.387 398.268 112.609 398.115 112.795 397.924C112.98 397.732 113.127 397.506 113.225 397.258C113.323 397.009 113.372 396.744 113.368 396.477V396.092H113.807C114.074 396.088 114.337 396.032 114.582 395.927C114.827 395.821 115.048 395.669 115.234 395.477C115.42 395.285 115.566 395.059 115.664 394.811C115.763 394.562 115.811 394.297 115.807 394.03V383.864L109.313 377.343ZM109.313 379.616L113.547 383.864H109.313V379.616ZM111.752 396.477C111.757 396.585 111.72 396.691 111.648 396.772C111.577 396.853 111.476 396.903 111.368 396.911H100.794C100.682 396.905 100.576 396.857 100.497 396.777C100.418 396.696 100.371 396.589 100.367 396.477V381.802C100.375 381.695 100.424 381.595 100.503 381.523C100.583 381.451 100.687 381.413 100.794 381.417H101.178V394.458C101.178 395.589 101.71 396.11 102.831 396.11H111.752V396.477ZM114.185 394.03C114.192 394.137 114.156 394.244 114.085 394.325C114.015 394.406 113.915 394.457 113.807 394.464H103.233C103.121 394.458 103.015 394.41 102.936 394.33C102.857 394.25 102.811 394.143 102.806 394.03V379.355C102.814 379.248 102.863 379.148 102.943 379.076C103.022 379.005 103.126 378.966 103.233 378.97H107.685V385.497H114.185V394.03Z" fill="#F9A826"/>
<path opacity="0.7" d="M333.702 214.661H318.584C316.875 214.661 315.489 216.051 315.489 217.766V218.946C315.489 220.661 316.875 222.051 318.584 222.051H333.702C335.412 222.051 336.798 220.661 336.798 218.946V217.766C336.798 216.051 335.412 214.661 333.702 214.661Z" fill="#3F3D56"/>
<path opacity="0.3" d="M345.539 233.136H318.584C316.875 233.136 315.489 234.526 315.489 236.241V237.421C315.489 239.136 316.875 240.526 318.584 240.526H345.539C347.249 240.526 348.635 239.136 348.635 237.421V236.241C348.635 234.526 347.249 233.136 345.539 233.136Z" fill="#F9A826"/>
<path opacity="0.3" d="M378.692 223.896H318.584C316.875 223.896 315.489 225.286 315.489 227.001V228.181C315.489 229.895 316.875 231.286 318.584 231.286H378.692C380.401 231.286 381.787 229.895 381.787 228.181V227.001C381.787 225.286 380.401 223.896 378.692 223.896Z" fill="#F9A826"/>
<path d="M283.123 219.449H276.077C275.502 219.451 274.951 219.681 274.545 220.09C274.139 220.498 273.911 221.052 273.911 221.629V233.584C273.911 234.16 274.139 234.713 274.545 235.12C274.952 235.528 275.503 235.757 276.077 235.757H294.502C295.076 235.757 295.627 235.528 296.034 235.12C296.44 234.713 296.668 234.16 296.668 233.584V224.057C296.667 223.481 296.438 222.929 296.032 222.522C295.626 222.115 295.076 221.885 294.502 221.884H285.29L283.123 219.437V219.449Z" fill="#F9A826"/>
<path opacity="0.7" d="M509.023 306.286H493.905C492.195 306.286 490.809 307.676 490.809 309.391V310.571C490.809 312.286 492.195 313.676 493.905 313.676H509.023C510.732 313.676 512.118 312.286 512.118 310.571V309.391C512.118 307.676 510.732 306.286 509.023 306.286Z" fill="#3F3D56"/>
<path opacity="0.3" d="M520.86 324.761H493.905C492.195 324.761 490.809 326.151 490.809 327.866V329.046C490.809 330.761 492.195 332.151 493.905 332.151H520.86C522.569 332.151 523.955 330.761 523.955 329.046V327.866C523.955 326.151 522.569 324.761 520.86 324.761Z" fill="#F9A826"/>
<path opacity="0.3" d="M554.012 315.527H493.905C492.195 315.527 490.809 316.917 490.809 318.632V319.812C490.809 321.527 492.195 322.917 493.905 322.917H554.012C555.722 322.917 557.108 321.527 557.108 319.812V318.632C557.108 316.917 555.722 315.527 554.012 315.527Z" fill="#F9A826"/>
<path d="M472.323 316.272L468.132 316.073L467.884 313.334C467.87 313.196 467.829 313.061 467.763 312.938C467.697 312.815 467.607 312.707 467.499 312.619C467.391 312.531 467.266 312.466 467.132 312.426C466.999 312.387 466.859 312.375 466.72 312.391L451.695 313.633C451.557 313.639 451.422 313.673 451.297 313.732C451.172 313.792 451.061 313.876 450.969 313.98C450.877 314.084 450.807 314.205 450.763 314.336C450.718 314.467 450.701 314.606 450.711 314.744L451.782 326.761C451.814 327.038 451.955 327.291 452.173 327.465C452.391 327.638 452.669 327.718 452.946 327.686L453.707 327.63L453.59 329.965C453.585 330.119 453.61 330.272 453.664 330.415C453.719 330.559 453.801 330.69 453.907 330.802C454.012 330.913 454.138 331.003 454.278 331.065C454.418 331.127 454.569 331.161 454.722 331.164L471.494 331.959C471.8 331.979 472.103 331.877 472.335 331.675C472.567 331.472 472.71 331.186 472.732 330.878L473.438 317.464C473.443 317.313 473.418 317.161 473.364 317.019C473.311 316.877 473.23 316.747 473.127 316.636C473.023 316.526 472.899 316.436 472.761 316.374C472.623 316.311 472.474 316.277 472.323 316.272V316.272ZM454.295 316.545L453.936 323.414L453.045 324.656L452.228 315.583V315.527C452.243 315.404 452.299 315.291 452.387 315.204C452.474 315.118 452.588 315.063 452.71 315.049L465.971 313.962C466.094 313.95 466.217 313.984 466.316 314.057C466.416 314.131 466.485 314.238 466.51 314.359C466.51 314.359 466.51 314.359 466.51 314.359L466.64 315.924L455.496 315.39C455.342 315.387 455.188 315.414 455.044 315.47C454.9 315.527 454.769 315.611 454.657 315.718C454.546 315.825 454.456 315.954 454.394 316.095C454.332 316.237 454.298 316.39 454.295 316.545V316.545ZM471.258 328.618L466.925 323.544L465.024 325.295L461.514 321.178L455.28 327.835L455.812 317.694C455.842 317.555 455.921 317.431 456.035 317.347C456.149 317.262 456.29 317.222 456.431 317.234L471.227 317.955C471.364 317.958 471.494 318.013 471.592 318.108C471.69 318.204 471.747 318.333 471.754 318.47C471.754 318.47 471.754 318.47 471.754 318.47L471.258 328.618Z" fill="#F9A826"/>
<path d="M468.583 322.178C468.906 322.179 469.221 322.084 469.49 321.906C469.758 321.727 469.968 321.472 470.092 321.174C470.216 320.876 470.249 320.547 470.187 320.23C470.125 319.913 469.971 319.621 469.743 319.392C469.516 319.163 469.226 319.007 468.91 318.943C468.594 318.88 468.266 318.912 467.968 319.035C467.67 319.159 467.415 319.368 467.236 319.637C467.057 319.905 466.961 320.221 466.961 320.545C466.963 320.976 467.134 321.39 467.438 321.696C467.742 322.001 468.153 322.175 468.583 322.178Z" fill="#F9A826"/>
<path opacity="0.7" d="M510.496 214.661H495.378C493.669 214.661 492.283 216.051 492.283 217.766V218.946C492.283 220.661 493.669 222.051 495.378 222.051H510.496C512.206 222.051 513.592 220.661 513.592 218.946V217.766C513.592 216.051 512.206 214.661 510.496 214.661Z" fill="#3F3D56"/>
<path opacity="0.3" d="M522.333 233.136H495.378C493.669 233.136 492.283 234.526 492.283 236.241V237.421C492.283 239.136 493.669 240.526 495.378 240.526H522.333C524.043 240.526 525.429 239.136 525.429 237.421V236.241C525.429 234.526 524.043 233.136 522.333 233.136Z" fill="#F9A826"/>
<path opacity="0.3" d="M555.486 223.896H495.378C493.669 223.896 492.283 225.286 492.283 227.001V228.181C492.283 229.895 493.669 231.286 495.378 231.286H555.486C557.195 231.286 558.581 229.895 558.581 228.181V227.001C558.581 225.286 557.195 223.896 555.486 223.896Z" fill="#F9A826"/>
<path d="M472.094 224.734C473.889 224.734 475.344 223.274 475.344 221.474C475.344 219.673 473.889 218.213 472.094 218.213C470.299 218.213 468.844 219.673 468.844 221.474C468.844 223.274 470.299 224.734 472.094 224.734Z" fill="#F9A826"/>
<path d="M469.599 225.318L463.148 229.628L454.208 223.653V221.474L463.148 227.454L468.286 224.02C467.802 223.285 467.538 222.426 467.527 221.545C467.516 220.664 467.758 219.798 468.225 219.052H453.942C453.366 219.053 452.814 219.284 452.407 219.692C452 220.1 451.771 220.654 451.769 221.232V234.819C451.771 235.397 452 235.95 452.407 236.359C452.814 236.767 453.366 236.998 453.942 236.999H472.366C472.942 236.998 473.493 236.767 473.899 236.359C474.305 235.95 474.533 235.396 474.533 234.819V225.38C473.792 225.853 472.93 226.101 472.051 226.094C471.173 226.087 470.315 225.827 469.58 225.343L469.599 225.318Z" fill="#F9A826"/>
<path d="M315.513 466.403C324.43 466.403 331.659 465.01 331.659 463.292C331.659 461.574 324.43 460.181 315.513 460.181C306.596 460.181 299.367 461.574 299.367 463.292C299.367 465.01 306.596 466.403 315.513 466.403Z" fill="#F9A826"/>
<path d="M315.247 464.434C316.287 464.434 317.129 463.331 317.129 461.969C317.129 460.607 316.287 459.504 315.247 459.504C314.208 459.504 313.365 460.607 313.365 461.969C313.365 463.331 314.208 464.434 315.247 464.434Z" fill="#3F3D56"/>
<path d="M315.247 461.416C316.287 461.416 317.129 460.312 317.129 458.951C317.129 457.589 316.287 456.485 315.247 456.485C314.208 456.485 313.365 457.589 313.365 458.951C313.365 460.312 314.208 461.416 315.247 461.416Z" fill="#3F3D56"/>
<path d="M315.247 458.398C316.287 458.398 317.129 457.294 317.129 455.933C317.129 454.571 316.287 453.467 315.247 453.467C314.208 453.467 313.365 454.571 313.365 455.933C313.365 457.294 314.208 458.398 315.247 458.398Z" fill="#3F3D56"/>
<path d="M315.247 455.38C316.287 455.38 317.129 454.276 317.129 452.915C317.129 451.553 316.287 450.449 315.247 450.449C314.208 450.449 313.365 451.553 313.365 452.915C313.365 454.276 314.208 455.38 315.247 455.38Z" fill="#3F3D56"/>
<path d="M315.247 452.368C316.287 452.368 317.129 451.264 317.129 449.903C317.129 448.541 316.287 447.437 315.247 447.437C314.208 447.437 313.365 448.541 313.365 449.903C313.365 451.264 314.208 452.368 315.247 452.368Z" fill="#3F3D56"/>
<path d="M315.247 449.35C316.287 449.35 317.129 448.246 317.129 446.884C317.129 445.523 316.287 444.419 315.247 444.419C314.208 444.419 313.365 445.523 313.365 446.884C313.365 448.246 314.208 449.35 315.247 449.35Z" fill="#3F3D56"/>
<path d="M315.247 446.332C316.287 446.332 317.129 445.228 317.129 443.866C317.129 442.505 316.287 441.401 315.247 441.401C314.208 441.401 313.365 442.505 313.365 443.866C313.365 445.228 314.208 446.332 315.247 446.332Z" fill="#3F3D56"/>
<path d="M322.28 423.224C322.539 422.896 322.772 422.549 322.98 422.187L318.027 421.373L323.364 421.417C323.875 420.298 324.154 419.087 324.184 417.857C324.214 416.628 323.994 415.404 323.537 414.263L316.374 417.989L322.98 413.114C322.362 412.037 321.53 411.1 320.535 410.361C319.54 409.622 318.404 409.096 317.197 408.818C315.991 408.539 314.74 408.513 313.523 408.741C312.306 408.97 311.149 409.447 310.124 410.145C309.1 410.842 308.23 411.743 307.568 412.793C306.907 413.843 306.468 415.019 306.28 416.246C306.092 417.474 306.159 418.727 306.476 419.928C306.792 421.128 307.353 422.25 308.122 423.224C307.723 423.735 307.379 424.287 307.094 424.87L313.508 428.211L306.698 425.913C306.217 427.335 306.097 428.855 306.35 430.336C306.603 431.816 307.221 433.209 308.146 434.39C307.102 435.722 306.453 437.321 306.272 439.006C306.092 440.691 306.388 442.393 307.126 443.917C307.864 445.441 309.015 446.726 310.446 447.625C311.878 448.524 313.533 449 315.222 449C316.912 449 318.567 448.524 319.999 447.625C321.43 446.726 322.581 445.441 323.319 443.917C324.057 442.393 324.353 440.691 324.173 439.006C323.992 437.321 323.343 435.722 322.299 434.39C323.549 432.797 324.229 430.828 324.229 428.801C324.229 426.773 323.549 424.804 322.299 423.211L322.28 423.224Z" fill="#F9A826"/>
<path opacity="0.1" d="M306.202 428.807C306.196 430.834 306.875 432.805 308.128 434.396C307.084 435.728 306.434 437.328 306.254 439.012C306.074 440.697 306.369 442.399 307.107 443.923C307.846 445.447 308.996 446.732 310.428 447.631C311.86 448.53 313.515 449.007 315.204 449.007C316.893 449.007 318.548 448.53 319.98 447.631C321.412 446.732 322.562 445.447 323.301 443.923C324.039 442.399 324.334 440.697 324.154 439.012C323.974 437.328 323.324 435.728 322.28 434.396C323.487 432.856 306.202 427.794 306.202 428.807Z" fill="black"/>
<path d="M465.556 242.34C465.292 241.804 465.084 241.242 464.937 240.663C464.875 239.999 465.135 239.123 464.547 238.8C464.219 238.62 463.761 238.756 463.47 238.52C463.29 238.311 463.18 238.05 463.154 237.775C463.01 237.254 462.704 236.793 462.281 236.458C461.859 236.123 461.34 235.932 460.802 235.912C461.421 234.229 463.699 233.819 464.702 232.335C465.204 231.596 465.043 230.236 464.157 230.23C463.942 230.238 463.731 230.291 463.538 230.385L460.238 231.751C459.603 232.001 458.982 232.29 458.381 232.615C456.567 233.652 455.211 235.335 453.992 237.042C452.838 238.552 451.918 240.226 451.262 242.011C450.892 243.11 450.696 244.26 450.68 245.42C450.68 245.538 450.68 245.656 450.68 245.768C450.141 245.861 449.701 246.097 449.138 246.209L447.857 249.606C447.687 250.173 447.403 250.7 447.021 251.152C446.738 251.412 446.435 251.651 446.117 251.866C445.467 252.423 444.962 253.132 444.648 253.93C444.334 254.728 444.22 255.591 444.315 256.443C443.156 256.9 442.213 257.781 441.678 258.909C441.142 260.036 441.054 261.326 441.43 262.517C440.469 262.725 439.577 263.177 438.839 263.829C438.101 264.482 437.542 265.312 437.214 266.243C437.126 266.67 436.937 267.07 436.663 267.41C436.245 267.733 435.724 267.894 435.196 267.864C433.748 267.957 432.485 269.106 431.178 268.485C429.691 267.785 428.027 267.551 426.405 267.814C426.071 267.894 425.727 267.925 425.384 267.907C425.091 267.856 424.809 267.757 424.548 267.615C423.96 267.266 423.32 267.012 422.653 266.864C422.319 266.792 421.971 266.82 421.652 266.943C421.334 267.067 421.058 267.281 420.858 267.559C420.4 267.056 420.128 266.404 419.713 265.864C419.527 265.577 419.265 265.346 418.957 265.199C418.649 265.051 418.307 264.991 417.967 265.026C418.4 264.634 417.967 263.852 417.391 263.715C416.811 263.665 416.227 263.686 415.652 263.777C414.141 263.777 412.977 262.386 411.51 262.02C410.16 261.691 408.359 262.088 407.665 260.871C407.449 260.48 407.387 259.97 407.046 259.679C406.969 259.349 406.818 259.041 406.607 258.778C406.049 258.157 405.115 258.058 404.279 258.083C403.36 258.108 402.449 258.265 401.573 258.548C401.573 258.443 401.518 258.325 401.481 258.201C400.95 256.653 399.888 255.345 398.484 254.512C397.394 253.867 396.213 253.394 394.98 253.108C394.98 252.996 394.98 252.891 394.98 252.779C394.96 251.212 395.203 249.652 395.698 248.165C395.748 248.003 395.81 247.842 395.865 247.68C398.677 246.944 401.244 245.474 403.306 243.42C405.368 241.366 406.851 238.802 407.606 235.987C408.36 233.172 408.359 230.207 407.602 227.393C406.844 224.579 405.358 222.016 403.294 219.964C403.29 219.629 403.247 219.296 403.164 218.971C402.984 218.258 402.645 217.596 402.174 217.033C401.419 215.344 400.242 214.599 398.738 213.891C398.305 213.686 397.846 213.487 397.364 213.27C394.968 212.189 392.652 210.6 389.934 210.606C387.458 210.606 385.068 211.978 382.617 211.929H382.431H382.252H382.029C381.342 211.848 380.518 211.686 380.066 212.214C379.92 212.423 379.804 212.651 379.719 212.891C379.684 212.971 379.643 213.048 379.596 213.121V213.121C379.505 213.274 379.399 213.417 379.28 213.549C378.487 214.419 377.156 214.791 376.061 215.375C373.584 216.648 371.962 219.244 371.318 221.964C370.675 224.684 370.897 227.553 371.38 230.311C371.628 231.689 372.16 233.254 373.139 234.124C373.139 234.124 364.861 240.03 366.372 240.868C367.195 241.327 370.625 239.148 373.578 237.067C373.609 237.192 373.634 237.322 373.671 237.446C374.023 238.772 374.474 240.07 375.021 241.327C375.64 242.812 376.531 244.433 378.073 244.861C378.413 244.956 378.766 244.996 379.119 244.979H379.391C379.468 247.251 379.228 249.524 378.679 251.73C377.781 251.678 376.892 251.925 376.147 252.431C375.865 252.71 375.508 252.9 375.12 252.978C374.718 252.929 374.345 252.745 374.061 252.456C372.951 251.653 371.6 251.255 370.233 251.327C368.866 251.4 367.565 251.938 366.545 252.854C363.549 255.692 363.889 261.231 360.354 263.38C359.389 263.97 358.15 264.287 357.581 265.274C357.444 265.589 357.285 265.895 357.104 266.187C356.87 266.451 356.583 266.662 356.262 266.808C355.242 267.266 354.271 267.828 353.365 268.485C352.912 268.817 352.531 269.239 352.245 269.723C351.958 270.208 351.773 270.746 351.699 271.304C351.686 272.121 351.86 272.931 352.207 273.67C352.734 274.97 353.381 276.217 354.139 277.396C353.727 277.93 353.459 278.561 353.359 279.228C353.111 280.973 353.941 282.693 354.033 284.457C354.114 285.997 353.625 287.5 353.352 289.015C352.263 294.94 354.349 300.939 356.448 306.565C356.853 307.48 357.104 308.456 357.191 309.453C357.246 311.316 356.2 312.974 355.909 314.788C355.29 318.601 358.095 322.19 358.157 326.047C358.157 327.829 357.624 329.636 358.07 331.356C358.361 332.505 359.073 333.493 359.58 334.567C360.472 336.467 360.713 338.622 361.568 340.541C362.589 342.63 364.102 344.437 365.976 345.808C367.047 349.217 365.524 353.334 365.976 356.986C366.558 356.754 367.146 356.547 367.74 356.365C367.371 361.792 368.737 367.196 371.64 371.791C372.6 373.294 373.727 374.697 374.451 376.331C374.921 377.494 375.288 378.698 375.547 379.926C376.583 384.261 377.615 388.592 378.642 392.918C379.484 396.427 380.332 399.998 380.079 403.599C379.905 406.084 379.274 408.922 380.809 410.909C381.179 411.287 381.49 411.718 381.732 412.188C381.88 412.741 381.88 413.324 381.732 413.877C380.981 418.066 380.468 422.293 380.196 426.54C379.849 427.006 379.503 427.478 379.187 427.943C376.643 431.669 375.417 436.147 374.426 440.562C372.6 449.238 371.532 458.057 371.232 466.918C369.958 468.078 368.861 469.42 367.975 470.899C366.644 473.383 366.471 476.302 366.329 479.121C366.272 479.578 366.323 480.042 366.477 480.475C366.816 480.963 367.302 481.328 367.864 481.519L368.632 481.885C368.464 482.506 368.316 483.127 368.186 483.779C367.208 482.674 365.468 480.922 365.171 482.202C364.192 486.482 363.661 490.853 363.586 495.243C363.551 495.411 363.557 495.586 363.601 495.752C363.646 495.918 363.729 496.071 363.843 496.199C363.957 496.327 364.1 496.426 364.26 496.489C364.42 496.552 364.592 496.576 364.762 496.56C369.015 497.315 373.327 497.685 377.646 497.665C381.143 497.665 384.635 497.379 388.121 497.112L391.693 496.839C395.366 496.642 399.022 496.187 402.632 495.479C404.211 495.131 405.839 494.641 407.028 493.529C408.216 492.417 408.798 490.517 407.981 489.107C406.984 487.406 404.656 487.282 402.713 487.008C400.786 486.737 398.919 486.141 397.19 485.245C396.8 485.046 396.423 484.822 396.045 484.624C396.144 484.624 396.249 484.574 396.342 484.537C398.014 483.972 399.345 482.674 400.917 481.897C402.774 480.997 404.824 480.792 406.842 480.537C408.86 480.283 410.94 479.916 412.618 478.761C414.19 477.681 415.305 475.712 414.94 473.861C414.915 473.731 414.881 473.603 414.841 473.476C414.221 471.471 412.055 470.371 410.036 469.875C408.018 469.378 405.827 469.08 404.192 467.775L403.951 467.583C403.814 467.465 403.672 467.353 403.524 467.235C403.884 466.625 404.05 465.918 404 465.211C403.914 464.099 403.27 463.118 402.83 462.106C401.97 460.087 401.901 457.833 401.666 455.653C401.084 450.17 399.407 444.879 398.144 439.507C398.001 438.886 397.865 438.265 397.729 437.644C398.962 435.077 400.471 432.653 402.23 430.415C404.243 427.892 405.718 424.982 406.563 421.864C406.823 420.907 407.015 419.938 407.213 418.963C409.45 407.748 411.563 396.514 413.553 385.261C413.882 383.657 414.07 382.028 414.116 380.392C414.637 378.908 414.919 377.351 414.952 375.778C415.534 373.499 416.122 371.108 415.645 369.617C415.311 368.562 415.144 364.954 414.958 361.494C415.011 359.64 414.899 357.784 414.624 355.949C414.568 355.632 414.506 355.328 414.438 355.011C414.401 354.825 414.364 354.669 414.327 354.545C414.066 353.505 413.701 352.494 413.237 351.527C413.001 350.949 412.728 350.387 412.42 349.844C412.236 349.523 412.029 349.216 411.801 348.925C413.09 348.98 414.375 349.1 415.652 349.285C415.961 349.329 416.345 349.354 416.537 349.099C416.617 348.953 416.655 348.787 416.648 348.621C416.708 347.155 416.361 345.702 415.645 344.423C415.15 343.541 414.463 342.684 414.481 341.672C414.515 341.2 414.63 340.737 414.822 340.305L416.537 335.685C417.992 331.779 417.298 327.252 418.054 323.153C418.643 319.95 419.019 316.712 419.18 313.459C419.323 310.683 419.236 307.671 417.571 305.448C417.09 304.911 416.674 304.319 416.333 303.684C416.091 303.01 415.989 302.293 416.035 301.579C416.006 297.227 416.093 292.88 416.295 288.537C423.586 288.332 430.845 287.501 437.994 286.053C438.839 285.908 439.668 285.684 440.471 285.383C441.355 284.958 442.186 284.431 442.947 283.811C445.38 282.048 447.85 280.253 449.702 277.881C451.9 275.003 453.282 271.583 453.701 267.982C455.459 266.348 456.394 264.026 457.273 261.771C457.708 260.819 457.984 259.802 458.09 258.759C458.134 257.691 457.434 256.573 457.632 255.524C457.97 253.716 458.88 252.065 460.226 250.817C460.513 250.612 460.729 250.324 460.845 249.991C460.885 249.713 460.835 249.43 460.703 249.183L460.647 249.09C460.82 248.985 460.981 248.873 461.148 248.761C461.724 248.351 462.275 247.898 462.814 247.457C463.638 246.834 464.366 246.094 464.974 245.259C465.275 244.843 465.483 244.367 465.583 243.863C465.684 243.359 465.674 242.84 465.556 242.34ZM386.121 480.37C385.972 480.37 385.824 480.37 385.681 480.407C385.139 480.484 384.61 480.637 384.109 480.86L383.991 480.922C384.672 479.444 385.316 477.942 385.898 476.414C385.966 476.234 386.028 476.054 386.096 475.867L386.022 476.886C385.893 478.046 385.927 479.219 386.121 480.37V480.37Z" fill="url(#paint0_linear)"/>
<path d="M394.98 254.059C395.042 256.468 395.859 258.803 395.983 261.213C388.907 261.567 381.917 258.108 374.934 259.176C376.897 257.903 377.943 255.611 378.562 253.357C379.346 250.443 379.579 247.408 379.249 244.408C379.23 244.243 379.201 244.079 379.162 243.917C378.902 242.737 378.228 241.067 378.407 240.142C378.649 238.9 379.8 239.154 380.84 239.222C384.008 239.475 387.162 239.889 390.287 240.464C391.105 240.607 399.035 242.595 399.159 242.39C397.765 244.626 396.613 247.006 395.723 249.488C395.222 250.959 394.971 252.504 394.98 254.059Z" fill="#EE8E9E"/>
<path d="M464.968 246.606C464.361 247.439 463.633 248.176 462.808 248.792C462.269 249.233 461.718 249.686 461.142 250.09C460.116 250.887 458.891 251.388 457.601 251.537C455.917 251.649 452.333 250.655 451.286 249.208C450.839 248.481 450.623 247.634 450.667 246.78C450.685 245.626 450.881 244.482 451.249 243.389C451.905 241.605 452.825 239.93 453.979 238.421C455.218 236.72 456.555 235.049 458.369 234.018C458.97 233.693 459.59 233.405 460.226 233.155L463.526 231.801C463.719 231.705 463.93 231.65 464.145 231.64C465.03 231.64 465.191 233.006 464.69 233.739C463.687 235.217 461.427 235.602 460.789 237.297C461.324 237.314 461.84 237.5 462.263 237.829C462.685 238.159 462.993 238.614 463.142 239.129C463.167 239.403 463.278 239.661 463.458 239.868C463.749 240.098 464.207 239.967 464.535 240.148C465.123 240.458 464.863 241.334 464.925 242.011C465.072 242.586 465.279 243.144 465.544 243.675C465.667 244.176 465.68 244.698 465.58 245.205C465.481 245.711 465.272 246.189 464.968 246.606Z" fill="#EE8E9E"/>
<path d="M367.369 488.4C367.913 487.853 368.805 487.946 369.566 488.064C373.652 488.711 377.781 489.045 381.917 489.064C382.437 486.53 380.933 484.096 380.45 481.525C380.38 480.866 380.213 480.222 379.955 479.612C379.373 478.494 378.06 477.979 376.828 477.749C374.606 477.277 371.127 476.451 369.882 478.705C368.39 481.382 367.913 485.381 367.369 488.4Z" fill="#65617D"/>
<path d="M412.618 478.817C410.94 479.966 408.86 480.32 406.842 480.581C404.823 480.842 402.749 481.04 400.917 481.941C399.344 482.723 398.013 484.003 396.342 484.562C394.791 484.99 393.157 485.016 391.593 484.636C389.736 484.282 387.718 483.599 386.709 481.972C385.805 480.531 385.898 478.699 386.022 477.004C386.17 475.085 386.313 473.153 386.449 471.228C386.443 470.741 386.567 470.261 386.808 469.837C388.164 467.85 391.463 470.663 393.228 470.663C396.026 470.663 399.029 469.136 401.041 467.279C401.221 467.093 401.43 466.938 401.66 466.819C402.458 466.459 403.257 467.123 403.963 467.701L404.204 467.893C405.839 469.191 408.03 469.458 410.049 469.986C412.067 470.514 414.227 471.57 414.853 473.57C414.894 473.693 414.927 473.82 414.952 473.948C415.305 475.78 414.172 477.737 412.618 478.817Z" fill="#3F3D56"/>
<path d="M412.618 478.817C410.94 479.966 408.86 480.32 406.842 480.581C404.823 480.842 402.749 481.04 400.917 481.941C399.344 482.723 398.013 484.003 396.342 484.562C394.791 484.99 393.157 485.016 391.593 484.636C389.736 484.282 387.718 483.599 386.709 481.972C385.805 480.531 385.898 478.699 386.022 477.004C386.17 475.085 386.313 473.153 386.449 471.228C386.443 470.741 386.567 470.261 386.808 469.837C388.164 467.85 391.463 470.663 393.228 470.663C396.026 470.663 399.029 469.136 401.041 467.279C401.221 467.093 401.43 466.938 401.66 466.819C402.458 466.459 403.257 467.123 403.963 467.701L404.204 467.893C405.839 469.191 408.03 469.458 410.049 469.986C412.067 470.514 414.227 471.57 414.853 473.57C414.894 473.693 414.927 473.82 414.952 473.948C415.305 475.78 414.172 477.737 412.618 478.817Z" fill="#434175"/>
<path d="M412.618 479.463C410.94 480.612 408.86 480.972 406.842 481.233C404.823 481.494 402.749 481.686 400.917 482.587C399.344 483.369 398.013 484.649 396.342 485.207C394.791 485.636 393.157 485.662 391.593 485.282C389.596 484.862 387.843 483.674 386.709 481.972C385.805 480.531 385.898 478.699 386.022 477.004C386.17 475.085 386.313 473.153 386.449 471.228C386.443 470.741 386.567 470.261 386.808 469.837C388.164 467.85 391.463 470.663 393.228 470.663C396.026 470.663 399.029 469.136 401.041 467.279C401.221 467.093 401.43 466.938 401.66 466.819C402.458 466.459 403.257 467.123 403.963 467.701C403.5 469.143 402.839 470.514 402 471.775C401.322 472.842 400.414 473.743 399.342 474.412C398.271 475.08 397.064 475.499 395.809 475.638C394.571 475.731 393.277 475.482 392.095 475.805C390.912 476.128 389.761 477.37 390.188 478.55C390.615 479.73 392.083 479.947 393.284 480.016C394.985 480.212 396.709 480.09 398.366 479.656C399.357 479.326 400.267 478.78 401.226 478.376C405.325 476.675 410.513 477.625 413.893 474.743C414.216 474.451 414.561 474.185 414.927 473.948C415.825 475.805 414.172 478.414 412.618 479.463Z" fill="#E8EAF2"/>
<path opacity="0.05" d="M412.618 479.463C410.94 480.612 408.86 480.972 406.842 481.233C404.823 481.494 402.749 481.686 400.917 482.587C399.344 483.369 398.013 484.649 396.342 485.207C394.791 485.636 393.157 485.662 391.593 485.282C389.596 484.862 387.843 483.674 386.709 481.972C385.805 480.531 385.898 478.699 386.022 477.004C386.17 475.085 386.313 473.153 386.449 471.228C386.443 470.741 386.567 470.261 386.808 469.837C388.164 467.85 391.463 470.663 393.228 470.663C396.026 470.663 399.029 469.136 401.041 467.279C401.221 467.093 401.43 466.938 401.66 466.819C402.458 466.459 403.257 467.123 403.963 467.701C403.5 469.143 402.839 470.514 402 471.775C401.322 472.842 400.414 473.743 399.342 474.412C398.271 475.08 397.064 475.499 395.809 475.638C394.571 475.731 393.277 475.482 392.095 475.805C390.912 476.128 389.761 477.37 390.188 478.55C390.615 479.73 392.083 479.947 393.284 480.016C394.985 480.212 396.709 480.09 398.366 479.656C399.357 479.326 400.267 478.78 401.226 478.376C405.325 476.675 410.513 477.625 413.893 474.743C414.216 474.451 414.561 474.185 414.927 473.948C415.825 475.805 414.172 478.414 412.618 479.463Z" fill="black"/>
<path d="M368.136 353.632C366.84 360.057 368.078 366.736 371.591 372.263C372.55 373.753 373.677 375.157 374.401 376.778C374.872 377.937 375.239 379.136 375.497 380.361L378.593 393.278C379.434 396.768 380.283 400.321 380.029 403.904C379.855 406.388 379.224 409.201 380.759 411.176C381.129 411.551 381.44 411.981 381.682 412.449C381.83 412.998 381.83 413.577 381.682 414.126C380.109 423.509 378.939 433.315 381.781 442.388C384.362 450.617 384.511 459.733 386.703 468.067C386.88 469.126 387.35 470.114 388.058 470.918C388.646 471.41 389.349 471.743 390.101 471.887C393.333 472.663 396.744 471.756 399.753 470.359C401.87 469.372 404.149 467.645 403.969 465.316C403.882 464.205 403.239 463.23 402.799 462.211C401.938 460.205 401.87 457.97 401.635 455.796C401.053 450.344 399.375 445.077 398.112 439.749C396.849 434.421 395.983 428.838 397.054 423.46C399.246 412.338 402.753 401.518 407.498 391.229C407.706 390.682 408.034 390.19 408.457 389.788C408.933 389.516 409.386 389.206 409.813 388.863C410.141 388.352 410.352 387.775 410.432 387.174C410.903 385.472 412.29 384.211 413.237 382.721C415.608 378.945 414.859 374.107 414.772 369.648C414.685 365.301 415.305 360.954 414.599 356.657C413.893 352.359 411.479 348 407.362 346.683C405.325 346.019 403.121 346.174 400.991 346.385C389.705 347.503 378.735 349.559 368.136 353.632Z" fill="#696791"/>
<path opacity="0.1" d="M368.136 354.253C366.84 360.678 368.078 367.356 371.591 372.884C372.55 374.374 373.677 375.778 374.401 377.399C374.872 378.558 375.239 379.757 375.497 380.982L378.593 393.899C379.434 397.389 380.283 400.942 380.029 404.525C379.855 407.009 379.224 409.822 380.759 411.797C381.129 412.172 381.44 412.602 381.682 413.07C381.83 413.619 381.83 414.198 381.682 414.747C380.109 424.13 378.939 433.936 381.781 443.009C384.362 451.238 384.511 460.354 386.703 468.688C386.88 469.747 387.35 470.735 388.058 471.539C388.646 472.031 389.349 472.364 390.101 472.508C393.333 473.284 396.744 472.377 399.753 470.98C401.87 469.993 404.149 468.266 403.969 465.937C403.882 464.826 403.239 463.851 402.799 462.832C401.938 460.826 401.87 458.591 401.635 456.417C401.053 450.965 399.375 445.698 398.112 440.37C396.849 435.042 395.983 429.459 397.054 424.081C399.246 412.959 402.753 402.139 407.498 391.85C407.706 391.303 408.034 390.811 408.457 390.409C408.933 390.137 409.386 389.827 409.813 389.484C410.141 388.973 410.352 388.396 410.432 387.795C410.903 386.093 412.29 384.832 413.237 383.342C415.608 379.566 414.859 374.728 414.772 370.269C414.685 365.922 415.305 361.575 414.599 357.278C413.893 352.98 411.479 348.621 407.362 347.304C405.325 346.64 403.121 346.795 400.991 347.006C389.705 348.124 378.735 350.18 368.136 354.253Z" fill="black"/>
<path d="M414.122 380.827C414.089 382.511 413.9 384.189 413.559 385.838C411.565 397.017 409.444 408.195 407.195 419.373C406.997 420.342 406.805 421.311 406.545 422.261C405.697 425.365 404.222 428.261 402.211 430.769C392.832 442.5 392.021 459.535 386.932 473.681C386.585 474.638 386.245 475.6 385.879 476.544C384.959 478.94 383.911 481.285 382.741 483.568C382.612 483.898 382.398 484.187 382.121 484.406C381.807 484.569 381.453 484.639 381.1 484.611C376.52 484.634 371.996 483.602 367.876 481.593C367.289 481.373 366.794 480.959 366.471 480.419C366.316 479.988 366.265 479.527 366.322 479.072C366.465 476.271 366.638 473.365 367.969 470.899C368.855 469.425 369.952 468.09 371.225 466.937C371.522 458.12 372.591 449.347 374.42 440.718C375.411 436.321 376.636 431.881 379.181 428.167C381.038 425.422 383.75 422.714 383.415 419.404C383.273 417.951 382.666 416.144 383.843 415.293C384.356 414.914 385.118 414.865 385.471 414.331C385.609 414.079 385.688 413.798 385.7 413.511C385.941 411.241 385.799 408.946 385.279 406.723C384.851 405.27 384.514 403.791 384.27 402.295C384.156 401.545 384.195 400.779 384.385 400.045C384.576 399.31 384.914 398.622 385.378 398.023C385.44 394.998 385.378 391.862 385.421 388.844C385.541 387.125 385.397 385.397 384.994 383.721C384.771 382.932 384.418 382.174 384.245 381.367C383.626 378.467 385.186 374.989 383.316 372.673C382.536 371.716 381.335 371.238 380.314 370.549C378.31 369.092 376.857 366.997 376.191 364.606C375.525 362.228 375.13 359.782 375.014 357.315C374.956 356.793 374.956 356.266 375.014 355.744C375.044 355.472 375.115 355.206 375.225 354.955C375.807 353.645 377.367 353.136 378.76 352.8C387.602 350.674 396.665 349.611 405.758 349.633C409.126 347.335 411.014 348.161 412.445 350.589C413.23 352.077 413.867 353.64 414.345 355.253C414.964 357.228 415.039 368.295 415.67 370.263C416.475 372.841 414.091 378.119 414.122 380.827Z" fill="#696791"/>
<path d="M353.303 280.259C353.055 281.998 353.885 283.706 353.978 285.463C354.058 286.997 353.569 288.494 353.297 290.003C352.207 295.89 354.293 301.858 356.392 307.46C356.797 308.368 357.048 309.338 357.135 310.329C357.191 312.155 356.144 313.831 355.853 315.638C355.234 319.433 358.039 322.998 358.101 326.817C358.101 328.587 357.568 330.388 358.014 332.095C358.305 333.238 359.017 334.226 359.518 335.288C360.416 337.151 360.658 339.324 361.512 341.231C363.054 344.677 366.366 346.932 369.523 349C371.312 348.379 373.238 347.689 374.24 346.068C374.674 345.271 374.953 344.399 375.064 343.497C375.745 339.566 375.72 335.555 375.683 331.568C375.751 328.136 375.579 324.704 375.169 321.296C374.55 316.949 373.132 312.788 372.123 308.522C370.885 303.15 370.21 297.598 368.235 292.437C366.496 287.91 363.796 283.842 360.949 279.942C359.865 278.458 359.005 276.334 356.9 276.676C356.006 276.83 355.181 277.257 354.537 277.898C353.894 278.539 353.463 279.363 353.303 280.259V280.259Z" fill="#434175"/>
<path opacity="0.05" d="M353.303 279.017C353.055 280.756 353.885 282.464 353.978 284.221C354.058 285.755 353.569 287.252 353.297 288.761C352.207 294.648 354.293 300.616 356.392 306.218C356.797 307.126 357.048 308.096 357.135 309.087C357.191 310.913 356.144 312.589 355.853 314.396C355.234 318.191 358.039 321.756 358.101 325.575C358.101 327.345 357.568 329.146 358.014 330.853C358.305 331.996 359.017 332.984 359.518 334.045C360.416 335.909 360.658 338.082 361.512 339.989C363.054 343.435 366.366 345.69 369.523 347.758C371.312 347.137 373.238 346.447 374.24 344.826C374.674 344.029 374.953 343.157 375.064 342.255C375.745 338.324 375.72 334.312 375.683 330.326C375.751 326.894 375.579 323.462 375.169 320.054C374.55 315.707 373.132 311.546 372.123 307.28C370.885 301.908 370.21 296.356 368.235 291.195C366.496 286.668 363.796 282.6 360.949 278.7C359.865 277.216 359.005 275.092 356.9 275.434C356.006 275.588 355.181 276.015 354.537 276.656C353.894 277.297 353.463 278.121 353.303 279.017V279.017Z" fill="black"/>
<path opacity="0.1" d="M399.103 242.371C397.709 244.608 396.557 246.987 395.667 249.469C394.391 249.785 393.081 249.943 391.767 249.941C386.659 249.941 383.05 247.029 380.048 243.346C379.787 242.166 378.19 241.067 378.351 240.142C378.593 238.9 379.744 239.154 380.784 239.222C383.952 239.475 387.106 239.889 390.232 240.464C391.049 240.564 398.979 242.576 399.103 242.371Z" fill="black"/>
<path d="M391.767 249.494C400.797 249.494 408.117 242.151 408.117 233.093C408.117 224.035 400.797 216.692 391.767 216.692C382.737 216.692 375.417 224.035 375.417 233.093C375.417 242.151 382.737 249.494 391.767 249.494Z" fill="#EE8E9E"/>
<path opacity="0.1" d="M412.426 350.602C409.597 350.434 406.743 350.552 403.907 350.664C402.13 350.684 400.358 350.867 398.614 351.21C396.466 351.701 394.46 352.682 392.343 353.297C388.95 354.285 385.372 354.328 381.861 354.676C379.553 354.899 377.261 355.26 374.996 355.756C375.026 355.484 375.097 355.218 375.206 354.968C375.788 353.657 377.348 353.148 378.741 352.813C387.584 350.686 396.647 349.623 405.74 349.646C409.108 347.379 410.996 348.174 412.426 350.602Z" fill="black"/>
<path d="M401.282 259.946C400.57 260.772 399.611 261.684 398.558 261.417C398.175 261.286 397.815 261.093 397.493 260.846C395.636 259.604 393.296 259.343 391.08 258.983C386.61 258.308 382.195 257.312 377.868 256.002C376.61 255.545 375.292 255.277 373.956 255.207C371.188 255.207 368.73 257.07 366.997 259.231C365.264 261.393 364.025 263.933 362.323 266.125C361.085 267.69 359.661 269.068 358.528 270.689C355.668 274.782 355.049 280.123 355.792 285.066C356.534 290.009 358.497 294.673 360.453 299.275C361.49 301.962 362.762 304.551 364.254 307.013C363.598 310.739 363.945 315.086 365.728 318.439C366.304 319.539 367.016 320.607 367.208 321.836C367.295 322.665 367.261 323.502 367.108 324.32L366.273 330.257C366.019 332.064 365.765 333.872 365.437 335.673C364.818 338.958 364.025 342.504 365.542 345.497C367.356 349.062 365.449 353.626 365.926 357.601C371.042 355.618 376.403 354.341 381.861 353.806C385.372 353.459 388.95 353.415 392.343 352.428C394.46 351.807 396.466 350.832 398.614 350.335C400.358 349.993 402.13 349.812 403.907 349.795C407.826 349.639 411.77 349.478 415.67 350.055C415.979 350.105 416.363 350.13 416.555 349.875C416.635 349.733 416.676 349.573 416.673 349.41C416.732 347.952 416.385 346.507 415.67 345.236C415.175 344.361 414.487 343.504 414.506 342.498C414.539 342.028 414.655 341.567 414.847 341.138L416.561 336.542C418.016 332.661 417.323 328.152 418.078 324.078C418.667 320.892 419.043 317.67 419.205 314.434C419.347 311.67 419.261 308.677 417.595 306.466C417.115 305.931 416.699 305.341 416.357 304.709C416.116 304.039 416.015 303.326 416.06 302.616C416.023 297.085 416.173 291.553 416.512 286.022C415.063 283.408 413.546 280.737 412.098 278.123C410.408 275.08 408.699 271.975 408.018 268.559C407.566 266.305 407.578 263.976 407.257 261.697C407.222 261.117 407.022 260.558 406.681 260.088C406.365 259.812 405.994 259.607 405.592 259.488C405.19 259.369 404.768 259.339 404.353 259.399C403.307 259.422 402.272 259.606 401.282 259.946Z" fill="#434175"/>
<path opacity="0.1" d="M461.142 250.09C460.116 250.887 458.891 251.388 457.601 251.537C455.917 251.649 452.333 250.655 451.286 249.208C450.839 248.481 450.623 247.634 450.667 246.78C450.896 246.707 451.133 246.661 451.373 246.643C453.202 246.444 455.051 246.519 456.858 246.867C458.641 247.302 460.362 248.388 461.111 250.071L461.142 250.09Z" fill="black"/>
<path d="M406.743 285.563C407.739 286.805 408.773 288.084 410.185 288.823C411.813 289.668 413.726 289.686 415.552 289.649C423.087 289.481 430.592 288.65 437.982 287.165C438.826 287.019 439.655 286.797 440.458 286.5C441.341 286.076 442.172 285.551 442.935 284.935C445.368 283.184 447.838 281.396 449.689 279.029C451.887 276.173 453.27 272.77 453.688 269.186C455.447 267.565 456.381 265.249 457.261 263.02C457.695 262.074 457.971 261.062 458.078 260.026C458.121 258.964 457.422 257.853 457.62 256.809C457.957 255.008 458.867 253.365 460.214 252.127C460.5 251.923 460.717 251.634 460.833 251.301C460.872 251.026 460.822 250.745 460.69 250.5C459.935 248.817 458.214 247.736 456.431 247.295C454.622 246.945 452.771 246.869 450.94 247.072C450.33 247.188 449.73 247.35 449.144 247.556L447.863 250.928C447.693 251.494 447.409 252.019 447.027 252.469C446.744 252.729 446.442 252.967 446.123 253.183C445.473 253.735 444.969 254.439 444.655 255.233C444.341 256.027 444.226 256.886 444.322 257.735C443.166 258.185 442.225 259.06 441.689 260.181C441.153 261.302 441.063 262.586 441.437 263.771C440.475 263.979 439.583 264.431 438.845 265.083C438.107 265.735 437.547 266.567 437.221 267.497C437.131 267.922 436.942 268.32 436.67 268.658C436.255 268.979 435.744 269.146 435.221 269.13C433.772 269.217 432.509 270.372 431.203 269.751C429.714 269.055 428.052 268.821 426.43 269.081C426.096 269.161 425.752 269.192 425.408 269.174C425.116 269.123 424.834 269.024 424.573 268.882C423.983 268.537 423.344 268.286 422.678 268.137C422.344 268.065 421.996 268.093 421.677 268.216C421.358 268.34 421.082 268.554 420.883 268.832C420.425 268.329 420.152 267.683 419.737 267.143C419.551 266.856 419.29 266.626 418.982 266.478C418.674 266.33 418.331 266.27 417.992 266.305C418.425 265.92 417.992 265.144 417.416 265.001C416.835 264.957 416.252 264.977 415.676 265.063C414.166 265.063 413.002 263.678 411.534 263.318C410.185 262.989 408.383 263.386 407.69 262.175C407.449 261.747 407.399 261.163 406.984 260.933C406.7 260.792 406.376 260.755 406.068 260.827C405.11 260.954 404.179 261.237 403.313 261.666C401.895 267.255 402.638 272.993 403.715 278.62C404.113 281.156 405.156 283.548 406.743 285.563V285.563Z" fill="#434175"/>
<path opacity="0.1" d="M406.699 305.466L399.66 319.713C400.422 318.39 402.025 317.849 403.294 317.036C404.897 315.868 406.101 314.233 406.743 312.353C407.379 310.48 407.825 308.547 408.074 306.584C408.216 305.684 408.513 304.417 408.074 303.597C407.294 303.765 407.033 304.802 406.699 305.466Z" fill="black"/>
<path opacity="0.1" d="M386.443 317.57C384.852 319.147 382.908 320.309 381.162 321.706C377.076 324.972 374.166 329.444 371.325 333.834C370.521 334.982 369.847 336.215 369.312 337.511C369.647 337.796 370.142 337.511 370.476 337.206L376.005 332.338C376.687 331.784 377.31 331.159 377.862 330.475C378.822 329.177 379.249 327.562 380.122 326.202C381.071 324.9 382.203 323.743 383.483 322.768C384.753 321.675 390.584 316.725 389.167 314.8C388.12 315.297 387.279 316.725 386.443 317.57Z" fill="black"/>
<path d="M398.521 255.828C396.709 254.824 394.724 254.169 392.671 253.897C391.453 253.621 390.201 253.531 388.956 253.63C387.805 253.773 386.697 254.22 385.539 254.251C383.911 254.344 382.357 253.68 380.784 253.251C379.212 252.823 377.398 252.63 376.079 253.605C375.797 253.884 375.44 254.074 375.052 254.152C374.652 254.098 374.28 253.915 373.993 253.63C372.881 252.832 371.531 252.436 370.166 252.508C368.8 252.58 367.499 253.116 366.477 254.027C363.481 256.847 363.821 262.355 360.286 264.498C359.32 265.119 358.082 265.398 357.513 266.361C357.375 266.674 357.215 266.977 357.036 267.268C356.803 267.532 356.516 267.744 356.194 267.889C355.174 268.345 354.203 268.905 353.297 269.559C352.844 269.888 352.463 270.306 352.177 270.788C351.891 271.269 351.705 271.804 351.631 272.36C351.618 273.173 351.792 273.979 352.139 274.714C353.859 278.943 356.842 282.535 360.678 284.996C364.515 287.457 369.017 288.666 373.566 288.457C374.375 288.503 375.173 288.253 375.813 287.755C376.15 287.373 376.416 286.933 376.599 286.457C378.252 282.986 381.354 280.421 383.323 277.142C384.493 275.173 385.248 272.969 386.474 271.031C388.331 268.094 391.142 265.92 393.903 263.815C395.463 262.629 397.19 261.38 399.147 261.461C400.886 261.536 402.155 261.629 401.512 259.492C400.982 257.953 399.922 256.653 398.521 255.828V255.828Z" fill="#434175"/>
<path opacity="0.05" d="M398.521 255.828C396.709 254.824 394.724 254.169 392.671 253.897C391.453 253.621 390.201 253.531 388.956 253.63C387.805 253.773 386.697 254.22 385.539 254.251C383.911 254.344 382.357 253.68 380.784 253.251C379.212 252.823 377.398 252.63 376.079 253.605C375.797 253.884 375.44 254.074 375.052 254.152C374.652 254.098 374.28 253.915 373.993 253.63C372.881 252.832 371.531 252.436 370.166 252.508C368.8 252.58 367.499 253.116 366.477 254.027C363.481 256.847 363.821 262.355 360.286 264.498C359.32 265.119 358.082 265.398 357.513 266.361C357.375 266.674 357.215 266.977 357.036 267.268C356.803 267.532 356.516 267.744 356.194 267.889C355.174 268.345 354.203 268.905 353.297 269.559C352.844 269.888 352.463 270.306 352.177 270.788C351.891 271.269 351.705 271.804 351.631 272.36C351.618 273.173 351.792 273.979 352.139 274.714C353.859 278.943 356.842 282.535 360.678 284.996C364.515 287.457 369.017 288.666 373.566 288.457C374.375 288.503 375.173 288.253 375.813 287.755C376.15 287.373 376.416 286.933 376.599 286.457C378.252 282.986 381.354 280.421 383.323 277.142C384.493 275.173 385.248 272.969 386.474 271.031C388.331 268.094 391.142 265.92 393.903 263.815C395.463 262.629 397.19 261.38 399.147 261.461C400.886 261.536 402.155 261.629 401.512 259.492C400.982 257.953 399.922 256.653 398.521 255.828V255.828Z" fill="black"/>
<path d="M407.034 493.542C405.845 494.653 404.217 495.138 402.638 495.479C399.028 496.187 395.372 496.642 391.699 496.839L388.127 497.112C384.641 497.379 381.15 497.646 377.652 497.659C373.331 497.672 369.017 497.298 364.762 496.541C364.567 496.534 364.375 496.486 364.199 496.4C364.024 496.315 363.867 496.193 363.741 496.044C363.608 495.795 363.554 495.511 363.586 495.231C363.661 490.861 364.192 486.51 365.171 482.251C365.573 480.506 368.7 484.425 368.842 484.593C369.165 485.05 369.59 485.425 370.084 485.687C370.577 485.949 371.125 486.091 371.684 486.102C375.281 486.3 379.311 484.108 382.165 482.158C382.778 481.701 383.428 481.296 384.109 480.947C384.609 480.723 385.138 480.573 385.681 480.5C387.532 480.327 389.392 480.705 391.03 481.587C393.178 482.655 395.06 484.189 397.221 485.313C398.951 486.203 400.818 486.795 402.743 487.064C404.687 487.331 407.015 487.462 408.012 489.151C408.804 490.548 408.21 492.436 407.034 493.542Z" fill="#434175"/>
<path d="M407.034 494.187C405.845 495.299 404.217 495.783 402.638 496.125C399.028 496.833 395.372 497.288 391.699 497.485L388.127 497.758C384.641 498.025 381.149 498.292 377.652 498.305C373.33 498.321 369.016 497.947 364.762 497.187C364.567 497.181 364.376 497.134 364.2 497.049C364.024 496.965 363.868 496.845 363.741 496.696C363.405 496.249 363.136 495.756 362.942 495.231C363.016 490.884 364.18 486.505 365.171 482.252C365.573 480.506 368.699 484.425 368.842 484.593C369.165 485.05 369.59 485.425 370.083 485.687C370.577 485.949 371.125 486.091 371.683 486.102C375.28 486.301 379.311 484.108 382.165 482.158C382.778 481.701 383.428 481.296 384.109 480.947C384.609 480.723 385.138 480.573 385.681 480.5C385.217 483.096 381.508 486.232 379.589 487.189C375.714 489.12 371.108 488.151 366.786 488.381C366.47 488.374 366.156 488.449 365.876 488.598C365.363 488.946 365.332 489.685 365.344 490.306C365.381 491.337 365.511 492.554 366.409 493.076C366.856 493.293 367.349 493.397 367.845 493.38C378.5 493.847 389.175 493.471 399.772 492.256C401.554 492.138 403.308 491.746 404.972 491.095C406.06 490.585 407.075 489.929 407.987 489.145C409.349 490.213 408.21 493.082 407.034 494.187Z" fill="#E8EAF2"/>
<path d="M398.131 232.919C398.069 234.614 399.221 237.887 396.057 236.987C394.2 236.44 393.643 234.198 391.253 234.695C388.863 235.192 388.306 238.154 387.501 240.086C386.844 241.621 385.824 242.972 384.53 244.024C383.235 245.075 381.706 245.795 380.072 246.122C379.398 246.28 378.697 246.28 378.023 246.122C376.482 245.681 375.602 244.085 374.971 242.607C374.426 241.355 373.974 240.064 373.621 238.744C373.372 237.817 373.209 236.869 373.132 235.912V235.912C373.08 235.261 373.08 234.607 373.132 233.956C373.417 230.1 375.609 226.585 378.407 223.927C381.205 221.269 384.598 219.344 387.972 217.45C389.071 216.765 390.258 216.234 391.501 215.872C392.723 215.627 393.977 215.577 395.215 215.723C396.852 215.79 398.462 216.17 399.958 216.841C400.57 217.144 401.131 217.54 401.623 218.015C402.325 218.665 402.828 219.503 403.072 220.43C403.691 222.914 402.093 225.169 400.806 227.137C399.629 228.882 398.212 230.733 398.131 232.919Z" fill="#434175"/>
<path opacity="0.1" d="M451.317 269.317C450.642 267.609 447.807 262.883 448.624 261.244C449.479 262.455 450.203 263.754 450.785 265.119C451.317 266.454 450.896 268.23 451.317 269.317Z" fill="black"/>
<path opacity="0.1" d="M400.843 227.131C402.131 225.162 403.715 222.914 403.109 220.424C402.808 219.325 402.156 218.356 401.251 217.667C401.461 218.03 401.62 218.421 401.722 218.828C402.341 221.312 400.744 223.56 399.456 225.535C398.311 227.286 396.893 229.143 396.806 231.323C396.744 233.018 397.902 236.291 394.739 235.391C392.881 234.844 392.324 232.602 389.928 233.099C387.532 233.596 386.988 236.552 386.177 238.489C385.52 240.025 384.5 241.377 383.206 242.429C381.911 243.481 380.381 244.2 378.747 244.526C378.073 244.684 377.372 244.684 376.698 244.526C376.351 244.424 376.024 244.262 375.732 244.048C376.215 245.015 377.051 245.758 378.066 246.122C378.743 246.277 379.445 246.277 380.122 246.122C381.755 245.793 383.284 245.071 384.578 244.018C385.872 242.966 386.892 241.614 387.551 240.079C388.362 238.142 388.888 235.198 391.303 234.695C393.717 234.192 394.225 236.434 396.113 236.98C399.277 237.9 398.119 234.608 398.181 232.913C398.28 230.739 399.704 228.882 400.843 227.131Z" fill="black"/>
<path opacity="0.1" d="M401.542 223.759C401.249 224.243 400.927 224.707 400.576 225.15C399.909 225.996 399.16 226.774 398.341 227.473C397.852 227.895 397.351 228.286 396.831 228.659C395.86 229.345 394.84 229.957 393.779 230.491C390.636 231.958 387.366 233.132 384.01 234L377.484 235.906C376.68 236.527 375.212 237.608 373.596 238.744C373.348 237.817 373.184 236.869 373.107 235.912V235.912C373.055 235.261 373.055 234.607 373.107 233.956C373.392 230.1 375.584 226.585 378.382 223.927C381.18 221.269 384.573 219.344 387.947 217.45C389.046 216.765 390.233 216.234 391.476 215.872C392.699 215.627 393.952 215.577 395.19 215.723C396.827 215.79 398.437 216.17 399.933 216.841C400.545 217.144 401.106 217.54 401.598 218.015C401.967 218.559 402.249 219.159 402.434 219.791C402.842 221.126 402.273 222.554 401.542 223.759Z" fill="black"/>
<path d="M401.542 223.318C401.25 223.802 400.927 224.266 400.577 224.709C399.909 225.555 399.16 226.333 398.342 227.032C397.853 227.454 397.351 227.845 396.831 228.218C395.859 228.902 394.839 229.514 393.779 230.05C390.636 231.517 387.366 232.692 384.01 233.559L377.484 235.459C375.206 237.192 367.579 242.855 366.297 242.147C364.787 241.315 373.064 235.434 373.064 235.434L373.442 235.726C372.204 234.962 371.584 233.192 371.324 231.658C370.842 228.913 370.613 226.069 371.263 223.355C371.913 220.642 373.535 218.071 376.005 216.804C377.101 216.232 378.432 215.853 379.224 214.984C379.343 214.852 379.449 214.708 379.54 214.556C379.588 214.485 379.63 214.41 379.664 214.332C379.747 214.091 379.863 213.863 380.01 213.655C380.462 213.133 381.286 213.289 381.973 213.376H382.196C382.317 213.382 382.439 213.382 382.561 213.376C385.037 213.432 387.396 212.059 389.879 212.059C392.596 212.059 394.912 213.636 397.308 214.717C397.791 214.934 398.249 215.133 398.682 215.338C400.416 216.145 401.716 217.009 402.397 219.3C402.842 220.691 402.273 222.126 401.542 223.318Z" fill="#F9A826"/>
<path opacity="0.1" d="M382.561 213.413C382.698 213.644 382.747 213.917 382.699 214.182C382.651 214.446 382.51 214.685 382.301 214.854C381.999 215.07 381.643 215.197 381.273 215.22C381.006 215.256 380.738 215.277 380.469 215.282C380.106 215.31 379.743 215.248 379.41 215.102C379.345 215.068 379.283 215.028 379.224 214.984C379.343 214.852 379.449 214.708 379.54 214.555C379.602 214.605 379.664 214.593 379.905 214.555C380.354 214.534 380.799 214.459 381.23 214.332C381.409 214.283 381.577 214.201 381.725 214.09C381.946 213.901 382.109 213.653 382.196 213.375L382.561 213.413Z" fill="black"/>
<path opacity="0.1" d="M373.225 235.372C373.57 235.588 373.956 235.732 374.358 235.794C374.644 235.867 374.936 235.915 375.231 235.937C375.981 235.899 376.712 235.686 377.367 235.316" fill="black"/>
<defs>
<linearGradient id="paint0_linear" x1="408.643" y1="497.659" x2="408.643" y2="210.6" gradientUnits="userSpaceOnUse">
<stop stop-color="#808080" stop-opacity="0.25"/>
<stop offset="0.54" stop-color="#808080" stop-opacity="0.12"/>
<stop offset="1" stop-color="#808080" stop-opacity="0.1"/>
</linearGradient>
</defs>
</svg>
