<svg width="1730" height="1047" viewBox="0 0 1730 1047" fill="none" xmlns="http://www.w3.org/2000/svg">
<g clip-path="url(#clip0)">
<path d="M1356.11 994.624C1205.98 1048.19 1002 1009.67 792.714 981.926C583.425 954.186 369.646 938.066 231.372 842.571C92.9977 747.782 28.2797 573.353 83.6353 443.492C137.965 314.204 311.444 229.352 475.792 148.966C639.215 68.447 793.508 -7.60574 938.168 10.1788C1081.8 28.538 1216.83 140.16 1340.99 261.77C1466.08 383.513 1581.23 515.377 1591.53 654.62C1600.9 793.731 1506.35 940.353 1356.11 994.624Z" fill="#53A069" fill-opacity="0.5"/>
<path d="M996.093 393.642C1027.68 393.642 1053.28 368.027 1053.28 336.429C1053.28 304.832 1027.68 279.217 996.093 279.217C964.508 279.217 938.904 304.832 938.904 336.429C938.904 368.027 964.508 393.642 996.093 393.642Z" fill="#2F2E41"/>
<path d="M1012.03 280.792C1021.92 280.793 1031.65 283.364 1040.26 288.252C1048.86 293.141 1056.06 300.18 1061.13 308.682C1066.2 317.183 1068.98 326.856 1069.2 336.755C1069.42 346.654 1067.06 356.44 1062.37 365.157C1067.33 358.951 1070.94 351.779 1072.97 344.1C1075.01 336.42 1075.42 328.401 1074.19 320.553C1072.95 312.705 1070.1 305.2 1065.8 298.517C1061.51 291.834 1055.87 286.119 1049.25 281.736C1042.62 277.354 1035.16 274.4 1027.33 273.063C1019.5 271.725 1011.48 272.034 1003.78 273.969C996.078 275.904 988.863 279.423 982.596 284.302C976.328 289.181 971.145 295.313 967.377 302.306C972.723 295.592 979.514 290.17 987.244 286.445C994.975 282.72 1003.45 280.788 1012.03 280.792V280.792Z" fill="#2F2E41"/>
<path d="M889.227 336.308C982.007 336.308 1057.22 261.065 1057.22 168.247C1057.22 75.4292 982.007 0.185547 889.227 0.185547C796.448 0.185547 721.236 75.4292 721.236 168.247C721.236 261.065 796.448 336.308 889.227 336.308Z" fill="#2F2E41"/>
<path d="M757.381 63.9727C786.328 31.4051 826.79 11.3624 870.228 8.07458C913.666 4.78681 956.682 18.5112 990.196 46.3512C988.823 45.0448 987.463 43.7279 986.036 42.4584C952.736 12.8563 909.046 -2.30176 864.576 0.317983C820.105 2.93773 778.496 23.1207 748.898 56.4281C719.301 89.7356 704.139 133.44 706.747 177.929C709.356 222.419 729.521 264.05 762.808 293.668C764.235 294.937 765.702 296.133 767.159 297.345C735.597 267.308 716.934 226.179 715.11 182.637C713.285 139.095 728.442 96.5466 757.381 63.9727V63.9727Z" fill="#2F2E41"/>
<path d="M887.804 334.884C947.56 334.884 996.002 286.422 996.002 226.641C996.002 166.86 947.56 118.398 887.804 118.398C828.048 118.398 779.606 166.86 779.606 226.641C779.606 286.422 828.048 334.884 887.804 334.884Z" fill="#FFB8B8"/>
<path d="M810.926 260.823C810.926 260.823 825.163 391.854 802.385 406.096C779.606 420.339 933.361 440.278 933.361 440.278C933.361 440.278 910.582 297.853 967.529 260.823H810.926Z" fill="#FFB8B8"/>
<path d="M947.597 383.308C947.597 383.308 989.995 363.501 928.934 370.556C867.873 377.611 815.191 350.551 815.191 350.551C815.191 350.551 796.69 332.035 793.843 351.975C790.995 371.914 802.384 408.945 739.744 414.642C677.103 420.339 620.156 403.248 597.378 445.975C574.599 488.703 585.989 673.855 585.989 673.855C585.989 673.855 628.698 827.674 662.866 850.462C697.034 873.25 996.002 841.916 996.002 841.916L1081.42 688.097V508.642C1081.42 508.642 1070.03 445.975 990.307 463.066C990.307 463.066 939.056 451.672 941.903 426.036C944.75 400.399 947.597 383.308 947.597 383.308Z" fill="#D0CDE1"/>
<path d="M674.166 959.316C675.926 951.645 677.104 947.307 677.104 947.307L676.193 941.066L666.812 877.339L662.868 850.459C697.028 836.217 705.576 770.698 705.576 770.698L706.865 769.928L712.694 766.438V766.422L733.624 753.862L734.048 753.611L742.502 759.238L759.676 770.698C819.762 814.901 880.949 814.115 918.707 807.152C941.79 802.892 956.135 796.336 956.135 796.336L997.555 782.519L998.843 782.095L1000.12 782.283L1024.41 785.962L1024.85 786.04L1026.86 786.339L1021.23 825.245L1013.08 881.788C1034.62 893.2 1053.78 914.642 1070.53 941.066C1074.23 946.914 1077.83 952.997 1081.31 959.316C1085.83 967.491 1090.15 975.995 1094.27 984.704C1094.77 985.741 1095.26 986.794 1095.75 987.847C1097.33 991.259 1098.9 994.701 1100.43 998.159H666.623C667.189 994.685 667.755 991.369 668.305 988.177C668.333 988.069 668.354 987.959 668.368 987.847C668.572 986.778 668.76 985.741 668.933 984.704C670.85 974.329 672.704 965.667 674.166 959.316Z" fill="#2F2E41"/>
<path d="M657.171 411.793C657.171 411.793 688.492 468.763 677.103 539.976C665.713 611.188 711.27 787.795 711.27 787.795L745.438 779.249C745.438 779.249 722.66 631.127 728.354 596.946C734.049 562.764 734.049 428.884 705.576 411.793C677.103 394.702 657.171 411.793 657.171 411.793Z" fill="#2F2E41"/>
<path d="M988.304 470.996L1000.27 786.371L1023.05 800.613C1023.05 800.613 1055.8 454.521 1038.71 454.521H1003.95C1001.83 454.521 999.723 454.953 997.77 455.792C995.817 456.63 994.056 457.858 992.592 459.399C991.129 460.94 989.994 462.763 989.257 464.757C988.519 466.75 988.195 468.873 988.304 470.996V470.996Z" fill="#2F2E41"/>
<path d="M726.931 780.674C734.793 780.674 741.167 774.297 741.167 766.431C741.167 758.565 734.793 752.189 726.931 752.189C719.068 752.189 712.694 758.565 712.694 766.431C712.694 774.297 719.068 780.674 726.931 780.674Z" fill="#76DE95"/>
<path d="M1011.66 794.916C1019.52 794.916 1025.9 788.54 1025.9 780.674C1025.9 772.808 1019.52 766.431 1011.66 766.431C1003.8 766.431 997.425 772.808 997.425 780.674C997.425 788.54 1003.8 794.916 1011.66 794.916Z" fill="#76DE95"/>
<path d="M795.266 91.3367V199.58H820.323L852.213 165.398L847.942 199.58H958.701L951.868 165.398L965.535 199.58H983.188V91.3367H795.266Z" fill="#2F2E41"/>
<path d="M778.182 219.52C782.9 219.52 786.724 212.506 786.724 203.853C786.724 195.201 782.9 188.186 778.182 188.186C773.465 188.186 769.64 195.201 769.64 203.853C769.64 212.506 773.465 219.52 778.182 219.52Z" fill="#FFB8B8"/>
<path d="M997.425 219.52C1002.14 219.52 1005.97 212.506 1005.97 203.853C1005.97 195.201 1002.14 188.186 997.425 188.186C992.708 188.186 988.883 195.201 988.883 203.853C988.883 212.506 992.708 219.52 997.425 219.52Z" fill="#FFB8B8"/>
<path d="M1055.8 779.249C1055.8 779.249 926.242 755.037 917.701 797.765C909.159 840.492 1061.49 821.977 1061.49 821.977L1055.8 779.249Z" fill="#FFB8B8"/>
<path d="M1052.95 485.854C1052.95 485.854 1363.31 733.673 1306.36 793.492C1249.41 853.31 1033.02 836.219 1033.02 836.219L1047.25 765.007L1172.54 750.765L1109.89 688.098L1052.95 693.795V485.854Z" fill="#D0CDE1"/>
<path d="M594.531 898.886L634.393 930.22C634.393 930.22 662.866 1018.52 705.576 992.887C748.285 967.25 665.713 876.098 665.713 876.098L617.309 859.007L594.531 898.886Z" fill="#FFB8B8"/>
<path d="M634.393 440.278L594.638 452.247C594.638 452.247 318.341 656.764 306.952 713.734C295.563 770.704 361.051 802.037 361.051 802.037L608.767 918.826L634.393 850.462L517.653 790.643C517.653 790.643 526.195 773.552 492.027 770.704C457.859 767.855 452.165 730.825 452.165 730.825C452.165 730.825 520.5 625.43 557.515 648.218C594.53 671.006 605.92 688.097 605.92 688.097L634.393 440.278Z" fill="#D0CDE1"/>
<path d="M1201.41 969.078V978.62C1201.42 981.239 1200.94 983.835 1199.99 986.275C1199.56 987.363 1199.05 988.414 1198.46 989.419C1196.59 992.564 1193.93 995.168 1190.75 996.976C1187.57 998.783 1183.97 999.733 1180.31 999.731H478.649C474.99 999.733 471.394 998.783 468.212 996.976C465.03 995.168 462.373 992.564 460.5 989.419C459.908 988.414 459.398 987.363 458.976 986.275C458.026 983.835 457.541 981.239 457.546 978.62V969.078C457.546 966.306 458.091 963.56 459.151 960.998C460.211 958.437 461.766 956.109 463.726 954.149C465.685 952.188 468.012 950.633 470.573 949.572C473.133 948.512 475.878 947.966 478.649 947.967H519.094V943.518C519.094 943.403 519.117 943.288 519.161 943.181C519.205 943.074 519.27 942.977 519.351 942.895C519.433 942.814 519.53 942.749 519.637 942.705C519.744 942.66 519.859 942.638 519.974 942.638H541.077C541.192 942.638 541.307 942.66 541.414 942.705C541.52 942.749 541.618 942.814 541.699 942.895C541.781 942.977 541.846 943.074 541.89 943.181C541.934 943.288 541.957 943.403 541.957 943.518V947.967H555.14V943.518C555.14 943.403 555.162 943.288 555.206 943.181C555.251 943.074 555.315 942.977 555.397 942.895C555.479 942.814 555.576 942.749 555.683 942.705C555.79 942.66 555.904 942.638 556.02 942.638H577.122C577.238 942.638 577.352 942.66 577.459 942.705C577.566 942.749 577.663 942.814 577.745 942.895C577.827 942.977 577.891 943.074 577.936 943.181C577.98 943.288 578.002 943.403 578.002 943.518V947.967H591.201V943.518C591.201 943.403 591.224 943.288 591.268 943.181C591.312 943.074 591.377 942.977 591.458 942.895C591.54 942.814 591.637 942.749 591.744 942.705C591.851 942.66 591.965 942.638 592.081 942.638H613.184C613.299 942.638 613.414 942.66 613.521 942.705C613.627 942.749 613.724 942.814 613.806 942.895C613.888 942.977 613.953 943.074 613.997 943.181C614.041 943.288 614.064 943.403 614.063 943.518V947.967H627.247V943.518C627.247 943.403 627.269 943.288 627.313 943.181C627.357 943.074 627.422 942.977 627.504 942.895C627.586 942.814 627.683 942.749 627.79 942.705C627.897 942.66 628.011 942.638 628.127 942.638H649.229C649.345 942.638 649.459 942.66 649.566 942.705C649.673 942.749 649.77 942.814 649.852 942.895C649.934 942.977 649.998 943.074 650.043 943.181C650.087 943.288 650.109 943.403 650.109 943.518V947.967H663.292V943.518C663.292 943.403 663.315 943.288 663.359 943.181C663.403 943.074 663.468 942.977 663.55 942.895C663.631 942.814 663.728 942.749 663.835 942.705C663.942 942.66 664.057 942.638 664.172 942.638H685.275C685.39 942.638 685.505 942.66 685.612 942.705C685.719 942.749 685.816 942.814 685.897 942.895C685.979 942.977 686.044 943.074 686.088 943.181C686.132 943.288 686.155 943.403 686.155 943.518V947.967H699.354V943.518C699.353 943.403 699.376 943.288 699.42 943.181C699.464 943.074 699.529 942.977 699.611 942.895C699.693 942.814 699.79 942.749 699.897 942.705C700.003 942.66 700.118 942.638 700.234 942.638H721.336C721.452 942.638 721.566 942.66 721.673 942.705C721.78 942.749 721.877 942.814 721.959 942.895C722.04 942.977 722.105 943.074 722.149 943.181C722.194 943.288 722.216 943.403 722.216 943.518V947.967H735.399V943.518C735.399 943.403 735.422 943.288 735.466 943.181C735.51 943.074 735.575 942.977 735.657 942.895C735.738 942.814 735.835 942.749 735.942 942.705C736.049 942.66 736.164 942.638 736.279 942.638H901.58C901.695 942.638 901.81 942.66 901.917 942.705C902.024 942.749 902.121 942.814 902.202 942.895C902.284 942.977 902.349 943.074 902.393 943.181C902.437 943.288 902.46 943.403 902.46 943.518V947.967H915.659V943.518C915.658 943.403 915.681 943.288 915.725 943.181C915.769 943.074 915.834 942.977 915.916 942.895C915.998 942.814 916.095 942.749 916.202 942.705C916.308 942.66 916.423 942.638 916.538 942.638H937.641C937.874 942.64 938.096 942.734 938.261 942.898C938.425 943.063 938.519 943.286 938.521 943.518V947.967H951.704V943.518C951.704 943.403 951.727 943.288 951.771 943.181C951.815 943.074 951.88 942.977 951.961 942.895C952.043 942.814 952.14 942.749 952.247 942.705C952.354 942.66 952.468 942.638 952.584 942.638H973.687C973.802 942.638 973.917 942.66 974.024 942.705C974.13 942.749 974.227 942.814 974.309 942.895C974.391 942.977 974.456 943.074 974.5 943.181C974.544 943.288 974.567 943.403 974.567 943.518V947.967H987.75V943.518C987.75 943.403 987.772 943.288 987.816 943.181C987.86 943.074 987.925 942.977 988.007 942.895C988.089 942.814 988.186 942.749 988.293 942.705C988.4 942.66 988.514 942.638 988.63 942.638H1009.73C1009.85 942.638 1009.96 942.66 1010.07 942.705C1010.18 942.749 1010.27 942.814 1010.35 942.895C1010.44 942.977 1010.5 943.074 1010.55 943.181C1010.59 943.288 1010.61 943.403 1010.61 943.518V947.967H1023.81V943.518C1023.81 943.403 1023.83 943.288 1023.88 943.181C1023.92 943.074 1023.99 942.977 1024.07 942.895C1024.15 942.814 1024.25 942.749 1024.35 942.705C1024.46 942.66 1024.58 942.638 1024.69 942.638H1045.79C1046.02 942.641 1046.25 942.735 1046.41 942.9C1046.57 943.065 1046.66 943.287 1046.66 943.518V947.967H1059.86V943.518C1059.86 943.403 1059.88 943.288 1059.92 943.181C1059.97 943.074 1060.03 942.977 1060.11 942.895C1060.2 942.814 1060.29 942.749 1060.4 942.705C1060.51 942.66 1060.62 942.638 1060.74 942.638H1081.84C1081.95 942.638 1082.07 942.66 1082.18 942.705C1082.28 942.749 1082.38 942.814 1082.46 942.895C1082.54 942.977 1082.61 943.074 1082.65 943.181C1082.7 943.288 1082.72 943.403 1082.72 943.518V947.967H1095.9V943.518C1095.9 943.403 1095.92 943.288 1095.97 943.181C1096.01 943.074 1096.08 942.977 1096.16 942.895C1096.24 942.814 1096.34 942.749 1096.45 942.705C1096.55 942.66 1096.67 942.638 1096.78 942.638H1117.88C1118 942.638 1118.11 942.66 1118.22 942.705C1118.33 942.749 1118.43 942.814 1118.51 942.895C1118.59 942.977 1118.65 943.074 1118.7 943.181C1118.74 943.288 1118.76 943.403 1118.76 943.518V947.967H1180.31C1183.08 947.966 1185.83 948.512 1188.39 949.572C1190.95 950.633 1193.28 952.188 1195.24 954.149C1197.2 956.109 1198.75 958.437 1199.81 960.998C1200.87 963.56 1201.42 966.306 1201.41 969.078V969.078Z" fill="#3F3D56"/>
<path d="M1405.44 986.268H253.683V989.412H1405.44V986.268Z" fill="#3F3D56"/>
<path d="M1144.92 567.234H883.384V561.841H764.795V567.234H502.185C497.494 567.234 492.994 569.098 489.676 572.417C486.359 575.736 484.495 580.238 484.495 584.932V943.198C484.495 947.891 486.359 952.393 489.676 955.712C492.994 959.031 497.494 960.896 502.185 960.896H1144.92C1149.61 960.896 1154.11 959.031 1157.42 955.712C1160.74 952.393 1162.61 947.891 1162.61 943.198V584.932C1162.61 582.608 1162.15 580.306 1161.26 578.159C1160.37 576.012 1159.07 574.061 1157.42 572.417C1155.78 570.774 1153.83 569.47 1151.68 568.581C1149.54 567.691 1147.24 567.234 1144.92 567.234V567.234Z" fill="#3F3D56"/>
<path d="M824.065 731.612C845.76 731.612 863.347 714.017 863.347 692.313C863.347 670.609 845.76 653.014 824.065 653.014C802.37 653.014 784.782 670.609 784.782 692.313C784.782 714.017 802.37 731.612 824.065 731.612Z" stroke="#D0CDE1" stroke-width="2" stroke-miterlimit="10"/>
<path d="M811.494 745.759C833.189 745.759 850.777 728.165 850.777 706.461C850.777 684.756 833.189 667.162 811.494 667.162C789.799 667.162 772.212 684.756 772.212 706.461C772.212 728.165 789.799 745.759 811.494 745.759Z" fill="#D0CDE1"/>
<path d="M337.861 1043.07H40.8854V1046.63H337.861V1043.07Z" fill="#3F3D56"/>
<path d="M1634.18 1043.07H1337.21V1046.63H1634.18V1043.07Z" fill="#3F3D56"/>
<path d="M213.915 928.579C182.629 979.678 193.393 1043.24 193.393 1043.24C193.393 1043.24 254.882 1023.95 286.168 972.854C317.454 921.756 306.69 858.195 306.69 858.195C306.69 858.195 245.202 877.481 213.915 928.579Z" fill="#3F3D56"/>
<path d="M192.116 1043.66L190.337 1043.38C189.694 1043.28 125.666 1032.66 87.3198 986.765C48.9734 940.865 49.8962 875.943 49.9087 875.292L49.9469 873.491L51.7257 873.773C52.369 873.875 116.397 884.488 154.744 930.388C193.09 976.287 192.167 1041.21 192.154 1041.86L192.116 1043.66Z" fill="#76DE95"/>
<path d="M194.643 1045.28L192.924 1044.74C192.302 1044.54 130.511 1024.69 99.2782 973.676C68.0456 922.664 78.4385 858.574 78.546 857.932L78.8467 856.156L80.5653 856.695C81.1868 856.89 142.978 876.746 174.211 927.758C205.444 978.768 195.051 1042.86 194.943 1043.5L194.643 1045.28ZM81.3817 860.293C79.9593 871.049 74.2894 926.843 101.957 972.033C129.627 1017.22 181.885 1037.52 192.108 1041.14C193.53 1030.38 199.2 974.589 171.532 929.4C143.862 884.21 91.6043 863.914 81.3817 860.293H81.3817Z" fill="#3F3D56"/>
<path d="M195.345 877.664C214.437 877.664 229.914 862.181 229.914 843.081C229.914 823.982 214.437 808.498 195.345 808.498C176.254 808.498 160.777 823.982 160.777 843.081C160.777 862.181 176.254 877.664 195.345 877.664Z" fill="#3F3D56"/>
<path d="M628.188 405.963L429.879 206.006H336.258V202.862H431.191L431.653 203.329L630.422 403.753L628.188 405.963Z" fill="#3F3D56"/>
<path d="M1093.96 399.675L1292.26 199.718H1385.89V196.574H1290.95L1290.49 197.041L1091.72 397.465L1093.96 399.675Z" fill="#3F3D56"/>
<path d="M229.41 107.427H0.00012207V152.82H229.41V107.427Z" fill="#D0CDE1"/>
<path d="M229.41 177.082H0.00012207V222.475H229.41V177.082Z" fill="#D0CDE1"/>
<path d="M229.41 246.738H0.00012207V292.131H229.41V246.738Z" fill="#D0CDE1"/>
<path opacity="0.15" d="M94.9047 107.427H0.000183105V152.82H94.9047V107.427Z" fill="black"/>
<path opacity="0.15" d="M30.7245 177.082H0V222.475H30.7245V177.082Z" fill="black"/>
<path opacity="0.15" d="M152.94 246.738H0.00012207V292.131H152.94V246.738Z" fill="black"/>
<path d="M1730 117.625H1500.24V138.107H1730V117.625Z" fill="#D0CDE1"/>
<path d="M1459.67 114.973H1414.17V160.49H1459.67V114.973Z" fill="#76DE95"/>
<path d="M1459.67 183.248H1414.17V228.764H1459.67V183.248Z" fill="#76DE95"/>
<path d="M1459.67 251.522H1414.17V297.038H1459.67V251.522Z" fill="#76DE95"/>
<path d="M1472.24 151.058H1423.6V102.397H1472.24V151.058ZM1426.74 147.914H1469.09V105.541H1426.74V147.914Z" fill="#3F3D56"/>
<path d="M1730 185.899H1500.24V206.381H1730V185.899Z" fill="#D0CDE1"/>
<path d="M1472.24 219.332H1423.6V170.672H1472.24V219.332ZM1426.74 216.188H1469.09V173.816H1426.74V216.188Z" fill="#3F3D56"/>
<path d="M1730 254.173H1500.24V274.655H1730V254.173Z" fill="#D0CDE1"/>
<path d="M1472.24 287.606H1423.6V238.946H1472.24V287.606ZM1426.74 284.462H1469.09V242.09H1426.74V284.462Z" fill="#3F3D56"/>
<path d="M296.975 155.703C310.86 155.703 322.116 144.443 322.116 130.552C322.116 116.661 310.86 105.401 296.975 105.401C283.091 105.401 271.835 116.661 271.835 130.552C271.835 144.443 283.091 155.703 296.975 155.703Z" fill="#76DE95"/>
<path d="M296.975 231.157C310.86 231.157 322.116 219.896 322.116 206.006C322.116 192.115 310.86 180.854 296.975 180.854C283.091 180.854 271.835 192.115 271.835 206.006C271.835 219.896 283.091 231.157 296.975 231.157Z" fill="#76DE95"/>
<path d="M296.975 298.751C310.86 298.751 322.116 287.49 322.116 273.6C322.116 259.709 310.86 248.448 296.975 248.448C283.091 248.448 271.835 259.709 271.835 273.6C271.835 287.49 283.091 298.751 296.975 298.751Z" fill="#76DE95"/>
<path d="M284.405 150.987C279.122 150.987 273.957 149.42 269.565 146.484C265.172 143.547 261.748 139.374 259.726 134.491C257.705 129.608 257.176 124.235 258.206 119.051C259.237 113.867 261.781 109.105 265.517 105.368C269.253 101.631 274.012 99.0856 279.194 98.0545C284.375 97.0234 289.746 97.5526 294.627 99.5752C299.508 101.598 303.68 105.023 306.615 109.418C309.551 113.812 311.117 118.979 311.117 124.264C311.109 131.349 308.292 138.142 303.285 143.152C298.277 148.161 291.487 150.979 284.405 150.987V150.987ZM284.405 100.685C279.743 100.685 275.187 102.068 271.311 104.659C267.435 107.25 264.414 110.932 262.63 115.241C260.846 119.549 260.379 124.29 261.288 128.864C262.198 133.438 264.443 137.64 267.739 140.937C271.035 144.235 275.235 146.481 279.807 147.39C284.379 148.3 289.118 147.833 293.425 146.049C297.732 144.264 301.413 141.242 304.002 137.364C306.592 133.487 307.975 128.928 307.975 124.264C307.968 118.013 305.482 112.019 301.063 107.599C296.645 103.179 290.654 100.692 284.405 100.685V100.685Z" fill="#3F3D56"/>
<path d="M284.405 226.441C279.122 226.441 273.957 224.874 269.565 221.937C265.172 219.001 261.748 214.827 259.726 209.944C257.705 205.061 257.176 199.688 258.206 194.504C259.237 189.321 261.781 184.559 265.517 180.822C269.253 177.084 274.012 174.539 279.194 173.508C284.375 172.477 289.746 173.006 294.627 175.029C299.508 177.051 303.68 180.477 306.615 184.871C309.551 189.266 311.117 194.432 311.117 199.718C311.109 206.803 308.292 213.595 303.285 218.605C298.277 223.615 291.487 226.433 284.405 226.441V226.441ZM284.405 176.139C279.743 176.139 275.187 177.521 271.311 180.112C267.435 182.703 264.414 186.386 262.63 190.694C260.846 195.003 260.379 199.744 261.288 204.318C262.198 208.892 264.443 213.093 267.739 216.391C271.035 219.689 275.235 221.934 279.807 222.844C284.379 223.754 289.118 223.287 293.425 221.502C297.732 219.718 301.413 216.695 304.002 212.818C306.592 208.94 307.975 204.381 307.975 199.718C307.968 193.466 305.482 187.473 301.063 183.053C296.645 178.632 290.654 176.146 284.405 176.139Z" fill="#3F3D56"/>
<path d="M284.405 294.035C279.122 294.035 273.957 292.468 269.565 289.531C265.172 286.595 261.748 282.421 259.726 277.538C257.705 272.655 257.176 267.282 258.206 262.098C259.237 256.915 261.781 252.153 265.517 248.416C269.253 244.678 274.012 242.133 279.194 241.102C284.375 240.071 289.746 240.6 294.627 242.623C299.508 244.645 303.68 248.071 306.615 252.465C309.551 256.86 311.117 262.026 311.117 267.312C311.109 274.397 308.292 281.189 303.285 286.199C298.277 291.209 291.487 294.027 284.405 294.035V294.035ZM284.405 243.733C279.743 243.733 275.187 245.115 271.311 247.706C267.435 250.297 264.414 253.98 262.63 258.288C260.846 262.597 260.379 267.338 261.288 271.912C262.198 276.486 264.443 280.687 267.739 283.985C271.035 287.282 275.235 289.528 279.807 290.438C284.379 291.348 289.118 290.881 293.425 289.096C297.732 287.312 301.413 284.289 304.002 280.412C306.592 276.534 307.975 271.975 307.975 267.312C307.968 261.06 305.482 255.067 301.063 250.647C296.645 246.226 290.654 243.74 284.405 243.733V243.733Z" fill="#3F3D56"/>
<path d="M1554.01 936.963H1550.87V913.384C1550.87 912.134 1551.37 910.935 1552.25 910.051C1553.14 909.167 1554.34 908.67 1555.59 908.668H1563.44C1563.86 908.668 1564.26 908.502 1564.55 908.207C1564.85 907.913 1565.01 907.513 1565.01 907.096V891.377C1565.01 890.96 1564.85 890.56 1564.55 890.266C1564.26 889.971 1563.86 889.805 1563.44 889.805H1555.59C1554.34 889.803 1553.14 889.306 1552.25 888.422C1551.37 887.538 1550.87 886.339 1550.87 885.089V877.229C1550.87 876.812 1550.71 876.413 1550.41 876.118C1550.12 875.823 1549.72 875.658 1549.3 875.657H1535.16C1533.91 875.656 1532.71 875.159 1531.83 874.274C1530.94 873.39 1530.45 872.192 1530.44 870.941V869.369C1530.44 868.953 1530.28 868.553 1529.98 868.258C1529.69 867.963 1529.29 867.798 1528.87 867.797H1472.31C1471.89 867.798 1471.49 867.963 1471.2 868.258C1470.9 868.553 1470.74 868.953 1470.74 869.369V870.941C1470.73 872.192 1470.24 873.39 1469.35 874.274C1468.47 875.159 1467.27 875.656 1466.02 875.657H1451.88C1451.46 875.658 1451.06 875.823 1450.77 876.118C1450.47 876.413 1450.31 876.812 1450.31 877.229V885.089C1450.31 886.339 1449.81 887.538 1448.93 888.422C1448.04 889.306 1446.84 889.803 1445.59 889.805H1437.74C1437.32 889.805 1436.92 889.971 1436.63 890.266C1436.33 890.56 1436.17 890.96 1436.17 891.377V907.096C1436.17 907.513 1436.33 907.913 1436.63 908.207C1436.92 908.502 1437.32 908.668 1437.74 908.668H1447.17C1448.42 908.67 1449.61 909.167 1450.5 910.051C1451.38 910.935 1451.88 912.134 1451.88 913.384V936.963H1448.74V913.384C1448.74 912.967 1448.57 912.568 1448.28 912.273C1447.98 911.978 1447.58 911.812 1447.17 911.812H1437.74C1436.49 911.811 1435.29 911.313 1434.41 910.429C1433.52 909.545 1433.03 908.347 1433.02 907.096V891.377C1433.03 890.126 1433.52 888.928 1434.41 888.044C1435.29 887.16 1436.49 886.662 1437.74 886.661H1445.59C1446.01 886.661 1446.41 886.495 1446.71 886.2C1447 885.905 1447.17 885.506 1447.17 885.089V877.229C1447.17 875.979 1447.66 874.78 1448.55 873.896C1449.43 873.012 1450.63 872.515 1451.88 872.513H1466.02C1466.44 872.513 1466.84 872.347 1467.13 872.053C1467.43 871.758 1467.59 871.358 1467.59 870.941V869.369C1467.59 868.119 1468.09 866.92 1468.98 866.036C1469.86 865.152 1471.06 864.655 1472.31 864.654H1528.87C1530.12 864.655 1531.32 865.152 1532.21 866.036C1533.09 866.92 1533.59 868.119 1533.59 869.369V870.941C1533.59 871.358 1533.75 871.758 1534.05 872.053C1534.34 872.347 1534.74 872.513 1535.16 872.513H1549.3C1550.55 872.515 1551.75 873.012 1552.63 873.896C1553.52 874.78 1554.01 875.979 1554.01 877.229V885.089C1554.01 885.506 1554.18 885.905 1554.47 886.2C1554.77 886.495 1555.17 886.661 1555.59 886.661H1563.44C1564.69 886.662 1565.89 887.16 1566.77 888.044C1567.66 888.928 1568.15 890.126 1568.16 891.377V907.096C1568.15 908.347 1567.66 909.545 1566.77 910.429C1565.89 911.313 1564.69 911.811 1563.44 911.812H1555.59C1555.17 911.812 1554.77 911.978 1554.47 912.273C1554.18 912.568 1554.01 912.967 1554.01 913.384V936.963Z" fill="#3F3D56"/>
<path d="M1549.3 1047H1453.45C1452.2 1047 1451 1046.5 1450.12 1045.62C1449.24 1044.73 1448.74 1043.53 1448.74 1042.28V974.69H1451.88V1042.28C1451.88 1042.7 1452.05 1043.1 1452.34 1043.4C1452.64 1043.69 1453.03 1043.86 1453.45 1043.86H1549.3C1549.72 1043.86 1550.12 1043.69 1550.41 1043.4C1550.71 1043.1 1550.87 1042.7 1550.87 1042.28V974.69H1554.01V1042.28C1554.01 1043.53 1553.52 1044.73 1552.63 1045.62C1551.75 1046.5 1550.55 1047 1549.3 1047V1047Z" fill="#3F3D56"/>
<path d="M1569.73 947.967H1451.88C1450.14 947.967 1448.74 949.375 1448.74 951.111V982.55C1448.74 984.286 1450.14 985.694 1451.88 985.694H1569.73C1571.46 985.694 1572.87 984.286 1572.87 982.55V951.111C1572.87 949.375 1571.46 947.967 1569.73 947.967Z" fill="#76DE95"/>
<path d="M1559.51 976.262H1441.67C1440.42 976.261 1439.22 975.763 1438.33 974.879C1437.45 973.995 1436.95 972.797 1436.95 971.546V940.107C1436.95 938.857 1437.45 937.658 1438.33 936.774C1439.22 935.89 1440.42 935.393 1441.67 935.391H1559.51C1560.76 935.393 1561.96 935.89 1562.85 936.774C1563.73 937.658 1564.23 938.857 1564.23 940.107V971.546C1564.23 972.797 1563.73 973.995 1562.85 974.879C1561.96 975.763 1560.76 976.261 1559.51 976.262ZM1441.67 938.535C1441.25 938.536 1440.85 938.701 1440.56 938.996C1440.26 939.291 1440.1 939.69 1440.1 940.107V971.546C1440.1 971.963 1440.26 972.363 1440.56 972.657C1440.85 972.952 1441.25 973.118 1441.67 973.118H1559.51C1559.93 973.118 1560.33 972.952 1560.62 972.657C1560.92 972.363 1561.09 971.963 1561.09 971.546V940.107C1561.09 939.69 1560.92 939.291 1560.62 938.996C1560.33 938.701 1559.93 938.536 1559.51 938.535H1441.67Z" fill="#3F3D56"/>
<path d="M1497.45 853.65C1493.27 825.5 1492.17 796.979 1494.16 768.59L1497.45 721.606C1479.31 757.707 1483.41 805.222 1497.45 853.65V853.65Z" fill="#D0CDE1"/>
<path d="M1511.59 861.51C1509.58 844.712 1509.05 827.769 1510.01 810.879L1511.59 782.912C1502.86 804.401 1504.84 832.683 1511.59 861.51Z" fill="#D0CDE1"/>
</g>
<defs>
<clipPath id="clip0">
<rect width="1730" height="1047" fill="white"/>
</clipPath>
</defs>
</svg>
