<svg width="1418" height="819" viewBox="0 0 1418 819" fill="none" xmlns="http://www.w3.org/2000/svg">
<g clip-path="url(#clip0)">
<path d="M513.951 -10.9097C709.15 -31.1893 904.449 -12.3146 1104.06 61.598C1303.87 134.905 1508.91 263.533 1540.62 384.013C1573.25 504.776 1433.29 618.281 1286 703.01C1138.52 788.345 984.642 845.188 808.742 828.956C632.842 812.724 435.847 723.702 285.51 594.636C134.25 465.285 29.6473 295.891 75.7262 182.064C121.991 67.6307 318.014 8.48034 513.951 -10.9097Z" fill="#FFED4B" fill-opacity="0.6"/>
<path d="M1418 12H582V763H1418V12Z" fill="#E6E8EC"/>
<path d="M1418 765H580V12H1418V765ZM583.229 761.158H1414.77V15.8419H583.229V761.158Z" fill="#3F3D56"/>
<path d="M621.224 64.4562C631.841 64.4562 640.448 55.8475 640.448 45.2282C640.448 34.6089 631.841 26.0002 621.224 26.0002C610.607 26.0002 602 34.6089 602 45.2282C602 55.8475 610.607 64.4562 621.224 64.4562Z" fill="#D93939"/>
<path d="M675.051 64.4562C685.669 64.4562 694.275 55.8475 694.275 45.2282C694.275 34.6089 685.669 26.0002 675.051 26.0002C664.434 26.0002 655.827 34.6089 655.827 45.2282C655.827 55.8475 664.434 64.4562 675.051 64.4562Z" fill="#F6FA2D"/>
<path d="M728.879 64.4562C739.496 64.4562 748.103 55.8475 748.103 45.2282C748.103 34.6089 739.496 26.0002 728.879 26.0002C718.262 26.0002 709.655 34.6089 709.655 45.2282C709.655 55.8475 718.262 64.4562 728.879 64.4562Z" fill="#7BEF53"/>
<path d="M1205.44 255.666H795.194V260.276H1205.44V255.666Z" fill="#3F3D56"/>
<path d="M1205.44 287.939H795.194V292.55H1205.44V287.939Z" fill="#3F3D56"/>
<path d="M1205.44 320.212H795.194V324.823H1205.44V320.212Z" fill="#3F3D56"/>
<path d="M1205.44 386.416H795.194V391.026H1205.44V386.416Z" fill="#3F3D56"/>
<path d="M1205.44 418.689H795.194V423.3H1205.44V418.689Z" fill="#3F3D56"/>
<path d="M1205.44 450.963H795.194V455.573H1205.44V450.963Z" fill="#3F3D56"/>
<path d="M999.72 734.609C979.569 734.609 959.87 728.632 943.115 717.434C926.359 706.236 913.3 690.32 905.589 671.699C897.877 653.078 895.859 632.588 899.791 612.819C903.722 593.051 913.426 574.893 927.675 560.641C941.924 546.389 960.079 536.683 979.843 532.751C999.607 528.819 1020.09 530.837 1038.71 538.55C1057.33 546.263 1073.24 559.325 1084.44 576.084C1095.63 592.842 1101.61 612.545 1101.61 632.701C1101.58 659.719 1090.83 685.622 1071.73 704.727C1052.63 723.832 1026.73 734.578 999.72 734.609ZM999.72 534.638C980.329 534.638 961.374 540.389 945.251 551.165C929.128 561.94 916.561 577.255 909.141 595.174C901.72 613.092 899.779 632.809 903.562 651.832C907.345 670.854 916.682 688.327 930.394 702.041C944.105 715.756 961.575 725.095 980.593 728.879C999.612 732.663 1019.32 730.721 1037.24 723.299C1055.15 715.876 1070.47 703.308 1081.24 687.181C1092.01 671.055 1097.76 652.096 1097.76 632.701C1097.73 606.702 1087.39 581.777 1069.01 563.393C1050.63 545.009 1025.71 534.668 999.72 534.638V534.638Z" fill="#F3EA20"/>
<path d="M1049.7 628.855H1003.57V582.708H995.875V628.855H949.739V636.546H995.875V682.694H1003.57V636.546H1049.7V628.855Z" fill="#F3EA20"/>
<path d="M388.032 169.307C426.253 169.307 457.238 138.315 457.238 100.086C457.238 61.8564 426.253 30.8652 388.032 30.8652C349.81 30.8652 318.825 61.8564 318.825 100.086C318.825 138.315 349.81 169.307 388.032 169.307Z" fill="#F49E4E"/>
<path d="M325.553 104.893L312.096 227.952L406.294 239.489C406.294 239.489 410.139 131.812 412.061 127.967C413.984 124.121 325.553 104.893 325.553 104.893Z" fill="#F49E4E"/>
<path d="M592.768 366.394L633.138 445.228C633.138 445.228 686.965 524.063 700.422 589.438C713.879 654.813 727.336 685.578 727.336 685.578C727.336 685.578 796.542 785.563 758.094 802.868C719.646 820.173 686.965 691.346 686.965 691.346L581.233 499.066L519.716 399.081L592.768 366.394Z" fill="#F49E4E"/>
<path d="M210.209 385.621L196.752 443.305L69.8735 610.588C69.8735 610.588 -32.014 687.5 10.279 704.805C52.5719 722.111 104.477 635.585 104.477 635.585L262.114 497.143L254.424 385.621H210.209Z" fill="#F49E4E"/>
<path d="M308.252 202.956C308.252 202.956 365.341 226.895 407.925 197.62C407.925 197.62 512.027 214.493 517.794 220.261C523.561 226.029 512.027 399.081 512.027 399.081L488.958 497.144C488.958 497.144 521.639 647.121 473.578 685.577L483.19 737.493C483.19 737.493 269.804 752.875 185.218 700.96L200.597 649.044L240.967 485.607L215.976 258.717C215.976 258.717 235.2 206.801 308.252 202.956Z" fill="#D0CDE1"/>
<path d="M468.772 228.913L518.755 221.222C518.755 221.222 543.746 225.068 566.815 273.138C589.884 321.208 614.875 384.66 614.875 384.66L528.367 423.116L457.238 311.594L468.772 228.913Z" fill="#D0CDE1"/>
<path d="M227.511 249.103L215.976 258.717C215.976 258.717 200.597 314.478 200.597 352.934V404.849L269.804 412.54L227.511 249.103Z" fill="#D0CDE1"/>
<path d="M318.845 118.871C318.845 118.871 309.437 108.711 310.389 95.9906C311.017 88.7549 310.554 81.4659 309.017 74.3677C309.017 74.3677 311.961 53.5485 316.308 41.4807C320.656 29.4129 316.991 25.2133 335.679 18.625C354.367 12.0368 342.47 -11.7878 397.569 7.2019C399.664 9.31834 402.34 10.7665 405.257 11.3636C408.175 11.9607 411.204 11.6799 413.962 10.5568C424.134 6.83065 430.265 20.8084 430.265 20.8084C430.265 20.8084 436.61 15.6016 440.17 21.0149C443.73 26.4282 460.95 14.0901 467.264 53.4721C473.578 92.8541 451.902 127.973 451.902 127.973C451.902 127.973 448.86 64.953 413.077 63.8105C377.294 62.668 336.828 49.111 331.809 75.6489C326.79 102.187 318.845 118.871 318.845 118.871Z" fill="#2F2E41"/>
<path d="M737.909 559.634H15.085V819.212H737.909V559.634Z" fill="#3F3D56"/>
<path d="M272.352 769.737C272.272 769.752 272.193 769.767 272.113 769.782C270.216 770.128 268.304 770.433 266.362 770.642C265.709 770.719 265.036 770.777 264.382 770.834C263.71 770.892 263.056 770.95 262.383 770.988C261.287 771.065 260.172 771.103 259.057 771.123C258.577 771.142 258.077 771.142 257.596 771.142H257.308C256.712 771.142 256.116 771.142 255.52 771.123C255.001 771.103 254.482 771.084 253.982 771.065C253.694 771.065 253.405 771.046 253.136 771.027C240.948 770.369 229.066 766.956 218.387 761.043C207.707 755.131 198.506 746.874 191.477 736.893C184.447 726.911 179.772 715.466 177.802 703.417C175.832 691.368 176.619 679.029 180.104 667.328C183.59 655.628 189.682 644.869 197.923 635.863C206.164 626.856 216.339 619.836 227.684 615.329C239.028 610.823 251.247 608.948 263.42 609.845C275.594 610.743 287.405 614.389 297.967 620.51C285.722 627.606 275.556 637.796 268.489 650.06C261.423 662.324 257.703 676.23 257.703 690.384C257.703 704.539 261.423 718.445 268.489 730.709C275.556 742.973 285.722 753.163 297.967 760.259C290.032 764.857 281.368 768.062 272.352 769.737V769.737Z" fill="#FFED4B"/>
<path d="M399.459 753.96C402.542 756.426 405.807 758.656 409.225 760.632C396.964 767.761 383.036 771.516 368.854 771.515H367.816C355.466 771.373 343.312 768.399 332.291 762.822C321.271 757.245 311.676 749.213 304.245 739.345C296.815 729.477 291.747 718.035 289.432 705.901C287.116 693.766 287.615 681.261 290.889 669.35C294.164 657.438 300.127 646.437 308.32 637.192C316.512 627.947 326.716 620.705 338.146 616.024C349.576 611.342 361.928 609.346 374.25 610.189C386.573 611.031 398.538 614.69 409.225 620.883C397.82 627.453 388.197 636.716 381.197 647.864C374.197 659.011 370.034 671.704 369.07 684.832C368.107 697.961 370.373 711.125 375.67 723.176C380.968 735.226 389.135 745.796 399.459 753.96V753.96Z" fill="#FFED4B"/>
<path d="M549.513 690.385C549.513 706.357 544.778 721.97 535.906 735.251C527.034 748.531 514.424 758.882 499.671 764.995C484.917 771.107 468.683 772.706 453.021 769.59C437.358 766.474 422.972 758.783 411.68 747.489C400.388 736.194 392.698 721.805 389.583 706.14C386.467 690.474 388.066 674.236 394.177 659.48C400.289 644.723 410.637 632.111 423.915 623.237C437.193 614.363 452.803 609.627 468.772 609.627C479.376 609.626 489.875 611.714 499.672 615.772C509.468 619.83 518.369 625.779 525.867 633.278C533.365 640.777 539.312 649.68 543.369 659.479C547.427 669.277 549.514 679.779 549.513 690.385Z" fill="#FFED4B"/>
<path d="M501.453 753.837C501.456 757.492 501.089 761.138 500.357 764.72C490.366 768.958 479.625 771.142 468.772 771.142C457.92 771.142 447.178 768.958 437.187 764.72C436.455 761.138 436.088 757.492 436.091 753.837C436.091 734.84 445.761 718.784 459.083 713.42C453.764 711.182 449.384 707.173 446.684 702.072C443.985 696.971 443.133 691.093 444.275 685.435C445.416 679.778 448.479 674.69 452.944 671.034C457.41 667.379 463.002 665.382 468.772 665.382C474.542 665.382 480.135 667.379 484.6 671.034C489.066 674.69 492.129 679.778 493.27 685.435C494.411 691.093 493.56 696.971 490.86 702.072C488.161 707.173 483.78 711.182 478.461 713.42C491.783 718.784 501.453 734.84 501.453 753.837Z" fill="white"/>
<path d="M393.799 753.587V753.837C393.529 758.369 392.886 762.87 391.876 767.296C382.476 771.296 372.979 771.007 362.156 771.142H361.118C350.264 771.155 339.52 768.97 329.533 764.72C329.455 764.39 329.397 764.057 329.36 763.72C328.736 760.463 328.427 757.153 328.437 753.837C328.437 734.84 338.107 718.784 351.429 713.42C346.11 711.183 341.729 707.174 339.03 702.073C336.331 696.973 335.479 691.095 336.62 685.438C337.762 679.781 340.825 674.693 345.29 671.038C349.756 667.384 355.348 665.387 361.118 665.388C363.074 665.383 365.024 665.615 366.924 666.08C362.011 681.672 361.95 698.389 366.75 714.016C371.549 729.643 380.982 743.442 393.799 753.587H393.799Z" fill="white"/>
<path d="M289.95 754.952C289.908 758.234 289.554 761.505 288.893 764.72C281.71 767.777 274.12 769.772 266.362 770.642C265.709 770.719 265.036 770.777 264.382 770.834C263.71 770.892 263.056 770.95 262.383 770.988C261.287 771.065 260.172 771.103 259.057 771.123C258.827 771.142 258.577 771.142 258.346 771.142H257.308C256.712 771.142 256.116 771.142 255.52 771.123C255.001 771.103 254.482 771.084 253.982 771.065C253.694 771.065 253.405 771.046 253.136 771.027C243.698 770.56 234.417 768.424 225.723 764.72C225.707 764.677 225.701 764.631 225.704 764.585C225.632 764.301 225.581 764.012 225.55 763.72C224.926 760.463 224.617 757.153 224.627 753.837C224.627 734.84 234.297 718.784 247.619 713.42C242.3 711.183 237.919 707.174 235.22 702.073C232.521 696.973 231.669 691.095 232.81 685.438C233.952 679.781 237.015 674.693 241.48 671.039C245.946 667.384 251.538 665.387 257.308 665.388C258.693 665.386 260.076 665.502 261.441 665.734C256.32 681.724 256.315 698.912 261.425 714.905C266.535 730.898 276.507 744.897 289.95 754.952H289.95Z" fill="white"/>
</g>
<defs>
<clipPath id="clip0">
<rect width="1418" height="819" fill="white"/>
</clipPath>
</defs>
</svg>
