<svg xmlns="http://www.w3.org/2000/svg" viewBox="0 0 500 500"><g id="freepik--background-complete--inject-65"><path d="M99.11,330.06,86,330.33l-6.66.12c-2.22,0-4.46,0-6.69.05h-.44v-.44l-.05-11.19v-.51h.5l13.24.06c4.41,0,8.83.11,13.24.16h.28v.27c0,1.89-.08,3.78-.13,5.65Zm0,0L99,324.4c0-1.86-.11-3.7-.13-5.53l.27.27c-4.41.05-8.83.16-13.24.16l-13.24.07.5-.5-.06,11.19-.44-.45c2.18,0,4.36,0,6.54.05l6.58.12Z" style="fill:#ebebeb"></path><path d="M84.34,344.17l-13.13.27-6.66.12c-2.22,0-4.46,0-6.69.05h-.45v-.44l0-11.19v-.51h.5l13.24.06c4.41,0,8.82.11,13.24.16h.27V333c0,1.89-.08,3.78-.13,5.65Zm0,0-.14-5.66c0-1.86-.12-3.7-.13-5.53l.27.27c-4.42.05-8.83.16-13.24.16l-13.24.06.5-.49-.06,11.19-.44-.45c2.18,0,4.36,0,6.54,0l6.58.12Z" style="fill:#ebebeb"></path><path d="M447.89,185.84l-13.12.27-6.66.12c-2.23,0-4.46,0-6.7.05H421v-.44l-.06-11.19v-.51h.5l13.24.06c4.42,0,8.83.11,13.24.16h.28v.27c0,1.89-.09,3.78-.13,5.65Zm0,0-.14-5.66c0-1.86-.11-3.7-.13-5.53l.27.27c-4.41.05-8.82.16-13.24.16l-13.24.07.5-.5-.05,11.19-.45-.45c2.19,0,4.36,0,6.55.06l6.58.11Z" style="fill:#ebebeb"></path><path d="M433.12,200l-13.12.27-6.66.12c-2.23,0-4.47,0-6.7,0h-.44V200l-.06-11.19v-.51h.5l13.24.06c4.42,0,8.83.11,13.24.16h.28v.27c0,1.89-.09,3.78-.14,5.65Zm0,0-.14-5.66c0-1.86-.11-3.7-.13-5.53l.27.27c-4.41.05-8.82.16-13.24.16l-13.24.07.5-.5L407.09,200l-.45-.45c2.18,0,4.36,0,6.55.05l6.58.12Z" style="fill:#ebebeb"></path><path d="M418.41,185.84l-13.13.27-6.66.12c-2.22,0-4.46,0-6.69.05h-.44v-.44l-.05-11.19v-.51h.5l13.24.06c4.41,0,8.83.11,13.24.16h.27v.27c0,1.89-.08,3.78-.13,5.65Zm0,0-.14-5.66c0-1.86-.12-3.7-.13-5.53l.27.27c-4.41.05-8.83.16-13.24.16l-13.24.07.5-.5-.06,11.19-.44-.45c2.18,0,4.36,0,6.54.06l6.58.11Z" style="fill:#ebebeb"></path><path d="M99.11,70.49,86,70.76l-6.66.12c-2.22,0-4.46,0-6.69.05h-.44v-.45L72.13,59.3v-.51h.5l13.24.06c4.41,0,8.83.11,13.24.16h.28v.27c0,1.9-.08,3.78-.13,5.65Zm0,0L99,64.83c0-1.86-.11-3.7-.13-5.53l.27.27c-4.41,0-8.83.16-13.24.16l-13.24.07.5-.5-.06,11.19L72.63,70c2.18,0,4.36,0,6.54.06l6.58.11Z" style="fill:#ebebeb"></path><path d="M74.58,205.18a23.23,23.23,0,1,1,31.77,8.35A23.22,23.22,0,0,1,74.58,205.18Z" style="fill:#ebebeb"></path><path d="M106.83,192.87c-1.35,7.79-8.15,14.19-8.15,14.19s-9.2-1.65-14.58-7.44c-4.48-4.82-4.52-11.47-.5-14.12,5.77-3.8,10.68,6.76,10.68,6.76s-1.65-11.52,5.26-11.49C104.36,180.79,108,186.38,106.83,192.87Z" style="fill:#fff"></path><path d="M389.81,235.92a19.4,19.4,0,1,1,18.5,20.26A19.41,19.41,0,0,1,389.81,235.92Z" style="fill:#ebebeb"></path><path d="M418,241.91c-4.47,4.85-12.15,6.25-12.15,6.25s-5.7-5.32-6.85-11.82c-1-5.41,2-10.09,6.05-10.13,5.77-.05,4.43,9.58,4.43,9.58s4.06-8.83,8.89-5.68C421.75,232.31,421.74,237.86,418,241.91Z" style="fill:#fff"></path><g id="freepik--xsrjP0--inject-65"><path d="M212.85,132c-1.07-.67-2-1.64-3.42-1.5-.55.06-.43-.39-.44-.69l-.06-16.08c0-.39,0-.71.44-.93,4.09-2.08,5.85-6.15,8.35-9.63A16,16,0,0,0,220.65,91c-.17-1.21.39-1.75,1.47-2a2.71,2.71,0,0,1,3.07.95,21.73,21.73,0,0,1,2.36,7c.24,2-.48,4-.73,6-.18,1.47-.52,2.93-.79,4.42.36.26.77.12,1.16.13l13.59,0c1.91,0,2.84.53,3.11,1.8a3.63,3.63,0,0,1-2,3.93c-.34.17-1,0-1,.55s.59.49.91.7c1.64,1.12,1.34,3.44-.55,4.79-.45.32-1.34.18-1.36.85s.82.52,1.2.9c1.32,1.3.67,3.74-1.3,4.74a5,5,0,0,0-.79.31c-.23.15-.45.32,0,.63,2,1.39,1.93,3.34,0,4.77l-.59.43a3.91,3.91,0,0,1-2.38.53l-21.31.07A2.51,2.51,0,0,1,212.85,132Z" style="fill:#ebebeb;fill-rule:evenodd"></path><path d="M192.62,122.62c0-3.41,0-6.81-.05-10.22,0-.69.07-1,.92-1q6.22.06,12.46,0c.81,0,.94.27.94,1q0,10.28.07,20.56c0,.88-.23,1.12-1.1,1.11-4,0-8.06,0-12.09.05-1,0-1.14-.33-1.13-1.21C192.68,129.43,192.63,126,192.62,122.62Z" style="fill:#ebebeb;fill-rule:evenodd"></path></g><g id="freepik--xsrjp0--inject-65"><path d="M289.13,267.06c-.62-.39-1.17-1-2-.88-.32,0-.25-.23-.25-.41,0-3.15,0-6.29,0-9.44,0-.23,0-.42.26-.55,2.4-1.22,3.44-3.61,4.91-5.65a9.45,9.45,0,0,0,1.72-7.15c-.11-.71.22-1,.86-1.18a1.6,1.6,0,0,1,1.8.56,12.92,12.92,0,0,1,1.39,4.13,14.78,14.78,0,0,1-.43,3.54c-.11.86-.3,1.72-.47,2.59.22.15.46.07.69.08l8,0c1.12,0,1.67.32,1.83,1.06a2.15,2.15,0,0,1-1.15,2.31c-.2.1-.56,0-.59.33s.35.28.54.41c1,.65.79,2-.33,2.81-.26.19-.78.1-.79.5s.48.3.7.52a1.81,1.81,0,0,1-.76,2.79,3.27,3.27,0,0,0-.47.18c-.13.09-.26.19,0,.37a1.56,1.56,0,0,1,0,2.8l-.34.25a2.23,2.23,0,0,1-1.4.31q-6.25,0-12.52.05A1.51,1.51,0,0,1,289.13,267.06Z" style="fill:#ebebeb;fill-rule:evenodd"></path><path d="M277.25,261.54c0-2,0-4,0-6,0-.41,0-.6.53-.6q3.66,0,7.32,0c.48,0,.56.16.55.58q0,6,.05,12.08c0,.51-.14.66-.65.65-2.37,0-4.74,0-7.1,0-.59,0-.67-.2-.67-.71C277.29,265.55,277.26,263.55,277.25,261.54Z" style="fill:#ebebeb;fill-rule:evenodd"></path></g><circle cx="409.85" cy="99.99" r="28.48" transform="matrix(0.78, -0.63, 0.63, 0.78, 28.96, 281.36)" style="fill:#ebebeb"></circle><circle cx="411.15" cy="100.62" r="27.17" transform="translate(49.27 320.2) rotate(-45)" style="fill:#dbdbdb"></circle><circle cx="411.15" cy="100.62" r="25.46" transform="translate(-12.11 96.61) rotate(-13.21)" style="fill:#fff"></circle><path d="M436,95.22c-11.59,7-30.64,18.54-41.29,24.86a25.47,25.47,0,0,1-7-9.35L423,78.08A25.5,25.5,0,0,1,436,95.22Z" style="fill:#ebebeb;opacity:0.5"></path><path d="M436.59,101.51a25.48,25.48,0,0,1-1.68,8.27l-31.75,15a24.25,24.25,0,0,1-4-1.73C408.74,117.53,426.26,107.45,436.59,101.51Z" style="fill:#ebebeb;opacity:0.5"></path><rect x="410.9" y="77.01" width="0.49" height="3.86" style="fill:#c7c7c7"></rect><rect x="400.06" y="79.91" width="0.49" height="3.86" transform="translate(12.7 211.09) rotate(-30)" style="fill:#c7c7c7"></rect><rect x="392.13" y="87.85" width="0.49" height="3.86" transform="translate(118.42 384.68) rotate(-60)" style="fill:#c7c7c7"></rect><rect x="387.54" y="100.37" width="3.86" height="0.49" style="fill:#c7c7c7"></rect><rect x="390.45" y="111.21" width="3.86" height="0.49" transform="translate(-3.15 211.15) rotate(-30)" style="fill:#c7c7c7"></rect><rect x="398.38" y="119.15" width="3.86" height="0.49" transform="translate(96.93 406.56) rotate(-60.03)" style="fill:#c7c7c7"></rect><rect x="410.9" y="120.37" width="0.49" height="3.86" style="fill:#c7c7c7"></rect><rect x="421.74" y="117.47" width="0.49" height="3.86" transform="translate(-3.16 226.98) rotate(-30)" style="fill:#c7c7c7"></rect><rect x="429.68" y="109.53" width="0.49" height="3.86" transform="translate(118.4 428.02) rotate(-59.99)" style="fill:#c7c7c7"></rect><rect x="430.9" y="100.37" width="3.86" height="0.49" style="fill:#c7c7c7"></rect><rect x="428" y="89.53" width="3.86" height="0.49" transform="translate(12.74 227.07) rotate(-30.01)" style="fill:#c7c7c7"></rect><rect x="420.06" y="81.6" width="3.86" height="0.49" transform="translate(140.29 406.52) rotate(-60.03)" style="fill:#c7c7c7"></rect><polygon points="411.52 78.76 412.36 102.34 409.94 102.31 410.86 78.75 411.52 78.76" style="fill:#c7c7c7"></polygon><polygon points="426.21 92.4 410.34 102.52 409.19 100.4 425.89 91.82 426.21 92.4" style="fill:#a6a6a6"></polygon><path d="M412,100.62a.82.82,0,1,1-.82-.82A.82.82,0,0,1,412,100.62Z" style="fill:#c7c7c7"></path><rect x="50.45" y="103.95" width="111.82" height="6.64" transform="translate(212.71 214.54) rotate(180)" style="fill:#ebebeb"></rect><rect x="147.14" y="110.59" width="6.64" height="21.96" style="fill:#ebebeb"></rect><rect x="147.14" y="110.59" width="6.64" height="6.79" style="fill:#dbdbdb"></rect><rect x="58.93" y="110.59" width="6.64" height="21.96" style="fill:#ebebeb"></rect><rect x="58.93" y="110.59" width="6.64" height="6.79" style="fill:#dbdbdb"></rect><rect x="107.52" y="77.47" width="42.32" height="10.66" transform="translate(211.47 -45.88) rotate(90)" style="fill:#c7c7c7"></rect><rect x="126.35" y="56.37" width="4.65" height="10.66" transform="translate(190.38 -66.98) rotate(90)" style="fill:#dbdbdb"></rect><rect x="127.81" y="65.52" width="1.73" height="10.66" transform="translate(199.52 -57.83) rotate(90)" style="fill:#dbdbdb"></rect><rect x="125.69" y="90.08" width="4.65" height="11.98" transform="translate(224.09 -31.94) rotate(90)" style="fill:#dbdbdb"></rect><rect x="94.94" y="75.55" width="49.36" height="7.45" transform="translate(198.9 -40.35) rotate(90)" style="fill:#dbdbdb"></rect><rect x="110.16" y="66.49" width="18.99" height="4.47" transform="translate(188.38 -50.93) rotate(90)" style="fill:#ebebeb"></rect><rect x="58.41" y="80.24" width="49.36" height="7.45" transform="translate(201.21 85.27) rotate(135.33)" style="fill:#c7c7c7"></rect><rect x="71.02" y="84.24" width="18.99" height="4.47" transform="translate(198.56 91.39) rotate(135.33)" style="fill:#dbdbdb"></rect><rect x="90.84" y="78.89" width="37.49" height="12.65" transform="translate(194.8 -24.37) rotate(90)" style="fill:#a6a6a6"></rect><rect x="107.84" y="91.91" width="3.49" height="12.65" transform="translate(207.82 -11.34) rotate(90)" style="fill:#c7c7c7"></rect><rect x="108.91" y="87.2" width="1.36" height="12.65" transform="translate(203.1 -16.06) rotate(90)" style="fill:#c7c7c7"></rect><rect x="120.75" y="81.97" width="35.24" height="8.74" transform="translate(224.72 -52.03) rotate(90)" style="fill:#a6a6a6"></rect><rect x="136.73" y="94.21" width="3.28" height="8.74" transform="translate(236.96 -39.79) rotate(90)" style="fill:#c7c7c7"></rect><rect x="136.73" y="73.26" width="3.28" height="8.74" transform="translate(216 -60.74) rotate(90)" style="fill:#c7c7c7"></rect><rect x="137.74" y="77.79" width="1.27" height="8.74" transform="translate(220.53 -56.22) rotate(90)" style="fill:#c7c7c7"></rect><polygon points="339.13 388.52 451.6 388.52 455.22 317.15 335.51 317.15 339.13 388.52" style="fill:#ebebeb"></polygon><path d="M443.42,349.88H344.25L342.88,325H445Zm-98.23-1h97.29L444,326h-100Z" style="fill:#dbdbdb"></path><path d="M442.08,378.38h-95L346,355.9h97.5Zm-94-1h93.09l1.28-20.48H347Z" style="fill:#dbdbdb"></path><path d="M405.28,340.18H384.17l-.78-6.1h22.68Zm-20.23-1H404.4l.53-4.1H384.52Z" style="fill:#dbdbdb"></path><path d="M405.28,370.19H384.17l-.78-6.1h22.68Zm-20.23-1H404.4l.53-4.1H384.52Z" style="fill:#dbdbdb"></path><polygon points="354.73 388.52 353.64 396.29 351.44 411.91 347.14 411.91 347.14 388.52 354.73 388.52" style="fill:#ebebeb"></polygon><polygon points="354.73 388.52 353.64 396.29 347.14 396.29 347.14 388.52 354.73 388.52" style="fill:#dbdbdb"></polygon><polygon points="436.01 388.52 437.1 396.29 439.3 411.91 443.59 411.91 443.59 388.52 436.01 388.52" style="fill:#ebebeb"></polygon><polygon points="436.01 388.52 437.1 396.29 443.59 396.29 443.59 388.52 436.01 388.52" style="fill:#dbdbdb"></polygon></g><g id="freepik--Shadow--inject-65"><ellipse cx="250" cy="436.91" rx="162.68" ry="17.35" style="fill:#ebebeb"></ellipse></g><g id="freepik--Floor--inject-65"><polygon points="41.38 411.91 93.54 411.67 145.69 411.58 250 411.41 354.31 411.58 406.46 411.67 458.62 411.91 406.46 412.16 354.31 412.25 250 412.41 145.69 412.24 93.54 412.16 41.38 411.91" style="fill:#263238"></polygon></g><g id="freepik--Plant--inject-65"><path d="M260.46,339.7a58.25,58.25,0,0,0-1.86,10.53c.09.17.07.83,0,.65,0,.58-.9.47-.9-.1l0-1.1c-2-2.56-5-4.18-7.46-6.4a14,14,0,0,1-4.09-6.51c-2-6.9-.12-14.22-2.53-21.1-2.08-5.94-5.81-11.11-9-16.49-3.33-5.68-5.78-11.66-6-18.33-.19-5.1.41-11.9,4.3-15.72,4.12-4.06,9.23-1,12.38,2.6,9.15,10.49,13.38,23.76,15.09,37.32.94,7.51,1.92,15.06,1.7,22.64A61.55,61.55,0,0,1,260.46,339.7Z" style="fill:#FFC727"></path><path d="M258.64,353a130.09,130.09,0,0,0-.25-21.26s0,0,0-.08c.12-5.75.57-11.47.35-17.23a102.84,102.84,0,0,0-2.53-18.48c0-.07-.13-.05-.11,0a121.84,121.84,0,0,1,2,18.07c.11,3.25.09,6.5-.08,9.75-.06,1.05-.16,2.12-.23,3.18h0a113.84,113.84,0,0,0-17.1-45.26c-.12-.18-.45,0-.33.21a118.51,118.51,0,0,1,13.92,33.55c-4.4-8.14-11-14.84-16-22.67,0,0-.1,0-.08,0,4.43,8.72,11.74,15.59,16.41,24.18q1.22,5.25,2,10.59a116.82,116.82,0,0,1,1.06,14.71,168.21,168.21,0,0,1-7.65-15.1c-.06-.14-.26,0-.21.1,1.86,5.5,4.37,11.43,7.88,16.12,0,3.48-.09,7-.29,10.44-.55,9.29-2.14,18.45-2.87,27.7a.22.22,0,0,0,.43.05A215.15,215.15,0,0,0,258.64,353Z" style="fill:#263238"></path><path d="M248.78,281.39a.05.05,0,1,0-.1,0c1.69,4.69,2.65,9.44,3.88,14.25a.18.18,0,0,0,.35-.06A51.06,51.06,0,0,0,248.78,281.39Z" style="fill:#263238"></path><path d="M291.84,301a70.48,70.48,0,0,1-3.9,8c-3.05,5.55-6.24,10.63-6.82,17.08a39.11,39.11,0,0,1-1.22,8.56,25.51,25.51,0,0,1-3.41,6.7c-3.31,4.82-7.45,9-10.52,14a58.89,58.89,0,0,0-7,16.84c-.08.33-.59.24-.51-.08,0,0,0-.05,0-.08a.09.09,0,0,1,0-.07c-.49-13.84.62-27.8,4.84-41.06A141.38,141.38,0,0,1,270,313.84a40.29,40.29,0,0,1,9.05-13c2.58-2.33,8.17-6.72,11.83-4.4C292.67,297.54,292.53,299.31,291.84,301Z" style="fill:#FFC727"></path><path d="M277.93,332.43A114.79,114.79,0,0,1,269.88,344c-1.34,1.75-2.7,3.49-4,5.24-.63.83-1.34,1.65-1.92,2.54.37-1.46.72-2.91,1.09-4.37,1.79-7,3.51-14,6.17-20.78a140.88,140.88,0,0,1,9.61-18.84c.1-.16-.16-.28-.26-.12-2.92,4.81-5.89,9.61-8.35,14.69a76.43,76.43,0,0,0-3.55,8.71,135.05,135.05,0,0,1,4.72-18.62c0-.05-.06-.09-.08,0a63.75,63.75,0,0,0-4.9,19.37v0c-.6,1.8-1.15,3.62-1.67,5.44-2.18,7.75-4.09,15.58-5.87,23.43a83.8,83.8,0,0,1,1.34-15.4c0-.11-.16-.14-.18,0a48.77,48.77,0,0,0-1.34,16.23q-1,4.48-2,9c-1.36,6.38-3,12.88-3.83,19.36a.13.13,0,0,0,.25,0c.95-3.49,1.53-7.11,2.3-10.65s1.59-7.09,2.41-10.62q1.8-7.72,3.75-15.42c.85-1.89,2.51-3.56,3.75-5.13,1.37-1.74,2.73-3.47,4.06-5.23a78.16,78.16,0,0,0,6.66-10.31C278.09,332.4,278,332.35,277.93,332.43Z" style="fill:#263238"></path><path d="M278.52,326.5A72.32,72.32,0,0,0,270.64,339c0,.06.06.12.1.07,2.65-4.16,5.25-8.34,7.9-12.5C278.68,326.51,278.57,326.44,278.52,326.5Z" style="fill:#263238"></path><path d="M219.58,314.17c1.79,3.09,3.84,6.8,3.07,10.51-.49,2.35-2.21,4.25-2.52,6.65-.69,5.29,4.58,8.78,8.39,11.28,9.51,6.24,22.55,11.8,24.28,24.54.06.45.84.33.79-.11a.24.24,0,0,0,0-.08s0,0,0-.08a48.62,48.62,0,0,0-.18-19.45c-1.41-6.57-4.28-12.47-7.66-18.23-5.72-9.76-11.78-19.76-20.43-27.24-2.4-2.06-7.3-5.78-9.21-1.11S217.38,310.4,219.58,314.17Z" style="fill:#FFC727"></path><path d="M228.28,334.86c6.3,6.82,16.32,10.65,21.75,18.29a76.51,76.51,0,0,0-16.72-31.4.25.25,0,0,1,.35-.35,61.85,61.85,0,0,1,13.66,19.79,88.13,88.13,0,0,0-5.88-15c-.09-.19.17-.35.28-.17a57.41,57.41,0,0,1,6.34,16.91c7.15,17.31,7.81,37.61,6.31,55.85,0,.26-.42.27-.41,0,.41-14.38.18-29-3.27-43-.07-.3-.15-.59-.22-.88-5.9-8.23-15.88-12-22.3-19.85C228.11,334.89,228.21,334.78,228.28,334.86Z" style="fill:#263238"></path><path d="M226.82,329c3.31,3,6.57,6.14,9.88,9.17,0,0,0,.09,0,.07a48.47,48.47,0,0,1-10-9A.14.14,0,0,1,226.82,329Z" style="fill:#263238"></path><path d="M226.3,315.85a103,103,0,0,0,9.9,13.61.06.06,0,0,1-.09.09,48.12,48.12,0,0,1-10-13.6A.1.1,0,0,1,226.3,315.85Z" style="fill:#263238"></path><polygon points="241.19 411.6 270.18 411.6 266.27 372.61 245.66 372.61 241.19 411.6" style="fill:#455a64"></polygon><polygon points="244.93 378.95 266.91 378.95 266.27 372.61 245.66 372.61 244.93 378.95" style="fill:#263238"></polygon><rect x="242.1" y="368.29" width="27.17" height="6.23" transform="translate(511.37 742.8) rotate(180)" style="fill:#455a64"></rect></g><g id="freepik--Sparkles--inject-65"><polygon points="293.36 208.21 299 209.25 300.26 215.21 301.52 209.25 307.17 208.21 301.55 206.84 300.26 201.22 298.98 206.84 293.36 208.21" style="fill:#FFC727"></polygon><polygon points="290.75 101.24 296.39 102.28 297.65 108.23 298.91 102.28 304.56 101.23 298.94 99.86 297.65 94.24 296.37 99.86 290.75 101.24" style="fill:#FFC727"></polygon><polygon points="375.3 177.43 380.94 178.47 382.2 184.42 383.46 178.47 389.11 177.42 383.49 176.05 382.2 170.43 380.92 176.05 375.3 177.43" style="fill:#FFC727"></polygon><polygon points="336.35 92.43 339.51 93.01 340.21 96.33 340.92 93.01 344.07 92.42 340.93 91.66 340.21 88.52 339.49 91.66 336.35 92.43" style="fill:#FFC727"></polygon><polygon points="371.44 127.55 374.59 128.13 375.3 131.46 376 128.13 379.15 127.55 376.01 126.78 375.3 123.64 374.58 126.78 371.44 127.55" style="fill:#FFC727"></polygon><polygon points="269.88 169.14 273.04 169.73 273.74 173.05 274.44 169.73 277.6 169.14 274.46 168.37 273.74 165.23 273.02 168.37 269.88 169.14" style="fill:#FFC727"></polygon><polygon points="282 223.79 285.15 224.37 285.86 227.7 286.56 224.37 289.72 223.79 286.58 223.02 285.86 219.88 285.14 223.02 282 223.79" style="fill:#FFC727"></polygon><polygon points="280.82 88.52 283.98 89.1 284.68 92.43 285.38 89.1 288.54 88.52 285.4 87.75 284.68 84.61 283.96 87.75 280.82 88.52" style="fill:#FFC727"></polygon><polygon points="378.34 244.66 381.5 245.24 382.2 248.56 382.9 245.24 386.06 244.66 382.92 243.89 382.2 240.75 381.48 243.89 378.34 244.66" style="fill:#FFC727"></polygon><polygon points="393.67 190.4 396.82 190.98 397.53 194.31 398.24 190.98 401.39 190.4 398.25 189.63 397.53 186.49 396.81 189.63 393.67 190.4" style="fill:#FFC727"></polygon><path d="M311.71,79.13a.92.92,0,0,1,0,1.83A.92.92,0,0,1,311.71,79.13Z" style="fill:#FFC727"></path><path d="M386.06,216.19a.92.92,0,0,1,0,1.83A.92.92,0,0,1,386.06,216.19Z" style="fill:#FFC727"></path><path d="M362.85,125.31a.91.91,0,0,1,0,1.82A.91.91,0,0,1,362.85,125.31Z" style="fill:#FFC727"></path><path d="M266,189.75a.65.65,0,0,1,0,1.3A.65.65,0,0,1,266,189.75Z" style="fill:#FFC727"></path><path d="M291,237.06a.65.65,0,0,1,0,1.29A.65.65,0,0,1,291,237.06Z" style="fill:#FFC727"></path><path d="M366.84,114.76a.65.65,0,0,1,0,1.3A.65.65,0,0,1,366.84,114.76Z" style="fill:#FFC727"></path><path d="M320.62,74.21a1.75,1.75,0,0,1,0,3.5A1.75,1.75,0,0,1,320.62,74.21Z" style="fill:#FFC727"></path></g><g id="freepik--character-2--inject-65"><path d="M271.44,437.16c2.2.71,64.85-.1,67.21-1.65.91-.57,1.32-9.71,1.51-20.76,0-.12-.08-40.83-.08-40.83l-40.85.42.53,40.82s-23.84,11-26.26,13S269.24,436.46,271.44,437.16Z" style="fill:#eb9481"></path><path d="M290.27,419.45c.16-.05.24-.1.25-.15Z" style="fill:#FFC727"></path><path d="M340,420.51c-.22,8.32-.63,14.53-1.38,15-2.36,1.55-65,2.36-67.21,1.65s-.34-7,2.06-9c1.16-.94,7.21-4,13.22-6.85C277.8,426.4,271.09,433.41,340,420.51Z" style="fill:#263238"></path><path d="M340,420.51c-.22,8.32-.63,14.53-1.38,15-.93.61-11.37,1.12-23.75,1.45L330,422.34Q334.73,421.52,340,420.51Z" style="fill:#37474f"></path><path d="M352.94,193.45s-10.58,106.66-12.12,114.74c-.35,1.84.61,11.05.46,23.91-.32,28.06-1.06,78.68-1.06,78.68H299.59s-1.29-87.7.66-103.83,14.46-113.5,14.46-113.5Z" style="fill:#eb9481"></path><path d="M341.28,332.11c-.08,6.62-.18,14.5-.28,22.66L314.71,193.46h38.23s-10.59,106.65-12.12,114.73C340.46,310,341.42,319.24,341.28,332.11Z" style="fill:#263238"></path><path d="M322.72,440.89c2.25.56,64.68-4.69,66.93-6.4.86-.64.63-9.78,0-20.82,0-.11-4.33-40.61-4.33-40.61l-40.16,3.26,4.22,40.62s-23,12.7-25.27,14.84S320.48,440.35,322.72,440.89Z" style="fill:#eb9481"></path><path d="M389.65,434.49c-2.25,1.71-64.68,7-66.93,6.4s-.84-7,1.42-9.1c1.3-1.23,9.46-6,16.16-9.75-8.78,5.77-25.51,18.3,49.58-4.48C390.33,426.78,390.41,433.93,389.65,434.49Z" style="fill:#263238"></path><path d="M348.9,412.39l40.32-3s-10.47-94-10.7-100c-.33-8.84-3.7-46.23-7.26-75.79,0,0,3.9-21.32-5.89-40.18h-50.7s3.4,23,9.21,37.59a68.36,68.36,0,0,1,11.28,5.15s4.17,66.78,4.36,75C339.89,327.42,348.9,412.39,348.9,412.39Z" style="fill:#eb9481"></path><path d="M314.67,193.42s-16,109-16.65,119.11-.28,12.88-.28,12.88,22.39,7,34.1,7.09c26.05.24,50.81-9.55,50.81-9.55s-10.58-89.08-10.65-89.3a61.66,61.66,0,0,0-5.62-40.29Z" style="fill:#37474f"></path><path d="M317,193.42l-7.68,67.49-4.05,35.22-1,8.81c-.31,2.94-.68,5.88-.87,8.82-.19,4.42-.18,8.85-.08,13.28h0c-.11-4.42-.15-8.85,0-13.27.19-2.95.54-5.89.85-8.83l1-8.82,3.93-35.23L317,193.42Z" style="fill:#455a64"></path><path d="M379.76,324h0c-1.15-6.87-2-13.8-2.94-20.72q-1.53-11.65-2.94-23.34-2.91-23.34-5.51-46.71v0a49.76,49.76,0,0,0,1.05-10.48,77.34,77.34,0,0,0-1-10.51,100.83,100.83,0,0,0-2.32-10.3c-.82-2.88-1.72-5.74-2.79-8.55h0c1.08,2.8,2,5.66,2.82,8.54a100.54,100.54,0,0,1,2.35,10.31,75.69,75.69,0,0,1,1,10.51,48.93,48.93,0,0,1-1,10.52L374,279.92c.94,7.79,1.88,15.58,2.88,23.35C377.79,310.19,378.63,317.12,379.76,324Z" style="fill:#455a64"></path><path d="M332.75,193.4,330,263.06l-1.55,36.6-.39,9.15c-.13,3-.31,6.09-.29,9.14,0,4.77.09,9.55.23,14.32h0c-.15-4.77-.26-9.54-.27-14.31,0-3.05.14-6.1.26-9.15l.35-9.15,1.45-36.59,3-69.66Z" style="fill:#455a64"></path><path d="M373.16,326.11h0L368.67,282q-2.49-24.37-4.85-48.77v0a70.12,70.12,0,0,0-.09-10.45c-.23-3.49-.66-7-1.14-10.41s-1.08-6.9-1.73-10.34c-.55-2.89-1.14-5.78-1.79-8.64h0c.66,2.86,1.25,5.75,1.81,8.64.66,3.43,1.26,6.87,1.76,10.33s.94,6.93,1.19,10.41a71.74,71.74,0,0,1,.11,10.47q2.49,24.38,4.88,48.76Z" style="fill:#455a64"></path><path d="M321.05,193.41l-5.35,69.23-2.82,35.9-.66,9c-.11,1.49-.21,3-.29,4.49l-.11,4.5-.29,12.67h0l.26-12.66.1-4.5c.08-1.5.17-3,.28-4.5l.64-9,2.7-35.91L321,193.41Z" style="fill:#455a64"></path><path d="M326.89,193.4l-4.21,69.26-2.3,35.91-.58,9c-.15,3-.44,6-.47,9-.12,4.8-.11,9.6,0,14.39h0c-.1-4.79-.12-9.58,0-14.38,0-3,.3-6,.46-9l.54-9,2.19-35.92,4.42-69.25Z" style="fill:#455a64"></path><path d="M337.47,300c0,6-.14,12.1-.06,18.15.06,4.76.13,9.51.24,14.26h0c-.11-4.75-.21-9.51-.27-14.27-.11-6.05,0-12.1,0-18.15l.2-36.29.59-70.28h0l-.39,70.28Z" style="fill:#455a64"></path><path d="M365.81,328.11h0L362,283.3q-2.1-24.6-4.07-49.21h0a49.5,49.5,0,0,0-.19-5.3c-.13-1.77-.28-3.54-.45-5.3-.33-3.53-.68-7.06-1.07-10.59-.69-6.5-1.45-13-2.23-19.51h0q1.2,9.74,2.28,19.51.6,5.28,1.11,10.58c.17,1.77.32,3.53.46,5.3a49.6,49.6,0,0,1,.21,5.32q2.08,24.6,4.1,49.19Z" style="fill:#455a64"></path><path d="M356.68,330.1h0l-3.5-68-.86-17.77-.44-8.88-.54-8.89-2-33.23h0l2.14,33.23.57,8.88.45,8.89.93,17.76Z" style="fill:#455a64"></path><polygon points="347.06 331.6 347.05 331.6 345.28 262.69 343.71 193.39 345.5 262.69 347.06 331.6" style="fill:#455a64"></polygon><path d="M340.2,103.59c6.14,5.6,8.25,15.15,8.25,15.15s6.07,9.46,4.72,14.79a9.62,9.62,0,0,1-5.82,6.76l.43-2.94s-1.73,3.82-8,5.61-14.7.21-19.14-1.8a16.71,16.71,0,0,1-6.63-5.34l1.81,4.16a12.57,12.57,0,0,1-10.07-6.31c-3.92-6.36,6.13-16.2,6.93-18.26s1.28-16.83,16.87-15C329.57,100.45,336,99.74,340.2,103.59Z" style="fill:#263238"></path><path d="M349.57,139.81a9.92,9.92,0,0,0,3.9-4.47,9,9,0,0,0,.73-5.84,20.09,20.09,0,0,0-3.2-6.41c-1.35-2.06-2.86-4-4.18-6.11-.07-.12.1-.22.19-.13a53.13,53.13,0,0,1,4.07,4.9,26.16,26.16,0,0,1,3.26,5.06,9.69,9.69,0,0,1,1,5.39,9.49,9.49,0,0,1-1.75,4.16,20.23,20.23,0,0,1-3.88,3.57C349.57,140,349.47,139.86,349.57,139.81Z" style="fill:#263238"></path><path d="M304.17,127c1.62-5.5,6.34-9.15,9.1-14,1.5-2.63,2.61-5.52,4.61-7.83.05-.06.16,0,.11.09-1.63,2.08-2.52,4.52-3.66,6.87a39.79,39.79,0,0,1-4.32,6.59c-2.91,3.82-6.4,8.33-5.47,13.45.43,2.36,1.95,4.93,4.42,5.57.1,0,.05.18,0,.14a7.63,7.63,0,0,1-4.44-4.08A9.77,9.77,0,0,1,304.17,127Z" style="fill:#263238"></path><path d="M304,128.48a10,10,0,0,1,1.1-5.94,14.12,14.12,0,0,1,4.25-4.32c1.88-1.37,3.86-2.68,5-4.78,0-.09.17,0,.13.08-1.81,3.46-5.45,5.19-7.84,8.13-2.73,3.37-2.52,8.09-.39,11.71a16.55,16.55,0,0,0,5.42,5.4s0,.08,0,.06C307.89,136.57,304.5,133,304,128.48Z" style="fill:#263238"></path><path d="M333.85,145.79c-1.24,5.28-18.77,43.9-32.53,50.1-7.91,3.57-21.26,4.3-17.42-11.34,2.55-10.39,25.18-29.3,38.08-39.64C327.25,140.69,335.36,139.35,333.85,145.79Z" style="fill:#eb9481"></path><path d="M323.38,172.66,312.21,152.8a146.76,146.76,0,0,1,13.52-11.16c8-5.86,12.3-3.28,8.2,9.44A84.92,84.92,0,0,1,323.38,172.66Z" style="fill:#FFC727"></path><path d="M315.11,151.16c1,1.38,1.79,2.91,2.67,4.37s1.67,2.78,2.46,4.19c1.64,2.94,3.22,5.9,4.74,8.91,0,.05-.06.1-.09.05q-2.59-4.26-5.06-8.6c-.82-1.43-1.61-2.89-2.39-4.35s-1.73-3-2.42-4.52C315,151.16,315.08,151.11,315.11,151.16Z" style="fill:#263238"></path><path d="M333.92,151.08a84.71,84.71,0,0,1-10.54,21.58l-8.63-15.36,19.62-17.89C335.93,140.91,336,144.74,333.92,151.08Z" style="fill:#263238"></path><path d="M317.17,180.47l-2.46,13,51.67-.09s-9.49-39.35-21.85-52.45c-5.62-6-11.09-5-15.72-1.15-1.05.88-12.86,20.82-14.49,27.58C313,172.88,317.17,180.47,317.17,180.47Z" style="fill:#FFC727"></path><path d="M332.92,178.64a44.75,44.75,0,0,0-6.74.48c-1.1.18-2.19.41-3.28.66-.55.12-1.09.23-1.64.33a7.29,7.29,0,0,1-1.74.17,0,0,0,0,0,0,.08,11.45,11.45,0,0,0,1.65.12,12.2,12.2,0,0,0,1.6-.15c1.12-.17,2.24-.39,3.36-.57,2.26-.37,4.53-.73,6.81-.93A.1.1,0,0,0,332.92,178.64Z" style="fill:#263238"></path><path d="M338.26,181.13a48.56,48.56,0,0,0-5.52-.78c-.93-.07-1.85-.09-2.78-.09-.44,0-.89,0-1.33,0s-1,.1-1.47.11a0,0,0,0,0,0,.08c.46,0,.92.08,1.38.12s.93.05,1.39.09l2.77.18c1.86.11,3.7.24,5.55.41A.08.08,0,1,0,338.26,181.13Z" style="fill:#263238"></path><path d="M339.71,148.07c1.32,5.22,12,43.14,11.91,45.09,0,0,21.4,13,25.29.77,2.53-8-18.52-41.62-29-51.72C343,137.57,336.93,137.12,339.71,148.07Z" style="fill:#eb9481"></path><path d="M366.11,162.1l-22.7,2a145.36,145.36,0,0,1-4.62-16.91c-2.05-9.7,2.07-12.57,12-3.6A85.13,85.13,0,0,1,366.11,162.1Z" style="fill:#FFC727"></path><path d="M343.11,160.8c1.66-.34,3.39-.44,5.08-.64s3.22-.38,4.83-.52c3.36-.29,6.7-.5,10.07-.65a.05.05,0,0,1,0,.1c-3.3.41-6.61.76-9.92,1.08-1.65.16-3.3.27-4.95.39s-3.41.35-5.11.34A.05.05,0,0,1,343.11,160.8Z" style="fill:#263238"></path><path d="M342.39,162c-.27-.79-.51-1.58-.74-2.38,0-.16-.09-.33-.14-.49a29.08,29.08,0,0,1-1.36-2.81s0-.06.05,0a23.71,23.71,0,0,1,1.11,2.12,33.88,33.88,0,0,1-.88-3.71s0,0,.06,0c.56,1.57,1,3.17,1.53,4.76.25.76,1.38,4.57,1.42,4.57a5.23,5.23,0,0,1,.71,0c.14,0,.06.06,0,.07l-1,.23S342.62,162.66,342.39,162Z" style="fill:#263238"></path><path d="M285.94,149c1.83-2,20.87-7.25,21.45-3.27,2.87,19.53-6.14,44.28-12.82,50.16-5.78,5.08-10.33-.62-12.08-5.43C280.9,186.06,284.14,151,285.94,149Z" style="fill:#eb9481"></path><path d="M285.32,155.09s-.9-1.91-2.72-9.87A28.56,28.56,0,0,1,295,116.56c5-3.42,9.63-1.38,5,3.1-3.24,3.15-5.76,5.06-6.52,6.39,0,0,6.88-.69,9.52,2.33a74,74,0,0,1,6.33,8.38,14.14,14.14,0,0,1-1.46,1.33s2.46,7.27-.13,12.32Z" style="fill:#eb9481"></path><path d="M282.25,139.77c1.4-2.61,4.47-8.09,8.54-11.69,4.52-4,14.3-10.51,17.23-7.15,2.14,2.47-1.38,5.28-1.38,5.28s4.61-1.83,6.06.82c1.32,2.42-1.53,4.43-1.53,4.43s3-.63,3.81,1.94c1,3.1-5.43,3.91-7.14,7.92C307.46,142.22,282.25,139.77,282.25,139.77Z" style="fill:#eb9481"></path><path d="M294.28,133.66a24,24,0,0,1,12.29-7.38c.13,0,.21,0,.1.1a58.66,58.66,0,0,0-12.36,7.33S294.26,133.69,294.28,133.66Z" style="fill:#263238"></path><path d="M298.4,138c1.69-1.78,7.25-5.74,12.72-6.64.12,0,.2.07.09.11a63,63,0,0,0-12.77,6.58S298.38,138,298.4,138Z" style="fill:#263238"></path><path d="M286.71,124.92a33,33,0,0,1,5.21-6.28,15.15,15.15,0,0,1,7.1-4,3.32,3.32,0,0,1,2.12.2,1.54,1.54,0,0,1,.74.87,2.53,2.53,0,0,1,.15,1.09,3.64,3.64,0,0,1-.83,2,9,9,0,0,1-1.48,1.48c-1,.87-2,1.79-3,2.72l-1.45,1.42a16.28,16.28,0,0,0-1.34,1.46l-.38-.38c1.58-1,3.16-2,4.78-2.89a36.74,36.74,0,0,1,5-2.51,6,6,0,0,1,2.88-.31,3.49,3.49,0,0,1,2.54,1.48,2.45,2.45,0,0,1,.32,1.51,3.83,3.83,0,0,1-.46,1.42,9.5,9.5,0,0,1-1.78,2.24l-.28-.45a11.36,11.36,0,0,1,2.94-.58,5.64,5.64,0,0,1,1.53.1,2.85,2.85,0,0,1,1.41.72,2.8,2.8,0,0,1,.72,1.42,3.29,3.29,0,0,1,0,1.56,4.79,4.79,0,0,1-1.77,2.46l-.16-.38a5.27,5.27,0,0,1,1.9.13,2.91,2.91,0,0,1,1.63,1,2.82,2.82,0,0,1,.41.88,2.64,2.64,0,0,1,.12,1,2.46,2.46,0,0,1-1,1.65,28.54,28.54,0,0,1-3.1,2,9.4,9.4,0,0,0-2.69,2.41l0,0c.16.78.29,1.56.38,2.36a10.53,10.53,0,0,1,0,2.38,10.56,10.56,0,0,0-.11-2.38c-.11-.78-.26-1.56-.44-2.33v0l0,0a9.29,9.29,0,0,1,2.67-2.52,36.41,36.41,0,0,0,3-2,2,2,0,0,0,.71-2.28,2.34,2.34,0,0,0-.37-.76,3.5,3.5,0,0,0-3.17-1l-.75.08.6-.47a4.33,4.33,0,0,0,1.56-2.23,2.89,2.89,0,0,0,0-1.34,2.47,2.47,0,0,0-.59-1.16,3.45,3.45,0,0,0-2.56-.66,11.07,11.07,0,0,0-2.79.57l-1.11.37.84-.82a8.84,8.84,0,0,0,1.66-2.11,2.43,2.43,0,0,0,.15-2.38,3,3,0,0,0-2.14-1.2,5.62,5.62,0,0,0-2.6.3,39.1,39.1,0,0,0-4.94,2.45q-2.41,1.36-4.76,2.85l-1.28.81.9-1.19a17.74,17.74,0,0,1,1.42-1.54c.48-.48,1-1,1.47-1.42,1-.94,2-1.85,3.06-2.73a8.44,8.44,0,0,0,1.42-1.38,3.18,3.18,0,0,0,.77-1.71,2.23,2.23,0,0,0-.12-.92,1.07,1.07,0,0,0-.53-.65,2.92,2.92,0,0,0-1.86-.18,15.23,15.23,0,0,0-7,3.8A33.88,33.88,0,0,0,286.71,124.92Z" style="fill:#263238"></path><path d="M307.86,156.7a72.7,72.7,0,0,1-.58,7.8c-.32,2.59-.78,5.16-1.31,7.72a72.77,72.77,0,0,1-2.14,7.54,37.84,37.84,0,0,1-3.33,7.08,58,58,0,0,0,2.78-7.26q1.14-3.72,2-7.52c.59-2.53,1-5.08,1.47-7.64S307.52,159.29,307.86,156.7Z" style="fill:#263238"></path><path d="M335.89,193.46c-9-3.05-18.16-7.59-23.88-15.66a4.9,4.9,0,0,1-1-3.06c-2.62-3.57-1.73-5.88-1.73-5.88-1.42-4.08-.18-6.32-.18-6.32s-3-4.22-.79-6.48c2.52-2.54,6.29,3.89,10.53,6.16,9.71,5.2,25,9.88,27.92,11.1Z" style="fill:#eb9481"></path><path d="M325.22,174.59a71.52,71.52,0,0,1-8.25-5,72.44,72.44,0,0,1-7.72-7.24.09.09,0,0,0-.13.11,37.47,37.47,0,0,0,16,12.29C325.29,174.78,325.36,174.67,325.22,174.59Z" style="fill:#263238"></path><path d="M322.93,181c-2.66-1.7-7.33-4.71-13.54-12.35,0,0-.06,0-.05,0a33.66,33.66,0,0,0,13.51,12.44C323,181.2,323.11,181.09,322.93,181Z" style="fill:#263238"></path><path d="M321.64,184.32c-4.42-3-6.82-5.54-10.57-9.76,0,0-.07,0-.05,0,3.75,5.25,5.71,6.72,10.54,9.9C321.72,184.6,321.81,184.44,321.64,184.32Z" style="fill:#263238"></path><path d="M331,167.74c1.53.18,1.64-.62-.31-2.55s-11.3-7.92-8.94-11,15.44,5.56,18.44,9a73.39,73.39,0,0,1,6.63,10.12C343.91,172.15,336.65,170,331,167.74Z" style="fill:#eb9481"></path><path d="M347.06,173.24c-3-.35-20.48,14.58-16.72,17,17.68,11.39,35.88,12,40,11.25,5.36-1,7.62-7.46,6.45-10.83C375.07,185.77,350.05,173.59,347.06,173.24Z" style="fill:#eb9481"></path><path d="M368.62,183.61c-8.75-6.76-21.73-10.61-21.75-10.62-.18-.1-.55.15-.45.21,1.9,1,15.15,6.34,22,10.62C368.48,183.86,368.68,183.66,368.62,183.61Z" style="fill:#263238"></path><path d="M316.38,160.45a42.57,42.57,0,0,0-3.19-2.82c-1.1-.84-2.22-1.9-3.59-1.93a2,2,0,0,0-.92.25,1.85,1.85,0,0,0-.63.7,3.79,3.79,0,0,0-.28,2,5.57,5.57,0,0,0,.57,2,19.36,19.36,0,0,0,1,1.85l.06.1,0,.11a8.76,8.76,0,0,0-.43,3.06,8.85,8.85,0,0,0,.64,3.05l0,.09,0,.1a3.16,3.16,0,0,0-.19,1.45,5.69,5.69,0,0,0,.34,1.51,10.69,10.69,0,0,0,.65,1.42,14.36,14.36,0,0,0,.86,1.33l.05.07,0,.12a3,3,0,0,0,.34,1.88,12.89,12.89,0,0,0,1.05,1.79,27.65,27.65,0,0,0,2.69,3.22,27.05,27.05,0,0,1-2.86-3.09,10.15,10.15,0,0,1-1.14-1.8,5.54,5.54,0,0,1-.38-1,2,2,0,0,1,0-1.16v.19a13.8,13.8,0,0,1-.92-1.34,9.21,9.21,0,0,1-.72-1.48,5.81,5.81,0,0,1-.37-1.61,3.47,3.47,0,0,1,.22-1.7v.19a9.47,9.47,0,0,1-.7-3.2,8.62,8.62,0,0,1,.48-3.25l0,.21a17.42,17.42,0,0,1-1-1.91,6.09,6.09,0,0,1-.59-2.11,4.12,4.12,0,0,1,.36-2.2,2.13,2.13,0,0,1,.8-.83,2.23,2.23,0,0,1,1.12-.27,3.92,3.92,0,0,1,2.05.77,20,20,0,0,1,1.67,1.34C314.4,158.41,315.41,159.41,316.38,160.45Z" style="fill:#263238"></path><path d="M326.35,141.19s-.59,6.12,3.82,6.87,12.9-9.58,12.9-9.58-2.87-2-8-1.61A14.32,14.32,0,0,0,326.35,141.19Z" style="fill:#eb9481"></path><path d="M338.55,139.11c-.17,1-4.57,7.83-9.17,7.89-1.5,0-2-8.16-2-8.16l-.17-.6-2.4-8.34,9.54-7,1.39-.93s.51,2.32,1.11,5.23l.09.41c0,.16.07.32.1.47.1.43.19.88.28,1.32s.13.66.19,1,.13.7.19,1.05A54.38,54.38,0,0,1,338.55,139.11Z" style="fill:#eb9481"></path><path d="M336.88,127.22a17.37,17.37,0,0,1-9.64,11l-2.4-8.34,9.54-7,1.39-.93S336.28,124.31,336.88,127.22Z" style="fill:#263238"></path><path d="M311.43,115.82c-3.49,14.84,5,18.61,8.2,19.36,2.9.68,12.88,2.63,17.89-11.77s-.79-20.71-7.35-22.62S314.93,101,311.43,115.82Z" style="fill:#eb9481"></path><path d="M314.47,113.24a7.36,7.36,0,0,0,1,0,1.67,1.67,0,0,0,1.08-.2.55.55,0,0,0,.13-.65,1.35,1.35,0,0,0-1.23-.58,1.92,1.92,0,0,0-1.35.43A.57.57,0,0,0,314.47,113.24Z" style="fill:#263238"></path><path d="M324.4,115.61a9,9,0,0,1-1-.42,1.75,1.75,0,0,1-.9-.62.55.55,0,0,1,.14-.65,1.33,1.33,0,0,1,1.36,0,1.94,1.94,0,0,1,1.07.94A.57.57,0,0,1,324.4,115.61Z" style="fill:#263238"></path><path d="M321.52,118.43s.07.07.06.11c-.28,1-.42,2.19.42,2.75,0,0,0,.06,0,0C320.9,120.92,321.1,119.34,321.52,118.43Z" style="fill:#263238"></path><path d="M322.67,117.59c1.65.26,1,3.55-.52,3.31S321.28,117.37,322.67,117.59Z" style="fill:#263238"></path><path d="M323.28,117.89c.25.24.47.63.81.73s.76-.17,1.09-.45c0,0,.05,0,.05,0-.12.63-.49,1.23-1.18,1.19s-1-.68-1-1.34C323.05,118,323.18,117.79,323.28,117.89Z" style="fill:#263238"></path><path d="M315.94,117.22s-.09,0-.09.07c-.16,1-.52,2.17-1.5,2.34,0,0,0,.06,0,.06C315.5,119.74,316,118.21,315.94,117.22Z" style="fill:#263238"></path><path d="M315.23,116c-1.62-.43-2.36,2.83-.86,3.23S316.59,116.34,315.23,116Z" style="fill:#263238"></path><path d="M314.5,116c-.3.11-.62.37-.94.32s-.54-.47-.69-.87c0,0-.05,0-.06,0-.16.62-.1,1.32.47,1.57s1-.21,1.34-.79C314.67,116.19,314.62,116,314.5,116Z" style="fill:#263238"></path><path d="M320,126.92c-.28.21-.58.5-1,.48A2.84,2.84,0,0,1,318,127s-.07,0,0,0a1.41,1.41,0,0,0,1.22.75,1.09,1.09,0,0,0,.94-.79S320,126.89,320,126.92Z" style="fill:#263238"></path><path d="M316.5,122.37s-.53,1.47-.68,2.19c0,.06.16.13.4.2h0a3.48,3.48,0,0,0,3.57-.58c.07-.06,0-.15-.08-.12a5.2,5.2,0,0,1-3.3.24c0-.21,1-2.49.88-2.52a6.11,6.11,0,0,0-1.7,0c1-3.11,2.5-6,3.45-9.12,0-.12-.12-.18-.17-.09a53,53,0,0,0-4.15,9.66C314.6,122.66,316.19,122.43,316.5,122.37Z" style="fill:#263238"></path><path d="M316.39,124.43a4.28,4.28,0,0,0,1.27,1.73,1.87,1.87,0,0,0,1.09.39c.87,0,1.1-.72,1.13-1.39a4.64,4.64,0,0,0-.08-1.07A5.52,5.52,0,0,1,316.39,124.43Z" style="fill:#263238"></path><path d="M317.66,126.16a1.87,1.87,0,0,0,1.09.39c.87,0,1.1-.72,1.13-1.39A2,2,0,0,0,317.66,126.16Z" style="fill:#ff98b9"></path><path d="M336.14,125.34a6.23,6.23,0,0,1-2.38-5.68,16.22,16.22,0,0,1-5.39-6.58c0,.33.29,2.68.46,3.87-9-3.72-10.43-11.51-10.43-11.51a16.54,16.54,0,0,0-5.34,5.1s1.14-5.78,4.91-9a9.49,9.49,0,0,1,9.37-2,13.55,13.55,0,0,1,12.13,6.7C344.17,114.11,336.14,125.34,336.14,125.34Z" style="fill:#263238"></path><path d="M322,113.9a17.48,17.48,0,0,0,4.45,2.78s0,0,0,0a15,15,0,0,1-6-5.61A14.31,14.31,0,0,1,319,107.8a9.9,9.9,0,0,1-.49-3.85.08.08,0,0,0-.15,0,11.57,11.57,0,0,0,0,3.85,10.86,10.86,0,0,0,1.43,3.55A12.15,12.15,0,0,0,322,113.9Z" style="fill:#263238"></path><path d="M335.9,128.89a4.06,4.06,0,0,1-.73.08,2.6,2.6,0,0,1-.71-.09,2,2,0,0,1-.83-.41,2.5,2.5,0,0,1-.51-.52,2.77,2.77,0,0,1-.44-.93l1.42-3.91s4-4.22,5.94-2.74S338.54,128.32,335.9,128.89Z" style="fill:#eb9481"></path><path d="M339,122.2s0,.06,0,.07c-1.87.45-3,2-3.92,3.54a1.42,1.42,0,0,1,2.16-.07s0,.1-.06.08a1.58,1.58,0,0,0-1.81.3,8.41,8.41,0,0,0-1,1.27c-.1.15-.38,0-.29-.15l0,0C334.36,125,336.56,122.07,339,122.2Z" style="fill:#263238"></path><path d="M335.93,128.05a.7.7,0,1,1-.42-.9A.69.69,0,0,1,335.93,128.05Z" style="fill:#fff"></path></g><g id="freepik--character-1--inject-65"><path d="M234.49,440.59c-2.31.72-67.81-.68-70.27-2.31-.94-.61-1.29-10.17-1.39-21.72,0-2.5,0-5.06,0-7.69,0-3.1,0-6.23.07-9.28.17-13.68.58-25.73.58-25.73l42.64.79-.49,25.73-.18,9.28-.37,7.68s24.84,11.76,27.35,13.84S236.79,439.88,234.49,440.59Z" style="fill:#ad6359"></path><path d="M234.49,440.59c-2.31.72-67.81-.68-70.27-2.31-.94-.61-1.29-10.17-1.39-21.72,0-2.5,0-5.06,0-7.69,0-3.1,0-6.23.07-9.28l42.73.79-.18,9.28-.37,7.68s24.84,11.76,27.35,13.84S236.79,439.88,234.49,440.59Z" style="fill:#fff"></path><path d="M234.68,440.7c-1.5.46-29.4,0-49.71-.75-4.69-.19-9-.4-12.46-.62-4.77-.31-8-.63-8.49-1-1.14-.76-1.43-14.78-1.42-29.57l42.86.8-.37,7.72s25,11.82,27.5,13.91S237,440,234.68,440.7Z" style="fill:#c7c7c7"></path><path d="M233.79,438c-11-.51-55.59-1.51-66.53-1.18-.09,0-.09.07,0,.07,10.92.75,55.49,1.39,66.53,1.29C234,438.22,234,438.05,233.79,438Z" style="fill:#263238"></path><path d="M206.7,414.89c-4.32-.9-9.65-.35-13,2.68-.13.11,0,.3.18.26a61.5,61.5,0,0,1,12.83-2.39A.28.28,0,0,0,206.7,414.89Z" style="fill:#263238"></path><path d="M209.8,416.85c-4.33-.9-9.66-.35-13,2.67-.13.12,0,.3.18.26a60.61,60.61,0,0,1,12.83-2.38A.28.28,0,0,0,209.8,416.85Z" style="fill:#263238"></path><path d="M212.9,418.81c-4.33-.91-9.66-.35-13.05,2.67-.13.12,0,.3.18.26a61.47,61.47,0,0,1,12.84-2.39A.27.27,0,0,0,212.9,418.81Z" style="fill:#263238"></path><path d="M216,420.76c-4.33-.9-9.65-.35-13,2.68-.13.11,0,.3.18.26A61.38,61.38,0,0,1,216,421.31.28.28,0,0,0,216,420.76Z" style="fill:#263238"></path><path d="M201.16,440.46c-5.51-.14-11.09-.32-16.19-.52-4.7-.18-9-.39-12.46-.61-4.77-.31-8-.62-8.49-1-1-.67-1.35-11.5-1.4-24.11C172.34,420.75,191.44,433.8,201.16,440.46Z" style="fill:#a6a6a6"></path><path d="M209.27,416.81l-48.66.05s2.67-109.54,2.15-112.09c-1.26-6.09-28.93-102.67-28.93-102.67l38.42.66,10.34.23s1.65,16.08,2.11,17.79c6.43,23.43,19,63.43,21.52,78.27C210.65,324.75,209.27,416.81,209.27,416.81Z" style="fill:#263238"></path><path d="M207.7,408.68c-7.59-.2-34.48-1-44.6-.24-.08,0-.08.13,0,.14,3.46.57,37,.41,44.6.31A.11.11,0,0,0,207.7,408.68Z" style="fill:#37474f"></path><path d="M166.57,302.35c-1.45-5.92-12.29-42.81-15.6-54.47s-6.43-23.35-9.29-35.11c-.36-1.49-.73-3-1.13-4.46,0-.13-.21-.07-.19.05,1.1,5.92,2.54,11.8,3.94,17.66s2.87,11.7,4.44,17.52q4.71,17.55,10.28,34.84c1.85,5.75,4.91,17.54,6.54,23.36s-1,101.2-.86,102.75a.35.35,0,0,0,.69,0C165.6,393.24,168,308.2,166.57,302.35Z" style="fill:#37474f"></path><path d="M172.26,202.75s-9.4,102.51-9.5,102c-1.21-5.89-27.23-96.71-28.86-102.39-.06-.18-.08-.27-.08-.27Z" style="fill:#37474f"></path><path d="M184,446.21c-2.31.72-67.81-.69-70.27-2.32-.94-.61-1.29-10.17-1.39-21.72,0-2.49,0-5.06,0-7.69,0-3.09,0-6.23.06-9.28.17-13.68.58-25.72.58-25.72l42.65.79-.5,25.72-.18,9.28-.37,7.69s24.84,11.75,27.35,13.84S186.32,445.5,184,446.21Z" style="fill:#ad6359"></path><path d="M184,446.21c-2.31.72-67.81-.69-70.27-2.32-.94-.61-1.29-10.17-1.39-21.72,0-2.49,0-5.06,0-7.69,0-3.09,0-6.23.06-9.28l42.73.79-.18,9.28-.37,7.69s24.84,11.75,27.35,13.84S186.32,445.5,184,446.21Z" style="fill:#fff"></path><path d="M184.21,446.31c-1.5.46-29.4.05-49.71-.75-4.69-.19-9-.4-12.46-.61-4.77-.31-8-.63-8.49-1-1.14-.76-1.43-14.78-1.42-29.57l42.86.79-.37,7.72s25,11.82,27.5,13.92S186.52,445.58,184.21,446.31Z" style="fill:#c7c7c7"></path><path d="M183.33,443.65c-11-.5-55.6-1.51-66.54-1.17-.09,0-.09.06,0,.07,10.92.74,55.49,1.38,66.53,1.29C183.55,443.83,183.56,443.67,183.33,443.65Z" style="fill:#263238"></path><path d="M156.23,420.51c-4.32-.91-9.65-.35-13,2.67-.13.12,0,.3.18.26a61.47,61.47,0,0,1,12.84-2.39A.27.27,0,0,0,156.23,420.51Z" style="fill:#263238"></path><path d="M159.33,422.46c-4.33-.9-9.66-.35-13,2.68-.13.11,0,.3.18.26A61.26,61.26,0,0,1,159.3,423,.28.28,0,0,0,159.33,422.46Z" style="fill:#263238"></path><path d="M162.43,424.42c-4.33-.9-9.66-.35-13.05,2.67-.13.12,0,.31.18.26A61.46,61.46,0,0,1,162.4,425,.28.28,0,0,0,162.43,424.42Z" style="fill:#263238"></path><path d="M165.52,426.38c-4.33-.91-9.65-.35-13,2.67-.13.12,0,.3.18.26a60.72,60.72,0,0,1,12.83-2.38A.28.28,0,0,0,165.52,426.38Z" style="fill:#263238"></path><path d="M157.46,421.77l-47.22-.87s13.26-170.31,11.61-179.33c-2.7-14.77.27-28.25,4.2-39.63l48.52.85s.67,12.93-4.22,20.55c0,0-4.36,2.65-6.48,3.81Z" style="fill:#263238"></path><path d="M156.16,413.39c-7.16-.32-5.1-.33-12.26-.57-3.51-.12-26.54-.87-29.83-.4-.07,0-.08.13,0,.14,3.26.62,26.3,1,29.81,1,7.17.1,5.11,0,12.28,0A.11.11,0,0,0,156.16,413.39Z" style="fill:#37474f"></path><path d="M173.26,221.32a89.2,89.2,0,0,0-13.08,7.43.15.15,0,0,0,.16.26c4.42-2.34,8.94-4.61,13.22-7.18C173.9,221.63,173.61,221.17,173.26,221.32Z" style="fill:#37474f"></path><path d="M167.41,220.55a21.44,21.44,0,0,0-.67,2.71,5.82,5.82,0,0,0-.18,2.19c0,.14.22.13.29,0a7.23,7.23,0,0,0,.75-2.18c.24-.84.49-1.68.71-2.53A.46.46,0,0,0,167.41,220.55Z" style="fill:#37474f"></path><path d="M167.08,216.11c.14-.76.28-1.53.43-2.29s.37-1.58.47-2.38c0-.13.22-.08.19,0-.13.77-.16,1.56-.24,2.34s-.16,1.56-.25,2.33c-.18,1.45-.45,2.91-.77,4.33a5.11,5.11,0,0,0,2.14-.84,4.08,4.08,0,0,0,1.17-2.19c.24-.87.45-1.76.71-2.63a17.65,17.65,0,0,0,.72-2.93c0-.13.22-.09.2,0a31.46,31.46,0,0,1-1.29,6.18,3.36,3.36,0,0,1-1.19,2,6.69,6.69,0,0,1-2.59.72c-.1.05-.26,0-.25-.13C166.65,219.19,166.81,217.63,167.08,216.11Z" style="fill:#37474f"></path><path d="M129.34,241.12c-.27-3.39-.76-6.76-1.07-10.14-.61-6.81.47-13.5,1.6-20.23.27-1.56-.46-.77-.48-.64a79.44,79.44,0,0,0-1.84,18.33c.18,6,1.13,11.87,1.11,17.85s-.6,12.1-1.1,18.13-1,12.13-1.51,18.19c-2,24.39-3.92,48.78-5.86,73.17-.54,6.81-1,13.62-1.58,20.43s-1.33,24-1.71,31c0,.6.86.57.92,0,1.26-12.23,2.28-34.68,3.29-46.93S123,336,124,323.83s1.92-24.26,2.87-36.39c.47-6.07.92-12.14,1.39-18.2s1-12.09,1.22-18.15A89.61,89.61,0,0,0,129.34,241.12Z" style="fill:#37474f"></path><path d="M146.2,210.63a.11.11,0,0,0-.19,0,8.09,8.09,0,0,0-.48,2.47,17,17,0,0,1-.67,2.66,10.58,10.58,0,0,1-2.85,4.59c-2.95,2.66-6.84,3.59-10.6,4.44-.14,0-.09.22,0,.23a16.73,16.73,0,0,0,6.54-.9,13.59,13.59,0,0,0,5.08-2.72,9.33,9.33,0,0,0,2.81-4.87,17.59,17.59,0,0,0,.37-3c0-.48,0-1,0-1.44A4,4,0,0,0,146.2,210.63Z" style="fill:#37474f"></path><path d="M165.69,145c3.72,11.68,24.71,40,33.82,42.68,6.59,2,34.1-10.88,41.85-15.85,7.48-4.79-10.31-26.84-14.89-24.33-6.47,3.54-21.41,14.63-24.1,14.46-1.88-.12-11.79-8-26.76-21.94C167.33,132.31,163.47,138,165.69,145Z" style="fill:#ad6359"></path><path d="M236.57,139.63c4.21-1.21,8.94-2.94,13.53-2.59s8,6.64,7.92,8.37-2.47,12.44-7,12.17-1.33-8.41-1.45-9.37-.21-2.19-1.08-2.15S232,152.39,232,152.39Z" style="fill:#ad6359"></path><path d="M236.82,140.28c.26,0,12.83-4.1,17.41-3.75s8,6.64,7.93,8.37-2.47,12.44-7.05,12.17-1.33-8.41-1.45-9.37-.21-2.19-1.08-2.15-16.44,6.33-16.44,6.33Z" style="fill:#ad6359"></path><path d="M253.59,156.4a5.39,5.39,0,0,1-.61-2.75,9.61,9.61,0,0,1,.34-2.92,15.67,15.67,0,0,0,.71-2.49,5.11,5.11,0,0,0-.5-2.46c-.32-.67-1-.49-1.59-.32a23.28,23.28,0,0,0-2.56,1l-2.69,1.19a24.68,24.68,0,0,0-2.75,1.3c-.07,0,0,.16.05.13a22.85,22.85,0,0,0,2.38-.91l2.7-1c.84-.32,1.67-.68,2.51-1a2.72,2.72,0,0,1,1.23-.3c.35.1.47,1,.53,1.26a4.28,4.28,0,0,1-.3,2.47,12.34,12.34,0,0,0-.62,2.48,6.67,6.67,0,0,0,.05,2.4,9.09,9.09,0,0,0,1,2C253.49,156.57,253.65,156.49,253.59,156.4Z" style="fill:#263238"></path><path d="M221.57,151.46s13.39-10.83,16.17-13c5.58-4.3,28.47-12.11,31.6-12.26s3.88,6.31-11.68,12.05c-8.2,3-9.89,7.52-9.89,10.07s2.15,7.42,6.42,7.55,7.41-5.93,11.38-6.39.95,6.57-2.07,10.56a26.19,26.19,0,0,1-12,8.29c-3.77,1.17-15.49,5.42-15.49,5.42Z" style="fill:#ad6359"></path><path d="M259.67,153.2c-1.68,1.15-3.6,2.66-5.72,2.61s-3.53-1.55-4.44-3.39a8.09,8.09,0,0,1-.77-6,10,10,0,0,1,3.21-4.61,24,24,0,0,1,6-3.51c.09,0,0-.18-.08-.14-2,.76-8.27,2.9-9.81,8.22a8.3,8.3,0,0,0,.83,6.09c.85,1.75,2.13,3.47,4.19,3.76,2.51.36,4.8-1.57,6.7-3C259.87,153.21,259.76,153.14,259.67,153.2Z" style="fill:#263238"></path><path d="M225.94,147.78l9.68,34.46s-28.78,8.91-36.75,6.18-27.17-27.67-33.49-42.49c-3.84-9,1.68-14.58,11.35-6.21,10,8.59,23.92,20.5,25,21S225.94,147.78,225.94,147.78Z" style="fill:#455a64"></path><path d="M223,167.87c-.56-2.57-2.72-12.89-3.06-15.49a0,0,0,0,1,.08,0c.81,2.42,3.24,12.54,3.8,15.11A143.92,143.92,0,0,1,226.71,183c0,.09-.13.14-.16.05C225,178.08,224.08,173,223,167.87Z" style="fill:#263238"></path><path d="M165.38,145.93c5.12,12,18.71,30.66,27.91,38.75L170.7,136h0C165,134.14,162.44,139,165.38,145.93Z" style="fill:#263238"></path><path d="M122,212.74l62.21.36c.27-.27,2.7-1.33,2-10.29-1.59-20.41-8.4-56.72-12.78-64.46a13.29,13.29,0,0,0-18.11-5.52c-3.64,2.27-7,5.24-11.23,11.53-10.38,15.44-19.17,42.74-22.89,57.74C119.61,208.31,121.82,212.56,122,212.74Z" style="fill:#455a64"></path><path d="M165.52,144.12c-1.07-.19-7.39-6.73-9-11.36-.11-.32.86-3.3,1.88-7,.6-2.23,1.22-4.73,1.63-7.06.08-.47,1.55.68,1.55.68l2.88,1.25L174,124.8a37.28,37.28,0,0,0-2.95,8.67,4.67,4.67,0,0,0-.07,1,.92.92,0,0,1,0,.16C171,136.46,167.26,144.43,165.52,144.12Z" style="fill:#ad6359"></path><path d="M171,134.44a.92.92,0,0,1,0,.16,8.69,8.69,0,0,1-1.51-.18c-9.77-1.92-8.83-14.6-8.83-14.6l3.85.84L174,124.8a37.28,37.28,0,0,0-2.95,8.67A4.67,4.67,0,0,0,171,134.44Z" style="fill:#263238"></path><path d="M179.35,96.55s4.44,2.25,4.93,7-.94,9.53-1.36,9.73S179.35,96.55,179.35,96.55Z" style="fill:#263238"></path><path d="M160.39,102c-2.18,5-1.12,20.39,2.21,24.16,4.83,5.47,13.57,6.92,18.42.93,4.71-5.81,3-25.8-.82-29.31C174.61,92.64,163.6,94.61,160.39,102Z" style="fill:#ad6359"></path><path d="M174.05,112.7s-.07,0-.07.09c.1,1,0,2.24-.88,2.64a0,0,0,0,0,0,.06C174.25,115.25,174.31,113.66,174.05,112.7Z" style="fill:#263238"></path><path d="M173.06,111.68c-1.67,0-1.59,3.32,0,3.34S174.46,111.69,173.06,111.68Z" style="fill:#263238"></path><path d="M180.06,112.72s.08,0,.08.09c0,1,.16,2.22,1.11,2.54a0,0,0,0,1,0,.06C180.09,115.28,179.88,113.7,180.06,112.72Z" style="fill:#263238"></path><path d="M181,111.61c1.66-.17,1.87,3.17.33,3.33S179.56,111.75,181,111.61Z" style="fill:#263238"></path><path d="M171.7,110.18c.45-.13.85-.32,1.29-.49a2.2,2.2,0,0,0,1.21-.75.7.7,0,0,0-.13-.85,1.77,1.77,0,0,0-1.78-.14,2.6,2.6,0,0,0-1.45,1.15A.75.75,0,0,0,171.7,110.18Z" style="fill:#263238"></path><path d="M182.21,109.89a11.86,11.86,0,0,1-1.34-.31,2.21,2.21,0,0,1-1.31-.58.72.72,0,0,1,0-.86,1.74,1.74,0,0,1,1.74-.37,2.55,2.55,0,0,1,1.6.94A.75.75,0,0,1,182.21,109.89Z" style="fill:#263238"></path><path d="M173.34,122.34c.25.24.51.57.88.59a2.69,2.69,0,0,0,1.11-.29s.07,0,0,0a1.39,1.39,0,0,1-1.3.6,1.1,1.1,0,0,1-.84-.9C173.22,122.33,173.3,122.31,173.34,122.34Z" style="fill:#263238"></path><path d="M174.35,119.21a3.49,3.49,0,0,0,2.39,1.51,4.51,4.51,0,0,0,1.27,0l.25,0,.22,0a.24.24,0,0,0,.2-.23h0a.41.41,0,0,0,0-.11h0v-.1c0-.79-.11-2-.11-2,.3.14,1.8.77,1.77.36a53.61,53.61,0,0,0-1.64-10.65.1.1,0,0,0-.19,0c.15,3.33.88,6.6,1.09,9.94a6.1,6.1,0,0,0-1.68-.47c-.11,0,.25,2.34.22,2.7v0a5,5,0,0,1-3.68-1C174.36,119.06,174.28,119.13,174.35,119.21Z" style="fill:#263238"></path><path d="M177.53,120.36a4.18,4.18,0,0,1-1.64,1.34,2,2,0,0,1-1.14.1c-.84-.2-.88-1-.74-1.61a4.48,4.48,0,0,1,.35-1A5.43,5.43,0,0,0,177.53,120.36Z" style="fill:#263238"></path><path d="M175.89,121.7a2,2,0,0,1-1.14.1c-.84-.2-.88-1-.74-1.61A2,2,0,0,1,175.89,121.7Z" style="fill:#ff98b9"></path><path d="M160.54,115.13c1.78.33,3.18-5.08,3.51-7.14.29-1.81.22-7.45.26-7.84s8.09,4.07,12.29,2.3,6.66-6,6.51-7.82-6.07-5.84-10.77-5.54-10.34,7-10.34,7a22.7,22.7,0,0,0,1.76-3c-.1-.2-3,1.35-3.29,3.56,0,0,.29-2.77.05-2.79s-2.31,2.55-1.58,4.24c0,0-2.44,2.66-2.4,5.27S158.44,114.74,160.54,115.13Z" style="fill:#263238"></path><path d="M179.58,101.19a14.69,14.69,0,0,1-3.93,1.94,9.93,9.93,0,0,1-4.78-.21,15.09,15.09,0,0,1-4.39-2c-1.19-.77-2.27-1.73-3.52-2.4-.32-.17-.61.29-.4.54a15.77,15.77,0,0,0,8.55,4.9,9,9,0,0,0,8.49-2.76S179.6,101.18,179.58,101.19Z" style="fill:#263238"></path><path d="M162.14,114.76s-2.94-5.2-5.27-4.2-.43,8.32,2.07,9.53a2.66,2.66,0,0,0,3.68-1.08Z" style="fill:#ad6359"></path><path d="M157.46,112.65s-.05,0,0,.06c1.75.91,2.55,2.69,3.06,4.51a1.46,1.46,0,0,0-2.14-.61.05.05,0,0,0,0,.1,1.65,1.65,0,0,1,1.73.74,7.64,7.64,0,0,1,.72,1.53c.07.17.37.11.33-.08v-.05C161.43,116.53,159.93,113.12,157.46,112.65Z" style="fill:#263238"></path><path d="M171,134.53l-4.58,8.29L157,130.55l-3.48,3.15s8.44,18.7,8.6,17.92l4.47-7,4.53,5.82,1.16-13.1Z" style="fill:#fff"></path><path d="M172,144c.12-2.17.3-4.35.32-6.53,0-.07-.12-.12-.15,0-.68,2-1.09,10.33-1.34,12.3l0,0c-.18-.25-4.22-5.15-4.28-5.09-.92,1.09-4.19,6.22-4.43,6.69-1.34-3-6.51-13.8-8.16-16.66a.08.08,0,0,0-.14.06c1.12,3.1,7.93,17.67,8.07,17.65a84.11,84.11,0,0,0,4.69-7.45c.66,1,4.67,6.51,4.72,6.19A67.75,67.75,0,0,0,172,144Z" style="fill:#263238"></path><path d="M199.41,180.87c1.7,0,2.9-.08,3-.09l-.23-3.35c-.08,0-7.78.5-11.74-1.1-3.15-1.28-6.63-10.14-8.17-18-1-5-.44-6.52,0-7,.09-.1.33-.39,1.22-.39h3.07c.89,2.68,2.31,5.37,4.45,5.37h6.2V153h-5.95a12.76,12.76,0,0,1-1.84-4.14l-.34-1.23h-5.59a4.64,4.64,0,0,0-3.81,1.62C178.22,151,178,154,179,159a63.87,63.87,0,0,0,3.56,11.81c2,4.76,4.25,7.66,6.65,8.63C192.16,180.64,196.51,180.87,199.41,180.87Z" style="fill:#FFC727"></path><polygon points="192.28 152.96 197.2 152.96 197.2 156.32 193.04 156.32 192.28 152.96" style="opacity:0.2"></polygon><path d="M202.44,180.78c-.13,0-1.33.09-3,.09-.28,0-.57,0-.88,0l-.75-3.37c2.44.08,4.39,0,4.43,0Z" style="opacity:0.2"></path><path d="M231.64,180.87c-1.7,0-2.9-.08-3-.09l.23-3.35c.08,0,7.78.5,11.74-1.1,3.15-1.28,6.63-10.14,8.17-18,1-5,.44-6.52,0-7-.09-.1-.32-.39-1.21-.39H244.5c-.88,2.68-2.31,5.37-4.45,5.37h-6.2V153h6a12.76,12.76,0,0,0,1.84-4.14l.34-1.23h5.6a4.64,4.64,0,0,1,3.8,1.62c1.45,1.76,1.66,4.78.67,9.79a63.87,63.87,0,0,1-3.56,11.81c-2,4.76-4.25,7.66-6.65,8.63C238.89,180.64,234.54,180.87,231.64,180.87Z" style="fill:#FFC727"></path><polygon points="238.77 152.96 233.85 152.96 233.85 156.32 238.01 156.32 238.77 152.96" style="opacity:0.2"></polygon><path d="M228.61,180.78c.13,0,1.33.09,3,.09.28,0,.58,0,.88,0l.75-3.37c-2.44.08-4.39,0-4.43,0Z" style="opacity:0.2"></path><polygon points="198 214.4 198 216.28 233.06 216.28 233.06 214.4 230.05 214.4 227.82 211.19 217.61 207.13 217.61 187.22 213.44 187.22 213.44 207.13 203.24 211.19 201 214.4 198 214.4" style="fill:#FFC727"></polygon><rect x="212.29" y="187.78" width="6.48" height="2.1" transform="translate(431.05 377.65) rotate(180)" style="fill:#FFC727"></rect><polygon points="212.29 189.11 218.76 188.82 218.76 187.78 212.29 187.78 212.29 189.11" style="opacity:0.2"></polygon><path d="M194.09,145.36S195.72,172.49,200,180s13.4,8.14,15.53,8.14,11.25-.64,15.52-8.14S237,145.36,237,145.36Z" style="fill:#FFC727"></path><path d="M212.27,187.81c-3.69-.62-9.21-2.47-12.27-7.82-4.28-7.5-5.92-34.63-5.92-34.63h4c.55,5.7,1.64,27.46,4.73,33.79C205.55,184.68,211.84,187.65,212.27,187.81Z" style="fill:#fff;opacity:0.30000000000000004"></path><polygon points="230.05 214.4 201 214.4 201.8 213.25 228.54 212.23 230.05 214.4" style="opacity:0.2"></polygon><polygon points="215.53 153.93 217.83 158.6 222.98 159.34 219.25 162.98 220.13 168.11 215.53 165.69 210.92 168.11 211.8 162.98 208.07 159.34 213.22 158.6 215.53 153.93" style="opacity:0.1"></polygon><path d="M146,143.42c-8.51,16-25.43,52.28-17.77,59.08,12.61,11.16,39.6,18.58,48.28,20,3.75.59,13.13-27.3,9.45-29-4.42-2-31.89-8.79-32.18-10s2.16-19.92,1.87-34.27C155.27,131.36,149.52,136.76,146,143.42Z" style="fill:#ad6359"></path><path d="M172.58,193.39s10.54-4.68,17.58-7.43c3.92-1.53,10.89-3.55,14.29-3.35,5.08.29,26.16,4.76,25.18,9.9-.88,4.64-18.5-1.5-18.5-1.5s18.33,4.63,16.24,10-21.08-4.19-21.08-4.19S225,202,222,207.25c-2.29,3.95-20-3.76-20-3.76s16.06,4.56,13.88,8.72c-2.42,4.6-19.18-1.49-19.18-1.49-7.34,9.65-14.54,11.77-20.21,11.75C175.17,222.46,172.58,193.39,172.58,193.39Z" style="fill:#ad6359"></path><path d="M205.76,189.25c13.76,2.38,19.77,7.76,19.59,7.65-4.47-2.61-12-5.08-14.16-5.74s-3.34-1.17-5.46-1.83C205.68,189.32,205.71,189.24,205.76,189.25Z" style="fill:#263238"></path><path d="M202.39,196.63a47.66,47.66,0,0,1,16.05,5c.19.12.1.17-.11.1-2.68-.91-13.26-4.29-16-5.06C202.32,196.68,202.34,196.63,202.39,196.63Z" style="fill:#263238"></path><path d="M199.05,202.79a35.25,35.25,0,0,1,12.32,4.26c.19.1,0,.18-.16.1-4.07-1.49-7.25-2.69-12.19-4.21C199,202.91,199,202.77,199.05,202.79Z" style="fill:#263238"></path><path d="M177.37,190.5l-10.49,33.29s-37.55-14.18-41.38-22.7,14.76-50.7,20.92-59.62,9-6,10,3.12-2.33,38.35-2.09,38.86S177.37,190.5,177.37,190.5Z" style="fill:#455a64"></path><path d="M155.12,169.74q.28-3.28.53-6.56c.09-1.14.17-2.28.27-3.41,0-.52.09-1.05.13-1.57a6.87,6.87,0,0,0,.08-.78,4,4,0,0,1,.12-1c0-.06.11-.06.11,0,0,.59.11.34,0,.8s0,.68,0,1c0,.52,0,1,0,1.57,0,1.08-.08,2.15-.14,3.22,0,.14,0,.28,0,.43,0,0,0-.08,0-.12.24-1.19.49-2.37.74-3.56a0,0,0,0,1,.08,0c-.11,1.21-.27,2.41-.49,3.6-.13.69-.31,1.37-.48,2-.09,1.43-.17,2.87-.28,4.3-.33,4.44-.69,8.9-1.38,13.3,2,.59,3.92,1.1,5.86,1.69s3.9,1.23,5.84,1.85,3.88,1.24,5.81,1.9c.93.31,1.84.64,2.76,1s2,.81,3,1.14c.11,0,0,.18-.06.15-1.05-.32-2.13-.5-3.19-.8l-2.77-.79c-1.95-.58-3.9-1.19-5.85-1.81s-3.9-1.21-5.84-1.85-3.83-1.36-5.77-2a.22.22,0,0,1-.13-.12.24.24,0,0,1-.13-.23C154.2,178.65,154.73,174.2,155.12,169.74Z" style="fill:#263238"></path><path d="M164.42,204.81c.79-2.42,4-12.06,5-14.39a0,0,0,0,1,.08,0c-.51,2.41-3.41,12-4.2,14.44a138.49,138.49,0,0,1-5.14,14.35c0,.08-.18.05-.16,0C161.15,214.3,162.87,209.57,164.42,204.81Z" style="fill:#263238"></path><path d="M141.91,212.86a67.32,67.32,0,0,1-8-3.89,32.12,32.12,0,0,1-7.11-5.37,8,8,0,0,1-2.23-4,6.57,6.57,0,0,1-.07-1.16c0-.38,0-.76,0-1.14.08-.74.13-1.49.22-2.23a74.84,74.84,0,0,1,1.9-8.7q2.47-8.52,5.77-16.75,1.66-4.11,3.48-8.14c1.27-2.67,2.53-5.34,4-7.9-1.27,2.67-2.44,5.37-3.55,8.09s-2.2,5.47-3.21,8.23c-2.05,5.51-4,11.08-5.53,16.74a72.86,72.86,0,0,0-2,8.55c-.09.72-.15,1.44-.23,2.16a18.61,18.61,0,0,0,0,2.12,7.7,7.7,0,0,0,2,3.63,31.42,31.42,0,0,0,6.8,5.46A76.19,76.19,0,0,0,141.91,212.86Z" style="fill:#263238"></path><path d="M137.67,156.52c-.34,1.47-.83,2.86-1.22,4.31a8.41,8.41,0,0,1,.39-2.22A13.37,13.37,0,0,1,137.67,156.52Z" style="fill:#263238"></path></g><g id="freepik--speech-bubble--inject-65"><path d="M238.7,79.38a22.62,22.62,0,0,1-37.79,14.31L189.6,95.35l5.66-9.79a22.62,22.62,0,1,1,43.44-6.18Z" style="fill:#fff"></path><path d="M238.7,79.38a22.79,22.79,0,0,1-4.56,11.47,27.08,27.08,0,0,1-2,2.36,27.14,27.14,0,0,1-2.39,2,23.12,23.12,0,0,1-11.55,4.49,23.48,23.48,0,0,1-3.14.06,20.65,20.65,0,0,1-3.13-.33,22.88,22.88,0,0,1-11.19-5.52L201,94l-11.3,1.73-.82.13.41-.72,5.63-9.81,0,.39a22.89,22.89,0,0,1,28.36-30.38,23.11,23.11,0,0,1,8.72,5.35A22.72,22.72,0,0,1,238.7,79.38Zm0,0A22.39,22.39,0,0,0,213.05,54.9a22.39,22.39,0,0,0-9.34,3.69A23.42,23.42,0,0,0,196.94,66a22.28,22.28,0,0,0-1.27,19.43l.08.2-.11.18-5.7,9.77-.4-.6,11.33-1.59.15,0,.11.11A22.37,22.37,0,0,0,212,99a19.8,19.8,0,0,0,3.07.37,21.39,21.39,0,0,0,3.1,0,22,22,0,0,0,6-1.33,20.67,20.67,0,0,0,5.45-2.94,23.78,23.78,0,0,0,2.39-2,24.11,24.11,0,0,0,2.06-2.34A22.66,22.66,0,0,0,238.7,79.38Z" style="fill:#263238"></path><polygon points="213.56 89.93 203.9 80.15 207.14 76.94 212.79 82.65 224.51 64.27 228.36 66.73 213.56 89.93" style="fill:#FFC727"></polygon></g></svg>