<svg xmlns="http://www.w3.org/2000/svg" viewBox="0 0 500 500"><g id="freepik--Floor--inject-12"><ellipse id="freepik--floor--inject-12" cx="250.49" cy="336" rx="235.21" ry="133.5" style="fill:#f0f0f0"></ellipse></g><g id="freepik--Shadows--inject-12"><path id="freepik--Shadow--inject-12" d="M356.77,313,324,294.13a1.27,1.27,0,0,1,0-2.41l41.78-24.14a4.56,4.56,0,0,1,4.16,0l32.74,18.86a1.27,1.27,0,0,1,0,2.4L360.93,313A4.62,4.62,0,0,1,356.77,313Z" style="fill:#e0e0e0"></path><ellipse id="freepik--shadow--inject-12" cx="426" cy="342.72" rx="50.47" ry="34.31" style="fill:#e0e0e0"></ellipse><path id="freepik--shadow--inject-12" d="M101.65,400.21,22,354.21a1.26,1.26,0,0,1,0-2.39l124.81-72.05a4.53,4.53,0,0,1,4.12,0l79.68,46a1.26,1.26,0,0,1,0,2.38L105.77,400.21A4.53,4.53,0,0,1,101.65,400.21Z" style="fill:#e0e0e0"></path><path id="freepik--shadow--inject-12" d="M112.16,392.91l18.42,10.63a5.49,5.49,0,0,0,5,0L364.75,271.23c1.38-.8,1.38-2.09,0-2.89l-18.57-10.72a5.55,5.55,0,0,0-5,0L112.16,390C110.78,390.82,110.78,392.11,112.16,392.91Z" style="fill:#e0e0e0"></path></g><g id="freepik--Gears--inject-12"><g id="freepik--gears--inject-12"><path d="M96.08,64.67h0a.83.83,0,0,0-.85.07l-1.75,1.13-.39,1a2,2,0,0,0,.48,1.9,8.36,8.36,0,0,1,.8.95,1.2,1.2,0,0,0,1.64.35l4.09-2.62a.82.82,0,0,1,.83-.08Zm-6.3,14.61c-.57-3.22-2.68-4.84-5.42-4.62a8.26,8.26,0,0,1,.57,1.89c.9,5.11-2.43,12.36-7.43,16.2A10.32,10.32,0,0,1,72.25,95c1.65,3.43,5.8,3.75,10.12.44C87.37,91.64,90.69,84.39,89.78,79.28Zm.09-21.85h0a1,1,0,0,0-.32-.13l-3.08-.67a1.66,1.66,0,0,0-1.74.78L81.82,62.8a2.38,2.38,0,0,1-.64.72h0a3.17,3.17,0,0,1-.49.32l.9,2.93a1.06,1.06,0,0,0,1.46.65,14.91,14.91,0,0,1,1.9-.61A3.2,3.2,0,0,0,86,66.26a2.49,2.49,0,0,0,.66-.73l2.89-5.38a1.69,1.69,0,0,1,1.75-.78l3.09.67a1.33,1.33,0,0,1,.3.11Zm-8.68,52a.86.86,0,0,1-.29-.45l-1-3.37A1.05,1.05,0,0,0,78.4,105a14.22,14.22,0,0,1-1.89.6,2.55,2.55,0,0,0-.6.25l.14.43a.86.86,0,0,0,.39.52h0Zm-5.9-49.32a.81.81,0,0,0-.34-.08.9.9,0,0,0-.57.21l-4.62,3.53a1.37,1.37,0,0,0-.18.16.81.81,0,0,0-.12.14,3.07,3.07,0,0,0-.41.71c0,.05,0,.11,0,.17h0a1.93,1.93,0,0,0-.13.72L69.16,70a3.34,3.34,0,0,1-.72,2.07c-.76.88-1.47,1.81-2.14,2.76a2.33,2.33,0,0,1-1,.76,1.64,1.64,0,0,1-.4.12.69.69,0,0,1-.2,0,.82.82,0,0,1-.27,0l-3-.14h-.07a1.06,1.06,0,0,0-.25,0,.8.8,0,0,0-.21.05h0a1.17,1.17,0,0,0-.24.09,2.34,2.34,0,0,0-.43.26,1.81,1.81,0,0,0-.48.59L57,82.72a1.12,1.12,0,0,0,.46,1.46L60.72,86a1.32,1.32,0,0,1,.07.83,28,28,0,0,0-.51,2.9,3.58,3.58,0,0,1-1,2l-.05,0-4,3.62a1,1,0,0,0-.2.21s0,0,0,0a.87.87,0,0,0-.16.26,2.25,2.25,0,0,0-.31,1.45l.77,4.34a.83.83,0,0,0,.36.59L60.47,105a.85.85,0,0,1-.34-.58l-.77-4.34a2.15,2.15,0,0,1,0-.83,2.41,2.41,0,0,1,.64-1.14l4-3.61,0,0a3.65,3.65,0,0,0,1-2,28.11,28.11,0,0,1,.52-2.9A1.44,1.44,0,0,0,64.84,88l-2.41-1a1.15,1.15,0,0,1-.62-1.54l2.79-6.09a1.69,1.69,0,0,1,.48-.59,1.85,1.85,0,0,1,1.23-.43l3,.14a2.06,2.06,0,0,0,.86-.17,2.33,2.33,0,0,0,1-.76c.67-1,1.39-1.88,2.14-2.76A3.34,3.34,0,0,0,74,72.72l-.28-4.27a2.18,2.18,0,0,1,.11-.74,2.48,2.48,0,0,1,.77-1.17L79.24,63a.79.79,0,0,1,.91-.13Zm-6.93,45.38a1.94,1.94,0,0,0-.49-1.89,8.12,8.12,0,0,1-.79-1,1.21,1.21,0,0,0-1.64-.37l-2.33,1.5-1.7,4.47a1,1,0,0,0,.41,1.22h0l4.88,2.74a1,1,0,0,1-.42-1.23Z" style="fill:#e0e0e0"></path><path d="M64.09,94.51l-4,3.61a2.41,2.41,0,0,0-.64,1.14l-4.85-2.72a2.67,2.67,0,0,1,.25-.63.87.87,0,0,1,.16-.26s0,0,0,0a1,1,0,0,1,.2-.21l4-3.62Z" style="fill:#fafafa"></path><path d="M70.14,78.31a2.06,2.06,0,0,1-.86.17l-3-.14a1.85,1.85,0,0,0-1.23.43L60.22,76a2.34,2.34,0,0,1,.43-.26,1.17,1.17,0,0,1,.24-.09h0a.8.8,0,0,1,.21-.05,1.06,1.06,0,0,1,.25,0h.07l3,.14a.82.82,0,0,0,.27,0l.2,0c.13,0,.25-.08.38-.12h0Z" style="fill:#fafafa"></path><path d="M100.93,67.38a.81.81,0,0,0-.83.1L96,70.1a1.21,1.21,0,0,1-1.64-.36,7.54,7.54,0,0,0-.8-1,1.93,1.93,0,0,1-.48-1.89l.39-1,1.75-1.12a.81.81,0,0,1,.85-.08h0Z" style="fill:#fafafa"></path><path d="M94.72,60.15a1.33,1.33,0,0,0-.3-.11l-3.09-.67a1.69,1.69,0,0,0-1.75.78l-2.89,5.38a2.49,2.49,0,0,1-.66.73l-4.85-2.74a2.38,2.38,0,0,0,.64-.72l2.91-5.38a1.66,1.66,0,0,1,1.74-.78l3.08.67a1,1,0,0,1,.32.13h0Z" style="fill:#fafafa"></path><path d="M80.15,62.88a.79.79,0,0,0-.91.13l-4.62,3.53a2.48,2.48,0,0,0-.77,1.17L69,65c0-.06,0-.12,0-.17a3.07,3.07,0,0,1,.41-.71.81.81,0,0,1,.12-.14,1.37,1.37,0,0,1,.18-.16l4.62-3.53a.9.9,0,0,1,.57-.21.81.81,0,0,1,.34.08Z" style="fill:#fafafa"></path><path d="M102.08,72.33,101.31,68a.73.73,0,0,0-1.21-.51L96,70.1a1.21,1.21,0,0,1-1.64-.36,8.36,8.36,0,0,0-.8-.95,2,2,0,0,1-.48-1.9l2.09-5.49A1,1,0,0,0,94.41,60l-3.08-.67a1.68,1.68,0,0,0-1.74.79l-2.9,5.37a3,3,0,0,1-1.75,1.28,14.91,14.91,0,0,0-1.9.61,1.06,1.06,0,0,1-1.46-.65l-1-3.36a.77.77,0,0,0-1.3-.4l-4.62,3.53a2.49,2.49,0,0,0-.88,1.91L74,72.72a3.34,3.34,0,0,1-.72,2.07,33.86,33.86,0,0,0-2.14,2.76,2.41,2.41,0,0,1-1.88.93l-3-.14a1.9,1.9,0,0,0-1.71,1l-2.79,6.08A1.15,1.15,0,0,0,62.43,87l2.4,1a1.45,1.45,0,0,1,.83,1.61,25.66,25.66,0,0,0-.52,2.9,3.58,3.58,0,0,1-1,2l-4.09,3.66a2.39,2.39,0,0,0-.69,2l.77,4.34a.74.74,0,0,0,1.22.52l4.09-2.62a1.2,1.2,0,0,1,1.64.36,8.2,8.2,0,0,0,.8,1,1.93,1.93,0,0,1,.48,1.89L66.27,111a1,1,0,0,0,.76,1.36l3.08.67a1.68,1.68,0,0,0,1.75-.78l2.9-5.38a3,3,0,0,1,1.75-1.28,13.9,13.9,0,0,0,1.9-.61,1.06,1.06,0,0,1,1.45.65l1,3.37a.78.78,0,0,0,1.3.4l4.62-3.54a2.49,2.49,0,0,0,.87-1.9l-.27-4.28a3.34,3.34,0,0,1,.72-2.07c.75-.88,1.47-1.8,2.14-2.76a2.41,2.41,0,0,1,1.88-.93l3,.15a1.91,1.91,0,0,0,1.7-1L99.63,87A1.13,1.13,0,0,0,99,85.44l-2.4-1a1.43,1.43,0,0,1-.82-1.61,25.21,25.21,0,0,0,.51-2.9,3.62,3.62,0,0,1,1-2l4.1-3.66A2.38,2.38,0,0,0,102.08,72.33ZM82.36,95.47c-5,3.83-9.79,2.79-10.7-2.33S74.08,80.78,79.08,77s9.8-2.79,10.7,2.33S87.37,91.64,82.36,95.47Z" style="fill:#f0f0f0"></path><path d="M101.94,133.88h0a1,1,0,0,0-1,.08l-2,1.3-.44,1.18a2.26,2.26,0,0,0,.55,2.2,10.1,10.1,0,0,1,.92,1.1,1.41,1.41,0,0,0,1.9.41l4.73-3a.93.93,0,0,1,1-.1Zm-7.27,16.89c-.67-3.72-3.11-5.59-6.27-5.33a9.21,9.21,0,0,1,.65,2.18c1,5.91-2.8,14.29-8.59,18.72A11.86,11.86,0,0,1,74.4,169c1.9,4,6.7,4.33,11.69.51C91.87,165.07,95.71,156.68,94.67,150.77Zm.1-25.25h0a1.16,1.16,0,0,0-.38-.15l-3.56-.78a1.93,1.93,0,0,0-2,.91l-3.36,6.22a2.83,2.83,0,0,1-.74.82h0a3,3,0,0,1-.57.38l1,3.39a1.21,1.21,0,0,0,1.68.74,19.17,19.17,0,0,1,2.2-.7,3.71,3.71,0,0,0,1.27-.64,2.83,2.83,0,0,0,.76-.84l3.34-6.22a2,2,0,0,1,2-.91l3.57.79a1.2,1.2,0,0,1,.35.12Zm-10,60.16a1,1,0,0,1-.33-.53l-1.21-3.89a1.21,1.21,0,0,0-1.68-.75,15.38,15.38,0,0,1-2.19.7,3.15,3.15,0,0,0-.7.29l.16.5a1,1,0,0,0,.46.6h0Zm-6.83-57a.87.87,0,0,0-.39-.1,1,1,0,0,0-.65.25l-5.35,4.08a1.8,1.8,0,0,0-.2.19,1.07,1.07,0,0,0-.14.16,3.07,3.07,0,0,0-.47.81c0,.07,0,.14-.06.2h0a2.21,2.21,0,0,0-.14.84l.31,4.95a3.8,3.8,0,0,1-.83,2.39,39.93,39.93,0,0,0-2.47,3.19,2.82,2.82,0,0,1-1.65,1,.83.83,0,0,1-.22,0,1.1,1.1,0,0,1-.31,0l-3.43-.16h-.08a1.27,1.27,0,0,0-.28,0,.8.8,0,0,0-.26.05h0a1.72,1.72,0,0,0-.29.11,2.48,2.48,0,0,0-.49.3,2.09,2.09,0,0,0-.55.68l-3.22,7a1.31,1.31,0,0,0,.54,1.69l3.81,2.14a1.58,1.58,0,0,1,.08,1,31.42,31.42,0,0,0-.59,3.35,4.18,4.18,0,0,1-1.15,2.29l-.06,0-4.68,4.18a2.73,2.73,0,0,0-.23.25.05.05,0,0,1,0,0,1.66,1.66,0,0,0-.19.3,2.59,2.59,0,0,0-.35,1.69l.89,5a1,1,0,0,0,.41.68l5.6,3.13a.9.9,0,0,1-.39-.66l-.89-5a2.12,2.12,0,0,1,.06-1,2.72,2.72,0,0,1,.73-1.31L65,168.38l.06,0a4.2,4.2,0,0,0,1.16-2.28,29.32,29.32,0,0,1,.6-3.36,1.67,1.67,0,0,0-1-1.86l-2.77-1.15a1.33,1.33,0,0,1-.72-1.78l3.22-7a1.91,1.91,0,0,1,.55-.69,2.32,2.32,0,0,1,1.42-.5l3.44.17a2.33,2.33,0,0,0,1-.19,2.61,2.61,0,0,0,1.18-.89c.78-1.1,1.61-2.17,2.48-3.19a3.83,3.83,0,0,0,.83-2.39l-.32-4.94a2.18,2.18,0,0,1,.13-.85,2.82,2.82,0,0,1,.89-1.35L82.47,132a1,1,0,0,1,1.06-.14Zm-8,52.46a2.27,2.27,0,0,0-.56-2.19,8.25,8.25,0,0,1-.92-1.1,1.39,1.39,0,0,0-1.89-.42l-2.7,1.73-2,5.17a1.12,1.12,0,0,0,.48,1.4h0L68,188.89a1.14,1.14,0,0,1-.47-1.42Z" style="fill:#e0e0e0"></path><path d="M65,168.38l-4.67,4.18a2.72,2.72,0,0,0-.73,1.31L54,170.72a3.79,3.79,0,0,1,.28-.73,1.66,1.66,0,0,1,.19-.3.05.05,0,0,0,0,0,2.73,2.73,0,0,1,.23-.25l4.68-4.18Z" style="fill:#fafafa"></path><path d="M72,149.66a2.33,2.33,0,0,1-1,.19l-3.44-.17a2.32,2.32,0,0,0-1.42.5L60.49,147a2.48,2.48,0,0,1,.49-.3,1.72,1.72,0,0,1,.29-.11h0a.8.8,0,0,1,.26-.05,1.27,1.27,0,0,1,.28,0h.08l3.43.16a1.1,1.1,0,0,0,.31,0,1.66,1.66,0,0,0,.22,0,4,4,0,0,0,.45-.15h0Z" style="fill:#fafafa"></path><path d="M107.55,137a.93.93,0,0,0-1,.11l-4.73,3a1.4,1.4,0,0,1-1.9-.42,9.92,9.92,0,0,0-.92-1.1,2.19,2.19,0,0,1-.55-2.19l.44-1.17,2-1.3a.92.92,0,0,1,1-.09h0Z" style="fill:#fafafa"></path><path d="M100.37,128.66a1.2,1.2,0,0,0-.35-.12l-3.57-.79a2,2,0,0,0-2,.91l-3.34,6.22a2.83,2.83,0,0,1-.76.84l-5.61-3.17a2.83,2.83,0,0,0,.74-.82l3.36-6.22a1.93,1.93,0,0,1,2-.91l3.56.78a1.16,1.16,0,0,1,.38.15h0Z" style="fill:#fafafa"></path><path d="M83.53,131.82a1,1,0,0,0-1.06.14l-5.33,4.09a2.82,2.82,0,0,0-.89,1.35l-5.61-3.15c0-.06,0-.13.06-.2a3.07,3.07,0,0,1,.47-.81,1.07,1.07,0,0,1,.14-.16,1.8,1.8,0,0,1,.2-.19l5.35-4.08a1,1,0,0,1,.65-.25.87.87,0,0,1,.39.1Z" style="fill:#fafafa"></path><path d="M108.88,142.75l-.89-5a.85.85,0,0,0-1.41-.6l-4.72,3a1.4,1.4,0,0,1-1.9-.42,9.75,9.75,0,0,0-.92-1.1,2.23,2.23,0,0,1-.55-2.19l2.41-6.34a1.16,1.16,0,0,0-.88-1.58l-3.57-.77a1.94,1.94,0,0,0-2,.91l-3.34,6.21a3.52,3.52,0,0,1-2,1.48,18.43,18.43,0,0,0-2.19.7,1.22,1.22,0,0,1-1.69-.74L84,132.43a.9.9,0,0,0-1.51-.47l-5.33,4.09a2.85,2.85,0,0,0-1,2.2l.32,4.94a3.8,3.8,0,0,1-.83,2.39c-.87,1-1.7,2.09-2.48,3.2A2.78,2.78,0,0,1,71,149.85l-3.43-.17a2.21,2.21,0,0,0-2,1.18l-3.23,7a1.33,1.33,0,0,0,.72,1.78l2.77,1.15a1.67,1.67,0,0,1,1,1.86,31.6,31.6,0,0,0-.59,3.36A4.17,4.17,0,0,1,65,168.33l-4.73,4.23a2.75,2.75,0,0,0-.79,2.27l.89,5a.85.85,0,0,0,1.41.59l4.72-3a1.4,1.4,0,0,1,1.9.41,8.25,8.25,0,0,0,.92,1.1,2.24,2.24,0,0,1,.55,2.19l-2.41,6.35a1.16,1.16,0,0,0,.89,1.57l3.56.78a2,2,0,0,0,2-.91l3.35-6.21a3.43,3.43,0,0,1,2-1.48,18,18,0,0,0,2.19-.71,1.23,1.23,0,0,1,1.69.75l1.2,3.89a.9.9,0,0,0,1.51.46l5.33-4.08a2.87,2.87,0,0,0,1-2.21l-.32-4.94a3.82,3.82,0,0,1,.83-2.39c.88-1,1.7-2.09,2.48-3.19a2.78,2.78,0,0,1,2.17-1.07l3.43.16a2.19,2.19,0,0,0,2-1.18l3.23-7a1.33,1.33,0,0,0-.72-1.78l-2.77-1.15a1.66,1.66,0,0,1-1-1.86,31.42,31.42,0,0,0,.59-3.35,4.13,4.13,0,0,1,1.16-2.28l4.73-4.24A2.73,2.73,0,0,0,108.88,142.75ZM86.09,169.49c-5.79,4.43-11.33,3.23-12.37-2.69s2.79-14.29,8.58-18.72,11.32-3.22,12.37,2.69S91.87,165.07,86.09,169.49Z" style="fill:#f0f0f0"></path><path d="M127.67,122.75a2.17,2.17,0,0,0-.12-2,17.43,17.43,0,0,1-1.85-4,1,1,0,0,0-1.38-.62l-2,.88a11,11,0,0,0,.66,1.17,2.2,2.2,0,0,1,.12,2L117.58,131a1.22,1.22,0,0,0,.49,1.58l4.53,2.54a1.22,1.22,0,0,1-.44-1.56Zm24.5-75.33a.59.59,0,0,0-.29-.07.89.89,0,0,0-.46.13l-9.3,5.22-.14.09-.14.11-.13.12a3.7,3.7,0,0,0-.24.29,2.2,2.2,0,0,0-.45,1.08l-.94,10.06a3.26,3.26,0,0,1-1,1.89A56.58,56.58,0,0,0,134,71.66a1.82,1.82,0,0,1-1.83.5l-6-2a1.07,1.07,0,0,0-.47-.06h0a.09.09,0,0,0-.07,0,.27.27,0,0,0-.09,0l-.17,0a1.3,1.3,0,0,0-.52.27.25.25,0,0,0-.1.08.75.75,0,0,0-.23.27l-6.83,11.51a1.33,1.33,0,0,0-.15.85A1.3,1.3,0,0,0,118,84l4.79,4a1.71,1.71,0,0,1,.46,1.79,53.15,53.15,0,0,0-2.15,7,3,3,0,0,1-.53,1.07,1.06,1.06,0,0,1-.16.21l-.15.18a4.35,4.35,0,0,1-.35.3l-8.49,5.82a.61.61,0,0,0-.16.12.67.67,0,0,0-.14.15,2.39,2.39,0,0,0-.65,1.5v10.45a.74.74,0,0,0,.33.67l4.58,2.57a.75.75,0,0,1-.34-.68V108.71a2.36,2.36,0,0,1,.37-1.16,2.21,2.21,0,0,1,.58-.63l8.49-5.81a2.8,2.8,0,0,0,.66-.67,3.32,3.32,0,0,0,.53-1.09,54.56,54.56,0,0,1,2.15-7,1.71,1.71,0,0,0-.46-1.79l-4.79-4a1.33,1.33,0,0,1-.45-.88,1.23,1.23,0,0,1,.15-.84l6.83-11.51a1.43,1.43,0,0,1,1.14-.67,1.22,1.22,0,0,1,.54.06l6,2a1.82,1.82,0,0,0,1.84-.51,54.18,54.18,0,0,1,5.16-5.32,3.25,3.25,0,0,0,1-1.88L145.59,57a1.7,1.7,0,0,1,.17-.6,2.39,2.39,0,0,1,.93-1.09L156,50a.86.86,0,0,1,.7-.09ZM145.88,137a.78.78,0,0,1-.31-.6l-.9-8.78a1,1,0,0,0-1.25-.85,18.07,18.07,0,0,1-3.11.41l.69,6.67a.72.72,0,0,0,.36.6h0Zm14.56-63c1.33,1.79,2,4.53,2,8.11,0,9.74-7,21.59-15.71,26.47-3.38,1.9-6.26,2.53-8.52,2,2.81,3.19,7.62,3.62,13.09.55,8.68-4.87,15.71-16.72,15.71-26.47C167.05,78.74,164.44,75,160.44,74Zm9-28.08a1.27,1.27,0,0,0-1.64.38l-6.88,10a.64.64,0,0,1-.1.13.61.61,0,0,1-.16.16.36.36,0,0,1-.09.08l-.1.07a2.44,2.44,0,0,1-1.35.44,12.38,12.38,0,0,0-1.36,0l.22,2.13a1,1,0,0,0,1.24.85,19.65,19.65,0,0,1,4.48-.44,2.34,2.34,0,0,0,1.34-.43,1.58,1.58,0,0,0,.45-.44l6.88-10.06a1.26,1.26,0,0,1,1.62-.38Zm13.31,18.68-.15,0a.9.9,0,0,0-.57.07l-6.27,2.75a8.79,8.79,0,0,1,.43.87c.12.25.23.52.33.79a.44.44,0,0,1,.06.16,7.1,7.1,0,0,1,.31.85.94.94,0,0,1,.06.15,1.08,1.08,0,0,0,.24.42l.12.1.08,0a.51.51,0,0,0,.24.1l.08,0a.9.9,0,0,0,.4,0h0a.55.55,0,0,0,.18-.06l8.28-3.63a.78.78,0,0,1,.61,0,.19.19,0,0,1,.11,0Z" style="fill:#e0e0e0"></path><path d="M174,48.49a1.26,1.26,0,0,0-1.62.38l-6.88,10.06a1.58,1.58,0,0,1-.45.44l-4.57-2.57h0a.94.94,0,0,0,.19-.14.61.61,0,0,0,.16-.16.64.64,0,0,0,.1-.13l6.88-10a1.27,1.27,0,0,1,1.64-.38Z" style="fill:#fafafa"></path><path d="M125.09,100.44a2.8,2.8,0,0,1-.66.67l-8.49,5.81a2.21,2.21,0,0,0-.58.63L110.81,105a1.87,1.87,0,0,1,.26-.35.67.67,0,0,1,.14-.15.61.61,0,0,1,.16-.12l8.49-5.82a4.35,4.35,0,0,0,.35-.3l.15-.18.16-.21h0Z" style="fill:#fafafa"></path><path d="M130.19,72.64a1.43,1.43,0,0,0-1.14.67l-6.83,11.51a1.23,1.23,0,0,0-.15.84L117.5,83.1a1.33,1.33,0,0,1,.15-.85l6.83-11.51a.75.75,0,0,1,.23-.27.25.25,0,0,1,.1-.08,1.3,1.3,0,0,1,.52-.27l.17,0a.27.27,0,0,1,.09,0,.09.09,0,0,1,.07,0h0Z" style="fill:#fafafa"></path><path d="M156.69,50a.86.86,0,0,0-.7.09l-9.3,5.23a2.39,2.39,0,0,0-.93,1.09l-4.56-2.57a2.82,2.82,0,0,1,.27-.48,3.7,3.7,0,0,1,.24-.29l.13-.12.14-.11.14-.09,9.3-5.22a.89.89,0,0,1,.46-.13.59.59,0,0,1,.29.07Z" style="fill:#fafafa"></path><path d="M182.79,64.61l4.57,2.58a.19.19,0,0,0-.11,0,.78.78,0,0,0-.61,0l-8.28,3.63a1,1,0,0,1-1.13-.2,1.08,1.08,0,0,1-.24-.42.94.94,0,0,0-.06-.15,7.1,7.1,0,0,0-.31-.85.44.44,0,0,0-.06-.16c-.1-.27-.21-.54-.33-.79a8.79,8.79,0,0,0-.43-.87l6.27-2.75a.9.9,0,0,1,.57-.07l.15.06Z" style="fill:#fafafa"></path><rect x="187.36" y="67.19" width="0.01" height="0.01" style="fill:#fafafa"></rect><path d="M187.7,78.3V67.86a.69.69,0,0,0-1.06-.67l-8.28,3.63A1,1,0,0,1,177,70.2a17.84,17.84,0,0,0-1.84-4,2.2,2.2,0,0,1-.13-1.95l5.52-10.82a1.21,1.21,0,0,0-.49-1.58l-6-3.36a1.26,1.26,0,0,0-1.65.37l-6.88,10.06a2.27,2.27,0,0,1-1.79.87,19.05,19.05,0,0,0-4.48.44,1,1,0,0,1-1.24-.85l-.91-8.79A.69.69,0,0,0,156,50l-9.3,5.23a2.41,2.41,0,0,0-1.1,1.69L144.65,67a3.28,3.28,0,0,1-1,1.88,55.45,55.45,0,0,0-5.17,5.32,1.81,1.81,0,0,1-1.82.51l-6-2a1.48,1.48,0,0,0-1.68.6l-6.83,11.52a1.39,1.39,0,0,0,.3,1.72l4.79,4a1.7,1.7,0,0,1,.46,1.79,53.28,53.28,0,0,0-2.15,7,3.31,3.31,0,0,1-1.19,1.75l-8.49,5.82a2.43,2.43,0,0,0-1,1.78v10.44a.69.69,0,0,0,1.06.67l8.27-3.63a1,1,0,0,1,1.38.62,17.43,17.43,0,0,0,1.85,4,2.17,2.17,0,0,1,.12,2l-5.51,10.83a1.19,1.19,0,0,0,.48,1.57l6,3.36a1.27,1.27,0,0,0,1.65-.37l6.87-10.06a2.31,2.31,0,0,1,1.8-.87,19.1,19.1,0,0,0,4.48-.44,1,1,0,0,1,1.24.85l.9,8.79a.7.7,0,0,0,1.12.56l9.3-5.23a2.41,2.41,0,0,0,1.11-1.69L158,120a3.36,3.36,0,0,1,1-1.88,55.35,55.35,0,0,0,5.16-5.32,1.8,1.8,0,0,1,1.83-.5l6,2a1.46,1.46,0,0,0,1.67-.6l6.83-11.52a1.39,1.39,0,0,0-.29-1.72l-4.79-4a1.7,1.7,0,0,1-.47-1.79,51.82,51.82,0,0,0,2.15-7,3.47,3.47,0,0,1,1.19-1.75l8.5-5.82A2.43,2.43,0,0,0,187.7,78.3Zm-36.36,32.85c-8.67,4.88-15.7.93-15.7-8.82s7-21.6,15.7-26.47,15.71-.93,15.71,8.82S160,106.28,151.34,111.15Z" style="fill:#f0f0f0"></path></g></g><g id="freepik--Books--inject-12"><g id="freepik--books--inject-12"><g id="freepik--Book--inject-12"><polygon points="34.07 349.57 102.68 388.68 216.02 323.63 147.42 285.45 34.07 349.57"></polygon><path d="M103.46,385.71l-66.18-38q2.59-7.35-.36-17.16l65.76,37.58S103.94,372.28,103.46,385.71Z" style="fill:#fff"></path><path d="M102.68,368.14,36.92,330.56a34.86,34.86,0,0,1,1.21,5.64l65.27,37.69A31.18,31.18,0,0,0,102.68,368.14Z" style="fill:#ebebeb"></path><path d="M99.3,362.78a13.93,13.93,0,0,1,6.36,11v12.79c0,4-2.84,5.66-6.36,3.65L34.08,352.73v-3.16l64.36,36.69c2.1,1.21,3.81.23,3.81-2.19l-.06-11.85a8.37,8.37,0,0,0-3.82-6.57L34.08,328.94v-3.59Z" style="fill:#263238"></path><path d="M34.08,325.35l113.34-64.11,65.22,36.5A13.94,13.94,0,0,1,219,308.68v12.8c0,2-.7,3.42-1.86,4.08L103.79,390.61c1.16-.66,1.87-2.08,1.87-4.09v-12.8a14,14,0,0,0-6.36-11Z" style="fill:#455a64"></path><path d="M103.81,367.49a12.91,12.91,0,0,1,1.86,6.23v12.8c0,2-.71,3.43-1.87,4.09l113.35-65.05c1.16-.66,1.86-2.08,1.86-4.08v-12.8a12.91,12.91,0,0,0-1.86-6.23Z" style="fill:#37474f"></path></g><g id="freepik--book--inject-12"><polygon points="33.89 317.13 102.92 356.6 208 296.3 138.98 257.75 33.89 317.13" style="fill:#FFA732"></polygon><polygon points="33.89 317.13 102.92 356.6 208 296.3 138.98 257.75 33.89 317.13" style="fill:#fff;opacity:0.45"></polygon><polygon points="33.89 317.13 102.92 356.6 208 296.3 138.98 257.75 33.89 317.13" style="opacity:0.35000000000000003"></polygon><path d="M103.64,353.84,36.86,315.42q2.41-6.82-.33-15.91l66.39,38.05S104.08,341.4,103.64,353.84Z" style="fill:#fff"></path><path d="M102.92,337.56,36.53,299.51a34.86,34.86,0,0,1,1.21,5.64l65.87,38A31.57,31.57,0,0,0,102.92,337.56Z" style="fill:#ebebeb"></path><path d="M99.79,332.59a12.92,12.92,0,0,1,5.89,10.15V354.6c0,3.73-2.63,5.25-5.89,3.38L33.9,320.07v-2.94L99,354.36c2,1.12,3.54.21,3.54-2l-.06-11a7.75,7.75,0,0,0-3.54-6.09L33.9,298v-3.32Z" style="fill:#FFA732"></path><path d="M99.79,332.59a12.92,12.92,0,0,1,5.89,10.15V354.6c0,3.73-2.63,5.25-5.89,3.38L33.9,320.07v-2.94L99,354.36c2,1.12,3.54.21,3.54-2l-.06-11a7.75,7.75,0,0,0-3.54-6.09L33.9,298v-3.32Z" style="fill:#fff;opacity:0.45"></path><path d="M99.79,332.59a12.92,12.92,0,0,1,5.89,10.15V354.6c0,3.73-2.63,5.25-5.89,3.38L33.9,320.07v-2.94L99,354.36c2,1.12,3.54.21,3.54-2l-.06-11a7.75,7.75,0,0,0-3.54-6.09L33.9,298v-3.32Z" style="opacity:0.15"></path><path d="M33.9,294.68,139,235.31l65.89,37a13,13,0,0,1,5.89,10.16v11.85c0,1.87-.66,3.18-1.73,3.79L104,358.39c1.07-.61,1.73-1.93,1.73-3.79V342.73a13,13,0,0,0-5.9-10.15Z" style="fill:#FFA732"></path><path d="M33.9,294.68,139,235.31l65.89,37a13,13,0,0,1,5.89,10.16v11.85c0,1.87-.66,3.18-1.73,3.79L104,358.39c1.07-.61,1.73-1.93,1.73-3.79V342.73a13,13,0,0,0-5.9-10.15Z" style="fill:#fff;opacity:0.65"></path><path d="M104,337a11.91,11.91,0,0,1,1.73,5.77V354.6c0,1.86-.66,3.18-1.73,3.79L209,298.08c1.07-.61,1.72-1.92,1.73-3.79V282.44a12,12,0,0,0-1.72-5.78Z" style="fill:#FFA732"></path><path d="M104,337a11.91,11.91,0,0,1,1.73,5.77V354.6c0,1.86-.66,3.18-1.73,3.79L209,298.08c1.07-.61,1.72-1.92,1.73-3.79V282.44a12,12,0,0,0-1.72-5.78Z" style="fill:#fff;opacity:0.45"></path></g><path d="M96.7,330.81V356.2l-4.54,2.48L34.08,325.35l4.5-2.58-4.68-2.7v-2.94l3-1.71c1.73-4.91,1.36-10.35-.33-15.91L33.9,298v-3.32Z" style="opacity:0.1"></path><g id="freepik--book--inject-12"><polygon points="21.94 289.5 91.6 329.54 196.69 269.23 127.03 230.13 21.94 289.5" style="fill:#FFA732"></polygon><polygon points="21.94 289.5 91.6 329.54 196.69 269.23 127.03 230.13 21.94 289.5" style="opacity:0.5"></polygon><path d="M92.33,326.78l-67.42-39c1.61-4.55,1.49-8.93-.33-15l67,38.61S92.77,314.34,92.33,326.78Z" style="fill:#fff"></path><path d="M91.6,311.43l-67-38.61a34.86,34.86,0,0,1,1.21,5.64l66.49,38.39A27.4,27.4,0,0,0,91.6,311.43Z" style="fill:#ebebeb"></path><path d="M88.47,306.46a12.93,12.93,0,0,1,5.9,10.15v10.92c0,3.74-2.64,5.25-5.9,3.39L22,292.44V289.5l65.72,37.8c2,1.12,3.53.21,3.53-2l0-10.06a7.78,7.78,0,0,0-3.54-6.09L22,271.31V268Z" style="fill:#FFA732"></path><path d="M88.47,306.46a12.93,12.93,0,0,1,5.9,10.15v10.92c0,3.74-2.64,5.25-5.9,3.39L22,292.44V289.5l65.72,37.8c2,1.12,3.53.21,3.53-2l0-10.06a7.78,7.78,0,0,0-3.54-6.09L22,271.31V268Z" style="opacity:0.4"></path><path d="M22,268,127,207.68l66.52,38.48a12.91,12.91,0,0,1,5.9,10.15v10.92c0,1.86-.66,3.17-1.73,3.79L92.64,331.33c1.07-.62,1.72-1.93,1.73-3.79V316.61a12.94,12.94,0,0,0-5.9-10.15Z" style="fill:#FFA732"></path><path d="M22,268,127,207.68l66.52,38.48a12.91,12.91,0,0,1,5.9,10.15v10.92c0,1.86-.66,3.17-1.73,3.79L92.64,331.33c1.07-.62,1.72-1.93,1.73-3.79V316.61a12.94,12.94,0,0,0-5.9-10.15Z" style="opacity:0.2"></path><path d="M92.65,310.83a12,12,0,0,1,1.73,5.78v10.93c0,1.86-.66,3.17-1.73,3.79L197.72,271c1.07-.62,1.73-1.93,1.73-3.79V256.31a11.92,11.92,0,0,0-1.73-5.78Z" style="fill:#FFA732"></path><path d="M92.65,310.83a12,12,0,0,1,1.73,5.78v10.93c0,1.86-.66,3.17-1.73,3.79L197.72,271c1.07-.62,1.73-1.93,1.73-3.79V256.31a11.92,11.92,0,0,0-1.73-5.78Z" style="opacity:0.35000000000000003"></path></g><path d="M219,309.16h0v-.47a10.5,10.5,0,0,0-.28-2.32h0a14.19,14.19,0,0,0-6.08-8.61l-2.26-1.27a6.11,6.11,0,0,0,.39-2.18V282.44a13,13,0,0,0-5.89-10.16l-5.69-3.19a6.13,6.13,0,0,0,.27-1.86V256.31c0-.24,0-.47,0-.71s-.07-.6-.13-.91a8.81,8.81,0,0,0-.31-1.28v0c-.07-.23-.15-.47-.23-.7l0,0a14.5,14.5,0,0,0-1-2.11h0l-82.33,47.23v20.5L95.13,329.9l1.57.91,9.68-5.63,9,5.2v21.41l-7.8,4.51h0l-3.56,2-.07.05c-1.07.61-2.54.53-4.17-.41L96.7,356.2l-1.38.75,5,2.92a4.42,4.42,0,0,0,4.42,0l4.53-2.61,6.14,3.54V384l101.75-58.39a3.13,3.13,0,0,0,.78-.63,5.16,5.16,0,0,0,1.08-3.45Z" style="opacity:0.1"></path></g></g><g id="freepik--Apple--inject-12"><g id="freepik--apple--inject-12"><path d="M54.67,280.9c9.21,7.13,26.87,8.75,39.45,3.6s15.27-15.1,6-22.24-26.94-8.76-39.46-3.61S45.46,273.76,54.67,280.9Z" style="opacity:0.1"></path><path d="M67.06,222.86c-5.23.3-14.33,1-20,12.66-6.46,13.29,0,29.83,9.91,36.8,12.45,8.76,32,9.29,43.48-1.18,12.71-11.59,13.65-33.54,5-43.15s-22-6.88-25.51-5.4C74.68,224.8,71.14,222.62,67.06,222.86Z" style="fill:#FFA732"></path><path d="M61.63,227.51c-3.37-.29-8.27,2.7-10.84,7.3-3.18,5.71-3.59,13.77-2.59,19.63,2,11.83,13.43,18,14.53,17s-7.19-8.74-2.62-20.5C64.75,239,67.16,228,61.63,227.51Z" style="fill:#fff;opacity:0.30000000000000004"></path><path d="M59,229.42c-3.43,1.16-7.41,6.66-8.45,10.55s-.53,6.53,0,7c1,.82,7.93-6,10.2-9.07C64,233.55,64.57,227.54,59,229.42Z" style="fill:#fff;opacity:0.2"></path><path d="M72.5,233c-1.83-1.46-3.56-2.2-4.47,0s4,5.67,9.39,4.08,7.28-5.11,7.17-6.89c0,0-2.45,3.87-6.08,4.31A9.12,9.12,0,0,1,72.5,233Z" style="fill:#FFA732"></path><path d="M72.5,233c-1.83-1.46-3.56-2.2-4.47,0s4,5.67,9.39,4.08,7.28-5.11,7.17-6.89c0,0-2.45,3.87-6.08,4.31A9.12,9.12,0,0,1,72.5,233Z" style="opacity:0.1"></path><path d="M77.42,235.67A50.65,50.65,0,0,0,75,220.87c-2.45-6.94-6.78-11.8-8-12.33a14.42,14.42,0,0,0-5.93-.89c-2.78,0-6.09,1.9-5.18,3s4.91,1.87,9.77,6.41,9.5,13.36,9.51,18.64A2.16,2.16,0,0,0,77.42,235.67Z" style="fill:#37474f"></path><path d="M66.81,208.46a2.18,2.18,0,0,0-.27-.11h0a15.8,15.8,0,0,0-5.42-.69c-2.05,0-4.39,1-5.11,2-.19.4.42.94,2.91,1.29a15.28,15.28,0,0,0,7.3-.68C67.27,209.88,67.69,208.92,66.81,208.46Z" style="fill:#455a64"></path><path d="M73.8,226.92c-2.19-6.26-8.82-11.47-13.36-13.78h0A28.07,28.07,0,0,1,65.68,217c4.86,4.54,9.5,13.36,9.51,18.64a2.16,2.16,0,0,0,2.23,0s0-1.9-.29-4.64C77,233.58,75.82,232.69,73.8,226.92Z" style="opacity:0.1"></path><path d="M76.1,224.77A13.08,13.08,0,0,0,88.21,220c3.82-5,1.33-11.58,1.33-11.58a12.17,12.17,0,0,0-10.67,3.35C75.47,215.22,75,221.85,76.1,224.77Z" style="fill:#FFA732"></path><path d="M76.1,224.77A13.08,13.08,0,0,0,88.21,220c3.82-5,1.33-11.58,1.33-11.58a12.17,12.17,0,0,0-10.67,3.35C75.47,215.22,75,221.85,76.1,224.77Z" style="opacity:0.30000000000000004"></path><path d="M89.54,208.44a12.17,12.17,0,0,0-10.67,3.35c-3.4,3.43-3.86,10.06-2.77,13C79.21,215.08,89.54,208.44,89.54,208.44Z" style="opacity:0.1"></path><path d="M85.34,209.35a10.87,10.87,0,0,0-8.89,10.18,21.62,21.62,0,0,1,3.43-6A18.51,18.51,0,0,1,85.34,209.35Z" style="fill:#FFA732"></path></g></g><g id="freepik--Schedule--inject-12"><g id="freepik--schedule--inject-12"><polygon points="359.03 40.82 124.68 176.13 124.68 360.63 124.71 393.79 122.64 392.6 119.39 390.72 119.39 173.08 353.74 37.77 357.77 40.09 359.03 40.82" style="fill:#e6e6e6"></polygon><polygon points="359.03 40.82 359.03 225.33 132.6 356.05 127.32 359.11 126.01 359.86 124.71 360.6 124.68 360.63 124.68 176.13 359.03 40.82" style="fill:#f0f0f0"></polygon><polygon points="353.74 37.77 359.03 40.82 124.68 176.13 119.39 173.07 353.74 37.77" style="fill:#f0f0f0"></polygon><polygon points="360.93 39.76 359.03 40.86 124.68 176.16 123.94 176.58 123.94 393.35 122.64 392.6 122.64 175.84 123.41 175.4 357.77 40.09 359.64 39.01 360.93 39.76" style="fill:#FFA732"></polygon><polygon points="360.93 39.76 359.03 40.86 124.68 176.16 123.94 176.58 123.94 393.35 122.64 392.6 122.64 175.84 123.41 175.4 357.77 40.09 359.64 39.01 360.93 39.76" style="opacity:0.1"></polygon><path d="M359,40.86,124.68,176.16h0l-.74.42V393.35l.77.44,236.21-136v-218Z" style="fill:#FFA732"></path><path d="M359,40.86,124.68,176.16h0l-.74.42V393.35l.77.44,236.21-136v-218Z" style="opacity:0.05"></path><polygon points="359.63 39.02 360.93 39.76 123.94 176.59 122.64 175.84 359.63 39.02" style="fill:#FFA732"></polygon><polygon points="359.63 39.02 360.93 39.76 123.94 176.59 122.64 175.84 359.63 39.02" style="fill:#fff;opacity:0.4"></polygon><polygon points="363 40.95 360.93 42.14 359.03 43.24 294.48 80.51 126.01 177.77 126.01 394.54 124.71 393.79 124.71 177.03 359.03 41.76 360.93 40.66 361.71 40.21 363 40.95" style="fill:#FFA732"></polygon><polygon points="363 40.95 360.93 42.14 359.03 43.24 294.48 80.51 126.01 177.77 126.01 394.54 124.71 393.79 124.71 177.03 359.03 41.76 360.93 40.66 361.71 40.21 363 40.95" style="opacity:0.1"></polygon><path d="M360.93,42.14,359,43.25,294.48,80.51,126,177.79V394.54l1.31.76,5.15-3.12L363,259V41Z" style="fill:#FFA732"></path><polygon points="361.71 40.21 363 40.95 126.01 177.78 124.71 177.04 361.71 40.21" style="fill:#FFA732"></polygon><polygon points="361.71 40.21 363 40.95 126.01 177.78 124.71 177.04 361.71 40.21" style="fill:#fff;opacity:0.4"></polygon><polygon points="366.96 45.41 363 47.7 360.93 48.9 359.03 49.98 132.6 180.71 132.6 398.35 127.32 395.3 127.32 177.66 359.03 43.88 360.93 42.78 361.67 42.36 363 43.13 366.96 45.41" style="fill:#e6e6e6"></polygon><polygon points="361.67 42.35 366.96 45.4 132.61 180.71 127.32 177.65 361.67 42.35" style="fill:#f0f0f0"></polygon><polygon points="132.6 180.71 132.6 398.35 366.96 263.05 366.96 45.4 132.6 180.71" style="fill:#fafafa"></polygon><g id="freepik--Notebook--inject-12"><path d="M156.65,173.84c1.52-.88,2.76-.17,2.76,1.6a6.11,6.11,0,0,1-2.76,4.78c-1.53.88-2.77.17-2.77-1.59A6.11,6.11,0,0,1,156.65,173.84Z" style="fill:#37474f"></path><path d="M148.87,151.8c-3-1.73-5.89-2-8.11-.7s-3.45,3.91-3.45,7.38a17.36,17.36,0,0,0,.48,3.92l1.84-1.07a14.79,14.79,0,0,1-.28-2.85c0-2.72.86-4.71,2.43-5.62s3.72-.65,6.07.71c5.25,3,9.52,10.43,9.52,16.49a8.55,8.55,0,0,1-.77,3.81,4.42,4.42,0,0,1-1.66,1.81.8.8,0,0,1-.16.08,6,6,0,0,0-.87,2.41,6.13,6.13,0,0,0,2.05-.73,6.5,6.5,0,0,0,2.87-3.62,11.16,11.16,0,0,0,.58-3.76C159.41,163.35,154.69,155.15,148.87,151.8Z" style="fill:#FFA732"></path><path d="M170.07,166.09c1.52-.88,2.76-.16,2.76,1.6a6.15,6.15,0,0,1-2.76,4.79c-1.53.88-2.77.16-2.77-1.6A6.13,6.13,0,0,1,170.07,166.09Z" style="fill:#37474f"></path><path d="M162.29,144.05c-3-1.73-5.89-2-8.11-.7s-3.45,3.91-3.45,7.38a17.36,17.36,0,0,0,.48,3.92l1.84-1.07a14.72,14.72,0,0,1-.28-2.85c0-2.72.86-4.71,2.43-5.62s3.72-.65,6.07.71c5.25,3,9.52,10.43,9.52,16.5a8.45,8.45,0,0,1-.77,3.81,4.46,4.46,0,0,1-1.66,1.8l-.16.09a5.91,5.91,0,0,0-.87,2.4,6.11,6.11,0,0,0,2-.72,6.56,6.56,0,0,0,2.87-3.63,11.4,11.4,0,0,0,.58-3.75C172.83,155.6,168.11,147.41,162.29,144.05Z" style="fill:#FFA732"></path><path d="M143.23,181.58c1.53-.88,2.76-.17,2.76,1.6a6.08,6.08,0,0,1-2.76,4.78c-1.52.88-2.76.17-2.76-1.59A6.13,6.13,0,0,1,143.23,181.58Z" style="fill:#37474f"></path><path d="M135.45,159.54c-3-1.73-5.89-2-8.11-.7s-3.45,3.9-3.45,7.38a17.49,17.49,0,0,0,.48,3.92l1.85-1.07a14.9,14.9,0,0,1-.29-2.85c0-2.72.87-4.71,2.43-5.62s3.72-.65,6.07.71c5.26,3,9.53,10.43,9.53,16.49a8.55,8.55,0,0,1-.78,3.81,4.31,4.31,0,0,1-1.65,1.8l-.16.09a5.89,5.89,0,0,0-.88,2.4,6,6,0,0,0,2.06-.72,6.48,6.48,0,0,0,2.86-3.62,11.2,11.2,0,0,0,.59-3.76C146,171.09,141.27,162.89,135.45,159.54Z" style="fill:#FFA732"></path><path d="M183.49,158.35c1.52-.89,2.76-.17,2.76,1.59a6.13,6.13,0,0,1-2.76,4.79c-1.53.88-2.77.16-2.77-1.6A6.1,6.1,0,0,1,183.49,158.35Z" style="fill:#37474f"></path><path d="M175.71,136.31c-3-1.74-5.89-2-8.12-.71s-3.44,3.91-3.44,7.38a17.36,17.36,0,0,0,.48,3.92l1.84-1.07a14.72,14.72,0,0,1-.28-2.85c0-2.72.86-4.71,2.42-5.61s3.73-.66,6.08.7c5.25,3,9.52,10.43,9.52,16.5a8.58,8.58,0,0,1-.77,3.81,4.46,4.46,0,0,1-1.66,1.8l-.16.09a6,6,0,0,0-.87,2.4,6.11,6.11,0,0,0,2.05-.72,6.56,6.56,0,0,0,2.87-3.63,11.4,11.4,0,0,0,.58-3.75C186.25,147.85,181.52,139.66,175.71,136.31Z" style="fill:#FFA732"></path><path d="M196.9,150.6c1.53-.88,2.77-.17,2.77,1.59A6.1,6.1,0,0,1,196.9,157c-1.52.88-2.76.17-2.76-1.6A6.11,6.11,0,0,1,196.9,150.6Z" style="fill:#37474f"></path><path d="M189.13,128.56c-3-1.74-5.89-2-8.12-.7s-3.44,3.9-3.44,7.38a17.34,17.34,0,0,0,.48,3.91l1.84-1.06a14.87,14.87,0,0,1-.28-2.85c0-2.72.86-4.72,2.42-5.62s3.72-.65,6.08.71c5.25,3,9.52,10.42,9.52,16.49a8.55,8.55,0,0,1-.77,3.81,4.46,4.46,0,0,1-1.66,1.8l-.16.09a6,6,0,0,0-.87,2.4,5.9,5.9,0,0,0,2.05-.72,6.52,6.52,0,0,0,2.87-3.63,11.4,11.4,0,0,0,.58-3.75C199.67,140.11,194.94,131.91,189.13,128.56Z" style="fill:#FFA732"></path><path d="M210.32,142.85c1.53-.88,2.77-.17,2.77,1.59a6.1,6.1,0,0,1-2.77,4.79c-1.52.88-2.76.17-2.76-1.59A6.11,6.11,0,0,1,210.32,142.85Z" style="fill:#37474f"></path><path d="M202.55,120.81c-3-1.74-5.89-2-8.12-.7S191,124,191,127.49a17.49,17.49,0,0,0,.48,3.92l1.84-1.07a14.87,14.87,0,0,1-.28-2.85c0-2.72.86-4.72,2.42-5.62s3.72-.65,6.08.71c5.25,3,9.52,10.42,9.52,16.49a8.41,8.41,0,0,1-.78,3.81,4.37,4.37,0,0,1-1.65,1.8,1.29,1.29,0,0,1-.16.09,6,6,0,0,0-.87,2.4,5.9,5.9,0,0,0,2-.72,6.54,6.54,0,0,0,2.87-3.62,11.46,11.46,0,0,0,.58-3.76C213.09,132.36,208.36,124.16,202.55,120.81Z" style="fill:#FFA732"></path><path d="M223.74,135.1c1.53-.88,2.77-.17,2.77,1.6a6.1,6.1,0,0,1-2.77,4.78c-1.52.88-2.76.17-2.76-1.59A6.13,6.13,0,0,1,223.74,135.1Z" style="fill:#37474f"></path><path d="M216,113.06c-3-1.73-5.89-2-8.12-.7s-3.45,3.9-3.45,7.38a16.89,16.89,0,0,0,.49,3.92l1.84-1.07a14.82,14.82,0,0,1-.29-2.85c0-2.72.87-4.71,2.43-5.62s3.72-.65,6.08.71c5.25,3,9.52,10.43,9.52,16.49a8.38,8.38,0,0,1-.78,3.81,4.47,4.47,0,0,1-1.65,1.81l-.16.08a6,6,0,0,0-.87,2.4,5.7,5.7,0,0,0,2.05-.72,6.5,6.5,0,0,0,2.87-3.62,11.46,11.46,0,0,0,.58-3.76C226.51,124.61,221.78,116.41,216,113.06Z" style="fill:#FFA732"></path><path d="M237.16,127.35c1.53-.88,2.76-.16,2.76,1.6a6.08,6.08,0,0,1-2.76,4.78c-1.52.89-2.76.17-2.76-1.59A6.15,6.15,0,0,1,237.16,127.35Z" style="fill:#37474f"></path><path d="M229.39,105.31c-3-1.73-5.89-2-8.12-.7s-3.45,3.91-3.45,7.38a16.83,16.83,0,0,0,.49,3.92l1.84-1.07a14.74,14.74,0,0,1-.29-2.85c0-2.72.87-4.71,2.43-5.62s3.72-.65,6.08.71c5.25,3,9.52,10.43,9.52,16.5a8.37,8.37,0,0,1-.78,3.8,4.34,4.34,0,0,1-1.65,1.81l-.16.09a5.91,5.91,0,0,0-.87,2.4,6.19,6.19,0,0,0,2-.72,6.54,6.54,0,0,0,2.86-3.63,11.14,11.14,0,0,0,.59-3.75C239.93,116.86,235.2,108.67,229.39,105.31Z" style="fill:#FFA732"></path><path d="M250.58,119.61c1.53-.89,2.76-.17,2.76,1.59a6.1,6.1,0,0,1-2.76,4.79c-1.52.88-2.76.16-2.76-1.6A6.11,6.11,0,0,1,250.58,119.61Z" style="fill:#37474f"></path><path d="M242.81,97.56c-3-1.73-5.89-2-8.12-.7s-3.45,3.91-3.45,7.38a16.83,16.83,0,0,0,.49,3.92l1.84-1.07a14.74,14.74,0,0,1-.29-2.85c0-2.72.87-4.71,2.43-5.61s3.72-.66,6.08.7c5.25,3,9.52,10.43,9.52,16.5a8.44,8.44,0,0,1-.78,3.81,4.25,4.25,0,0,1-1.65,1.8l-.16.09a5.73,5.73,0,0,0-.87,2.4,6.19,6.19,0,0,0,2.05-.72,6.5,6.5,0,0,0,2.86-3.63,11.14,11.14,0,0,0,.59-3.75C253.35,109.11,248.62,100.92,242.81,97.56Z" style="fill:#FFA732"></path><path d="M264,111.86c1.53-.88,2.76-.17,2.76,1.59a6.1,6.1,0,0,1-2.76,4.79c-1.52.88-2.76.16-2.76-1.6A6.11,6.11,0,0,1,264,111.86Z" style="fill:#37474f"></path><path d="M256.23,89.82c-3-1.74-5.89-2-8.12-.7s-3.45,3.9-3.45,7.38a16.81,16.81,0,0,0,.49,3.91L247,99.35a14.9,14.9,0,0,1-.29-2.85c0-2.72.87-4.72,2.43-5.62s3.72-.66,6.08.7c5.25,3,9.52,10.43,9.52,16.5a8.41,8.41,0,0,1-.78,3.81,4.37,4.37,0,0,1-1.65,1.8l-.16.09a5.73,5.73,0,0,0-.87,2.4,6.19,6.19,0,0,0,2.05-.72,6.51,6.51,0,0,0,2.86-3.63,11.14,11.14,0,0,0,.59-3.75C266.77,101.37,262,93.17,256.23,89.82Z" style="fill:#FFA732"></path><path d="M277.42,104.11c1.53-.88,2.76-.17,2.76,1.59a6.09,6.09,0,0,1-2.76,4.79c-1.52.88-2.76.17-2.76-1.59A6.11,6.11,0,0,1,277.42,104.11Z" style="fill:#37474f"></path><path d="M269.65,82.07c-3-1.74-5.89-2-8.12-.7s-3.45,3.9-3.45,7.38a17,17,0,0,0,.49,3.92l1.84-1.07a14.9,14.9,0,0,1-.29-2.85c0-2.72.87-4.72,2.43-5.62s3.72-.65,6.07.71c5.26,3,9.53,10.42,9.53,16.49a8.41,8.41,0,0,1-.78,3.81,4.37,4.37,0,0,1-1.65,1.8l-.16.09a5.73,5.73,0,0,0-.87,2.4,6,6,0,0,0,2.05-.72,6.52,6.52,0,0,0,2.86-3.62,11.2,11.2,0,0,0,.59-3.76C280.19,93.62,275.46,85.42,269.65,82.07Z" style="fill:#FFA732"></path><path d="M290.84,96.36c1.53-.88,2.76-.17,2.76,1.6a6.08,6.08,0,0,1-2.76,4.78c-1.52.88-2.76.17-2.76-1.59A6.13,6.13,0,0,1,290.84,96.36Z" style="fill:#37474f"></path><path d="M283.06,74.32c-3-1.73-5.89-2-8.11-.7s-3.45,3.9-3.45,7.38a17.49,17.49,0,0,0,.48,3.92l1.85-1.07a14.9,14.9,0,0,1-.29-2.85c0-2.72.87-4.71,2.43-5.62s3.72-.65,6.07.71c5.26,3,9.53,10.43,9.53,16.49a8.55,8.55,0,0,1-.78,3.81,4.31,4.31,0,0,1-1.65,1.8l-.16.09a5.89,5.89,0,0,0-.88,2.4,6,6,0,0,0,2.06-.72A6.48,6.48,0,0,0,293,96.34a11.2,11.2,0,0,0,.59-3.76C293.61,85.87,288.88,77.67,283.06,74.32Z" style="fill:#FFA732"></path><path d="M304.25,88.62c1.52-.89,2.76-.17,2.76,1.59A6.13,6.13,0,0,1,304.25,95c-1.53.88-2.77.16-2.77-1.6A6.1,6.1,0,0,1,304.25,88.62Z" style="fill:#37474f"></path><path d="M296.47,66.58c-3-1.74-5.89-2-8.12-.7s-3.44,3.9-3.44,7.38a17.34,17.34,0,0,0,.48,3.91l1.84-1.07a14.69,14.69,0,0,1-.28-2.84c0-2.73.86-4.72,2.43-5.62s3.72-.66,6.07.7c5.25,3,9.52,10.43,9.52,16.5a8.55,8.55,0,0,1-.77,3.81,4.46,4.46,0,0,1-1.66,1.8l-.16.09a6,6,0,0,0-.87,2.4,6.11,6.11,0,0,0,2.05-.72,6.56,6.56,0,0,0,2.87-3.63,11.4,11.4,0,0,0,.58-3.75C307,78.13,302.28,69.93,296.47,66.58Z" style="fill:#FFA732"></path><path d="M317.66,80.87c1.53-.88,2.77-.17,2.77,1.59a6.1,6.1,0,0,1-2.77,4.79c-1.52.88-2.76.17-2.76-1.6A6.11,6.11,0,0,1,317.66,80.87Z" style="fill:#37474f"></path><path d="M309.89,58.83c-3-1.74-5.89-2-8.12-.7s-3.44,3.9-3.44,7.38a17.34,17.34,0,0,0,.48,3.91l1.84-1.06a14.87,14.87,0,0,1-.28-2.85c0-2.72.86-4.72,2.42-5.62s3.72-.65,6.08.71c5.25,3,9.52,10.42,9.52,16.49a8.55,8.55,0,0,1-.77,3.81A4.33,4.33,0,0,1,316,82.7a1.29,1.29,0,0,1-.16.09,6,6,0,0,0-.87,2.4,5.9,5.9,0,0,0,2.05-.72,6.57,6.57,0,0,0,2.87-3.62,11.46,11.46,0,0,0,.58-3.76C320.43,70.38,315.7,62.18,309.89,58.83Z" style="fill:#FFA732"></path><path d="M331.08,73.12c1.53-.88,2.77-.17,2.77,1.59a6.1,6.1,0,0,1-2.77,4.79c-1.52.88-2.76.17-2.76-1.59A6.13,6.13,0,0,1,331.08,73.12Z" style="fill:#37474f"></path><path d="M323.31,51.08c-3-1.73-5.89-2-8.12-.7s-3.44,3.9-3.44,7.38a17.49,17.49,0,0,0,.48,3.92l1.84-1.07a14.87,14.87,0,0,1-.28-2.85c0-2.72.86-4.71,2.42-5.62s3.72-.65,6.08.71c5.25,3,9.52,10.42,9.52,16.49a8.41,8.41,0,0,1-.78,3.81,4.37,4.37,0,0,1-1.65,1.8.65.65,0,0,1-.16.09,6,6,0,0,0-.87,2.4,5.9,5.9,0,0,0,2-.72,6.54,6.54,0,0,0,2.87-3.62,11.46,11.46,0,0,0,.58-3.76C333.85,62.63,329.12,54.43,323.31,51.08Z" style="fill:#FFA732"></path><path d="M344.5,65.37c1.53-.88,2.77-.17,2.77,1.6a6.1,6.1,0,0,1-2.77,4.78c-1.52.88-2.76.17-2.76-1.59A6.13,6.13,0,0,1,344.5,65.37Z" style="fill:#37474f"></path><path d="M336.73,43.33c-3-1.73-5.89-2-8.12-.7s-3.45,3.9-3.45,7.38a16.83,16.83,0,0,0,.49,3.92l1.84-1.07a14.79,14.79,0,0,1-.28-2.85c0-2.72.86-4.71,2.42-5.62s3.72-.65,6.08.71c5.25,3,9.52,10.43,9.52,16.49a8.38,8.38,0,0,1-.78,3.81,4.47,4.47,0,0,1-1.65,1.81l-.16.08a6,6,0,0,0-.87,2.4,5.7,5.7,0,0,0,2.05-.72,6.5,6.5,0,0,0,2.87-3.62,11.42,11.42,0,0,0,.58-3.76C347.27,54.88,342.54,46.68,336.73,43.33Z" style="fill:#FFA732"></path><path d="M357.92,57.62c1.53-.88,2.76-.16,2.76,1.6A6.08,6.08,0,0,1,357.92,64c-1.52.89-2.76.17-2.76-1.59A6.15,6.15,0,0,1,357.92,57.62Z" style="fill:#37474f"></path><path d="M350.15,35.58c-3-1.73-5.89-2-8.12-.7s-3.45,3.91-3.45,7.38a16.83,16.83,0,0,0,.49,3.92l1.84-1.07a14.74,14.74,0,0,1-.29-2.85c0-2.72.87-4.71,2.43-5.62s3.72-.65,6.08.71c5.25,3,9.52,10.43,9.52,16.5a8.37,8.37,0,0,1-.78,3.8,4.28,4.28,0,0,1-1.65,1.81l-.16.09a5.91,5.91,0,0,0-.87,2.4,6.11,6.11,0,0,0,2.05-.72,6.5,6.5,0,0,0,2.86-3.63,11.14,11.14,0,0,0,.59-3.75C360.69,47.13,356,38.94,350.15,35.58Z" style="fill:#FFA732"></path><path d="M350.15,35.58c-3-1.73-5.89-2-8.12-.7s-3.45,3.91-3.45,7.38a17,17,0,0,0,.23,2.52,15.58,15.58,0,0,0-2.08-1.45c-3-1.73-5.89-2-8.12-.7s-3.45,3.9-3.45,7.38a16.73,16.73,0,0,0,.23,2.51,16.48,16.48,0,0,0-2.08-1.44c-3-1.74-5.89-2-8.12-.7s-3.44,3.9-3.44,7.38a16.7,16.7,0,0,0,.22,2.51,16.48,16.48,0,0,0-2.08-1.44c-3-1.74-5.89-2-8.12-.7s-3.44,3.9-3.44,7.38a16.81,16.81,0,0,0,.22,2.51,15.5,15.5,0,0,0-2.08-1.44c-3-1.74-5.89-2-8.12-.7s-3.44,3.9-3.44,7.38a16.55,16.55,0,0,0,.22,2.49,16.29,16.29,0,0,0-2.07-1.43c-3-1.73-5.89-2-8.11-.7s-3.45,3.9-3.45,7.38a16.73,16.73,0,0,0,.23,2.51,16.48,16.48,0,0,0-2.08-1.44c-3-1.74-5.9-2-8.12-.7s-3.45,3.9-3.45,7.38a16.73,16.73,0,0,0,.23,2.51,15.5,15.5,0,0,0-2.08-1.44c-3-1.74-5.89-2-8.12-.7s-3.45,3.9-3.45,7.38a16.85,16.85,0,0,0,.23,2.51,16.57,16.57,0,0,0-2.08-1.45c-3-1.73-5.89-2-8.12-.7s-3.45,3.91-3.45,7.38a16.86,16.86,0,0,0,.23,2.52,15.58,15.58,0,0,0-2.08-1.45c-3-1.73-5.89-2-8.12-.7s-3.45,3.91-3.45,7.38a16.73,16.73,0,0,0,.23,2.51,16.48,16.48,0,0,0-2.08-1.44c-3-1.73-5.89-2-8.12-.7s-3.45,3.9-3.45,7.38a16.73,16.73,0,0,0,.23,2.51,16.48,16.48,0,0,0-2.08-1.44c-3-1.74-5.89-2-8.12-.7S191,124,191,127.49a16.73,16.73,0,0,0,.23,2.51,16.48,16.48,0,0,0-2.08-1.44c-3-1.74-5.89-2-8.12-.7s-3.44,3.9-3.44,7.38a16.81,16.81,0,0,0,.22,2.51,15.5,15.5,0,0,0-2.08-1.44c-3-1.74-5.89-2-8.12-.71s-3.44,3.91-3.44,7.38a16.83,16.83,0,0,0,.22,2.52,15.58,15.58,0,0,0-2.08-1.45c-3-1.73-5.89-2-8.11-.7s-3.45,3.91-3.45,7.38a15.74,15.74,0,0,0,.23,2.52,16.34,16.34,0,0,0-2.09-1.45c-3-1.73-5.89-2-8.11-.7s-3.45,3.91-3.45,7.38a15.31,15.31,0,0,0,.21,2.49,16.29,16.29,0,0,0-2.07-1.43c-3-1.73-5.89-2-8.11-.7s-3.45,3.9-3.45,7.38a17.49,17.49,0,0,0,.48,3.92l1.85-1.07a14.9,14.9,0,0,1-.29-2.85c0-2.72.87-4.71,2.43-5.62s3.72-.65,6.07.71c5.26,3,9.53,10.43,9.53,16.49a8.55,8.55,0,0,1-.78,3.81,4.31,4.31,0,0,1-1.65,1.8l-.16.09a5.89,5.89,0,0,0-.88,2.4,6,6,0,0,0,2.06-.72,6.48,6.48,0,0,0,2.86-3.62,11.2,11.2,0,0,0,.59-3.76c0-5.44-3.11-11.86-7.39-15.88l1-.59a14.79,14.79,0,0,1-.28-2.85c0-2.72.86-4.71,2.43-5.62s3.72-.65,6.07.71c5.25,3,9.52,10.43,9.52,16.49a8.55,8.55,0,0,1-.77,3.81,4.42,4.42,0,0,1-1.66,1.81.8.8,0,0,1-.16.08,6,6,0,0,0-.87,2.41,6.13,6.13,0,0,0,2.05-.73,6.5,6.5,0,0,0,2.87-3.62,11.16,11.16,0,0,0,.58-3.76c0-5.44-3.11-11.86-7.39-15.88l1-.6a14.72,14.72,0,0,1-.28-2.85c0-2.72.86-4.71,2.43-5.62s3.72-.65,6.07.71c5.25,3,9.52,10.43,9.52,16.5a8.45,8.45,0,0,1-.77,3.81,4.46,4.46,0,0,1-1.66,1.8l-.16.09a5.91,5.91,0,0,0-.87,2.4,6.11,6.11,0,0,0,2-.72,6.56,6.56,0,0,0,2.87-3.63,11.4,11.4,0,0,0,.58-3.75c0-5.45-3.11-11.87-7.39-15.89l1-.6a14.72,14.72,0,0,1-.28-2.85c0-2.72.86-4.71,2.43-5.61s3.72-.66,6.07.7c5.25,3,9.52,10.43,9.52,16.5a8.58,8.58,0,0,1-.77,3.81,4.46,4.46,0,0,1-1.66,1.8l-.16.09a6,6,0,0,0-.87,2.4,6.11,6.11,0,0,0,2.05-.72,6.56,6.56,0,0,0,2.87-3.63,11.4,11.4,0,0,0,.58-3.75c0-5.45-3.11-11.87-7.39-15.89l1-.59a14.87,14.87,0,0,1-.28-2.85c0-2.72.86-4.72,2.42-5.62s3.72-.65,6.08.71c5.25,3,9.52,10.42,9.52,16.49a8.55,8.55,0,0,1-.77,3.81,4.46,4.46,0,0,1-1.66,1.8l-.16.09a6,6,0,0,0-.87,2.4,5.9,5.9,0,0,0,2.05-.72,6.52,6.52,0,0,0,2.87-3.63,11.4,11.4,0,0,0,.58-3.75c0-5.45-3.11-11.87-7.39-15.89l1-.59a14.87,14.87,0,0,1-.28-2.85c0-2.72.86-4.72,2.42-5.62s3.72-.65,6.08.71c5.25,3,9.52,10.42,9.52,16.49a8.41,8.41,0,0,1-.78,3.81,4.37,4.37,0,0,1-1.65,1.8,1.29,1.29,0,0,1-.16.09,6,6,0,0,0-.87,2.4,5.9,5.9,0,0,0,2-.72,6.54,6.54,0,0,0,2.87-3.62,11.46,11.46,0,0,0,.58-3.76c0-5.44-3.11-11.86-7.39-15.88l1-.6a14.82,14.82,0,0,1-.29-2.85c0-2.72.87-4.71,2.43-5.62s3.72-.65,6.08.71c5.25,3,9.52,10.43,9.52,16.49a8.38,8.38,0,0,1-.78,3.81,4.47,4.47,0,0,1-1.65,1.81l-.16.08a6,6,0,0,0-.87,2.4,5.7,5.7,0,0,0,2.05-.72,6.5,6.5,0,0,0,2.87-3.62,11.46,11.46,0,0,0,.58-3.76c0-5.44-3.11-11.86-7.39-15.88l1-.6a14.74,14.74,0,0,1-.29-2.85c0-2.72.87-4.71,2.43-5.62s3.72-.65,6.08.71c5.25,3,9.52,10.43,9.52,16.5a8.37,8.37,0,0,1-.78,3.8,4.34,4.34,0,0,1-1.65,1.81l-.16.09a5.91,5.91,0,0,0-.87,2.4,6.19,6.19,0,0,0,2-.72,6.54,6.54,0,0,0,2.86-3.63,11.14,11.14,0,0,0,.59-3.75c0-5.45-3.11-11.87-7.39-15.89l1-.6a14.74,14.74,0,0,1-.29-2.85c0-2.72.87-4.71,2.43-5.61s3.72-.66,6.08.7c5.25,3,9.52,10.43,9.52,16.5a8.44,8.44,0,0,1-.78,3.81,4.25,4.25,0,0,1-1.65,1.8l-.16.09a5.73,5.73,0,0,0-.87,2.4,6.19,6.19,0,0,0,2.05-.72,6.5,6.5,0,0,0,2.86-3.63,11.14,11.14,0,0,0,.59-3.75c0-5.45-3.11-11.87-7.39-15.89l1-.59a14.9,14.9,0,0,1-.29-2.85c0-2.72.87-4.72,2.43-5.62s3.72-.66,6.08.7c5.25,3,9.52,10.43,9.52,16.5a8.41,8.41,0,0,1-.78,3.81,4.37,4.37,0,0,1-1.65,1.8l-.16.09a5.73,5.73,0,0,0-.87,2.4,6.19,6.19,0,0,0,2.05-.72,6.51,6.51,0,0,0,2.86-3.63,11.14,11.14,0,0,0,.59-3.75c0-5.45-3.11-11.87-7.39-15.89l1-.59a14.9,14.9,0,0,1-.29-2.85c0-2.72.87-4.72,2.43-5.62s3.72-.65,6.08.71c5.25,3,9.52,10.42,9.52,16.49a8.41,8.41,0,0,1-.78,3.81,4.37,4.37,0,0,1-1.65,1.8l-.16.09a5.73,5.73,0,0,0-.87,2.4,6,6,0,0,0,2.05-.72,6.52,6.52,0,0,0,2.86-3.62,11.2,11.2,0,0,0,.59-3.76c0-5.44-3.11-11.86-7.39-15.88l1-.6a14.9,14.9,0,0,1-.29-2.85c0-2.72.87-4.71,2.43-5.62s3.72-.65,6.07.71c5.26,3,9.53,10.43,9.53,16.49a8.55,8.55,0,0,1-.78,3.81,4.31,4.31,0,0,1-1.65,1.8l-.16.09a5.73,5.73,0,0,0-.87,2.4,6,6,0,0,0,2.05-.72A6.48,6.48,0,0,0,293,96.34a11.2,11.2,0,0,0,.59-3.76c0-5.44-3.11-11.87-7.39-15.89l1-.59a14.69,14.69,0,0,1-.28-2.84c0-2.73.86-4.72,2.42-5.62s3.73-.66,6.08.7c5.25,3,9.52,10.43,9.52,16.5a8.55,8.55,0,0,1-.77,3.81,4.46,4.46,0,0,1-1.66,1.8l-.16.09a6,6,0,0,0-.87,2.4,6.11,6.11,0,0,0,2.05-.72,6.56,6.56,0,0,0,2.87-3.63,11.4,11.4,0,0,0,.58-3.75C307,79.39,303.9,73,299.62,69l1-.59a14.87,14.87,0,0,1-.28-2.85c0-2.72.86-4.72,2.42-5.62s3.72-.65,6.08.71c5.25,3,9.52,10.42,9.52,16.49a8.55,8.55,0,0,1-.77,3.81A4.33,4.33,0,0,1,316,82.7a1.29,1.29,0,0,1-.16.09,6,6,0,0,0-.87,2.4,5.9,5.9,0,0,0,2.05-.72,6.57,6.57,0,0,0,2.87-3.62,11.46,11.46,0,0,0,.58-3.76c0-5.44-3.11-11.86-7.39-15.89l1-.59a14.87,14.87,0,0,1-.28-2.85c0-2.72.86-4.71,2.42-5.62s3.72-.65,6.08.71c5.25,3,9.52,10.42,9.52,16.49a8.41,8.41,0,0,1-.78,3.81,4.37,4.37,0,0,1-1.65,1.8,1.29,1.29,0,0,1-.16.09,6,6,0,0,0-.87,2.4,5.9,5.9,0,0,0,2-.72,6.54,6.54,0,0,0,2.87-3.62,11.46,11.46,0,0,0,.58-3.76c0-5.44-3.11-11.86-7.39-15.88l1-.6A14.82,14.82,0,0,1,327.2,50c0-2.72.87-4.71,2.43-5.62s3.72-.65,6.08.71c5.25,3,9.52,10.43,9.52,16.49a8.38,8.38,0,0,1-.78,3.81,4.47,4.47,0,0,1-1.65,1.81l-.16.08a6,6,0,0,0-.87,2.4,5.7,5.7,0,0,0,2.05-.72,6.5,6.5,0,0,0,2.87-3.62,11.42,11.42,0,0,0,.58-3.76c0-5.44-3.11-11.86-7.39-15.88l1-.6a14.74,14.74,0,0,1-.29-2.85c0-2.72.87-4.71,2.43-5.62s3.72-.65,6.08.71c5.25,3,9.52,10.43,9.52,16.5a8.37,8.37,0,0,1-.78,3.8,4.28,4.28,0,0,1-1.65,1.81l-.16.09a5.91,5.91,0,0,0-.87,2.4,6.19,6.19,0,0,0,2.05-.72,6.5,6.5,0,0,0,2.86-3.63,11.14,11.14,0,0,0,.59-3.75C360.69,47.13,356,38.94,350.15,35.58Z" style="opacity:0.4"></path></g><path d="M162.35,198.17l16.76-9.73c1.24-.72,2.25-.21,2.26,1.13a4.74,4.74,0,0,1-2.24,3.73L162.35,203c-1.24.71-2.25.2-2.25-1.14A4.82,4.82,0,0,1,162.35,198.17Z" style="fill:#FFA732"></path><path d="M191,181.63l16.76-9.74c1.24-.71,2.25-.21,2.26,1.14a4.82,4.82,0,0,1-2.24,3.73L191,186.48c-1.24.72-2.25.21-2.25-1.13A4.8,4.8,0,0,1,191,181.63Z" style="fill:#FFA732"></path><path d="M219.66,165.08l16.77-9.73c1.24-.72,2.25-.21,2.26,1.13a4.79,4.79,0,0,1-2.24,3.73l-16.78,9.73c-1.25.71-2.25.2-2.25-1.14A4.81,4.81,0,0,1,219.66,165.08Z" style="fill:#FFA732"></path><path d="M248.32,148.54l16.76-9.74c1.24-.72,2.26-.21,2.26,1.14a4.75,4.75,0,0,1-2.23,3.72l-16.79,9.73c-1.24.71-2.24.21-2.24-1.13A4.79,4.79,0,0,1,248.32,148.54Z" style="fill:#FFA732"></path><path d="M277,132l16.76-9.73c1.24-.72,2.25-.21,2.26,1.13a4.77,4.77,0,0,1-2.23,3.73L277,136.84c-1.24.72-2.25.21-2.25-1.13A4.82,4.82,0,0,1,277,132Z" style="fill:#FFA732"></path><path d="M305.64,115.44l16.76-9.73c1.24-.72,2.25-.21,2.26,1.14a4.74,4.74,0,0,1-2.24,3.72l-16.78,9.73c-1.24.71-2.25.21-2.25-1.13A4.83,4.83,0,0,1,305.64,115.44Z" style="fill:#FFA732"></path><path d="M334.3,98.9l16.76-9.74c1.24-.71,2.25-.2,2.26,1.14A4.8,4.8,0,0,1,351.08,94l-16.78,9.72c-1.24.72-2.25.21-2.25-1.13A4.82,4.82,0,0,1,334.3,98.9Z" style="fill:#FFA732"></path><path d="M355.36,111.9l-.23,139.55L160.32,364.06V224.51l195-112.61m2-3.47-199,114.92V367.53L357.13,252.61l.24-144.18Z" style="fill:#e0e0e0"></path><path d="M186.72,351.15h0a1,1,0,0,1-1-1l0-142.25a1,1,0,0,1,1-1h0a1,1,0,0,1,1,1l0,142.25A1,1,0,0,1,186.72,351.15Z" style="fill:#e0e0e0"></path><path d="M215.13,334.73h0a1,1,0,0,1-1-1l.06-142.25a1,1,0,0,1,1-1h0a1,1,0,0,1,1,1l-.06,142.25A1,1,0,0,1,215.13,334.73Z" style="fill:#e0e0e0"></path><path d="M243.53,318.32h0a1,1,0,0,1-1-1l.1-142.26a1,1,0,0,1,1-1h0a1,1,0,0,1,1,1l-.1,142.26A1,1,0,0,1,243.53,318.32Z" style="fill:#e0e0e0"></path><path d="M271.93,301.9h0a1,1,0,0,1-1-1l.13-142.26a1,1,0,0,1,1-1h0a1,1,0,0,1,1,1l-.13,142.25A1,1,0,0,1,271.93,301.9Z" style="fill:#e0e0e0"></path><path d="M300.33,285.48h0a1,1,0,0,1-1-1l.17-142.25a1,1,0,0,1,1-1h0a1,1,0,0,1,1,1l-.17,142.25A1,1,0,0,1,300.33,285.48Z" style="fill:#e0e0e0"></path><path d="M328.73,269.06h0a1,1,0,0,1-1-1l.2-142.25a1,1,0,0,1,1-1h0a1,1,0,0,1,1,1l-.2,142.26A1,1,0,0,1,328.73,269.06Z" style="fill:#e0e0e0"></path><path d="M159.49,259.69a1,1,0,0,1-.87-.5,1,1,0,0,1,.37-1.36L355.86,144.17a1,1,0,0,1,1.36.36,1,1,0,0,1-.36,1.37L160,259.56A1,1,0,0,1,159.49,259.69Z" style="fill:#e0e0e0"></path><path d="M159.49,295.74a1,1,0,0,1-.5-1.87L355.86,180.21a1,1,0,0,1,1,1.73L160,295.6A.93.93,0,0,1,159.49,295.74Z" style="fill:#e0e0e0"></path><path d="M159.49,331.78a1,1,0,0,1-.87-.5,1,1,0,0,1,.37-1.36L355.86,216.25a1,1,0,0,1,1,1.74L160,331.65A1,1,0,0,1,159.49,331.78Z" style="fill:#e0e0e0"></path><g id="freepik--Note--inject-12"><g id="freepik--note--inject-12"><polygon points="302.96 144.37 302.96 179.97 332.46 162.94 332.46 127.34 302.96 144.37" style="opacity:0.1"></polygon><path d="M339.83,161s-1.44,2.44-6.59,5.41l-26,15-3.12-30.94,29.49-17,1.65,17.91C335.56,154.22,336,158.47,339.83,161Z" style="fill:#FFA732"></path><polygon points="333.64 133.39 304.15 150.42 304.15 144.96 333.64 127.93 333.64 133.39" style="fill:#FFA732"></polygon><polygon points="333.64 133.39 304.15 150.42 304.15 144.96 333.64 127.93 333.64 133.39" style="opacity:0.1"></polygon></g><path d="M330.71,148.57a20.66,20.66,0,0,0-.68-2.45c0-.09-.06-.18-.1-.27a2.38,2.38,0,0,0-.42-2.64c-.12-.11-.42-.23-.51,0a3.57,3.57,0,0,0,.18,2.33,9.2,9.2,0,0,1-.86,1.54,12.07,12.07,0,0,1-1,1.32c-.46.49-1.16,1.2-1.88,1.22a.89.89,0,0,1-.89-.68c.22-.32.44-.64.63-1a7,7,0,0,0,1-2.36.91.91,0,0,0-1.14-1.07c-.81.19-1.09,1.27-1.25,2a4.64,4.64,0,0,0,0,2.16,6,6,0,0,1-.62.81,3,3,0,0,1-.3.23,1.32,1.32,0,0,0,0-.26c0-.24-.36-.61-.61-.42-.64.51-.77,1.33-1.17,2a1.61,1.61,0,0,1-.35.43c-.17.15-.19.17-.27,0a4.78,4.78,0,0,0-.4-1c-.12-.2-.53-.39-.69-.13a4.72,4.72,0,0,0-.54,1.27,1,1,0,0,0-1.48,0,8.49,8.49,0,0,0-1.31,1.87,6.1,6.1,0,0,1-.34.54l-.11.15a.32.32,0,0,1,0-.13,11.61,11.61,0,0,1,0-1.67h0s0-.07,0-.1c0-.4-.87-.62-.87-.16a1.27,1.27,0,0,0,0,.2,5,5,0,0,1-2.29,3.63c-.37.27-1.29.94-1.78.69s-.36-1-.34-1.36a8.54,8.54,0,0,1,1-3.49,3.52,3.52,0,0,1,1.16-1.32,1.38,1.38,0,0,1,1.06-.2c.47.17.42.71.3,1.1-.05.16.2.52.33.28.72-1.32-.48-2.51-1.86-2s-2,1.86-2.37,3.07-.86,2.69-.33,3.85c.63,1.4,2.26.83,3.24.17a7,7,0,0,0,2.12-2.21,1.24,1.24,0,0,0,.18.22c.64.65,1.23.05,1.58-.54a9.79,9.79,0,0,1,1.31-2c.07-.07.16-.12.22-.19h0a2.26,2.26,0,0,1,.08.51c0,.38,0,.76.05,1.13s.7.65.82.22a24.4,24.4,0,0,1,.59-2.42c.26.55.6,1.06,1.29.77s.91-1.36,1.33-2.07a.66.66,0,0,0,1,.24,2.53,2.53,0,0,0,.76-.7l.08-.12a1.74,1.74,0,0,0,1.82.79,4.71,4.71,0,0,0,2.43-1.82,10.63,10.63,0,0,0,1.23-1.8s0,.07,0,.11a15.35,15.35,0,0,1,.53,2.75q0,.36,0,.75a2.54,2.54,0,0,0-2.88.95c-.61.75-.81,2.23.28,2.68.91.38,1.95-.4,2.54-1C331.18,151.78,331,150,330.71,148.57Zm-6.16-2.06a3.88,3.88,0,0,1,.33-.88.86.86,0,0,1,.21-.29c.07-.06.33-.16.31-.17s-.1.45-.14.57-.16.42-.24.63a10.49,10.49,0,0,1-.64,1.25A6.22,6.22,0,0,1,324.55,146.51Zm4,6.53c-.44.24-.89.43-.94-.21-.08-1.06,1.43-2.35,2.46-1.83a2.42,2.42,0,0,1-.39,1.06A3.55,3.55,0,0,1,328.58,153Z" style="fill:#455a64"></path><path d="M312.68,161.32a16.11,16.11,0,0,1-1.2,2.68c-.43.63-1.18,1.13-1.28,1.93,0,.11.13.39.27.26a9.7,9.7,0,0,0,1.85-2l0-.09c-.15.9-.33,1.79-.42,2.69s-.22,1.85-.33,2.77-.12,1.84-.29,2.72c-.1.45.72.76.86.27a9.81,9.81,0,0,0,.13-1.34c.05-.49.11-1,.17-1.49.12-.92.23-1.84.33-2.77a49.33,49.33,0,0,0,.67-5.41C313.48,161.15,312.85,160.93,312.68,161.32Z" style="fill:#455a64"></path><path d="M319.3,161.34a2.21,2.21,0,0,0-.74-.75c-.29-.16-.8-.35-1.11-.15a.35.35,0,0,0-.1-.08c-1-.26-1.63.59-2.07,1.33a14.23,14.23,0,0,0-1,2.33c-.52,1.38-1,3.74.47,4.74,1.31.89,2.83.1,3.65-1a7.74,7.74,0,0,0,1.37-4.22A4.14,4.14,0,0,0,319.3,161.34Zm-1.48,5.45c-.45.8-1.35,1.83-2.39,1.48-.6-.2-.73-.94-.75-1.49a5.87,5.87,0,0,1,.34-2.11,17.89,17.89,0,0,1,.86-2.13c.28-.59.77-1.61,1.53-1.68a.27.27,0,0,0,.08.07,4.27,4.27,0,0,1,.69.3,1.22,1.22,0,0,1,.31.39,3.38,3.38,0,0,1,.3,1.53A7.48,7.48,0,0,1,317.82,166.79Z" style="fill:#455a64"></path><path d="M334.67,161.14c-.37-.8-.57-1.68-.86-2.51a4.27,4.27,0,0,0-1.17-2.08c-.17-.13-.51-.24-.64,0a8.32,8.32,0,0,0-1,2.88,4,4,0,0,0-.47-.54.47.47,0,0,0-.59,0,1.58,1.58,0,0,0-.38.52,3,3,0,0,0-.83-1.14.46.46,0,0,0-.59,0c-1,1-.74,2.84-1,4.1a1.52,1.52,0,0,1-.28.76c-.21.18-.28,0-.4-.21a4,4,0,0,1-.5-1.47c0-.16,0-.32,0-.48v0h0s0-.07,0-.1c0-.4-.9-.55-.89-.08a4.73,4.73,0,0,1-.67,3c-.27.41-1.36,2-1.83,1-.34-.67.18-1.61.54-2.17a4.17,4.17,0,0,1,1.7-1.63v0c.19-.11,0-.47-.2-.46-1.06.05-2,1.19-2.46,2s-.88,2.11,0,2.91c1,1,2.17,0,2.82-.84a6.27,6.27,0,0,0,.84-1.49l0,.07c.36.57,1.13,1.07,1.74.5s.57-1.57.64-2.27a6.54,6.54,0,0,1,.41-2.28,5.44,5.44,0,0,1,.68,2.17c.05.36.76.61.83.15a5.29,5.29,0,0,1,.29-1.68,8.29,8.29,0,0,1,.67,1.12c.16.28.86.48.8,0a6.08,6.08,0,0,1,.68-3.41,6.46,6.46,0,0,1,.67,1.62,17.48,17.48,0,0,0,.75,2.14C334.11,161.55,334.89,161.6,334.67,161.14Z" style="fill:#455a64"></path><path d="M299.78,146.5a7.7,7.7,0,0,1,3.51-6,2.43,2.43,0,0,1,2.54-.21h0l1.59.94-.64,1.14s0,.08,0,.12a7.73,7.73,0,0,1-3.51,6.05h0l-.73,1.28-1.73-1h0l-.06,0h0A2.45,2.45,0,0,1,299.78,146.5Z" style="fill:#37474f"></path><path d="M308.52,143.47a7.72,7.72,0,0,1-3.51,6.05c-1.94,1.12-3.51.23-3.51-2a7.71,7.71,0,0,1,3.51-6C306.94,140.36,308.52,141.25,308.52,143.47Z" style="fill:#455a64"></path></g><g id="freepik--note--inject-12"><g id="freepik--note--inject-12"><polygon points="219.54 266.22 219.54 301.82 249.03 284.79 249.03 249.19 219.54 266.22" style="opacity:0.1"></polygon><path d="M256.4,282.81s-1.44,2.44-6.58,5.41l-26,15-3.12-31,29.5-17,1.65,17.91C252.13,276.07,252.55,280.33,256.4,282.81Z" style="fill:#FFA732"></path><polygon points="250.22 255.24 220.72 272.27 220.72 266.81 250.22 249.78 250.22 255.24" style="fill:#FFA732"></polygon><polygon points="250.22 255.24 220.72 272.27 220.72 266.81 250.22 249.78 250.22 255.24" style="opacity:0.1"></polygon></g><path d="M246.63,274.77l.28-.06c.42-.06.11-.66-.22-.64l-.29,0c-.09-.21-.17-.43-.26-.65a16,16,0,0,0-2.88-5c-.19-.2-.65-.26-.66.11a17.32,17.32,0,0,1-.73,4l0,0a5.28,5.28,0,0,0-.31-1.26c-.11-.3-.72-.56-.76-.07a2.45,2.45,0,0,0,.25,1.36,19.35,19.35,0,0,1-.54,5.79c-.24.78-.68,1.9-1.69,1.52h0c.06-.25.1-.49.14-.7.42-2.06,1.17-5.55-1.43-6.5a.28.28,0,0,0-.35.1,7.82,7.82,0,0,0-.52,3.71,5.07,5.07,0,0,0,1.29,3.64,1.69,1.69,0,0,1-.58.9c-.78.54-1.8-.75-2.19-1.27-.12-.16-.44-.37-.64-.18-.85.77-.9,2.06-.84,3.26a.46.46,0,0,0-.48-.1,1.72,1.72,0,0,0-1,1.65c-.46-.81-1.07-1.36-1.95-.78a2.38,2.38,0,0,0-1,1.28,4.48,4.48,0,0,0-1.1-2.56,1.61,1.61,0,0,0-2.21,0,4.19,4.19,0,0,0-.88,2.67,4.72,4.72,0,0,0,.14,1.5c.05.16.11.41.31.44s.27-.15.21-.33c-.29-.91.17-4.61,1.74-4,.84.34.95,2.05,1.07,2.8.23,1.43.55,2.85.79,4.27.08.44.86.63.87.08,0-1.61-.77-3.67.22-5.12.12-.18.43-.59.68-.5s.38.51.48.71c.29.61.45,1.28.76,1.88.17.33.83.52.83,0,0-.82-.5-2.38.14-3.09.15.26.29.52.42.79s.84.53.82,0c0-1.15-.39-2.91.28-4,.64.71,1.51,1.5,2.46,1.37.7-.1,1.05-.67,1.27-1.31a1.74,1.74,0,0,0,2.26-.74,9.3,9.3,0,0,0,1-4.16,20.2,20.2,0,0,0,.07-2.36,1.62,1.62,0,0,0,.4,0,.28.28,0,0,0,.27-.2,17.8,17.8,0,0,0,.76-3.59,16.56,16.56,0,0,1,2,3.77c.12.3.24.6.35.91a3,3,0,0,0-2.15,2.55,3.19,3.19,0,0,0,1.92,2.82c1.3.47,1.83-.94,1.79-2A10.54,10.54,0,0,0,246.63,274.77ZM237.3,277a7.2,7.2,0,0,1,.34-3.5c1.46.9.82,3.67.57,5-.05.25-.09.56-.14.88A5,5,0,0,1,237.3,277Zm8.61,2c-.53.14-1-.59-1.27-1-.74-1.27.16-2.46,1.33-3a10.18,10.18,0,0,1,.51,2.35C246.51,277.85,246.52,278.84,245.91,279Z" style="fill:#455a64"></path><path d="M247.84,267.53a18.93,18.93,0,0,0-1.29-2.91c-.26-.5-.53-1-.77-1.5s-.42-.94-.66-1.38c-.14-.25-.75-.43-.73,0a5.53,5.53,0,0,0,.39,1.54c.2.51.42,1,.64,1.52a27.14,27.14,0,0,1,1.18,2.85c.15.49.2,1.21.88,1.16S248,268,247.84,267.53Z" style="fill:#455a64"></path><path d="M249.05,271l0,0,.06,0Z" style="fill:#455a64"></path><path d="M249.71,271.89a1,1,0,0,0-.08-.28.33.33,0,0,0-.06-.1v0a.51.51,0,0,0-.27-.32l-.21-.15-.14-.08a.42.42,0,0,0-.33,0,.23.23,0,0,0-.1.07.3.3,0,0,0-.05.16.48.48,0,0,0,0,.17,1.76,1.76,0,0,0-.09.2c0,.08,0,.16,0,.24a.5.5,0,0,0,0,.21.66.66,0,0,0,.3.41,1.41,1.41,0,0,0,.57.18.46.46,0,0,0,.34-.06l.08-.07a.32.32,0,0,0,.08-.2A.92.92,0,0,0,249.71,271.89Z" style="fill:#455a64"></path><path d="M216.36,268.36a7.72,7.72,0,0,1,3.51-6.05,2.41,2.41,0,0,1,2.54-.2h0l1.6.95-.65,1.13s0,.08,0,.12a7.68,7.68,0,0,1-3.5,6.05h0l-.72,1.28-1.74-1h0l-.06,0h0A2.45,2.45,0,0,1,216.36,268.36Z" style="fill:#37474f"></path><path d="M225.09,265.33a7.71,7.71,0,0,1-3.51,6c-1.93,1.12-3.51.23-3.51-2a7.74,7.74,0,0,1,3.51-6.05C223.52,262.21,225.09,263.1,225.09,265.33Z" style="fill:#455a64"></path></g><path d="M285.76,233.4l53.45-30.87c3.56-2.05,6.45-.69,6.45,3s-2.89,8.43-6.45,10.48l-53.45,30.86c-3.56,2.06-6.45.7-6.45-3S282.2,235.45,285.76,233.4Z" style="fill:#FFA732"></path><path d="M209.76,331.56a1.87,1.87,0,0,1-1-.27l-17-9.83a2,2,0,1,1,2-3.46l17,9.83a2,2,0,0,1-1,3.73Z" style="fill:#FFA732"></path><path d="M193.48,340.1a2,2,0,0,1-1.75-3l15.07-27.26a2,2,0,1,1,3.5,1.94l-15.07,27.25A2,2,0,0,1,193.48,340.1Z" style="fill:#FFA732"></path><path d="M299.79,269.44a5.49,5.49,0,0,0-1.61-3.69,7.11,7.11,0,0,0-3.89-1.72,12.24,12.24,0,0,0-6.34,1,16.86,16.86,0,0,0-4.63,3.17c-.62.56-1.24,1.12-1.9,1.63-.35.27.16.82.5.62,1.5-.88,2.82-2,4.28-2.93a13.33,13.33,0,0,1,5.28-2c2.55-.37,5.92.34,6.63,3.2a10.72,10.72,0,0,1-.17,4.33,18.43,18.43,0,0,1-1.34,4.23,20.2,20.2,0,0,1-5.35,7,16.19,16.19,0,0,1-6.87,3.83,10.44,10.44,0,0,1-6.55-.61,5.37,5.37,0,0,1-2.23-1.94,6.71,6.71,0,0,1-.83-3.54,17.89,17.89,0,0,1,2.16-8.61,24.49,24.49,0,0,1,13.61-11.61c.79-.26,1.61-.49,2.42-.7a.53.53,0,0,0-.2-1,20,20,0,0,0-9.43,3.87,26.2,26.2,0,0,0-7.14,7.69,20.05,20.05,0,0,0-3,9.4c-.13,2.79.38,5.59,2.82,7.27a10.88,10.88,0,0,0,7.29,1.53,15.8,15.8,0,0,0,7.64-3.39,22.85,22.85,0,0,0,6.48-7.45A18.67,18.67,0,0,0,299.79,269.44Z" style="fill:#f28f8f"></path><path d="M173.49,223l2.06,4.37a.32.32,0,0,0,.44.17l4.6-1.76c.48-.18.67.49.32,1.14l-3.32,6.25a1.37,1.37,0,0,0-.17.79l.78,5.65c.09.59-.42,1.37-.85,1.31l-4.11-.51a.66.66,0,0,0-.54.32L168.58,246c-.43.55-.93.35-.85-.34l.79-6.56a.63.63,0,0,0-.17-.59l-3.33-2.4c-.34-.25-.15-1.15.33-1.52l4.6-3.55a1.39,1.39,0,0,0,.44-.68l2.05-6.74C172.66,222.93,173.28,222.58,173.49,223Z" style="fill:#f28f8f"></path><path d="M219.56,197l15.62-9c.66-.38,1.2-.11,1.2.61a2.57,2.57,0,0,1-1.2,2l-15.62,9c-.66.38-1.2.11-1.2-.61A2.57,2.57,0,0,1,219.56,197Z" style="fill:#455a64"></path><path d="M219.56,203.39l10.77-6.22c.67-.39,1.2-.12,1.2.6a2.57,2.57,0,0,1-1.2,2L219.56,206c-.66.38-1.2.11-1.2-.61A2.57,2.57,0,0,1,219.56,203.39Z" style="fill:#455a64"></path><path d="M275.41,196.27l15.61-9c.66-.38,1.2-.11,1.2.61a2.58,2.58,0,0,1-1.2,2l-15.61,9c-.67.38-1.2.11-1.2-.61A2.57,2.57,0,0,1,275.41,196.27Z" style="fill:#455a64"></path><path d="M275.41,202.69l10.77-6.22c.66-.38,1.2-.11,1.2.61a2.57,2.57,0,0,1-1.2,2l-10.77,6.22c-.67.39-1.2.11-1.2-.6A2.56,2.56,0,0,1,275.41,202.69Z" style="fill:#455a64"></path><path d="M164.87,296.14l15.61-9c.67-.39,1.2-.11,1.2.6a2.57,2.57,0,0,1-1.2,2l-15.61,9c-.67.39-1.2.11-1.2-.6A2.57,2.57,0,0,1,164.87,296.14Z" style="fill:#455a64"></path><path d="M164.87,302.56l10.77-6.22c.66-.38,1.2-.11,1.2.61a2.58,2.58,0,0,1-1.2,2l-10.77,6.22c-.67.38-1.2.11-1.2-.61A2.54,2.54,0,0,1,164.87,302.56Z" style="fill:#455a64"></path><path d="M304.68,251.52l15.61-9c.67-.39,1.2-.11,1.2.6a2.57,2.57,0,0,1-1.2,2l-15.61,9c-.67.39-1.2.11-1.2-.6A2.57,2.57,0,0,1,304.68,251.52Z" style="fill:#455a64"></path><path d="M304.68,257.94l10.77-6.22c.66-.38,1.2-.11,1.2.61a2.58,2.58,0,0,1-1.2,2l-10.77,6.22c-.67.38-1.2.11-1.2-.61A2.54,2.54,0,0,1,304.68,257.94Z" style="fill:#455a64"></path><polygon points="215.19 226.7 236.38 214.3 215.06 249.19 215.19 226.7" style="fill:#FFA732"></polygon><polygon points="215.19 226.7 236.38 214.3 215.06 249.19 215.19 226.7" style="opacity:0.30000000000000004"></polygon><path d="M139.15,239.06l13.14-7.61c.69-.4,1.26-.12,1.26.64a2.65,2.65,0,0,1-1.25,2.09l-13.15,7.61c-.7.4-1.26.11-1.26-.64A2.69,2.69,0,0,1,139.15,239.06Z" style="fill:#FFA732"></path><path d="M139.15,244.85l9.69-5.61c.69-.4,1.26-.12,1.27.64a2.69,2.69,0,0,1-1.26,2.09l-9.7,5.6c-.7.41-1.26.12-1.26-.63A2.69,2.69,0,0,1,139.15,244.85Z" style="fill:#FFA732"></path><path d="M139.15,275.05l13.14-7.61c.69-.4,1.26-.12,1.26.64a2.65,2.65,0,0,1-1.25,2.09l-13.15,7.61c-.7.4-1.26.12-1.26-.64A2.71,2.71,0,0,1,139.15,275.05Z" style="fill:#FFA732"></path><path d="M139.15,280.84l9.69-5.61c.69-.4,1.26-.12,1.27.64a2.69,2.69,0,0,1-1.26,2.09l-9.7,5.61c-.7.4-1.26.11-1.26-.64A2.69,2.69,0,0,1,139.15,280.84Z" style="fill:#FFA732"></path><path d="M139.15,311.11l13.14-7.61c.69-.4,1.26-.12,1.26.64a2.65,2.65,0,0,1-1.25,2.09l-13.15,7.61c-.7.4-1.26.11-1.26-.64A2.69,2.69,0,0,1,139.15,311.11Z" style="fill:#FFA732"></path><path d="M139.15,316.9l9.69-5.61c.69-.4,1.26-.12,1.27.64a2.69,2.69,0,0,1-1.26,2.09l-9.7,5.6c-.7.4-1.26.12-1.26-.63A2.69,2.69,0,0,1,139.15,316.9Z" style="fill:#FFA732"></path><path d="M139.15,347.08l13.14-7.61c.69-.41,1.26-.12,1.26.63a2.65,2.65,0,0,1-1.25,2.1l-13.15,7.61c-.7.4-1.26.11-1.26-.64A2.69,2.69,0,0,1,139.15,347.08Z" style="fill:#FFA732"></path><path d="M139.15,352.87l9.69-5.61c.69-.41,1.26-.12,1.27.64a2.69,2.69,0,0,1-1.26,2.09l-9.7,5.6c-.7.4-1.26.12-1.26-.63A2.69,2.69,0,0,1,139.15,352.87Z" style="fill:#FFA732"></path><g style="opacity:0.4"><path d="M139.15,244.85l9.69-5.61c.69-.4,1.26-.12,1.27.64a2.69,2.69,0,0,1-1.26,2.09l-9.7,5.6c-.7.41-1.26.12-1.26-.63A2.69,2.69,0,0,1,139.15,244.85Z"></path><path d="M139.15,280.84l9.69-5.61c.69-.4,1.26-.12,1.27.64a2.69,2.69,0,0,1-1.26,2.09l-9.7,5.61c-.7.4-1.26.11-1.26-.64A2.69,2.69,0,0,1,139.15,280.84Z"></path><path d="M139.15,316.9l9.69-5.61c.69-.4,1.26-.12,1.27.64a2.69,2.69,0,0,1-1.26,2.09l-9.7,5.6c-.7.4-1.26.12-1.26-.63A2.69,2.69,0,0,1,139.15,316.9Z"></path><path d="M139.15,352.87l9.69-5.61c.69-.41,1.26-.12,1.27.64a2.69,2.69,0,0,1-1.26,2.09l-9.7,5.6c-.7.4-1.26.12-1.26-.63A2.69,2.69,0,0,1,139.15,352.87Z"></path></g><path d="M367,219.08a88.68,88.68,0,0,0-8.42,4.53c-17.44,11.23-30.76,37.13-29.76,57.85.06,1.2.17,2.34.32,3.45L367,263.05Z" style="opacity:0.1"></path></g></g><g id="freepik--Clock--inject-12"><g id="freepik--clock--inject-12"><path d="M389.52,230h0l0,0h0l-8.65-5h0l-.07,0h0C375.29,222.15,368,223,360.16,228c-15.75,10.15-27.78,33.54-26.87,52.25.45,9.33,4,15.73,9.47,18.55h0l0,0h0l8.65,5h0l.06,0h0c5.45,2.77,12.74,2,20.59-3.09,15.75-10.14,27.78-33.54,26.87-52.25C398.54,239.22,395,232.82,389.52,230Z" style="fill:#37474f"></path><path d="M351.07,303.65l-8.26-4.81h0l-.05,0c-5.43-2.83-9-9.23-9.46-18.54-.41-8.35,1.77-17.62,5.69-26.23l8.65,5c-3.92,8.61-6.09,17.88-5.68,26.22C342.39,294.41,345.83,300.73,351.07,303.65Z" style="fill:#263238"></path><path d="M372.12,300.8c15.75-10.14,27.78-33.54,26.87-52.25S384.57,222.89,368.82,233,341,266.57,342,285.28,356.36,310.94,372.12,300.8Z" style="fill:#455a64"></path><path d="M358.92,299.49c-9.29.46-10.8-10-11-14.5-.8-16.5,10.26-38,24.15-47a21.13,21.13,0,0,1,10-3.7c9.29-.45,10.8,10,11,14.5.8,16.5-10.26,38-24.15,47a21,21,0,0,1-10,3.7Z" style="fill:#fafafa"></path><path d="M372.29,270A1.26,1.26,0,0,1,372,270a1,1,0,0,1-.68-1V245.12a1,1,0,0,1,2,0v20.94l11.14-14.31a1,1,0,0,1,1.42-.17A1,1,0,0,1,386,253l-12.94,16.63A1,1,0,0,1,372.29,270Z" style="fill:#37474f"></path><path d="M366.59,287.65l-.14,0a.43.43,0,0,1-.29-.53l5.6-18.89a.43.43,0,0,1,.53-.28.42.42,0,0,1,.29.53L367,287.34A.45.45,0,0,1,366.59,287.65Z" style="fill:#FFA732"></path><path d="M372,264.22c1.85-1.19,3.44-.37,3.55,1.83a7.66,7.66,0,0,1-3.16,6.15c-1.85,1.19-3.44.37-3.55-1.83A7.66,7.66,0,0,1,372,264.22Z" style="fill:#FFA732"></path></g></g><g id="freepik--Pencil--inject-12"><g id="freepik--pencil--inject-12"><path id="freepik--shadow--inject-12" d="M159.68,426.05c-5.93,3,9,13.57,16.45,9.5l129.79-76,15.58-16.44a1,1,0,0,0-1.06-1.7l-30.05,9.17Z" style="fill:#e0e0e0"></path><path d="M291.58,339l27.65-5.42A.86.86,0,0,1,320,335l-18.76,21.24Z" style="fill:#ffa8a7"></path><path d="M320,335a.86.86,0,0,0-.81-1.41l-5.4,1.06h0a4.73,4.73,0,0,1,2.23,4.41l0,.49Z" style="fill:#263238"></path><path d="M198.17,415.38l2.27-1.3,2.73-1.55,98.11-56.27a12.58,12.58,0,0,0-.77-9.17c-2-4.39-5.77-7.86-8.92-8.06l-98,56.24-5.22,3C191.81,396.51,201.65,413.58,198.17,415.38Z" style="fill:#FFA732"></path><path d="M206.8,410.47l5-2.91c1.49-.79.64-4.45-1.11-8.24-2.3-5-6.84-9.9-8.82-8.86l-3.72,2.14-1.32.79c2-1.05,6.52,3.82,8.82,8.86,1.67,3.63,2.52,7.16,1.25,8.12h0A.34.34,0,0,1,206.8,410.47Z" style="fill:#ebebeb"></path><path d="M208.06,409.73c3.46-1.83-6.46-18.92-9.93-17.08l-5.06,2.89c3.47-1.84,13.39,15.25,9.92,17.09Z" style="fill:#FFA732"></path><path d="M198.17,415.38l5-2.85c3.42-1.78-6-18.35-9.63-17.26a.9.9,0,0,0-.21.08l-5,2.91C191.81,396.51,201.65,413.58,198.17,415.38Z" style="fill:#ebebeb"></path><path d="M320.16,334.08l-.93-.48-20.06,11L195.42,404.1c-.19-.31-.35-.33-.48-.11,2.95,4.59,5.18,10.38,3.23,11.39l2.27-1.3,2.73-1.55,98.11-56.27h0L320,335A.83.83,0,0,0,320.16,334.08Z" style="opacity:0.15"></path><path d="M177,427.51l21.19-12.13c1.49-.77.67-4.39-1-8.16-2.29-5.05-6.81-10-8.8-9h0L167,410.45c-4.22,2.43-.34,11.61,4.37,15.7C173.16,427.7,175.12,428.38,177,427.51Z" style="fill:#f28f8f"></path><path d="M178.24,420.94c-1.21-4.78-5.08-9.46-8.64-10.47a3.47,3.47,0,0,0-3.17.43c-3.19,3,.52,11.38,5,15.25,1.71,1.52,3.63,2.2,5.46,1.4C178.46,426.62,179.07,424.18,178.24,420.94Z" style="opacity:0.1"></path></g></g><g id="freepik--Character--inject-12"><g id="freepik--character--inject-12"><path d="M456,330.67c.66.26.8,1.54.84,4.06,0,1.91.37,5.25-1.88,5.87s-5.52.2-6.91-1.63c-1.74-2.29-2.9-4.29-5.39-7.09-2.16-2.43-4.51-4.7-5.33-8.05-.74-3,0-4.32,2-5.15,2.85-1.14,7.2,2.89,9.4,3.56C450.64,322.82,455.31,330.4,456,330.67Z" style="fill:#263238"></path><path d="M456,328.33l-.07,3.1a7.58,7.58,0,0,1-7.83,0c-.13-.3-.71-4.45-.71-4.45Z" style="fill:#ffa8a7"></path><path d="M430.49,348s.82,2.71,1.25,5.08c.34,1.88.81,5,.13,6.41s-3.27,2.25-7.23,2.13c-2.57-.08-6.61,1.57-9.39,3s-8.76,2-11.75,1.59c-3.52-.49-7.12-2.62-7.66-4.09s.25-3,8.65-6.33c.07,0,11.64-3.5,15.76-7.85Z" style="fill:#263238"></path><path d="M430.56,344.6s-.06,2.3-.08,3.61-1.61,3.24-5.62,3c-2.82-.16-4.77-1-4.61-3.28l.08-3.35Z" style="fill:#ffa8a7"></path><path d="M459,287.28a84.39,84.39,0,0,0-3.29-16.21s1.42-13.89,2.24-27.07c.9-14.24,1.73-21.57-1.07-42.14,0,0-43.66-3.92-44.85,12.54s.5,58.45.88,65.7,1.49,13.67,2.72,25.44c1.21,11.61,4.74,39,4.74,39a10.85,10.85,0,0,0,10.23,0s4-32.87,3.83-41.23a71.46,71.46,0,0,0-2.76-18.29s1.18-13.57,2.22-25.37,2-17.45,2.27-22.59l1-.46s.55,20.4.93,27.65,1.38,14.22,3.17,27.71c1.55,11.7,6.4,36.49,6.4,36.49,5.19,3,8.4-.18,8.4-.18S460.15,297.43,459,287.28Z" style="fill:#455a64"></path><path d="M436.12,237.12s11.28-5.24,17-10.07c0,0-5.34,7.18-12.22,10.27,0,0-3,25.27-3,24.76l-.84-25Z" style="fill:#37474f"></path><polygon points="428.3 143.21 430 158.28 444.24 157.56 442.65 139.97 428.3 143.21" style="fill:#ffa8a7"></polygon><path d="M449.6,149c5.3-.25,8,.55,10.37,5.12s3.32,18.23,4.14,25.27,1,12-1.86,12.73-14.18,1-14.18,1Z" style="fill:#455a64"></path><path d="M458.55,156.79c-.77-4.22-6.32-8.65-11.51-7.81l-3.52.6c-.63,2.53-7.57,4.12-14.21,2.56-2,.52-8.59,1.76-10.25,2.31-4.78,1.58-6.74,6.28-7.49,21.84,0,0,.38,35.23.2,42.25,11.78,5,24.14,5.1,31,3.77,14.29-2.79,16.14-8.65,16.14-8.65l-2.13-16.12S460.28,166.33,458.55,156.79Z" style="fill:#FFA732"></path><path d="M458.55,156.79c-.77-4.22-6.32-8.65-11.51-7.81l-3.52.6c-.63,2.53-7.57,4.12-14.21,2.56-2,.52-8.59,1.76-10.25,2.31-4.78,1.58-6.74,6.28-7.49,21.84,0,0,.38,35.23.2,42.25,11.78,5,24.14,5.1,31,3.77,14.29-2.79,16.14-8.65,16.14-8.65l-2.13-16.12S460.28,166.33,458.55,156.79Z" style="opacity:0.2"></path><path d="M428.86,148.18l.11.95a21.28,21.28,0,0,0,8.74,0c4.62-1,5.56-2.34,5.56-2.34l-.1-1.08s1.15-.42,1.76,1.35a21.6,21.6,0,0,1,.67,2.16s.53,3.24-4.91,4.89a16.83,16.83,0,0,1-13.54-1.48l-2.13.45s1.84-4.25,2.4-5.11a1.43,1.43,0,0,1,1.34-.74Z" style="fill:#455a64"></path><g id="freepik--device-2--inject-12"><path d="M368.46,175.64l-.43-.23a1.91,1.91,0,0,1-.81-.81l-8.92-25.09a.48.48,0,0,1,.28-.64l11.82-6.57a1.59,1.59,0,0,1,1.09.18l.43.22a1.87,1.87,0,0,1,.81.82l8.92,25.09a.49.49,0,0,1-.28.64l-11.82,6.57A1.71,1.71,0,0,1,368.46,175.64Z" style="fill:#FFA732"></path><path d="M368.46,175.64l-.43-.23a1.91,1.91,0,0,1-.81-.81l-8.92-25.09a.48.48,0,0,1,.28-.64l11.82-6.57a1.59,1.59,0,0,1,1.09.18l.43.22a1.87,1.87,0,0,1,.81.82l8.92,25.09a.49.49,0,0,1-.28.64l-11.82,6.57A1.71,1.71,0,0,1,368.46,175.64Z" style="opacity:0.2"></path><path d="M369.46,175.84a1.89,1.89,0,0,1-1-.2l-.43-.23a1.82,1.82,0,0,1-.81-.82l-8.92-25.08a.58.58,0,0,1,0-.39l1.7.89a.52.52,0,0,0,0,.39l8.92,25.08A.53.53,0,0,0,369.46,175.84Z" style="fill:#FFA732"></path><path d="M369.46,175.84a1.89,1.89,0,0,1-1-.2l-.43-.23a1.82,1.82,0,0,1-.81-.82l-8.92-25.08a.58.58,0,0,1,0-.39l1.7.89a.52.52,0,0,0,0,.39l8.92,25.08A.53.53,0,0,0,369.46,175.84Z" style="opacity:0.4"></path><path d="M360,150.4l8.93,25.08a.51.51,0,0,0,.63.34l11.82-6.57a.49.49,0,0,0,.28-.64l-8.92-25.09a.51.51,0,0,0-.63-.33l-11.83,6.56A.5.5,0,0,0,360,150.4Z" style="fill:#FFA732"></path><path d="M360,150.4l8.93,25.08a.51.51,0,0,0,.63.34l11.82-6.57a.49.49,0,0,0,.28-.64l-8.92-25.09a.51.51,0,0,0-.63-.33l-11.83,6.56A.5.5,0,0,0,360,150.4Z" style="opacity:0.30000000000000004"></path><path d="M361.65,151.83,372.17,146a.44.44,0,0,1,.54.29l7.18,20.22a.43.43,0,0,1-.24.55l-10.48,6a.43.43,0,0,1-.54-.28l-7.23-20.36A.43.43,0,0,1,361.65,151.83Z" style="fill:#fff"></path><path d="M365.91,147.25a.34.34,0,0,1,.45.15.31.31,0,0,1-.11.45.35.35,0,0,1-.34-.6Z" style="fill:#263238"></path><path d="M365.43,148.64c.59-.31,1.61-.9,2.17-1.22a.21.21,0,0,1,.28.08.2.2,0,0,1-.08.27L365.62,149a.21.21,0,0,1-.27-.08A.19.19,0,0,1,365.43,148.64Z" style="fill:#263238"></path><path d="M364.88,148.94a.2.2,0,0,1,.26.08.19.19,0,0,1-.06.26.2.2,0,0,1-.2-.34Z" style="fill:#263238"></path><path d="M375.16,170.55a.69.69,0,0,1,.84.44.65.65,0,0,1-.38.86.68.68,0,0,1-.85-.44A.66.66,0,0,1,375.16,170.55Z" style="fill:#263238"></path><path d="M368.81,151.85l1.71,2.26a.23.23,0,0,0,.26.09l2.11-.91c.22-.1.42.25.34.59l-.79,3.22a.58.58,0,0,0,0,.41l1.24,2.92c.13.31,0,.71-.25.68l-2.2-.26a.24.24,0,0,0-.23.16l-1.35,2.72c-.14.28-.43.18-.49-.17l-.56-3.39a.46.46,0,0,0-.18-.31l-2.07-1.24a.58.58,0,0,1-.06-.79l1.85-1.83a.55.55,0,0,0,.13-.35l.06-3.49C368.37,151.8,368.63,151.61,368.81,151.85Z" style="fill:#FFA732"></path></g><path d="M419.06,154.45c-6.52.56-9.3,1.75-14.19,10.57-5.31,9.58-15.51,26.9-16.81,29.09-1.8,3-2.14,7.67-.58,10.47,1.45,2.61,6,3.8,11.27-2.1,6.21-7,17.76-24.14,17.76-24.14S426.33,165.4,419.06,154.45Z" style="fill:#ffa8a7"></path><path d="M390.18,206.58c-5-.6-16.66-16.43-20-21.6a36.81,36.81,0,0,0-10.11-10.66,7.35,7.35,0,0,1-2-2,5.24,5.24,0,0,1-.57-2.52,21.66,21.66,0,0,0-.06-3.42,8.38,8.38,0,0,1-.3-2c.06-.65.39-1.25.5-1.9a11.29,11.29,0,0,0-.08-2.39,3,3,0,0,1,.31-1.55,6.34,6.34,0,0,1,1.06-1.2,13.61,13.61,0,0,1,1.66-1.2l1.72,4.72,1.66,4.52c.63.59,1.69,1.74,2.39.56a2.42,2.42,0,0,0,.27-1c.12-1.15,0-2.33.23-3.46a4.44,4.44,0,0,1,.86-2c.3-.36,1.19-1.19,1.68-.76a.92.92,0,0,1,.26.52c.12.54-.06,1.06,0,1.58.09.67.33,1.34.46,2a28.57,28.57,0,0,1,.48,4.12c0,1,0,2,.15,3.05a6.92,6.92,0,0,0,1.21,3.3c1.3,1.86,18.71,18.54,18.71,18.54Z" style="fill:#ffa8a7"></path><path d="M420.31,154.11c-3.95-.1-8.69.53-12.37,5.3s-18.38,30.74-18.38,30.74l-8.25-7.4a14.37,14.37,0,0,0-6.34,9,89.11,89.11,0,0,0,7.47,10.14c3.49,3.83,7.38,6.48,10.57,5.31s6.44-3.71,13.31-13.27,14.37-20.85,14.37-20.85S425.42,162,420.31,154.11Z" style="fill:#455a64"></path><path d="M418.27,124.75s-3.55,5.4-3.15,5.93,3,1,3,1Z" style="fill:#f28f8f"></path><path d="M419.94,128.22a4.24,4.24,0,1,1,4.23-4.24A4.24,4.24,0,0,1,419.94,128.22Zm0-7.53a3.3,3.3,0,1,0,3.29,3.29A3.3,3.3,0,0,0,419.94,120.69Z" style="fill:#263238"></path><path d="M428.14,109.84c-7.19,1.51-9.27,4.68-9.94,16.1-.71,11.94.51,15.69,2.07,17.3,1.06,1.08,7,1.28,9.91.46,3.72-1,12.11-4,16-10,4.63-7.07,5.84-16.64.89-20.57C440.15,107.6,431.07,109.22,428.14,109.84Z" style="fill:#ffa8a7"></path><path d="M428.39,144l-.33-2.19a14.24,14.24,0,0,1-7.37,1.67C422.06,144.18,425.64,144.38,428.39,144Z" style="fill:#f28f8f"></path><polygon points="416.1 123.1 428.88 124.75 428.37 125.65 416.1 124.06 416.1 123.1" style="fill:#263238"></polygon><path d="M417.75,114.57a5,5,0,0,0,.56,3.18,5.12,5.12,0,0,0,4.81,2.54c-.33,0,.91,1.61,1,1.7a2.58,2.58,0,0,0,1.88.73c.26,1.6.14,3.27,1.92,4,0,0,1.13-4.41,4.85-3.85s4.25,5.33,1.89,8.22-4.53,1.81-4.55,1.79c.21.11.29,1.52.36,1.78a13.26,13.26,0,0,0,1,2.42,11.53,11.53,0,0,0,3.37,3.94A9.74,9.74,0,0,0,438.9,143c1.35.22,2.93-.39,4.29-.57a75.28,75.28,0,0,0,8.61-15.08,20.73,20.73,0,0,0,2.07-7.54c0-2.13-.06-4.41-1.37-6.21a6.93,6.93,0,0,0-4.66-2.78,7.42,7.42,0,0,0-4-5.5,13.55,13.55,0,0,0-6.86-1.36c-2.36.06-4.7.47-7,.71a76.38,76.38,0,0,1-14.58-.31.81.81,0,0,0-.51.06.82.82,0,0,0-.29.52c-.76,3.25.75,6.61,4.13,7.41A4.87,4.87,0,0,0,417.75,114.57Z" style="fill:#263238"></path><path d="M427.87,129.27l.13-5a2.5,2.5,0,1,0-.13,5Z" style="fill:#263238"></path></g></g></svg>