<svg width="518" height="370" viewBox="0 0 518 370" fill="none" xmlns="http://www.w3.org/2000/svg">
<path opacity="0.1" d="M413.749 351.784C429.135 352.428 445.207 352.881 459.12 345.38C473.032 337.88 483.788 319.707 479.123 303C477.6 297.553 474.634 292.806 472.133 287.848C459.629 263.051 459.049 231 470.642 205.634C479.565 186.107 494.691 171.247 505.58 153.054C516.469 134.862 522.657 109.647 511.945 91.3181C504.61 78.7686 490.999 72.6624 477.813 71.1824C464.626 69.7025 451.365 72.0332 438.121 72.6322C412.349 73.7584 386.687 68.2394 363.057 56.4884C330.527 40.2691 324.703 34.8127 296.255 12.6869C278.749 -0.929012 259.841 -0.505696 255.636 0.365173C248.178 1.91059 242.755 8.92286 236.917 14.4602C218.277 32.0135 192.471 35.2905 168.276 36.106C144.081 36.9215 118.881 36.2923 97.0101 48.1069C77.9144 58.4214 63.2141 77.6108 54.0735 99.2869C44.9329 120.963 40.3211 129.068 38.825 153.054C37.9397 167.33 36.3378 165.622 43.1048 211.418C48.1554 226.444 58.3982 238.409 69.1412 248.87C80.3667 259.804 92.6013 269.71 106.461 275.61C123.015 282.658 140.987 283.664 158.613 285.336C194.757 288.769 230.62 295.318 265.892 304.928C299.369 314.029 336.127 323.971 366.616 342.511C381.918 351.819 396.499 351.079 413.749 351.784Z" fill="#F9A826"/>
<path d="M455.045 89.9907H351.133V298.999H455.045V89.9907Z" fill="#E6E6E6"/>
<path d="M360.839 288.297H445.338V100.693H360.839V288.297Z" fill="white"/>
<path d="M417.985 140.93H393.307V143.457H417.985V140.93Z" fill="#E6E6E6"/>
<path d="M436.319 149.671H393.307V152.198H436.319V149.671Z" fill="#E6E6E6"/>
<path d="M436.277 158.413H393.307V160.94H436.277V158.413Z" fill="#E6E6E6"/>
<path d="M388.193 140.968H369.859V161.183H388.193V140.968Z" fill="#E6E6E6"/>
<path d="M417.985 184.369H393.307V186.896H417.985V184.369Z" fill="#E6E6E6"/>
<path d="M436.319 193.11H393.307V195.637H436.319V193.11Z" fill="#E6E6E6"/>
<path d="M436.277 201.852H393.307V204.379H436.277V201.852Z" fill="#E6E6E6"/>
<path d="M388.193 184.406H369.859V204.621H388.193V184.406Z" fill="#E6E6E6"/>
<path d="M417.985 227.807H393.307V230.334H417.985V227.807Z" fill="#E6E6E6"/>
<path d="M436.319 236.549H393.307V239.076H436.319V236.549Z" fill="#E6E6E6"/>
<path d="M436.277 245.29H393.307V247.817H436.277V245.29Z" fill="#E6E6E6"/>
<path d="M388.193 227.845H369.859V248.06H388.193V227.845Z" fill="#E6E6E6"/>
<path d="M165.006 89.9907H61.0947V298.999H165.006V89.9907Z" fill="#E6E6E6"/>
<path d="M70.8008 288.297H155.3V100.693H70.8008V288.297Z" fill="white"/>
<path d="M127.947 140.93H103.269V143.457H127.947V140.93Z" fill="#E6E6E6"/>
<path d="M146.28 149.671H103.269V152.198H146.28V149.671Z" fill="#E6E6E6"/>
<path d="M146.238 158.413H103.269V160.94H146.238V158.413Z" fill="#E6E6E6"/>
<path d="M98.1544 140.968H79.8208V161.183H98.1544V140.968Z" fill="#E6E6E6"/>
<path d="M127.947 184.369H103.269V186.896H127.947V184.369Z" fill="#E6E6E6"/>
<path d="M146.28 193.11H103.269V195.637H146.28V193.11Z" fill="#E6E6E6"/>
<path d="M146.238 201.852H103.269V204.379H146.238V201.852Z" fill="#E6E6E6"/>
<path d="M98.1544 184.406H79.8208V204.621H98.1544V184.406Z" fill="#E6E6E6"/>
<path d="M127.947 227.807H103.269V230.334H127.947V227.807Z" fill="#E6E6E6"/>
<path d="M146.28 236.549H103.269V239.076H146.28V236.549Z" fill="#E6E6E6"/>
<path d="M146.238 245.29H103.269V247.817H146.238V245.29Z" fill="#E6E6E6"/>
<path d="M98.1544 227.845H79.8208V248.06H98.1544V227.845Z" fill="#E6E6E6"/>
<path d="M253.5 315.997C393.504 315.997 507 310.924 507 304.665C507 298.407 393.504 293.333 253.5 293.333C113.496 293.333 0 298.407 0 304.665C0 310.924 113.496 315.997 253.5 315.997Z" fill="#E6E6E6"/>
<path d="M328.805 22H187.335V306.554H328.805V22Z" fill="#3F3D56"/>
<path d="M193.448 299.314H322.691V29.2397H193.448V299.314Z" fill="white"/>
<path d="M278.35 91.3511H244.752V94.7913H278.35V91.3511Z" fill="#F9A826"/>
<path d="M303.31 103.252H244.752V106.692H303.31V103.252Z" fill="#E6E6E6"/>
<path d="M303.253 115.153H244.752V118.593H303.253V115.153Z" fill="#E6E6E6"/>
<path d="M237.789 91.4021H212.829V118.924H237.789V91.4021Z" fill="#F9A826"/>
<path d="M278.35 150.49H244.752V153.93H278.35V150.49Z" fill="#F9A826"/>
<path d="M303.31 162.391H244.752V165.832H303.31V162.391Z" fill="#E6E6E6"/>
<path d="M303.253 174.292H244.752V177.732H303.253V174.292Z" fill="#E6E6E6"/>
<path d="M237.789 150.541H212.829V178.064H237.789V150.541Z" fill="#F9A826"/>
<path d="M278.35 209.63H244.752V213.07H278.35V209.63Z" fill="#F9A826"/>
<path d="M303.31 221.531H244.752V224.971H303.31V221.531Z" fill="#E6E6E6"/>
<path d="M303.253 233.432H244.752V236.872H303.253V233.432Z" fill="#E6E6E6"/>
<path d="M237.789 209.681H212.829V237.203H237.789V209.681Z" fill="#F9A826"/>
<path d="M206.399 223.769L204.687 231.953C204.687 231.953 205.258 250.839 200.69 248.951C196.122 247.062 197.264 230.694 197.264 230.694L201.261 222.51L206.399 223.769Z" fill="#FFB8B8"/>
<path d="M180.993 134.059C187.299 134.059 192.411 128.422 192.411 121.468C192.411 114.514 187.299 108.877 180.993 108.877C174.686 108.877 169.574 114.514 169.574 121.468C169.574 128.422 174.686 134.059 180.993 134.059Z" fill="#FFB8B8"/>
<path d="M172.143 124.93L171.001 143.187L185.275 145.076C185.275 145.076 185.275 129.967 186.416 128.078C187.558 126.19 172.143 124.93 172.143 124.93Z" fill="#FFB8B8"/>
<path d="M203.83 148.538L185.341 139.905C185.341 139.905 176.51 132.391 171.329 137.946L169.003 141.613C169.003 141.613 148.449 150.427 148.449 157.352L156.442 191.977C156.442 191.977 151.874 211.493 158.726 212.752L195.837 216.529C195.837 216.529 200.975 209.604 196.408 200.791L198.121 180.016L203.83 148.538Z" fill="#575A89"/>
<path d="M191.27 149.168L203.83 148.538C203.83 148.538 207.827 149.797 210.682 161.759C213.536 173.72 214.107 193.236 214.107 193.236L207.256 228.49L198.692 227.231L202.117 193.236L196.408 170.572L191.27 149.168Z" fill="#575A89"/>
<path d="M155.3 152.945L149.107 155.072C149.107 155.072 143.881 163.647 143.881 168.054C143.881 172.461 141.597 205.827 141.597 205.827L156.442 232.897L161.009 219.677L151.874 202.679L159.297 181.904L155.3 152.945Z" fill="#575A89"/>
<path d="M197.55 215.27L156.501 211.288C156.501 211.288 152.446 239.822 153.016 251.154C153.587 262.486 154.158 280.113 154.158 280.113L149.591 356.917L167.29 354.399L169.574 290.815L176.996 256.19L185.56 300.258L191.27 356.917L206.685 355.029L201.547 286.408C201.547 286.408 206.114 224.713 197.55 215.27Z" fill="#2F2E41"/>
<path d="M203.259 351.881L208.398 353.77C208.398 353.77 219.246 350.622 216.391 358.806C213.536 366.99 205.543 365.731 205.543 365.731C205.543 365.731 195.837 373.915 191.84 367.62L194.124 354.399L203.259 351.881Z" fill="#2F2E41"/>
<path d="M161.58 351.881L166.719 353.77C166.719 353.77 177.567 350.622 174.712 358.806C171.857 366.99 163.864 365.731 163.864 365.731C163.864 365.731 154.158 373.915 150.162 367.62L152.445 354.399L161.58 351.881Z" fill="#2F2E41"/>
<path d="M172.143 132.485C172.143 132.485 160.153 123.042 166.433 111.71C170.79 103.849 179.819 104.471 184.94 105.589C186.32 105.87 187.617 106.517 188.719 107.473C189.822 108.43 190.697 109.668 191.269 111.08C192.126 113.284 192.126 115.487 188.7 115.487C181.849 115.487 185.275 121.153 185.275 121.153C185.275 121.153 180.707 122.412 181.849 126.819C182.991 131.226 172.143 132.485 172.143 132.485Z" fill="#2F2E41"/>
</svg>
