<svg width="468" height="412" viewBox="0 0 468 412" fill="none" xmlns="http://www.w3.org/2000/svg">
<g clip-path="url(#clip0)">
<path opacity="0.1" d="M101.492 0.309491C86.4425 -0.320794 70.7222 -0.763963 57.1146 6.57296C43.507 13.9099 32.9864 31.6859 37.5497 48.029C39.039 53.3569 41.9398 58.0003 44.3859 62.8506C56.6167 87.1067 57.1839 118.458 45.845 143.271C37.1167 162.372 22.3229 176.908 11.6723 194.703C1.02182 212.499 -5.0308 237.164 5.44655 255.093C12.6205 267.368 25.9337 273.341 38.8312 274.789C51.7287 276.237 64.6999 273.957 77.6537 273.371C102.861 272.269 127.96 277.668 151.073 289.163C182.89 305.028 210.3 332.17 243.802 342.643C247.824 343.899 252.028 344.913 256.141 344.061C263.436 342.55 268.74 335.69 274.45 330.274C292.682 313.104 317.923 309.898 341.588 309.1C365.253 308.302 389.9 308.918 411.292 297.361C429.97 287.272 444.348 268.501 453.288 247.298C462.229 226.095 466.112 202.533 467.576 179.069C468.442 165.105 468.411 150.687 464.017 137.613C459.077 122.915 449.058 111.21 438.551 100.978C427.571 90.2828 415.605 80.5921 402.049 74.8211C385.857 67.9273 368.279 66.9425 351.039 65.3077C315.686 61.9496 280.609 55.543 246.11 46.1431C213.366 37.2403 177.414 27.5152 147.592 9.3797C132.625 0.275023 118.364 0.998866 101.492 0.309491Z" fill="#F9A826"/>
<g opacity="0.1">
<path opacity="0.1" d="M309.073 310.056C309.073 310.056 310.606 285.628 322.694 272.308C327.797 266.759 331.179 259.475 332.331 251.553C332.852 247.787 333.069 243.975 332.981 240.164" fill="#F9A826"/>
<path opacity="0.1" d="M340.553 231.719C339.665 234.417 332.803 240.415 332.803 240.415C332.803 240.415 331.071 230.768 331.967 228.07C332.393 226.775 333.253 225.725 334.359 225.152C335.465 224.578 336.726 224.528 337.864 225.012C339.003 225.496 339.926 226.474 340.43 227.732C340.934 228.99 340.978 230.424 340.553 231.719Z" fill="#F9A826"/>
<path opacity="0.1" d="M342.744 249.677C340.709 251.39 332.084 252.183 332.084 252.183C332.084 252.183 335.245 243.019 337.28 241.301C338.258 240.521 339.465 240.206 340.644 240.423C341.823 240.64 342.882 241.371 343.594 242.462C344.306 243.553 344.615 244.917 344.456 246.263C344.298 247.61 343.683 248.833 342.744 249.672V249.677Z" fill="#F9A826"/>
<path opacity="0.1" d="M334.046 275.07C331.526 275.386 323.729 271.131 323.729 271.131C323.729 271.131 330.526 265.035 333.041 264.73C334.211 264.657 335.36 265.096 336.254 265.957C337.147 266.818 337.717 268.036 337.845 269.36C337.974 270.684 337.652 272.013 336.945 273.075C336.238 274.137 335.201 274.851 334.046 275.07Z" fill="#F9A826"/>
<path opacity="0.1" d="M323.659 292.6C321.226 293.393 312.905 290.685 312.905 290.685C312.905 290.685 318.698 283.372 321.131 282.58C321.715 282.368 322.331 282.292 322.941 282.356C323.552 282.42 324.145 282.623 324.685 282.952C325.226 283.281 325.703 283.73 326.088 284.273C326.473 284.815 326.758 285.44 326.928 286.111C327.097 286.781 327.146 287.483 327.072 288.175C326.999 288.867 326.804 289.536 326.499 290.141C326.194 290.746 325.786 291.275 325.298 291.698C324.81 292.12 324.253 292.427 323.659 292.6Z" fill="#F9A826"/>
<path opacity="0.1" d="M322.897 248.874C323.98 251.474 331.262 256.787 331.262 256.787C331.262 256.787 332.266 247.013 331.18 244.408C330.638 243.199 329.703 242.278 328.573 241.84C327.444 241.403 326.209 241.483 325.131 242.065C324.052 242.646 323.216 243.683 322.799 244.954C322.382 246.226 322.417 247.632 322.897 248.874Z" fill="#F9A826"/>
<path opacity="0.1" d="M310.978 269.551C312.71 271.663 321.044 274.258 321.044 274.258C321.044 274.258 319.429 264.587 317.71 262.47C316.884 261.46 315.739 260.864 314.526 260.812C313.314 260.761 312.133 261.258 311.242 262.195C310.352 263.132 309.824 264.432 309.774 265.811C309.725 267.189 310.158 268.534 310.978 269.551Z" fill="#F9A826"/>
<path opacity="0.1" d="M301.821 291.453C303.198 293.866 311.043 298.027 311.043 298.027C311.043 298.027 310.887 288.178 309.506 285.771C308.828 284.654 307.793 283.882 306.622 283.619C305.451 283.357 304.236 283.623 303.235 284.363C302.235 285.103 301.527 286.258 301.263 287.582C300.999 288.906 301.199 290.294 301.821 291.453Z" fill="#F9A826"/>
<path opacity="0.1" d="M340.553 231.719C339.665 234.417 332.803 240.415 332.803 240.415C332.803 240.415 331.071 230.768 331.967 228.07C332.393 226.775 333.253 225.725 334.359 225.152C335.465 224.578 336.726 224.528 337.864 225.012C339.003 225.496 339.926 226.474 340.43 227.732C340.934 228.99 340.978 230.424 340.553 231.719Z" fill="#F9A826"/>
<path opacity="0.1" d="M342.744 249.677C340.709 251.39 332.084 252.183 332.084 252.183C332.084 252.183 335.245 243.019 337.28 241.301C338.258 240.521 339.465 240.206 340.644 240.423C341.823 240.64 342.882 241.371 343.594 242.462C344.306 243.553 344.615 244.917 344.456 246.263C344.298 247.61 343.683 248.833 342.744 249.672V249.677Z" fill="#F9A826"/>
<path opacity="0.1" d="M334.046 275.07C331.526 275.386 323.729 271.131 323.729 271.131C323.729 271.131 330.526 265.035 333.041 264.73C334.211 264.657 335.36 265.096 336.254 265.957C337.147 266.818 337.717 268.036 337.845 269.36C337.974 270.684 337.652 272.013 336.945 273.075C336.238 274.137 335.201 274.851 334.046 275.07Z" fill="#F9A826"/>
<path opacity="0.1" d="M323.659 292.6C321.226 293.393 312.905 290.685 312.905 290.685C312.905 290.685 318.698 283.372 321.131 282.58C321.715 282.368 322.331 282.292 322.941 282.356C323.552 282.42 324.145 282.623 324.685 282.952C325.226 283.281 325.703 283.73 326.088 284.273C326.473 284.815 326.758 285.44 326.928 286.111C327.097 286.781 327.146 287.483 327.072 288.175C326.999 288.867 326.804 289.536 326.499 290.141C326.194 290.746 325.786 291.275 325.298 291.698C324.81 292.12 324.253 292.427 323.659 292.6Z" fill="#F9A826"/>
<path opacity="0.1" d="M322.897 248.874C323.98 251.474 331.262 256.787 331.262 256.787C331.262 256.787 332.266 247.013 331.18 244.408C330.638 243.199 329.703 242.278 328.573 241.84C327.444 241.403 326.209 241.483 325.131 242.065C324.052 242.646 323.216 243.683 322.799 244.954C322.382 246.226 322.417 247.632 322.897 248.874Z" fill="#F9A826"/>
<path opacity="0.1" d="M310.978 269.551C312.71 271.663 321.044 274.258 321.044 274.258C321.044 274.258 319.429 264.587 317.71 262.47C316.884 261.46 315.739 260.864 314.526 260.812C313.314 260.761 312.133 261.258 311.242 262.195C310.352 263.132 309.824 264.432 309.774 265.811C309.725 267.189 310.158 268.534 310.978 269.551Z" fill="#F9A826"/>
<path opacity="0.1" d="M301.821 291.453C303.198 293.866 311.043 298.027 311.043 298.027C311.043 298.027 310.887 288.178 309.506 285.771C308.828 284.654 307.793 283.882 306.622 283.619C305.451 283.357 304.236 283.623 303.235 284.363C302.235 285.103 301.527 286.258 301.263 287.582C300.999 288.906 301.199 290.294 301.821 291.453Z" fill="#F9A826"/>
</g>
<g opacity="0.1">
<path opacity="0.1" d="M313.316 217.591C313.316 217.591 314.849 193.163 326.937 179.843C332.038 174.292 335.42 167.01 336.574 159.088C337.099 155.322 337.316 151.51 337.224 147.699" fill="#F9A826"/>
<path opacity="0.1" d="M344.796 139.254C343.93 141.947 337.05 147.945 337.05 147.945C337.05 147.945 335.319 138.299 336.211 135.605C336.636 134.31 337.496 133.261 338.602 132.687C339.708 132.114 340.969 132.063 342.107 132.547C343.246 133.031 344.169 134.009 344.673 135.267C345.177 136.525 345.221 137.959 344.796 139.254Z" fill="#F9A826"/>
<path opacity="0.1" d="M347 157.207C344.969 158.926 336.34 159.713 336.34 159.713C336.34 159.713 339.501 150.555 341.536 148.836C342.018 148.406 342.57 148.09 343.161 147.907C343.752 147.723 344.37 147.677 344.977 147.769C345.584 147.862 346.168 148.092 346.696 148.446C347.224 148.799 347.684 149.27 348.049 149.829C348.414 150.389 348.677 151.026 348.822 151.702C348.967 152.379 348.991 153.082 348.893 153.77C348.796 154.458 348.578 155.116 348.252 155.707C347.927 156.297 347.501 156.807 347 157.207Z" fill="#F9A826"/>
<path opacity="0.1" d="M338.289 182.606C335.773 182.921 327.976 178.666 327.976 178.666C327.976 178.666 334.773 172.575 337.289 172.265C337.893 172.177 338.507 172.226 339.094 172.411C339.681 172.595 340.23 172.911 340.709 173.339C341.188 173.768 341.586 174.301 341.882 174.907C342.178 175.513 342.364 176.179 342.431 176.868C342.497 177.557 342.442 178.254 342.269 178.918C342.096 179.583 341.808 180.201 341.423 180.738C341.037 181.274 340.561 181.718 340.023 182.043C339.485 182.368 338.895 182.567 338.289 182.63V182.606Z" fill="#F9A826"/>
<path opacity="0.1" d="M327.902 200.135C325.469 200.928 317.148 198.22 317.148 198.22C317.148 198.22 322.945 190.908 325.374 190.11C326.537 189.749 327.779 189.925 328.829 190.598C329.88 191.271 330.655 192.387 330.987 193.706C331.319 195.024 331.181 196.438 330.603 197.642C330.025 198.845 329.053 199.741 327.898 200.135H327.902Z" fill="#F9A826"/>
<path opacity="0.1" d="M327.14 156.404C328.223 159.009 335.509 164.322 335.509 164.322C335.509 164.322 336.509 154.543 335.427 151.943C335.177 151.311 334.818 150.742 334.373 150.269C333.927 149.796 333.403 149.429 332.831 149.189C332.259 148.95 331.65 148.842 331.041 148.873C330.432 148.904 329.835 149.072 329.284 149.369C328.733 149.666 328.239 150.084 327.832 150.6C327.425 151.117 327.113 151.72 326.913 152.375C326.714 153.03 326.631 153.724 326.67 154.416C326.709 155.108 326.869 155.784 327.14 156.404Z" fill="#F9A826"/>
<path opacity="0.1" d="M315.221 177.081C316.953 179.198 325.292 181.788 325.292 181.788C325.292 181.788 323.672 172.117 321.954 170.005C321.12 169.03 319.984 168.464 318.789 168.428C317.594 168.392 316.433 168.888 315.555 169.811C314.677 170.734 314.151 172.01 314.088 173.369C314.026 174.727 314.432 176.059 315.221 177.081Z" fill="#F9A826"/>
<path opacity="0.1" d="M306.064 198.988C307.445 201.401 315.286 205.562 315.286 205.562C315.286 205.562 315.13 195.714 313.749 193.306C313.43 192.711 313.009 192.195 312.511 191.788C312.013 191.381 311.448 191.092 310.85 190.938C310.253 190.784 309.634 190.767 309.03 190.89C308.427 191.012 307.851 191.271 307.337 191.651C306.823 192.031 306.381 192.525 306.038 193.102C305.695 193.68 305.457 194.33 305.338 195.014C305.219 195.698 305.222 196.402 305.347 197.085C305.472 197.767 305.716 198.415 306.064 198.988Z" fill="#F9A826"/>
<path opacity="0.1" d="M344.796 139.254C343.93 141.947 337.05 147.945 337.05 147.945C337.05 147.945 335.319 138.299 336.211 135.605C336.636 134.31 337.496 133.261 338.602 132.687C339.708 132.114 340.969 132.063 342.107 132.547C343.246 133.031 344.169 134.009 344.673 135.267C345.177 136.525 345.221 137.959 344.796 139.254Z" fill="#F9A826"/>
<path opacity="0.1" d="M347 157.207C344.969 158.926 336.34 159.713 336.34 159.713C336.34 159.713 339.501 150.555 341.536 148.836C342.018 148.406 342.57 148.09 343.161 147.907C343.752 147.723 344.37 147.677 344.977 147.769C345.584 147.862 346.168 148.092 346.696 148.446C347.224 148.799 347.684 149.27 348.049 149.829C348.414 150.389 348.677 151.026 348.822 151.702C348.967 152.379 348.991 153.082 348.893 153.77C348.796 154.458 348.578 155.116 348.252 155.707C347.927 156.297 347.501 156.807 347 157.207Z" fill="#F9A826"/>
<path opacity="0.1" d="M338.289 182.606C335.773 182.921 327.976 178.666 327.976 178.666C327.976 178.666 334.773 172.575 337.289 172.265C337.893 172.177 338.507 172.226 339.094 172.411C339.681 172.595 340.23 172.911 340.709 173.339C341.188 173.768 341.586 174.301 341.882 174.907C342.178 175.513 342.364 176.179 342.431 176.868C342.497 177.557 342.442 178.254 342.269 178.918C342.096 179.583 341.808 180.201 341.423 180.738C341.037 181.274 340.561 181.718 340.023 182.043C339.485 182.368 338.895 182.567 338.289 182.63V182.606Z" fill="#F9A826"/>
<path opacity="0.1" d="M327.902 200.135C325.469 200.928 317.148 198.22 317.148 198.22C317.148 198.22 322.945 190.908 325.374 190.11C326.537 189.749 327.779 189.925 328.829 190.598C329.88 191.271 330.655 192.387 330.987 193.706C331.319 195.024 331.181 196.438 330.603 197.642C330.025 198.845 329.053 199.741 327.898 200.135H327.902Z" fill="#F9A826"/>
<path opacity="0.1" d="M327.14 156.404C328.223 159.009 335.509 164.322 335.509 164.322C335.509 164.322 336.509 154.543 335.427 151.943C335.177 151.311 334.818 150.742 334.373 150.269C333.927 149.796 333.403 149.429 332.831 149.189C332.259 148.95 331.65 148.842 331.041 148.873C330.432 148.904 329.835 149.072 329.284 149.369C328.733 149.666 328.239 150.084 327.832 150.6C327.425 151.117 327.113 151.72 326.913 152.375C326.714 153.03 326.631 153.724 326.67 154.416C326.709 155.108 326.869 155.784 327.14 156.404Z" fill="#F9A826"/>
<path opacity="0.1" d="M315.221 177.081C316.953 179.198 325.292 181.788 325.292 181.788C325.292 181.788 323.672 172.117 321.954 170.005C321.12 169.03 319.984 168.464 318.789 168.428C317.594 168.392 316.433 168.888 315.555 169.811C314.677 170.734 314.151 172.01 314.088 173.369C314.026 174.727 314.432 176.059 315.221 177.081Z" fill="#F9A826"/>
<path opacity="0.1" d="M306.064 198.988C307.445 201.401 315.286 205.562 315.286 205.562C315.286 205.562 315.13 195.714 313.749 193.306C313.43 192.711 313.009 192.195 312.511 191.788C312.013 191.381 311.448 191.092 310.85 190.938C310.253 190.784 309.634 190.767 309.03 190.89C308.427 191.012 307.851 191.271 307.337 191.651C306.823 192.031 306.381 192.525 306.038 193.102C305.695 193.68 305.457 194.33 305.338 195.014C305.219 195.698 305.222 196.402 305.347 197.085C305.472 197.767 305.716 198.415 306.064 198.988Z" fill="#F9A826"/>
</g>
<g opacity="0.1">
<path opacity="0.1" d="M83.6413 249.598C83.6413 249.598 65.1501 237.061 60.1149 218.803C58.0527 211.123 53.8531 204.413 48.1482 199.682C45.4242 197.457 42.5256 195.522 39.4893 193.901" fill="#F9A826"/>
<path opacity="0.1" d="M36.2638 182.399C37.9956 184.511 39.6105 194.182 39.6105 194.182C39.6105 194.182 31.2589 191.597 29.5401 189.485C28.7528 188.463 28.347 187.133 28.4089 185.777C28.4707 184.42 28.9955 183.145 29.8714 182.222C30.7473 181.299 31.9054 180.801 33.0992 180.834C34.293 180.867 35.4283 181.428 36.2638 182.399Z" fill="#F9A826"/>
<path opacity="0.1" d="M51.3521 188.273C51.7851 191.11 48.5293 200.229 48.5293 200.229C48.5293 200.229 42.7538 192.897 42.3208 190.061C42.201 189.378 42.2025 188.676 42.3251 187.994C42.4477 187.313 42.689 186.666 43.0347 186.092C43.3804 185.518 43.8236 185.029 44.3382 184.653C44.8528 184.277 45.4283 184.021 46.0309 183.902C46.6335 183.783 47.2511 183.802 47.8471 183.958C48.4431 184.115 49.0056 184.405 49.5015 184.812C49.9974 185.22 50.4165 185.736 50.7344 186.33C51.0522 186.924 51.2622 187.585 51.3521 188.273Z" fill="#F9A826"/>
<path opacity="0.1" d="M67.3884 208.501C66.5225 211.2 59.643 217.202 59.643 217.202C59.643 217.202 57.9112 207.556 58.7988 204.863C58.9965 204.203 59.3085 203.595 59.7164 203.074C60.1243 202.554 60.6199 202.132 61.1737 201.833C61.7275 201.534 62.3283 201.365 62.9407 201.335C63.5531 201.305 64.1646 201.415 64.739 201.658C65.3134 201.901 65.839 202.273 66.2849 202.752C66.7307 203.23 67.0877 203.805 67.3348 204.443C67.5818 205.081 67.7138 205.769 67.723 206.466C67.7322 207.163 67.6185 207.855 67.3884 208.501Z" fill="#F9A826"/>
<path opacity="0.1" d="M76.4847 226.932C76.0171 229.764 70.1463 237.022 70.1463 237.022C70.1463 237.022 67.0075 227.848 67.4794 225.022C67.5911 224.349 67.8182 223.708 68.1477 223.136C68.4772 222.563 68.9026 222.07 69.3997 221.684C69.8968 221.298 70.4559 221.028 71.0449 220.888C71.634 220.748 72.2415 220.741 72.8328 220.868C73.4241 220.995 73.9876 221.254 74.4911 221.628C74.9947 222.003 75.4284 222.487 75.7675 223.052C76.1066 223.618 76.3445 224.254 76.4675 224.924C76.5906 225.594 76.5964 226.284 76.4847 226.957V226.932Z" fill="#F9A826"/>
<path opacity="0.1" d="M41.8012 208.049C44.3296 208.117 51.7807 203.124 51.7807 203.124C51.7807 203.124 44.5504 197.708 42.0177 197.639C40.8173 197.634 39.663 198.164 38.8025 199.116C37.9421 200.068 37.4443 201.366 37.416 202.73C37.3876 204.095 37.831 205.418 38.651 206.415C39.4709 207.413 40.602 208.004 41.8012 208.063V208.049Z" fill="#F9A826"/>
<path opacity="0.1" d="M52.6812 229.454C55.1144 228.656 60.9073 221.339 60.9073 221.339C60.9073 221.339 52.586 218.635 50.1528 219.433C49.0102 219.84 48.0528 220.739 47.4853 221.938C46.9179 223.137 46.7854 224.541 47.1162 225.85C47.447 227.159 48.2149 228.269 49.2556 228.942C50.2963 229.615 51.5274 229.799 52.6856 229.454H52.6812Z" fill="#F9A826"/>
<path opacity="0.1" d="M65.7648 248.603C68.2846 248.288 75.0775 242.202 75.0775 242.202C75.0775 242.202 67.2845 237.938 64.7604 238.263C64.1385 238.302 63.5301 238.484 62.9724 238.8C62.4147 239.115 61.9194 239.556 61.5167 240.097C61.1141 240.637 60.8126 241.265 60.6306 241.943C60.4487 242.62 60.3901 243.333 60.4585 244.037C60.5269 244.741 60.7208 245.422 61.0284 246.038C61.336 246.654 61.7508 247.192 62.2474 247.619C62.7441 248.046 63.3122 248.354 63.9169 248.523C64.5217 248.693 65.1505 248.72 65.7648 248.603Z" fill="#F9A826"/>
<path opacity="0.1" d="M36.2638 182.399C37.9956 184.511 39.6105 194.182 39.6105 194.182C39.6105 194.182 31.2589 191.597 29.5401 189.485C28.7528 188.463 28.347 187.133 28.4089 185.777C28.4707 184.42 28.9955 183.145 29.8714 182.222C30.7473 181.299 31.9054 180.801 33.0992 180.834C34.293 180.867 35.4283 181.428 36.2638 182.399Z" fill="#F9A826"/>
<path opacity="0.1" d="M51.3521 188.273C51.7851 191.11 48.5293 200.229 48.5293 200.229C48.5293 200.229 42.7538 192.897 42.3208 190.061C42.201 189.378 42.2025 188.676 42.3251 187.994C42.4477 187.313 42.689 186.666 43.0347 186.092C43.3804 185.518 43.8236 185.029 44.3382 184.653C44.8528 184.277 45.4283 184.021 46.0309 183.902C46.6335 183.783 47.2511 183.802 47.8471 183.958C48.4431 184.115 49.0056 184.405 49.5015 184.812C49.9974 185.22 50.4165 185.736 50.7344 186.33C51.0522 186.924 51.2622 187.585 51.3521 188.273Z" fill="#F9A826"/>
<path opacity="0.1" d="M67.3884 208.501C66.5225 211.2 59.643 217.202 59.643 217.202C59.643 217.202 57.9112 207.556 58.7988 204.863C58.9965 204.203 59.3085 203.595 59.7164 203.074C60.1243 202.554 60.6199 202.132 61.1737 201.833C61.7275 201.534 62.3283 201.365 62.9407 201.335C63.5531 201.305 64.1646 201.415 64.739 201.658C65.3134 201.901 65.839 202.273 66.2849 202.752C66.7307 203.23 67.0877 203.805 67.3348 204.443C67.5818 205.081 67.7138 205.769 67.723 206.466C67.7322 207.163 67.6185 207.855 67.3884 208.501Z" fill="#F9A826"/>
<path opacity="0.1" d="M76.4847 226.932C76.0171 229.764 70.1463 237.022 70.1463 237.022C70.1463 237.022 67.0075 227.848 67.4794 225.022C67.5911 224.349 67.8182 223.708 68.1477 223.136C68.4772 222.563 68.9026 222.07 69.3997 221.684C69.8968 221.298 70.4559 221.028 71.0449 220.888C71.634 220.748 72.2415 220.741 72.8328 220.868C73.4241 220.995 73.9876 221.254 74.4911 221.628C74.9947 222.003 75.4284 222.487 75.7675 223.052C76.1066 223.618 76.3445 224.254 76.4675 224.924C76.5906 225.594 76.5964 226.284 76.4847 226.957V226.932Z" fill="#F9A826"/>
<path opacity="0.1" d="M41.8012 208.049C44.3296 208.117 51.7807 203.124 51.7807 203.124C51.7807 203.124 44.5504 197.708 42.0177 197.639C40.8173 197.634 39.663 198.164 38.8025 199.116C37.9421 200.068 37.4443 201.366 37.416 202.73C37.3876 204.095 37.831 205.418 38.651 206.415C39.4709 207.413 40.602 208.004 41.8012 208.063V208.049Z" fill="#F9A826"/>
<path opacity="0.1" d="M52.6812 229.454C55.1144 228.656 60.9073 221.339 60.9073 221.339C60.9073 221.339 52.586 218.635 50.1528 219.433C49.0102 219.84 48.0528 220.739 47.4853 221.938C46.9179 223.137 46.7854 224.541 47.1162 225.85C47.447 227.159 48.2149 228.269 49.2556 228.942C50.2963 229.615 51.5274 229.799 52.6856 229.454H52.6812Z" fill="#F9A826"/>
<path opacity="0.1" d="M65.7648 248.603C68.2846 248.288 75.0775 242.202 75.0775 242.202C75.0775 242.202 67.2845 237.938 64.7604 238.263C64.1385 238.302 63.5301 238.484 62.9724 238.8C62.4147 239.115 61.9194 239.556 61.5167 240.097C61.1141 240.637 60.8126 241.265 60.6306 241.943C60.4487 242.62 60.3901 243.333 60.4585 244.037C60.5269 244.741 60.7208 245.422 61.0284 246.038C61.336 246.654 61.7508 247.192 62.2474 247.619C62.7441 248.046 63.3122 248.354 63.9169 248.523C64.5217 248.693 65.1505 248.72 65.7648 248.603Z" fill="#F9A826"/>
</g>
<path opacity="0.1" d="M310.307 397.055C322.737 403.206 337.903 399.463 352.009 399.897C353.935 399.956 355.983 400.138 357.529 401.201C359.074 402.265 359.841 403.984 360.901 405.461C364.854 410.946 372.955 412.709 380.033 411.778C387.112 410.848 393.602 407.765 400.283 405.421C411.829 401.364 425.026 399.512 436.416 403.944C437.46 404.348 438.581 404.816 439.681 404.653C442.179 404.294 442.924 401.349 444.668 399.67C447.82 396.632 454.67 397.459 456.055 393.456C456.865 391.112 454.999 388.709 452.964 387.109C445.171 380.983 434.044 379.974 423.857 380.919C413.669 381.864 403.655 384.469 393.416 384.479C380.657 384.479 368.331 380.481 355.697 378.841C346.948 377.709 337.397 377.856 329.192 381.19C320.3 384.794 318.343 392.914 310.307 397.055Z" fill="#F9A826"/>
<path opacity="0.1" d="M75.0776 378.191C96.2921 385.139 122.182 380.909 146.254 381.402C149.549 381.471 153.039 381.672 155.684 382.879C158.329 384.085 159.628 386.03 161.442 387.695C168.188 393.894 182.012 395.888 194.091 394.835C206.17 393.781 217.254 390.299 228.657 387.65C248.365 383.066 270.896 380.978 290.335 385.976C292.119 386.434 293.998 386.961 295.912 386.779C300.172 386.37 301.44 383.046 304.423 381.146C309.805 377.699 321.49 378.649 323.854 374.129C325.24 371.48 322.053 368.761 318.581 366.954C305.298 360.036 286.292 358.894 268.9 359.962C251.508 361.031 234.416 363.97 216.946 363.985C195.169 363.985 174.128 359.47 152.562 357.613C137.626 356.333 121.325 356.491 107.319 360.272C92.1358 364.354 88.7891 373.528 75.0776 378.191Z" fill="#F9A826"/>
<path opacity="0.1" d="M18.2921 395.219C24.3534 399.365 31.7135 396.844 38.5801 397.134C39.5196 397.173 40.5154 397.297 41.2687 398.011C42.022 398.725 42.3944 399.892 42.9096 400.886C44.8319 404.584 48.7717 405.776 52.2136 405.146C55.6556 404.515 58.8161 402.442 62.0675 400.857C67.6959 398.124 74.1078 396.878 79.6452 399.872C80.1198 400.217 80.6757 400.389 81.2385 400.364C82.4508 400.118 82.8144 398.134 83.663 397.001C85.1956 394.953 88.5294 395.524 89.2004 392.811C89.5944 391.23 88.6852 389.61 87.6981 388.532C83.9141 384.4 78.4936 383.721 73.5363 384.356C68.5791 384.991 63.7084 386.715 58.7252 386.715C52.521 386.715 46.5247 384.021 40.3768 382.913C36.1166 382.145 31.4711 382.244 27.4793 384.499C23.1541 386.961 22.2016 392.436 18.2921 395.219Z" fill="#F9A826"/>
<path d="M301.107 17.5642H99.9504C97.5309 17.5597 95.1342 18.0973 92.8974 19.1464C90.6605 20.1955 88.6272 21.7354 86.9137 23.6783C85.2002 25.6212 83.84 27.929 82.9108 30.4699C81.9816 33.0107 81.5016 35.7349 81.4982 38.4868V355.466C81.5085 361.021 83.4581 366.345 86.9183 370.265C90.3785 374.186 95.0661 376.383 99.9504 376.374H301.107C303.527 376.379 305.923 375.841 308.16 374.792C310.397 373.743 312.43 372.203 314.144 370.26C315.857 368.317 317.217 366.009 318.147 363.468C319.076 360.928 319.556 358.203 319.559 355.452V38.4868C319.556 35.7349 319.076 33.0107 318.147 30.4699C317.217 27.929 315.857 25.6212 314.144 23.6783C312.43 21.7354 310.397 20.1955 308.16 19.1464C305.923 18.0973 303.527 17.5597 301.107 17.5642Z" fill="url(#paint0_linear)"/>
<path d="M308.047 21.863H92.993C88.2107 21.863 84.334 26.2722 84.334 31.7112V363.32C84.334 368.759 88.2107 373.168 92.993 373.168H308.047C312.829 373.168 316.706 368.759 316.706 363.32V31.7112C316.706 26.2722 312.829 21.863 308.047 21.863Z" fill="#535461"/>
<path d="M304.9 55.0909H96.1405V339.936H304.9V55.0909Z" fill="#F6F7F9"/>
<path d="M199.576 41.2C201.142 41.2 202.412 39.756 202.412 37.9747C202.412 36.1934 201.142 34.7494 199.576 34.7494C198.01 34.7494 196.74 36.1934 196.74 37.9747C196.74 39.756 198.01 41.2 199.576 41.2Z" fill="#F6F7F9"/>
<path d="M199.576 365.649C204.272 365.649 208.079 361.32 208.079 355.978C208.079 350.637 204.272 346.307 199.576 346.307C194.88 346.307 191.073 350.637 191.073 355.978C191.073 361.32 194.88 365.649 199.576 365.649Z" fill="#F6F7F9"/>
<g opacity="0.2">
<path opacity="0.2" d="M304.9 55.0909H96.1405V69.2871H304.9V55.0909Z" fill="#F9A826"/>
</g>
<path d="M102.669 65.2197C104.14 65.2197 105.332 63.8639 105.332 62.1914C105.332 60.5189 104.14 59.1631 102.669 59.1631C101.199 59.1631 100.007 60.5189 100.007 62.1914C100.007 63.8639 101.199 65.2197 102.669 65.2197Z" fill="#F6F7F9"/>
<path d="M109.454 65.2197C110.924 65.2197 112.116 63.8639 112.116 62.1914C112.116 60.5189 110.924 59.1631 109.454 59.1631C107.983 59.1631 106.791 60.5189 106.791 62.1914C106.791 63.8639 107.983 65.2197 109.454 65.2197Z" fill="#F6F7F9"/>
<path d="M116.234 65.2197C117.704 65.2197 118.896 63.8639 118.896 62.1914C118.896 60.5189 117.704 59.1631 116.234 59.1631C114.763 59.1631 113.571 60.5189 113.571 62.1914C113.571 63.8639 114.763 65.2197 116.234 65.2197Z" fill="#F6F7F9"/>
<path d="M296.773 138.825H102.375V139.564H296.773V138.825Z" fill="#DCE0ED"/>
<path d="M296.773 155.976H102.375V156.715H296.773V155.976Z" fill="#DCE0ED"/>
<path d="M296.773 173.132H102.375V173.87H296.773V173.132Z" fill="#DCE0ED"/>
<path d="M296.773 190.282H102.375V191.021H296.773V190.282Z" fill="#DCE0ED"/>
<path d="M296.773 207.433H102.375V208.172H296.773V207.433Z" fill="#DCE0ED"/>
<g opacity="0.2">
<path opacity="0.2" d="M296.773 208.172H102.137V174.441L119.987 184.447L138.461 187.298L154.671 181.739L174.227 164.49L184.064 158.029L191.255 156.454L198.135 156.872L209.448 163.229L224.83 174.372L236.901 176.135L246.469 172.383L266.757 153.489L277.113 149.289L287.95 151.195L296.773 156.99V208.172Z" fill="#F9A826"/>
</g>
<path d="M136.063 187.288C118.533 187.288 102.336 175.096 102.133 174.939L102.617 174.121C102.869 174.313 127.798 193.069 148.982 183.674C156.706 180.227 162.204 174.919 167.525 169.763C173.08 164.381 178.323 159.3 185.475 157.094C193.675 154.568 202.637 156.852 209.448 163.219C215.271 168.66 226.865 177.396 239.113 174.786C245.356 173.452 250.617 168.267 256.189 162.776C266.87 152.248 277.918 141.361 297.029 156.981L296.522 157.778C277.966 142.612 267.186 153.243 256.756 163.52C251.093 169.099 245.746 174.353 239.273 175.751C226.675 178.44 214.838 169.527 208.898 163.978C202.304 157.818 193.636 155.607 185.7 158.044C178.738 160.191 173.578 165.204 168.084 170.512C162.711 175.722 157.156 181.104 149.298 184.59C145.073 186.42 140.584 187.336 136.063 187.288Z" fill="#F9A826"/>
<path d="M195.918 161.885C198.579 161.885 200.737 159.431 200.737 156.404C200.737 153.378 198.579 150.924 195.918 150.924C193.257 150.924 191.099 153.378 191.099 156.404C191.099 159.431 193.257 161.885 195.918 161.885Z" fill="#F9A826"/>
<g opacity="0.2">
<path opacity="0.2" d="M258.773 83.8822H197.987C197.726 83.8822 197.475 84.0005 197.289 84.211C197.104 84.4216 197 84.7071 197 85.0049V131.759C197 131.984 197.06 132.204 197.171 132.389C197.282 132.575 197.44 132.719 197.624 132.802C197.808 132.884 198.009 132.903 198.202 132.854C198.395 132.805 198.571 132.691 198.706 132.527L209.24 119.749C209.332 119.637 209.443 119.548 209.567 119.487C209.69 119.426 209.824 119.395 209.958 119.395H258.773C259.035 119.395 259.286 119.277 259.471 119.066C259.656 118.855 259.76 118.57 259.76 118.272V84.995C259.758 84.699 259.653 84.416 259.468 84.2075C259.283 83.9991 259.034 83.8822 258.773 83.8822Z" fill="#F9A826"/>
</g>
<path d="M245.685 92.5387H211.071V97.4628H245.685V92.5387Z" fill="#F6F7F9"/>
<path d="M220.574 103.451H211.071V108.375H220.574V103.451Z" fill="#F6F7F9"/>
<g opacity="0.2">
<path opacity="0.2" d="M128.296 243.408H118.792V248.333H128.296V243.408Z" fill="#F9A826"/>
</g>
<g opacity="0.2">
<path opacity="0.2" d="M128.296 252.927H118.792V257.851H128.296V252.927Z" fill="#F9A826"/>
</g>
<g opacity="0.2">
<path opacity="0.2" d="M128.296 262.445H118.792V267.369H128.296V262.445Z" fill="#F9A826"/>
</g>
<g opacity="0.2">
<path opacity="0.2" d="M128.296 271.968H118.792V276.892H128.296V271.968Z" fill="#F9A826"/>
</g>
<g opacity="0.2">
<path opacity="0.2" d="M128.296 281.487H118.792V286.411H128.296V281.487Z" fill="#F9A826"/>
</g>
<g opacity="0.2">
<path opacity="0.2" d="M128.296 291.005H118.792V295.929H128.296V291.005Z" fill="#F9A826"/>
</g>
<g opacity="0.2">
<path opacity="0.2" d="M128.296 300.528H118.792V305.452H128.296V300.528Z" fill="#F9A826"/>
</g>
<g opacity="0.2">
<path opacity="0.2" d="M128.296 310.046H118.792V314.97H128.296V310.046Z" fill="#F9A826"/>
</g>
<g opacity="0.2">
<path opacity="0.2" d="M146.189 314.97H136.686V319.895H146.189V314.97Z" fill="#F9A826"/>
</g>
<g opacity="0.2">
<path opacity="0.2" d="M162.932 314.97H153.428V319.895H162.932V314.97Z" fill="#F9A826"/>
</g>
<g opacity="0.2">
<path opacity="0.2" d="M179.674 314.97H170.17V319.895H179.674V314.97Z" fill="#F9A826"/>
</g>
<g opacity="0.2">
<path opacity="0.2" d="M196.411 314.97H186.908V319.895H196.411V314.97Z" fill="#F9A826"/>
</g>
<g opacity="0.2">
<path opacity="0.2" d="M213.154 314.97H203.65V319.895H213.154V314.97Z" fill="#F9A826"/>
</g>
<g opacity="0.2">
<path opacity="0.2" d="M229.896 314.97H220.392V319.895H229.896V314.97Z" fill="#F9A826"/>
</g>
<g opacity="0.2">
<path opacity="0.2" d="M246.633 314.97H237.13V319.895H246.633V314.97Z" fill="#F9A826"/>
</g>
<g opacity="0.2">
<path opacity="0.2" d="M263.376 314.97H253.872V319.895H263.376V314.97Z" fill="#F9A826"/>
</g>
<g opacity="0.2">
<path opacity="0.2" d="M280.118 314.97H270.615V319.895H280.118V314.97Z" fill="#F9A826"/>
</g>
<path d="M245.685 103.451H231.255V108.375H245.685V103.451Z" fill="#F6F7F9"/>
<path d="M146.189 279.187H136.686V310.046H146.189V279.187Z" fill="#F9A826"/>
<path d="M162.932 264.907H153.428V310.046H162.932V264.907Z" fill="#F9A826"/>
<path d="M179.674 252.927H170.17V310.046H179.674V252.927Z" fill="#F9A826"/>
<path d="M196.411 259.136H186.908V310.041H196.411V259.136Z" fill="#F9A826"/>
<path d="M213.154 248.333H203.65V310.046H213.154V248.333Z" fill="#F9A826"/>
<g opacity="0.2">
<path opacity="0.2" d="M229.896 271.968H220.392V310.046H229.896V271.968Z" fill="#F9A826"/>
</g>
<g opacity="0.2">
<path opacity="0.2" d="M246.633 271.968H237.13V310.046H246.633V271.968Z" fill="#F9A826"/>
</g>
<g opacity="0.2">
<path opacity="0.2" d="M263.376 271.968H253.872V310.046H263.376V271.968Z" fill="#F9A826"/>
</g>
<g opacity="0.2">
<path opacity="0.2" d="M280.118 271.968H270.615V310.046H280.118V271.968Z" fill="#F9A826"/>
</g>
<path d="M428.394 134.182C418.103 127.451 414.215 125.781 414.193 125.771L413.985 125.599C412.863 124.619 411.971 123.338 411.388 121.872C411.388 121.601 411.388 121.335 411.388 121.069V121.148C411.552 117.583 413.782 114.338 415.899 111.506L421.306 104.268C421.923 103.553 422.398 102.697 422.701 101.757C422.812 101.253 422.862 100.734 422.848 100.215C422.848 100.004 422.848 99.7919 422.848 99.5851C422.822 97.7878 422.774 95.9856 422.718 94.1686C422.666 92.5978 422.311 90.6183 420.93 90.2933C420.211 90.1259 419.263 90.4213 418.882 89.7172C418.754 89.4295 418.722 89.0991 418.791 88.7865C418.789 88.8111 418.789 88.8358 418.791 88.8604V88.7717C419.06 87.5591 419.232 86.3215 419.306 85.0737C419.333 84.4396 419.257 83.8051 419.081 83.2026C418.28 80.5928 415.527 79.5243 413.089 79.0319C410.652 78.5395 407.924 78.116 406.396 75.9494C405.924 75.2797 405.603 74.4721 405.067 73.8665C404.361 73.156 403.502 72.6731 402.577 72.468C399.554 71.6183 396.368 71.9335 393.52 73.3642C392.342 73.96 391.16 74.7676 389.87 74.679C388.58 74.5903 387.381 73.5316 386.056 73.2756C383.917 72.862 381.869 74.6494 380.817 76.7618C380.192 78.0183 379.858 79.4349 379.847 80.8784C379.847 80.9572 379.847 81.0409 379.847 81.1197C379.816 82.6715 380.314 84.1769 381.237 85.3199C382.159 86.4082 383.536 87.1566 383.917 88.5896C384.073 89.1706 384.034 89.8009 384.172 90.3918C384.172 90.4656 384.211 90.5395 384.233 90.6084L384.164 90.7118C381.956 93.9297 380.761 97.8966 380.769 101.978C380.792 105.938 381.921 109.786 383.994 112.968C386.066 116.149 388.975 118.498 392.299 119.675C392.299 119.858 392.299 120.045 392.299 120.227C392.299 122.462 391.74 124.742 390.061 126.421L375.487 133.089C375.487 133.089 366.703 131.902 363.534 146.507C363.024 148.932 362.84 151.43 362.988 153.918C363.105 156.119 362.837 159.999 360.585 165.017C356.979 173.043 357.802 191.469 365.17 193.296C372.128 195.019 374.851 194.281 375.128 194.217V194.537C375.016 197.984 373.912 227.819 369.898 231.428C368.79 232.413 368.998 233.102 369.898 233.555C369.898 233.555 369.898 233.747 369.872 234.092C369.751 236.273 369.132 244.58 366.448 249.307C363.335 254.778 363.659 286.347 363.659 286.347L361.568 304.974C361.568 304.974 362.867 316.467 361.568 318.476C360.399 320.264 358.841 362.793 358.538 372.006H358.399C357.758 372.05 357.136 372.272 356.587 372.652C356.038 373.032 355.58 373.56 355.251 374.188C353.52 377.369 347.502 383.243 347.502 383.243C346.203 385.356 341.358 387.375 338.799 388.33C338.456 388.455 338.126 388.62 337.812 388.822C336.856 389.415 336.089 390.335 335.617 391.452C335.451 391.781 335.344 392.145 335.303 392.522C335.262 392.9 335.288 393.282 335.379 393.648C336.037 395.47 349.632 396.745 353.069 394.923C355.775 393.485 366.491 391.599 370.937 390.861C371.745 390.744 372.495 390.326 373.071 389.672C373.647 389.018 374.016 388.165 374.119 387.246C374.159 386.927 374.14 386.601 374.066 386.29C373.992 385.979 373.863 385.688 373.686 385.434C372.821 384.233 372.388 380.958 372.201 378.821C372.563 378.655 372.9 378.428 373.202 378.147C372.836 371.518 373.672 364.874 375.656 358.628C378.934 348.779 379.917 330.526 379.12 318.668C379.12 318.668 389.112 269.772 396.975 265.207C397.096 265.38 400.91 270.954 401.395 288.193C401.889 305.708 407.456 317.201 407.456 317.201C407.456 317.201 404.997 346.943 407.456 358.071L404.24 375.631C404.006 375.399 403.854 375.222 403.854 375.222C403.854 375.222 403.95 375.714 404.084 376.492L404.014 376.862L404.153 376.901C404.517 379.097 405.058 382.923 404.837 385.168C404.707 386.444 404.404 388.197 404.179 389.915C403.841 392.619 403.746 395.238 404.997 395.824C407.045 396.76 419.085 398.04 421.133 395.031C421.593 394.418 421.892 393.67 421.998 392.873C422.103 392.076 422.011 391.261 421.731 390.521C421.582 390.108 421.38 389.721 421.133 389.374C421.133 389.374 417.938 383.43 418.839 379.24C418.924 378.83 418.934 378.405 418.869 377.991C418.803 377.577 418.663 377.182 418.458 376.832C418.596 374.774 419.324 365.255 421.216 357.17C423.263 348.39 427.589 329.142 424.406 316.482C424.285 315.99 424.147 315.497 423.999 315.005C422.163 308.095 421.551 300.84 422.198 293.659C421.017 287.527 421.017 281.177 422.198 275.046C424.164 264.828 425.536 254.793 425.536 254.793C425.536 254.793 426.623 241.296 425.675 233.019L425.61 232.487L426.129 232.354C426.129 232.354 423.346 218.305 422.363 209.368C422.129 207.256 421.826 204.582 421.497 201.726C422.404 201.561 423.298 201.309 424.168 200.972C432.983 197.491 435.754 166.115 435.754 166.115V156.168C435.754 156.168 438.715 140.933 428.394 134.182ZM362.499 376.482C362.226 376.325 362.066 376.221 362.066 376.221L362.499 376.482Z" fill="url(#paint1_linear)"/>
<path d="M423.056 315.271C426.891 327.817 422.415 348.179 420.337 357.269C418.258 366.359 417.618 377.275 417.618 377.275C409.465 378.728 403.551 376.906 403.551 376.906L406.907 358.194C404.508 347.105 406.907 317.467 406.907 317.467C406.907 317.467 401.473 306.014 400.993 288.558C400.521 271.372 396.797 265.823 396.663 265.651C388.991 270.196 379.237 318.929 379.237 318.929C380.038 330.747 379.077 348.927 375.882 358.746C373.944 364.982 373.128 371.599 373.483 378.201C372.366 379.274 370.812 379.457 369.132 379.151C364.582 378.29 359.122 373.819 359.122 373.819C359.122 373.819 360.854 320.732 362.153 318.728C363.452 316.723 362.153 305.27 362.153 305.27L364.227 286.726C364.227 286.726 363.91 255.266 366.945 249.795C369.569 245.083 370.171 236.805 370.288 234.634C370.288 234.289 370.314 234.097 370.314 234.097L374.938 227.794C374.938 227.794 419.705 223.978 423.06 227.794C423.887 228.735 424.393 230.862 424.696 233.545C425.619 241.793 424.562 255.246 424.562 255.246C424.562 255.246 423.22 265.247 421.302 275.435C420.147 281.546 420.147 287.867 421.302 293.979C420.665 301.138 421.261 308.37 423.056 315.271Z" fill="#65617D"/>
<path d="M420.259 395.002C418.259 398.001 406.508 396.725 404.508 395.795C403.287 395.219 403.382 392.609 403.711 389.915C403.919 388.202 404.227 386.468 404.352 385.183C404.673 381.909 403.391 375.271 403.391 375.271C403.391 375.271 406.032 378.452 406.669 375.271C406.95 373.882 407.933 373.168 408.95 372.809C410.321 372.341 411.794 372.446 413.102 373.104C415.176 374.129 418.644 376.315 418.02 379.269C417.155 383.445 420.259 389.369 420.259 389.369C420.499 389.716 420.695 390.101 420.839 390.511C421.113 391.248 421.204 392.057 421.101 392.849C420.999 393.641 420.708 394.385 420.259 395.002Z" fill="#403E64"/>
<path opacity="0.1" d="M420.259 395.002C418.259 398.001 406.508 396.725 404.508 395.795C403.287 395.219 403.382 392.609 403.712 389.915C404.971 390.585 407.119 391.146 410.695 390.767C411.531 390.679 412.371 390.649 413.21 390.679C415.754 390.812 418.302 390.754 420.839 390.506C421.114 391.244 421.205 392.054 421.103 392.847C421 393.639 420.708 394.385 420.259 395.002Z" fill="black"/>
<path opacity="0.1" d="M379.25 318.91C380.051 330.728 379.09 348.907 375.895 358.726C373.957 364.963 373.141 371.579 373.496 378.181C372.379 379.255 370.825 379.437 369.145 379.132C370.11 371.45 374.219 338.419 376.873 312.316C379.852 282.589 393.879 262.135 393.879 262.135L396.676 265.636C388.996 270.176 379.25 318.91 379.25 318.91Z" fill="black"/>
<path d="M415.462 127.81L413.509 138.717L403.95 156.99L392.16 151.264C392.16 151.264 376.141 132.173 386.207 129.445C387.413 129.152 388.552 128.575 389.55 127.751C391.528 126.057 392.147 123.59 392.147 121.177C392.147 117.194 390.511 113.353 390.511 113.353L411.132 105.967C410.28 109.049 409.783 112.243 409.652 115.47C409.496 121.872 411.583 125.003 413.293 126.505C413.933 127.099 414.67 127.542 415.462 127.81Z" fill="#AE8A8A"/>
<path opacity="0.1" d="M411.145 105.991C410.293 109.073 409.796 112.268 409.665 115.495C409.29 116.003 408.889 116.487 408.465 116.943C406.337 119.257 403.697 120.872 400.826 121.618C397.956 122.364 394.961 122.211 392.16 121.177C392.16 117.194 390.524 113.353 390.524 113.353L411.145 105.991Z" fill="black"/>
<path d="M413.509 102.993C413.508 106.661 412.551 110.246 410.758 113.296C408.965 116.345 406.417 118.721 403.437 120.124C400.456 121.526 397.177 121.891 394.014 121.173C390.851 120.456 387.946 118.687 385.667 116.092C383.388 113.496 381.837 110.19 381.21 106.592C380.583 102.993 380.909 99.2642 382.146 95.8763C383.383 92.4884 385.475 89.5939 388.159 87.5588C390.842 85.5237 393.996 84.4396 397.222 84.4435C399.364 84.4356 401.487 84.9103 403.468 85.84C405.448 86.7697 407.247 88.1361 408.762 89.8604C410.276 91.5847 411.475 93.6329 412.29 95.8868C413.104 98.1406 413.519 100.556 413.509 102.993Z" fill="#AE8A8A"/>
<path opacity="0.1" d="M415.462 127.81L413.509 138.717L403.95 156.99L392.16 151.264C392.16 151.264 376.141 132.173 386.207 129.445C387.413 129.152 388.552 128.575 389.55 127.751C387.731 133.438 395.239 145.266 395.239 145.266C396.105 146.743 398.118 145.808 398.118 145.808C402.95 144.981 411.855 129.159 413.306 126.53C413.944 127.113 414.676 127.548 415.462 127.81Z" fill="black"/>
<path opacity="0.1" d="M424.692 233.575C421.856 234.309 406.149 238.268 400.192 237.278C393.641 236.185 380.895 235.461 380.895 235.461C380.895 235.461 372.782 235.953 370.284 234.663C370.284 234.319 370.31 234.126 370.31 234.126L374.933 227.824C374.933 227.824 419.7 224.007 423.056 227.824C423.883 228.754 424.389 230.882 424.692 233.575Z" fill="black"/>
<path d="M395.239 145.808C395.239 145.808 386.805 132.513 389.983 127.347L375.734 133.99C375.734 133.99 367.158 132.808 364.045 147.364C363.548 149.782 363.368 152.272 363.512 154.75C363.625 156.946 363.365 160.812 361.166 165.809C357.646 173.811 358.447 192.173 365.642 193.995C372.838 195.817 375.392 194.901 375.392 194.901C375.392 194.901 374.436 228.178 370.279 231.994C366.123 235.811 380.873 234.905 380.873 234.905C380.873 234.905 393.619 235.633 400.174 236.722C406.729 237.81 425.112 232.905 425.112 232.905C425.112 232.905 422.393 218.901 421.436 209.993C420.48 201.086 418.237 182.113 418.237 182.113L434.546 157C434.546 157 437.421 141.819 427.35 135.093C417.28 128.367 413.496 126.722 413.496 126.722C413.496 126.722 403.391 145.434 398.118 146.354C398.118 146.354 396.113 147.27 395.239 145.808Z" fill="#7C7CDD"/>
<path opacity="0.1" d="M376.535 151.081C376.535 151.081 376.375 157.084 377.332 159.452C378.289 161.821 381.809 174.909 381.809 174.909H373.816C373.816 174.909 378.146 169.635 377.813 167.09C377.479 164.544 376.535 151.081 376.535 151.081Z" fill="black"/>
<path d="M400.196 196.359C400.196 196.359 382.54 191.435 380.895 187.264C379.25 183.093 374.708 173.727 374.708 173.727L376.57 170.871L385.16 178.538C385.16 178.538 395.39 187.81 400.187 188.721C404.984 189.632 400.196 196.359 400.196 196.359Z" fill="#AE8A8A"/>
<path opacity="0.05" d="M400.196 196.359C400.196 196.359 382.54 191.435 380.895 187.264C379.25 183.093 374.708 173.727 374.708 173.727L376.57 170.871L385.16 178.538C385.16 178.538 395.39 187.81 400.187 188.721C404.984 189.632 400.196 196.359 400.196 196.359Z" fill="#AE8A8A"/>
<path d="M415.462 172.723V183.615H413.92C406.314 183.617 398.833 185.82 392.182 190.016L389.299 191.838L388.524 192.331L383.566 179.636L388.203 174.909H388.441C389.576 175.032 394.481 175.5 396.559 174.702C398.533 173.939 400.984 171.521 406.798 173.225C409.664 174.057 412.111 177.711 414.89 176.569L415.462 172.723Z" fill="#AE8A8A"/>
<path opacity="0.1" d="M430.888 152.903L434.087 156.99V166.903C434.087 166.903 431.368 198.176 422.735 201.632C414.102 205.089 398.694 199.628 398.694 199.628C398.694 199.628 394.71 187.628 396.572 186.904C398.434 186.18 413.024 181.793 413.024 181.793C413.024 181.793 412.821 163.446 416.016 157.99C416.016 157.99 413.938 140.903 421.133 140.539C428.329 140.175 430.888 152.903 430.888 152.903Z" fill="black"/>
<path d="M431.368 152.903L434.568 156.99V166.903C434.568 166.903 431.858 198.176 423.199 201.632C414.54 205.089 399.153 199.628 399.153 199.628C399.153 199.628 395.174 187.628 397.036 186.904C398.897 186.18 413.488 181.793 413.488 181.793C413.488 181.793 413.28 163.446 416.479 157.99C416.479 157.99 414.401 140.903 421.597 140.539C428.792 140.175 431.368 152.903 431.368 152.903Z" fill="#7C7CDD"/>
<path opacity="0.1" d="M409.037 110.871C409.102 109.675 409.123 108.409 408.673 107.331C408.223 106.252 407.166 105.391 406.136 105.666C404.768 106.031 404.179 108.055 402.837 108.542C401.707 108.951 400.473 108.05 399.936 106.838C399.399 105.627 399.382 104.229 399.378 102.899C399.378 101.382 399.378 99.8609 399.378 98.3442C399.378 96.6897 399.33 94.8974 398.434 93.6072C397.321 91.9872 394.702 91.2831 392.953 91.3471C391.788 91.3625 390.67 91.8757 389.823 92.7849C388.887 93.686 387.805 94.3557 386.528 94.1144C385.997 94.023 385.5 93.7627 385.094 93.3636C384.688 92.9646 384.39 92.443 384.233 91.8592V91.8001C385.592 89.7576 387.309 88.0575 389.275 86.807C391.241 85.5566 393.413 84.7829 395.654 84.5347C397.896 84.2866 400.159 84.5693 402.3 85.3652C404.44 86.1611 406.413 87.4528 408.093 89.1589C409.773 90.865 411.124 92.9485 412.061 95.278C412.998 97.6075 413.5 100.133 413.537 102.694C413.573 105.255 413.142 107.797 412.271 110.16C411.401 112.522 410.109 114.654 408.478 116.421C408.756 114.584 408.942 112.731 409.037 110.871Z" fill="black"/>
<path d="M386.519 93.5531C385.988 93.4606 385.491 93.1994 385.085 92.7995C384.679 92.3996 384.381 91.8773 384.224 91.2929C384.09 90.7069 384.125 90.0816 383.973 89.4956C383.601 88.0676 382.242 87.3241 381.376 86.2407C379.575 84.0643 379.691 80.4894 380.969 77.8698C381.999 75.7622 383.999 73.9846 386.082 74.3933C387.381 74.6494 388.493 75.6982 389.805 75.7918C391.117 75.8854 392.217 75.0778 393.368 74.482C396.14 73.0543 399.256 72.7401 402.205 73.5907C403.111 73.7978 403.952 74.2792 404.638 74.9842C405.102 75.6493 405.536 76.3413 405.937 77.0573C407.431 79.219 410.097 79.6424 412.474 80.1299C414.851 80.6174 417.536 81.686 418.319 84.2859C418.834 86.0093 418.319 87.8805 418.038 89.6729C417.937 90.0381 417.959 90.4325 418.098 90.7808C418.471 91.48 419.397 91.1895 420.099 91.3569C421.449 91.677 421.796 93.6515 421.83 95.2174C421.888 97.0098 421.931 98.8022 421.96 100.595C422.04 101.426 421.946 102.267 421.685 103.048C421.424 103.83 421.003 104.53 420.458 105.09L415.18 112.304C412.838 115.505 410.353 119.232 410.825 123.359C409.716 123.925 408.4 122.832 408.037 121.512C407.673 120.192 407.967 118.774 408.21 117.42C408.637 115.079 408.916 112.706 409.045 110.32C409.11 109.118 409.132 107.858 408.682 106.779C408.231 105.701 407.175 104.81 406.145 105.11C404.777 105.474 404.188 107.498 402.846 107.986C401.72 108.394 400.482 107.493 399.945 106.282C399.408 105.071 399.391 103.672 399.386 102.343V97.7829C399.386 96.1333 399.339 94.336 398.442 93.0459C397.33 91.4258 394.71 90.7217 392.961 90.7857C391.796 90.8021 390.679 91.3152 389.831 92.2235C388.879 93.1247 387.796 93.7894 386.519 93.5531Z" fill="#7C5C5C"/>
<path opacity="0.1" d="M390.203 150.628L395.208 174.018C395.208 174.018 399.157 173.993 390.203 150.628Z" fill="black"/>
<path opacity="0.1" d="M407.309 146.719C407.309 146.719 400.754 158.931 403.313 171.551L404.534 171.654C404.534 171.654 402.352 165.81 407.309 146.719Z" fill="black"/>
<path opacity="0.1" d="M411.466 215.814C411.466 215.814 419.514 212.785 420.099 219.812C420.099 219.812 418.579 214.996 411.466 215.814Z" fill="black"/>
<path opacity="0.1" d="M388.203 175.471C388.203 175.471 386.606 188.199 389.502 193.291C389.502 193.291 383.649 196.019 375.431 195.472L374.457 175.471H388.203Z" fill="black"/>
<path opacity="0.1" d="M389.299 191.833L388.524 192.326L383.566 179.631L388.203 174.904H388.441C388.368 175.515 387.078 186.446 389.299 191.833Z" fill="black"/>
<path d="M388.203 174.904C388.203 174.904 386.606 187.628 389.502 192.72C389.502 192.72 383.649 195.448 375.431 194.901L369.838 174.904H388.203Z" fill="#7C7CDD"/>
<path d="M374.375 387.261C374.282 388.168 373.927 389.014 373.365 389.666C372.803 390.317 372.066 390.738 371.271 390.861C366.941 391.599 356.473 393.48 353.832 394.908C350.476 396.725 337.206 395.455 336.566 393.638C336.385 392.903 336.467 392.117 336.795 391.452C337.257 390.34 338.014 389.422 338.96 388.827C339.265 388.627 339.587 388.462 339.921 388.335C342.419 387.384 347.138 385.38 348.415 383.263C348.415 383.263 354.299 377.408 355.975 374.242C356.291 373.62 356.736 373.096 357.272 372.717C357.809 372.337 358.419 372.114 359.049 372.065C360.451 371.992 362.01 372.794 362.646 376.285C362.646 376.285 370.318 381.264 372.392 376.896C372.392 376.896 372.712 383.603 373.985 385.434C374.154 385.694 374.275 385.99 374.342 386.303C374.408 386.617 374.42 386.943 374.375 387.261Z" fill="#403E64"/>
<path opacity="0.1" d="M374.375 387.261C374.282 388.168 373.927 389.014 373.365 389.666C372.803 390.317 372.066 390.738 371.271 390.861C366.941 391.599 356.472 393.48 353.832 394.908C350.476 396.725 337.206 395.455 336.566 393.638C336.385 392.903 336.467 392.117 336.795 391.452C337.257 390.34 338.014 389.422 338.96 388.827C341.124 390.462 345.926 392.057 356.49 390.181C366.564 388.394 371.552 386.641 373.985 385.444C374.152 385.703 374.273 385.997 374.34 386.308C374.407 386.62 374.419 386.944 374.375 387.261Z" fill="black"/>
<g opacity="0.1">
<path opacity="0.1" d="M418.003 89.9388V89.8502C418.233 88.4862 418.575 87.0779 418.497 85.7189C418.394 86.8343 418.229 87.9412 418.003 89.0328C417.943 89.3309 417.943 89.6408 418.003 89.9388Z" fill="black"/>
<path opacity="0.1" d="M408.669 106.957C408.921 107.612 409.055 108.319 409.063 109.035C409.137 108.047 409.002 107.055 408.669 106.139C408.236 105.051 407.166 104.194 406.136 104.47C404.768 104.834 404.179 106.858 402.837 107.346C401.707 107.754 400.473 106.853 399.932 105.642C399.391 104.43 399.382 103.032 399.378 101.703C399.378 100.181 399.378 98.6644 399.378 97.1428C399.378 95.4932 399.33 93.6959 398.434 92.4058C397.321 90.7858 394.697 90.0816 392.953 90.1456C391.788 90.161 390.67 90.6743 389.822 91.5835C388.883 92.4895 387.805 93.1543 386.528 92.9179C385.997 92.8255 385.5 92.5643 385.094 92.1644C384.688 91.7645 384.389 91.2422 384.233 90.6578C384.099 90.0718 384.133 89.4464 383.982 88.8605C383.605 87.4325 382.25 86.6889 381.384 85.6056C380.542 84.5503 380.064 83.1845 380.038 81.7599C379.971 82.6005 380.056 83.4477 380.288 84.2496C380.519 85.0515 380.892 85.7911 381.384 86.423C382.285 87.5063 383.623 88.2548 383.982 89.6828C384.133 90.2638 384.099 90.8892 384.233 91.4752C384.389 92.0596 384.688 92.5819 385.094 92.9818C385.5 93.3817 385.997 93.6429 386.528 93.7353C387.827 93.9717 388.883 93.3069 389.822 92.4009C390.67 91.4917 391.788 90.9784 392.953 90.963C394.684 90.899 397.321 91.6081 398.434 93.2232C399.33 94.5232 399.373 96.3106 399.378 97.9602C399.378 99.4818 399.378 100.998 399.378 102.52C399.378 103.869 399.378 105.273 399.932 106.459C400.486 107.646 401.707 108.572 402.837 108.163C404.179 107.671 404.768 105.652 406.136 105.287C407.179 105.016 408.223 105.868 408.669 106.957Z" fill="black"/>
<path opacity="0.1" d="M421.809 101.949C421.517 102.883 421.054 103.736 420.449 104.45C418.692 106.856 416.932 109.261 415.172 111.664C412.951 114.702 410.595 118.218 410.769 122.093C410.929 118.538 413.106 115.303 415.172 112.481L420.449 105.273C421.053 104.555 421.516 103.701 421.809 102.766C421.939 102.121 421.986 101.457 421.947 100.797C421.943 101.186 421.896 101.573 421.809 101.949Z" fill="black"/>
<path opacity="0.1" d="M408.045 120.872C407.96 120.552 407.908 120.221 407.89 119.887C407.844 120.491 407.897 121.098 408.045 121.68C408.409 122.999 409.73 124.088 410.838 123.521C410.808 123.255 410.79 122.99 410.782 122.724C409.665 123.246 408.383 122.172 408.045 120.872Z" fill="black"/>
</g>
<path opacity="0.1" d="M354.905 375.882C354.905 375.882 356.576 379.225 362.629 376.28L354.905 375.882Z" fill="black"/>
<path opacity="0.1" d="M406.097 376.704C406.097 376.704 411.318 383.696 417.899 378.994L406.097 376.704Z" fill="black"/>
<path opacity="0.1" d="M421.298 293.994C421.298 293.994 417.605 296.618 417.488 298.12C417.371 299.622 419.393 297.027 419.393 297.027L421.298 293.994Z" fill="black"/>
<path opacity="0.1" d="M422.765 314.099C421.482 315.314 419.887 316.022 418.22 316.118C415.462 316.256 415.691 320.348 417.492 319.117C419.293 317.885 422.765 314.099 422.765 314.099Z" fill="black"/>
<path opacity="0.1" d="M423.454 316.723C423.454 316.723 421.683 326.621 420.246 324.71L423.454 316.723Z" fill="black"/>
<path d="M59.2101 362.764C59.2101 362.764 61.587 366.299 58.1104 371.627C54.6338 376.955 51.7677 381.475 52.915 384.804C52.915 384.804 58.158 374.887 62.4399 374.749C66.7218 374.611 63.9076 368.727 59.2101 362.764Z" fill="#F9A826"/>
<path opacity="0.1" d="M59.21 362.764C59.4183 363.104 59.5817 363.477 59.6949 363.872C63.8599 369.436 66.0809 374.631 62.0761 374.764C58.3484 374.882 53.8501 382.47 52.8024 384.386C52.8377 384.532 52.8796 384.677 52.9279 384.819C52.9279 384.819 58.1709 374.902 62.4528 374.764C66.7347 374.626 63.9075 368.727 59.21 362.764Z" fill="black"/>
<path d="M63.6304 367.269C63.6304 368.515 63.5092 369.525 63.3576 369.525C63.2061 369.525 63.0806 368.515 63.0806 367.269C63.0806 366.024 63.2364 366.615 63.388 366.615C63.5395 366.615 63.6304 366.033 63.6304 367.269Z" fill="#FFD037"/>
<path d="M65.1501 368.756C64.1889 369.352 63.349 369.712 63.2754 369.564C63.2018 369.416 63.9248 368.806 64.886 368.21C65.8471 367.614 65.4661 368.047 65.5397 368.21C65.6133 368.372 66.1112 368.161 65.1501 368.756Z" fill="#FFD037"/>
<path d="M46.6458 362.764C46.6458 362.764 44.2689 366.299 47.7455 371.627C51.2221 376.955 54.0882 381.475 52.9409 384.804C52.9409 384.804 47.6979 374.887 43.416 374.749C39.1341 374.611 41.9526 368.727 46.6458 362.764Z" fill="#F9A826"/>
<path opacity="0.1" d="M46.6458 362.764C46.4394 363.105 46.2762 363.478 46.1609 363.872C41.996 369.436 39.7749 374.631 43.7797 374.764C47.5117 374.882 52.0057 382.47 53.0535 384.386C53.0201 384.533 52.9781 384.678 52.9279 384.819C52.9279 384.819 47.6849 374.902 43.403 374.764C39.1212 374.626 41.9527 368.727 46.6458 362.764Z" fill="black"/>
<path d="M42.2255 367.269C42.2255 368.515 42.3467 369.525 42.4982 369.525C42.6497 369.525 42.7753 368.515 42.7753 367.269C42.7753 366.024 42.6194 366.615 42.4679 366.615C42.3164 366.615 42.2255 366.033 42.2255 367.269Z" fill="#FFD037"/>
<path d="M40.7102 368.756C41.6713 369.352 42.5069 369.712 42.5805 369.564C42.6541 369.416 41.9311 368.806 40.9699 368.21C40.0088 367.614 40.3898 368.047 40.3162 368.21C40.2426 368.372 39.749 368.161 40.7102 368.756Z" fill="#FFD037"/>
<path d="M42.9832 384.356C42.9832 384.356 49.6332 384.125 51.6421 382.5C53.651 380.875 61.8684 378.94 62.3663 381.544C62.8642 384.149 72.3587 394.49 64.8514 394.559C57.3441 394.628 47.4079 393.229 45.4077 391.841C43.4074 390.452 42.9832 384.356 42.9832 384.356Z" fill="#A8A8A8"/>
<path opacity="0.2" d="M64.9813 393.653C57.4739 393.722 47.5378 392.323 45.5375 390.935C44.0136 389.881 43.4074 386.094 43.204 384.346H42.9832C42.9832 384.346 43.4161 390.447 45.4033 391.831C47.3906 393.215 57.3397 394.618 64.8471 394.549C67.0118 394.549 67.7651 393.653 67.7218 392.353C67.4231 393.146 66.5962 393.638 64.9813 393.653Z" fill="black"/>
</g>
<defs>
<linearGradient id="paint0_linear" x1="200.52" y1="376.389" x2="200.52" y2="17.5643" gradientUnits="userSpaceOnUse">
<stop stop-color="#808080" stop-opacity="0.25"/>
<stop offset="0.54" stop-color="#808080" stop-opacity="0.12"/>
<stop offset="1" stop-color="#808080" stop-opacity="0.1"/>
</linearGradient>
<linearGradient id="paint1_linear" x1="96195" y1="272231" x2="96195" y2="57877.1" gradientUnits="userSpaceOnUse">
<stop stop-color="#808080" stop-opacity="0.25"/>
<stop offset="0.54" stop-color="#808080" stop-opacity="0.12"/>
<stop offset="1" stop-color="#808080" stop-opacity="0.1"/>
</linearGradient>
<clipPath id="clip0">
<rect width="468" height="412" fill="white"/>
</clipPath>
</defs>
</svg>
