<svg width="204" height="177" xmlns="http://www.w3.org/2000/svg">
 <!-- Created with Method Draw - http://github.com/duopixel/Method-Draw/ -->

 <g>
  <title>background</title>
  <rect fill="none" id="canvas_background" height="179" width="206" y="-1" x="-1"/>
  <g display="none" overflow="visible" y="0" x="0" height="100%" width="100%" id="canvasGrid">
   <rect fill="url(#gridpattern)" stroke-width="0" y="0" x="0" height="100%" width="100%"/>
  </g>
 </g>
 <g>
  <title>Layer 1</title>
  <defs>
   <linearGradient y2="-0.000066" x2="0.500192" y1="0.999885" x1="0.500192" id="svg_5">
    <stop stop-opacity="0.25" stop-color="gray" offset="0"/>
    <stop stop-opacity="0.12" stop-color="gray" offset="0.54"/>
    <stop stop-opacity="0.1" stop-color="gray" offset="1"/>
   </linearGradient>
  </defs>
  <g stroke="null" id="svg_158">
   <path stroke="null" id="svg_8" fill="#f9a826" d="m37.797096,102.144178s2.32502,-1.665854 4.730755,-0.636746c0,0 -0.672619,1.430437 -3.670259,1.4125l-1.060496,-0.775754z"/>
   <path stroke="null" id="svg_9" fill="#f9a826" d="m37.507869,102.240587s-0.621052,2.79137 1.27125,4.602957c0,0 1.049286,-1.181568 -0.143492,-3.930338l-1.127758,-0.672619z"/>
   <path stroke="null" id="svg_10" fill="#f9a826" d="m34.434,99.700328s0.085198,-2.356409 5.421311,-1.780199c0,0 0.082956,1.515635 -1.751052,2.304842s-2.712897,0.221964 -3.670259,-0.524643z"/>
   <path stroke="null" id="svg_11" fill="#f9a826" d="m34.104416,99.695844s-2.217401,0.807143 -0.024663,5.708295c0,0 1.46631,-0.387877 1.652401,-2.376588s-0.625536,-2.645636 -1.627738,-3.331707z"/>
   <path stroke="null" id="svg_12" fill="#f9a826" d="m30.972253,96.478482s-0.448413,-3.85635 4.98635,-3.668017c0,0 0.517917,3.48641 -3.993116,4.560358l-0.993234,-0.892341z"/>
   <path stroke="null" id="svg_13" fill="#f9a826" d="m27.22128,92.249949s0.57621,-4.41014 6.053573,-3.313771c0,0 0.165913,3.789088 -5.120874,4.324942l-0.932699,-1.011171z"/>
   <path stroke="null" id="svg_14" fill="#f9a826" d="m24.42991,87.835325s1.080675,-4.324942 6.501986,-3.244267c0,0 -1.121032,3.889981 -6.114109,4.020021l-0.387877,-0.775754z"/>
   <path stroke="null" id="svg_15" fill="#f9a826" d="m21.773064,83.523836s1.047044,-4.484128 6.277779,-3.34516c0,0 -1.569445,4.275616 -5.912323,4.087283l-0.365456,-0.742123z"/>
   <path stroke="null" id="svg_16" fill="#f9a826" d="m20.00856,79.398438s0.728671,-5.454942 5.60516,-4.441529c0,0 -1.215199,4.984108 -5.224009,5.215041l-0.381151,-0.773512z"/>
   <path stroke="null" id="svg_17" fill="#f9a826" d="m18.311317,74.396393s0.91252,-5.504267 5.862997,-4.102977c0,0 -1.721905,5.23522 -5.493057,4.8451l-0.369941,-0.742123z"/>
   <path stroke="null" id="svg_18" fill="#f9a826" d="m17.199253,69.730658s1.569445,-5.52893 5.363017,-5.526688c0,0 -1.603076,5.829366 -5.004287,6.609605l-0.35873,-1.082917z"/>
   <path stroke="null" id="svg_19" fill="#f9a826" d="m16.432467,65.152363s1.688274,-6.649962 4.786807,-6.259843c0,0 -1.150179,5.076033 -4.63883,7.279982l-0.147976,-1.020139z"/>
   <path stroke="null" id="svg_20" fill="#f9a826" d="m15.887646,59.677243s1.60756,-5.546866 4.63883,-5.883176c0,0 -1.031349,5.437005 -4.517759,7.304645l-0.121071,-1.421469z"/>
   <path stroke="null" id="svg_21" fill="#f9a826" d="m15.322646,54.583274s2.058215,-5.571529 4.06262,-5.773315c0,0 -0.777996,5.437005 -3.827203,6.665656l-0.235417,-0.892341z"/>
   <path stroke="null" id="svg_22" fill="#f9a826" d="m14.889927,49.834582s1.165873,-6.010974 3.152342,-6.580458c0,0 -0.08744,4.880973 -2.934862,7.01766l-0.21748,-0.437202z"/>
   <path stroke="null" id="svg_23" fill="#f9a826" d="m13.896693,43.637517s1.284703,-4.802501 2.881052,-5.589466c0,0 -0.107619,5.60516 -2.46627,6.726192l-0.414782,-1.136726z"/>
   <path stroke="null" id="svg_24" fill="#f9a826" d="m13.111971,39.570413l-0.616568,-8.358415s3.273413,6.201549 0.896826,9.826967l-0.280258,-1.468552z"/>
   <path stroke="null" id="svg_25" fill="#f9a826" d="m10.443914,31.342038s-2.419187,-6.02891 -2.957282,-6.349525c0,0 4.439287,3.811509 4.21508,8.918931l-1.257798,-2.569405z"/>
   <path stroke="null" id="svg_26" fill="#f9a826" d="m30.824276,96.456061s-3.86756,-0.356488 -3.542461,5.073791c0,0 3.49762,0.432718 4.459465,-4.105219l-0.917004,-0.968572z"/>
   <path stroke="null" id="svg_27" fill="#f9a826" d="m27.035188,92.110941s-4.443771,0.154702 -3.869803,5.703811c0,0 3.755457,0.524643 4.789049,-4.688156l-0.919246,-1.015655z"/>
   <path stroke="null" id="svg_28" fill="#f9a826" d="m24.400763,88.19854s-4.107461,-1.7376 -6.501986,3.244267c0,0 3.786846,1.432679 6.887621,-2.46627l-0.385635,-0.777996z"/>
   <path stroke="null" id="svg_29" fill="#f9a826" d="m21.683381,83.568677s-4.206112,-1.856429 -6.450418,3.00885c0,0 4.360815,1.316092 6.820359,-2.268969l-0.369941,-0.739881z"/>
   <path stroke="null" id="svg_30" fill="#f9a826" d="m20.064611,79.512784s-4.120914,-3.645596 -7.145458,0.318373c0,0 4.181449,2.968493 7.360696,0.520159l-0.215238,-0.838532z"/>
   <path stroke="null" id="svg_31" fill="#f9a826" d="m18.531039,74.257385s-4.147818,-3.730795 -7.140974,0.448413c0,0 4.611926,3.015576 7.315855,0.356488l-0.174881,-0.804901z"/>
   <path stroke="null" id="svg_32" fill="#f9a826" d="m17.602825,69.553535s-3.266687,-4.730755 -6.85399,-3.511072c0,0 3.394485,5.013255 6.862958,4.652283l-0.008968,-1.141211z"/>
   <path stroke="null" id="svg_33" fill="#f9a826" d="m16.524392,65.118732s-3.342917,-5.990795 -6.23518,-4.818196c0,0 2.416945,4.609684 6.351767,5.840577l-0.116587,-1.022381z"/>
   <path stroke="null" id="svg_34" fill="#f9a826" d="m16.08719,59.356628s-3.376548,-4.685914 -6.342799,-3.984148c0,0 2.795854,4.775596 6.706014,5.365259l-0.363214,-1.381111z"/>
   <path stroke="null" id="svg_35" fill="#f9a826" d="m15.656713,54.462202s-2.679267,-5.300239 -4.69264,-5.271093c0,0 1.392322,5.313692 4.560358,6.183613l0.132282,-0.91252z"/>
   <path stroke="null" id="svg_36" fill="#f9a826" d="m14.984094,49.71351s-2.959525,-5.358533 -5.026708,-5.291271c0,0 1.587381,4.618652 4.952719,5.775557l0.073988,-0.484286z"/>
   <path stroke="null" id="svg_37" fill="#f9a826" d="m14.34959,43.946922s-2.230854,-4.443771 -3.952759,-4.889942c0,0 1.239861,5.470636 3.771152,6.098414l0.181607,-1.208473z"/>
   <path stroke="null" id="svg_38" fill="#f9a826" d="m12.860859,39.422437l-4.863037,-6.824843s1.441647,6.8652 5.584982,8.134208l-0.721945,-1.309365z"/>
   <path stroke="null" id="svg_39" fill="#f9a826" d="m9.414807,31.945153s-5.472878,-3.481925 -5.697085,-4.071588c0,0 2.914683,5.062581 7.9952,5.780041l-2.298116,-1.708453z"/>
   <path stroke="null" id="svg_40" fill="#f9a826" d="m9.031414,30.299478s-6.358494,-5.661212 -7.923454,-5.59395c0,0 5.067065,0.035873 8.071431,5.275577l-0.147976,0.318373z"/>
   <path stroke="null" id="svg_41" fill="#444053" d="m14.322685,44.843747l-0.224206,0.038115c-1.497699,-8.979466 -3.383275,-14.246075 -5.306966,-14.833496l0.06502,-0.224206c2.035794,0.61881 3.93258,5.809188 5.466152,15.019587z"/>
   <path stroke="null" id="svg_42" fill="#444053" d="m16.845007,66.340657l-0.33631,0.040357c-0.103135,-0.838532 -0.192818,-1.699485 -0.262321,-2.555953c-0.607599,-7.454863 -1.369901,-14.293158 -2.221885,-19.409548l0.186091,-0.248869c0.854226,5.125358 1.764504,12.165439 2.374346,19.631513c0.069504,0.851984 0.156944,1.706211 0.260079,2.542501z"/>
   <path stroke="null" id="svg_43" fill="#444053" d="m44.260966,106.19783c-0.060536,-0.024663 -6.10514,-2.450576 -12.517444,-8.544506a49.020488,49.020488 0 0 1 -9.380796,-12.26409c-3.07387,-5.697085 -5.085001,-12.768555 -5.934744,-19.678596l0.35873,0.15246c1.905754,15.510599 9.398732,25.877903 15.246035,31.449432c6.349525,6.040121 12.331352,8.441371 12.387404,8.463792l-0.159187,0.421508z"/>
   <g stroke="null" transform="matrix(0.2242064034843986,0,0,0.2242064034843986,-4609.417111184347,-3196.1652742299584) " id="svg_44" opacity="0.7">
    <path stroke="null" id="svg_45" fill="#f9a826" d="m20769.232801,14647.680287s12.11,-4 21,3.57c0,0 -4.77,5.2 -17.51,1.14l-3.49,-4.71z"/>
    <path stroke="null" id="svg_46" fill="#f9a826" d="m20767.872801,14647.700287s-6.34,11.07 -0.69,21.28c0,0 6,-3.63 4.61,-16.92l-3.92,-4.36z"/>
    <path stroke="null" id="svg_47" fill="#f9a826" d="m20758.142801,14632.810287s3.5,-9.92 25.45,-0.39c0,0 -1.65,6.57 -10.52,7.49s-11.83,-2.67 -14.93,-7.1z"/>
    <path stroke="null" id="svg_48" fill="#f9a826" d="m20756.752801,14632.360287s-10.5,0.5 -7.68,24.27c0,0 6.77,0.3 10.2,-7.93s0.84,-12.1 -2.52,-16.34z"/>
    <path stroke="null" id="svg_49" fill="#f9a826" d="m20747.692801,14614.470287s3.19,-17 26.09,-9c0,0 -2.41,15.53 -23.05,14.12l-3.04,-5.12z"/>
    <path stroke="null" id="svg_50" fill="#f9a826" d="m20737.332801,14591.470287s8.3,-18 30.14,-6.08c0,0 -4.32,16.35 -27.55,11.62l-2.59,-5.54z"/>
    <path stroke="null" id="svg_51" fill="#f9a826" d="m20731.292801,14569.020287s10.35,-17 32,-5.19c0,0 -10,15.06 -31.37,9l-0.63,-3.81z"/>
    <path stroke="null" id="svg_52" fill="#f9a826" d="m20725.702801,14547.130287s10.4,-17.68 31.19,-5.91c0,0 -12.35,16.12 -30.59,9.56l-0.6,-3.65z"/>
    <path stroke="null" id="svg_53" fill="#f9a826" d="m20723.662801,14527.220287s10.34,-22.26 29.78,-11.46c0,0 -11.79,19.6 -29.16,15.27l-0.62,-3.81z"/>
    <path stroke="null" id="svg_54" fill="#f9a826" d="m20723.082801,14503.670287s11.19,-22.23 30.4,-9.69c0,0 -14.27,20 -29.81,13.34l-0.59,-3.65z"/>
    <path stroke="null" id="svg_55" fill="#f9a826" d="m20724.552801,14482.300287s14,-21.46 30.16,-16.42c0,0 -14.57,22.73 -30.08,21.51l-0.08,-5.09z"/>
    <path stroke="null" id="svg_56" fill="#f9a826" d="m20727.392801,14461.810287s16,-26.07 28.69,-20.3c0,0 -11.64,20.09 -29.41,24.84l0.72,-4.54z"/>
    <path stroke="null" id="svg_57" fill="#f9a826" d="m20732.282801,14437.780287s14.22,-21.49 27.56,-18.9c0,0 -11.6,21.79 -28.92,25.11l1.36,-6.21z"/>
    <path stroke="null" id="svg_58" fill="#f9a826" d="m20736.652801,14415.330287s16.15,-21 24.95,-19.18c0,0 -10.53,22.12 -25.14,23.29l0.19,-4.11z"/>
    <path stroke="null" id="svg_59" fill="#f9a826" d="m20741.102801,14394.540287s12.94,-24 22.16,-23.84c0,0 -6.86,20.67 -21.81,26l-0.35,-2.16z"/>
    <path stroke="null" id="svg_60" fill="#f9a826" d="m20745.092801,14366.830287s11.85,-18.74 19.69,-20c0,0 -7.9,23.74 -19.42,25.41l-0.27,-5.41z"/>
    <path stroke="null" id="svg_61" fill="#f9a826" d="m20747.152801,14348.470287l8.47,-36.42s5.71,30.75 -9.23,43l0.76,-6.58z"/>
    <path stroke="null" id="svg_62" fill="#f9a826" d="m20746.732801,14309.900287s-2.31,-28.88 -4.17,-31c0,0 13.86,22.08 6.12,43.58l-1.95,-12.58z"/>
    <path stroke="null" id="svg_63" fill="#f9a826" d="m20747.082801,14614.200287s-16,-6.64 -21.81,16.92c0,0 14.31,6.48 24.43,-11.57l-2.62,-5.35z"/>
    <path stroke="null" id="svg_64" fill="#f9a826" d="m20736.712801,14590.670287s-19.13,-5.23 -24.05,19.16c0,0 15.3,7.22 26.62,-13.61l-2.57,-5.55z"/>
    <path stroke="null" id="svg_65" fill="#f9a826" d="m20730.692801,14570.520287s-15.18,-12.85 -32,5.19c0,0 14.22,11.13 32.61,-1.38l-0.61,-3.81z"/>
    <path stroke="null" id="svg_66" fill="#f9a826" d="m20725.272801,14547.200287s-15.46,-13.48 -31.46,4.25c0,0 16.82,11.4 32.05,-0.6l-0.59,-3.65z"/>
    <path stroke="null" id="svg_67" fill="#f9a826" d="m20723.762801,14527.790287s-12.72,-21 -30.86,-8.14c0,0 13.87,18.2 30.66,12l0.2,-3.86z"/>
    <path stroke="null" id="svg_68" fill="#f9a826" d="m20724.202801,14503.370287s-12.72,-21.39 -31,-7.55c0,0 15.64,19 30.67,11.23l0.33,-3.68z"/>
    <path stroke="null" id="svg_69" fill="#f9a826" d="m20726.482801,14482.100287s-7.63,-24.47 -24.52,-24c0,0 7.8,25.86 23.05,28.92l1.47,-4.92z"/>
    <path stroke="null" id="svg_70" fill="#f9a826" d="m20727.772801,14461.790287s-6.28,-29.95 -20.15,-28.79c0,0 4.18,22.84 19.3,33.31l0.85,-4.52z"/>
    <path stroke="null" id="svg_71" fill="#f9a826" d="m20733.572801,14436.680287s-8.16,-24.44 -21.73,-25.39c0,0 5.57,24.05 21.44,31.75l0.29,-6.36z"/>
    <path stroke="null" id="svg_72" fill="#f9a826" d="m20738.232801,14415.260287s-4.38,-26.12 -13,-28.67c0,0 -1.11,24.47 11.22,32.39l1.78,-3.72z"/>
    <path stroke="null" id="svg_73" fill="#f9a826" d="m20741.662801,14394.150287s-5.49,-26.75 -14.38,-29.2c0,0 0.63,21.77 13.43,31.16l0.95,-1.96z"/>
    <path stroke="null" id="svg_74" fill="#f9a826" d="m20746.602801,14368.790287s-3.6,-21.88 -10.34,-26.07c0,0 -2,24.94 8,31l2.34,-4.93z"/>
    <path stroke="null" id="svg_75" fill="#f9a826" d="m20746.282801,14347.470287l-11.66,-35.52s-3,31.14 13,42.05l-1.34,-6.53z"/>
    <path stroke="null" id="svg_76" fill="#f9a826" d="m20741.532801,14311.100287s-18.73,-22.11 -18.87,-24.9c0,0 5.73,25.43 26.37,35.22l-7.5,-10.32z"/>
    <path stroke="null" id="svg_77" fill="#f9a826" d="m20742.082801,14303.590287s-19.57,-32.55 -26.32,-34.35c0,0 21.52,6.89 27.32,33.16l-1,1.19z"/>
    <path stroke="null" id="svg_78" fill="#444053" d="m20745.322801,14372.470287l-1,-0.14c5.53,-40.21 4.5,-65.15 -2.92,-70.2l0.57,-0.83c7.87,5.37 9.02,29.98 3.35,71.17z"/>
    <path stroke="null" id="svg_79" fill="#444053" d="m20727.522801,14467.470287l-1.49,-0.27c0.68,-3.71 1.44,-7.49 2.28,-11.24c7.31,-32.55 13.14,-62.67 16.29,-85.59l1.13,-0.82c-3.16,23 -8.63,54.15 -15.94,86.75c-0.84,3.67 -1.6,7.43 -2.27,11.17z"/>
    <path stroke="null" id="svg_80" fill="#444053" d="m20791.392801,14673.520287c-0.22,-0.18 -22.74,-18.53 -42,-53a218.47,218.47 0 0 1 -23.66,-64.67c-5.53,-28.34 -4.72,-61.12 0.84,-91.67l1.32,1.12c-12.45,68.58 5.7,122.68 23.24,154.17c19,34.14 41.28,52.3 41.51,52.48l-1.25,1.57z"/>
   </g>
   <path stroke="null" id="svg_81" fill="#f9a826" d="m149.614725,160.33172s-9.47945,-0.57172 -8.36066,6.07151c0,0 -0.22421,1.1726 0.84077,1.70621c0,0 0.01794,-0.49325 0.97306,-0.3251a4.34064,4.34064 0 0 0 1.02911,0.04933a2.15687,2.15687 0 0 0 1.26004,-0.52016l0,0s2.66357,-1.10085 3.6994,-5.45494c0,0 0.76679,-0.95064 0.73764,-1.19502l-1.60083,0.67262s0.54706,1.15466 0.11658,2.11202c0,0 -0.05156,-2.06942 -0.35873,-2.01786c-0.06277,0.01121 -0.8318,0.40133 -0.8318,0.40133s0.94167,2.01786 0.2242,3.47072c0,0 0.26905,-2.47748 -0.52464,-3.32723l-1.12103,0.65917s1.09861,2.07615 0.35425,3.76891c0,0 0.19057,-2.59855 -0.59191,-3.60972l-1.02014,0.79593s1.03359,2.04701 0.40357,3.45054c0,0 -0.08295,-3.02455 -0.62329,-3.25324c0,0 -0.89683,0.78697 -1.02911,1.12103c0,0 0.70625,1.48425 0.26905,2.26897c0,0 -0.26905,-2.01785 -0.49101,-2.01785c0,0 -0.89683,1.33402 -0.98203,2.24206c0,0 0.03812,-1.36093 0.76679,-2.37659a2.66581,2.66581 0 0 0 -1.36093,0.70401s0.139,-0.94391 1.56944,-1.02687c0,0 0.7354,-1.01117 0.9327,-1.07394c0,0 -1.43716,-0.11883 -2.30708,0.2668c0,0 0.76678,-0.89682 2.5694,-0.48653l1.00669,-0.82283s-1.89006,-0.25784 -2.69048,0.0269c0,0 0.92149,-0.78696 2.96177,-0.213l1.09637,-0.65468s-1.6098,-0.34752 -2.56941,-0.2242c0,0 1.01342,-0.54707 2.89226,0.04484l0.78473,-0.35201s-1.18157,-0.2242 -1.52685,-0.26904s-0.36321,-0.13229 -0.36321,-0.13229a4.08504,4.08504 0 0 1 2.21516,0.24663s1.6793,-0.62105 1.65016,-0.72643z"/>
   <path stroke="null" id="svg_85" fill="#f9a826" d="m194.306618,156.565798s-6.45266,-0.390119 -5.690359,4.132124a1.100853,1.100853 0 0 0 0.571726,1.161389s0,-0.334068 0.661409,-0.224206a3.078354,3.078354 0 0 0 0.701766,0.035873a1.475278,1.475278 0 0 0 0.856468,-0.354246l0,0s1.81383,-0.748849 2.52008,-3.7151c0,0 0.522401,-0.645714 0.49998,-0.811627l-1.087401,0.464107s0.372183,0.786964 0.078472,1.439405c0,0 -0.033631,-1.410258 -0.244385,-1.376627c-0.042599,0 -0.565,0.27129 -0.565,0.27129s0.638988,1.369901 0.156944,2.363135c0,0 0.183849,-1.686032 -0.356488,-2.264485l-0.766786,0.448413s0.746607,1.4125 0.239901,2.567163c0,0 0.13004,-1.768989 -0.401329,-2.46627l-0.69504,0.540337s0.704008,1.392322 0.275774,2.349683c0,0 -0.056052,-2.058215 -0.425992,-2.215159c0,0 -0.607599,0.535853 -0.699524,0.755576c0,0 0.479802,1.011171 0.181607,1.544782c0,0 -0.181607,-1.369901 -0.331825,-1.376627c0,0 -0.605357,0.908036 -0.672619,1.53133a3.311529,3.311529 0 0 1 0.522401,-1.61877a1.822798,1.822798 0 0 0 -0.925972,0.479802s0.094167,-0.643472 1.076191,-0.699524c0,0 0.49998,-0.688314 0.634504,-0.730913c0,0 -0.97754,-0.080714 -1.569445,0.181607c0,0 0.520159,-0.607599 1.746568,-0.331825l0.686072,-0.558274s-1.284703,-0.177123 -1.831766,0.017937c0,0 0.627778,-0.535853 2.017858,-0.145734l0.746607,-0.448413s-1.096369,-0.237659 -1.751052,-0.15246c0,0 0.690556,-0.369941 1.968532,0.031389l0.535853,-0.219722s-0.802659,-0.156944 -1.038076,-0.181607s-0.246627,-0.089683 -0.246627,-0.089683a2.786886,2.786886 0 0 1 1.508909,0.168155s1.132242,-0.430476 1.112064,-0.502222z"/>
   <ellipse stroke="null" transform="matrix(0.2242064034843986,0,0,0.2242064034843986,-4609.417111184347,-3196.1652742299584) " id="svg_86" opacity="0.1" fill="#f9a826" ry="3.44" rx="20.37" cy="14979.140365" cx="21405.63286"/>
   <path stroke="null" id="svg_87" opacity="0.1" d="m140.342378,158.910997l-22.490144,8.701451l-32.873143,12.705777c-1.239861,-2.3026 -3.069386,-5.4527 -5.33387,-9.192463c-7.784446,-12.903079 -20.667346,-32.971794 -32.133262,-50.607869c-12.923257,-19.871414 -24.043895,-36.651021 -24.043895,-36.651021l8.051252,-2.333989l65.764222,-19.073239l43.05884,96.451353z"/>
   <path stroke="null" id="svg_88" fill="#fff" d="m140.790791,157.341552l-22.490144,8.701451l-32.873143,12.705777c-1.239861,-2.3026 -3.069386,-5.4527 -5.33387,-9.192463c-7.784446,-12.903079 -20.667346,-32.971794 -32.133262,-50.607869c-12.923257,-19.871414 -24.043895,-36.651021 -24.043895,-36.651021l8.051252,-2.333989l65.764222,-19.073239l43.05884,96.451353z"/>
   <path stroke="null" id="svg_89" opacity="0.1" d="m140.790791,157.341552l-22.490144,8.701451a169.141311,169.141311 0 0 1 -38.207013,3.513314c-7.784446,-12.903079 -20.667346,-32.971794 -32.133262,-50.607869l-15.992643,-38.985009l65.764222,-19.073239l43.05884,96.451353z"/>
   <path stroke="null" id="svg_90" fill="#f9a826" d="m157.523315,151.92921s-34.940326,20.667346 -87.104188,16.003853l-41.590288,-101.383894l19.929707,-3.423632l68.894144,-11.831372l39.090386,98.67548l0.780238,1.959564z"/>
   <path stroke="null" id="svg_91" opacity="0.1" d="m156.743077,149.969646c-8.228375,0.403572 -17.743695,0.365456 -27.321792,-0.775754c-10.36282,-1.215199 -20.774965,-3.730795 -29.720801,-8.335994c-7.470557,-3.849624 -13.858198,-8.031073 -19.429727,-13.051055c-14.485976,-13.030876 -23.45199,-31.671397 -31.503242,-64.681305l68.894144,-11.831372l39.081418,98.67548z"/>
   <path stroke="null" id="svg_92" fill="#fff" d="m182.372111,144.301708s-25.7658,5.049128 -51.96656,1.939385c-10.36282,-1.221925 -20.786176,-3.730795 -29.720801,-8.335994c-7.470557,-3.849624 -13.858198,-8.031073 -19.429727,-13.051055c-17.936512,-16.142861 -27.400265,-40.854891 -37.162211,-90.783415c0,0 42.823423,10.333673 85.133413,-12.302205c0,0 14.270738,89.070478 53.145886,122.533284z"/>
   <path stroke="null" id="svg_93" opacity="0.1" d="m130.405551,146.241093c-10.36282,-1.221925 -20.786176,-3.730795 -29.720801,-8.335994c-7.470557,-3.849624 -13.858198,-8.031073 -19.429727,-13.051055c15.266214,-1.239861 17.461195,-9.587066 17.461195,-9.587066c11.317939,17.963417 31.689333,30.974115 31.689333,30.974115z"/>
   <path stroke="null" id="svg_94" opacity="0.3" fill="#f9a826" d="m66.237678,52.401745s23.003577,2.625457 44.534118,-9.472721l1.475278,4.737481s-20.597842,10.270895 -46.009396,10.270895l0,-5.535656z"/>
   <path stroke="null" id="svg_95" opacity="0.3" d="m66.237678,75.784231s22.869053,-1.845219 48.32769,-14.149666l0.860953,1.968532s-9.369586,11.791015 -49.188643,14.871611l0,-2.690477z"/>
   <path stroke="null" id="svg_96" opacity="0.3" d="m68.948333,84.904948s22.869053,-1.845219 48.32769,-14.147424l0.860953,1.968532s-9.367344,11.802225 -49.188643,14.885063l0,-2.706171z"/>
   <path stroke="null" id="svg_97" opacity="0.3" d="m71.428056,94.736398s22.869053,-1.845219 48.32769,-14.147424l0.860953,1.968532s-9.380796,11.795499 -49.188643,14.885063l0,-2.706171z"/>
   <path stroke="null" id="svg_98" opacity="0.3" d="m74.371886,103.162075s22.869053,-1.845219 48.32769,-14.147424l0.860953,1.968532s-9.367344,11.797741 -49.188643,14.887305l0,-2.708413z"/>
   <path stroke="null" id="svg_99" opacity="0.1" d="m77.084784,112.29176s22.869053,-1.845219 48.32769,-14.147424l0.860953,1.968532s-9.369586,11.797741 -49.188643,14.885063l0,-2.706171z"/>
   <path stroke="null" id="svg_105" fill="url(#svg_5)" d="m198.261619,102.538781l-0.239901,-0.224206c0.61881,-0.125556 1.201746,-0.181607 1.201746,-0.181607s-2.123235,-7.681311 -5.703811,-10.243991c-1.771231,-1.266766 -3.246509,-3.376548 -4.289068,-5.185894a78.404979,78.404979 0 0 0 -6.38764,-9.365101l-0.645714,-0.813869l-0.278016,-0.354246c0.387877,-0.587421 0.863195,-1.145695 0.809385,-1.827282a0.029147,0.029147 0 0 1 0,-0.013452a0.860953,0.860953 0 0 0 0,-0.107619a1.253314,1.253314 0 0 0 -0.044841,-0.248869l-0.024663,0.038115c-0.302679,-0.878889 -1.46631,-1.266766 -2.329505,-1.751052c-2.017858,-1.136726 -2.881052,-3.620933 -3.311529,-5.930259c-0.33631,-1.793651 -0.614326,-3.811509 -2.017858,-4.966172c-0.896826,-0.742123 -2.116508,-0.986508 -3.02006,-1.724147c-0.856468,-0.699524 -1.334028,-1.76002 -1.872123,-2.735318c-0.896826,-1.625496 -2.080635,-3.13889 -3.643354,-4.109703s-3.546945,-1.345238 -5.262124,-0.69504c-0.656925,0.251111 -1.253314,0.64123 -1.903512,0.91252c-1.614286,0.672619 -3.463989,0.582937 -5.062581,1.293671c-1.968532,0.874405 -3.248751,2.807064 -4.419108,4.641073c-0.605357,0.948393 -1.555992,2.336231 -2.09633,3.733037c0,-0.049325 0,-0.096409 0,-0.145734a5.340597,5.340597 0 0 0 -0.417024,1.941627a2.914683,2.914683 0 0 0 0.091925,0.843016c0.242143,0.896826 0.964088,1.392322 1.820556,1.7376a7.589387,7.589387 0 0 0 0.197302,0.845258a8.295637,8.295637 0 0 0 5.358533,5.472878c0.073988,0.026905 0.150218,0.044841 0.224206,0.067262a1.780199,1.780199 0 0 0 0.266806,0.493254c0.715218,0.896826 2.150139,0.64123 3.082838,-0.01121c0.038115,-0.024663 0.073988,-0.056052 0.109861,-0.082956a3.363096,3.363096 0 0 0 0.040357,0.378909c0.020179,0.107619 0.035873,0.224206 0.058294,0.320615c0.840774,4.531211 2.993155,6.977303 2.993155,6.977303s0.199544,0.300437 0.524643,0.798175c-0.170397,2.499901 0.970814,4.777838 2.289147,6.537859c-1.136726,0.656925 -3.587302,1.94387 -5.102938,1.83625c0,0 -5.569287,0.719703 -6.215002,0.35873c-0.089683,-0.049325 -0.174881,0.017937 -0.255595,0.170397c-1.533572,-0.934941 -6.436966,-3.629902 -6.856232,-0.170397c-0.378909,3.13889 4.089525,3.540219 6.217244,3.555914c-0.096409,0.919246 -0.150218,1.654643 -0.150218,1.654643l9.149863,-0.625536l4.764386,-0.701766c-0.526885,0.697282 -1.121032,1.318334 -1.701727,1.621012c0,0 -4.307005,3.48641 -5.05137,3.517798c-0.105377,0 -0.139008,0.105377 -0.123314,0.273532c-1.811588,0 -7.445895,0.262321 -5.883176,3.401211c1.419227,2.845179 5.414585,0.876647 7.221688,-0.210754c0.425992,0.827322 0.789207,1.475278 0.789207,1.475278l7.383117,-5.25764l1.598592,-1.345238a5.690359,5.690359 0 0 0 1.589623,-0.307163c0,0.020179 0.015694,0.040357 0.022421,0.058294a3.033513,3.033513 0 0 1 0.127798,0.506706c0.448413,2.576132 -1.058254,8.584863 -1.058254,8.584863s-3.313771,8.450339 -1.721905,9.60276s0.414782,6.015458 0.414782,6.015458a8.990677,8.990677 0 0 0 0.955119,1.318334l0,0a4.004326,4.004326 0 0 0 0.558274,0.531369a5.190378,5.190378 0 0 0 -0.183849,0.616568a5.026708,5.026708 0 0 0 0.262321,3.103017c1.094127,2.654604 0.428234,6.501986 0.428234,6.501986l-2.147897,14.510638c-1.031349,-0.156944 -2.363135,-0.286984 -2.858632,0c-0.76006,0.428234 -0.511191,2.587342 1.253314,3.515556a4.542422,4.542422 0 0 1 -1.816072,0.83629c-1.569445,0.35873 -2.67254,0.587421 -3.398969,0.726429c-0.047083,0 -3.766668,-0.820595 -4.721787,-0.278016s-0.495496,3.551429 2.221885,4.289068c2.659088,0.719703 12.575737,1.775715 15.432127,1.345238l0.181607,-0.031389c2.428155,-0.479802 0.295952,-3.670259 0.026905,-4.058136c-0.017937,-0.13004 -0.033631,-0.266806 -0.051567,-0.414782c-0.038115,-0.331825 -0.071746,-0.712976 -0.096409,-1.121032c2.708413,0.248869 5.380954,0.369941 6.607363,0.186091c0.058294,0 0.112103,-0.017937 0.161429,-0.029147c2.150139,-0.425992 0.266806,-3.246509 0.024663,-3.587302q-0.015694,-0.13004 -0.033631,-0.275774l0,-0.024663c0,-0.06502 -0.015694,-0.134524 -0.022421,-0.201786s0,-0.114345 -0.017937,-0.174881s0,-0.107619 -0.015694,-0.163671q-0.013452,-0.165913 -0.026905,-0.343036c0,-0.047083 0,-0.096409 0,-0.145734c0,-0.089683 -0.01121,-0.179365 -0.015694,-0.27129c0,-0.049325 0,-0.098651 0,-0.150218c0,-0.134524 0,-0.273532 -0.013452,-0.41254c0,-0.038115 0,-0.07623 0,-0.114345c0,-0.112103 0,-0.224206 0,-0.340794c0,-0.05381 0,-0.107619 0,-0.163671c0,-0.118829 0,-0.237659 0,-0.35873c0,-0.040357 0,-0.078472 0,-0.118829c0,-0.150218 0.013452,-0.304921 0.022421,-0.459623l0.013452,-0.165913c0,-0.114345 0.017937,-0.224206 0.029147,-0.340794c0,-0.056052 0,-0.112103 0.017937,-0.168155c0.017937,-0.156944 0.038115,-0.313889 0.060536,-0.473076c0,-0.047083 0.015694,-0.094167 0.022421,-0.14125c0.020179,-0.118829 0.040357,-0.239901 0.062778,-0.360972c0,-0.058294 0.022421,-0.118829 0.035873,-0.179365q0.040357,-0.19506 0.08744,-0.390119c0,-0.035873 0.015694,-0.071746 0.024663,-0.107619c0.040357,-0.156944 0.085198,-0.311647 0.132282,-0.466349c0.015694,-0.05381 0.033631,-0.107619 0.051567,-0.161429c0.038115,-0.116587 0.078472,-0.224206 0.121071,-0.345278l0.05381,-0.143492c0.060536,-0.15246 0.125556,-0.302679 0.192818,-0.448413c0.017937,-0.038115 0.038115,-0.07623 0.058294,-0.114345c0.056052,-0.116587 0.116587,-0.224206 0.179365,-0.345278l0.07623,-0.132282c0.085198,-0.143492 0.172639,-0.286984 0.269048,-0.42375c2.46627,-3.515556 3.116469,-10.295558 3.055933,-11.770836s0.29371,-4.535696 0.735397,-4.988592c0.295952,-0.302679 2.017858,-2.690477 3.046965,-4.506549c0.186091,-0.331825 0.34752,-0.643472 0.475318,-0.921488c0.730913,-0.253353 1.215199,-0.448413 1.215199,-0.448413l0,0l0,0a10.396451,10.396451 0 0 1 -0.367699,-2.890021c0.017937,-1.907996 0.542579,-4.42135 2.708413,-6.461629c3.197183,-3.013334 3.643354,-5.999763 3.685953,-7.1477c0,-0.080714 0,-0.15246 0,-0.212996c-0.006726,-0.210754 -0.017937,-0.313889 -0.017937,-0.313889z"/>
   <path stroke="null" id="svg_106" fill="#a5636d" d="m189.741775,121.342972a38.536597,38.536597 0 0 1 -2.914683,4.454981c-0.421508,0.448413 -0.76006,3.477441 -0.701766,4.932541s-0.558274,8.163355 -2.914683,11.638554s-1.145695,9.481689 -1.145695,9.481689l-3.759941,1.318334l-4.517759,0l-3.111985,-0.930457l-0.820595,-2.264485s1.094127,-0.168155 3.811509,-0.813869a3.526767,3.526767 0 0 0 2.81379,-3.199425l1.907996,-13.324587s0.562758,-3.363096 -0.365456,-5.690359a4.632104,4.632104 0 0 1 0.304921,-4.058136l0.060536,-0.094167s2.94383,-2.32502 5.943712,-3.78012c2.656846,-1.282461 5.351807,-1.892302 6.116351,0.383393c0.098651,0.29371 -0.224206,1.049286 -0.70625,1.946112z"/>
   <path stroke="null" id="svg_107" opacity="0.05" d="m189.741775,121.342972a38.536597,38.536597 0 0 1 -2.914683,4.454981c-0.421508,0.448413 -0.76006,3.477441 -0.701766,4.932541s-0.558274,8.163355 -2.914683,11.638554c-1.659127,2.450576 -1.549266,6.154466 -1.345238,8.129724c0.08744,0.827322 0.19506,1.345238 0.19506,1.345238l-3.759941,1.318334l-4.513275,0l-3.111985,-0.92373l-0.820595,-2.264485s0.273532,-0.042599 0.896826,-0.163671s1.569445,-0.327341 2.928136,-0.650199a3.526767,3.526767 0 0 0 2.800338,-3.199425l1.907996,-13.324587s0.562758,-3.363096 -0.365456,-5.690359a4.632104,4.632104 0 0 1 0.304921,-4.058136l0.060536,-0.094167s2.94383,-2.32502 5.943712,-3.78012c2.656846,-1.282461 5.351807,-1.892302 6.116351,0.383393c0.098651,0.29371 -0.224206,1.049286 -0.70625,1.946112z"/>
   <path stroke="null" id="svg_108" opacity="0.1" d="m182.064948,151.85298l-3.759941,1.318334l-4.517759,0l-3.111985,-0.932699l-0.820595,-2.264485s0.273532,-0.042599 0.896826,-0.163671a1.692758,1.692758 0 0 0 1.302639,1.829524l1.766746,0.060536c0.248869,0 0.49998,0.013452 0.746607,0.013452a22.528259,22.528259 0 0 0 7.304645,-1.212957c0.089683,0.827322 0.192818,1.351965 0.192818,1.351965z"/>
   <path stroke="null" id="svg_109" fill="#bebed0" d="m173.818637,152.08167l-1.768989,-0.060536s-1.650159,-0.349762 -1.246588,-2.221885c0,0 -3.183731,-0.721945 -3.9976,-0.244385s-0.421508,3.111985 1.87885,3.757699c2.242064,0.63002 10.640836,1.555992 13.055539,1.177084l0.154702,-0.026905c2.188254,-0.448413 0,-3.587302 0,-3.587302l0,0a22.617942,22.617942 0 0 1 -8.075915,1.20623z"/>
   <path stroke="null" id="svg_110" fill="#a5636d" d="m184.712826,121.858647c-0.118829,0.237659 -0.246627,0.484286 -0.392361,0.742123c-1.109822,2.017858 -2.890021,4.558116 -3.201667,4.8877c-0.475318,0.506706 -0.854226,3.923612 -0.793691,5.573771s-0.63002,9.210399 -3.289108,13.134011c-1.360933,2.017858 -1.668096,4.764386 -1.645675,6.975061a22.47445,22.47445 0 0 0 0.132282,2.242064c0.098651,0.91252 0.224206,1.482004 0.224206,1.482004l-4.241985,1.486488l-5.10518,0l-3.513314,-1.044802l-0.919246,-2.564921s0.307163,-0.049325 0.997718,-0.186091s1.766746,-0.365456 3.304802,-0.728671a3.98639,3.98639 0 0 0 3.168036,-3.609723l2.150139,-15.037523s0.634504,-3.800299 -0.410298,-6.423513a5.156747,5.156747 0 0 1 -0.251111,-3.069386a4.896668,4.896668 0 0 1 0.672619,-1.61877s0.820595,-0.645714 2.058215,-1.499941c0.547064,-0.376667 1.181568,-0.793691 1.863155,-1.215199c2.995398,-1.854187 6.934704,-3.746489 8.822522,-2.36762a2.441608,2.441608 0 0 1 0.869921,1.253314c0.07623,0.260079 -0.136766,0.849742 -0.49998,1.589623z"/>
   <path stroke="null" id="svg_111" opacity="0.1" d="m175.735601,156.897624l-4.241985,1.486488l-5.093969,0l-3.513314,-1.044802l-0.919246,-2.564921s0.307163,-0.049325 0.997718,-0.186091a1.872123,1.872123 0 0 0 0.596389,1.656885a1.997679,1.997679 0 0 0 1.264524,0.475318l1.60756,0.051567c0.280258,0 0.562758,0.015694 0.843016,0.015694a25.503478,25.503478 0 0 0 8.246312,-1.372143c0.098651,0.91252 0.212996,1.482004 0.212996,1.482004z"/>
   <path stroke="null" id="svg_112" fill="#bebed0" d="m166.431036,157.153219l-1.605318,-0.05381a2.017858,2.017858 0 0 1 -1.266766,-0.475318c-0.408056,-0.363214 -0.76006,-0.990992 -0.531369,-2.047004c0,0 -3.587302,-0.813869 -4.513275,-0.275774s-0.473076,3.513314 2.120993,4.241985c2.540259,0.710734 12.010737,1.755536 14.737087,1.329544l0.172639,-0.031389c2.46627,-0.506706 0,-4.053652 0,-4.053652l0,0a25.438459,25.438459 0 0 1 -9.11399,1.365417z"/>
   <path stroke="null" id="svg_113" opacity="0.1" d="m189.741775,121.342972c-1.535814,0.535853 -3.79133,1.246588 -5.02895,1.275734a2.255516,2.255516 0 0 1 -0.383393,-0.017937l0,0c-0.865437,-0.118829 -3.540219,0.071746 -5.993037,0.291468c-0.984266,0.08744 -1.930417,0.179365 -2.712897,0.260079c-1.165873,0.121071 -1.968532,0.208512 -1.968532,0.208512l0,-0.76006c0.547064,-0.376667 1.181568,-0.793691 1.863155,-1.215199c2.995398,-1.854187 6.934704,-3.746489 8.822522,-2.36762c2.656846,-1.282461 5.351807,-1.892302 6.116351,0.383393c0.089683,0.289226 -0.233175,1.044802 -0.715218,1.941627z"/>
   <path stroke="null" id="svg_114" fill="#5c5c8e" d="m197.11144,103.659813c-0.042599,1.136726 -0.468591,4.087283 -3.522283,7.069228c-3.892223,3.800299 -2.242064,9.257482 -2.242064,9.257482s-4.641073,1.822798 -6.643236,1.872123a2.255516,2.255516 0 0 1 -0.383393,-0.017937c-1.201746,-0.168155 -5.972859,0.273532 -8.714903,0.551548c-1.165873,0.121071 -1.968532,0.208512 -1.968532,0.208512l0,-16.142861l21.50812,-5.221767l1.948354,1.939385a3.587302,3.587302 0 0 1 0.017937,0.484286z"/>
   <path stroke="null" id="svg_115" fill="none" d="m189.472728,119.479817"/>
   <g stroke="null" transform="matrix(0.2242064034843986,0,0,0.2242064034843986,-4609.417111184347,-3196.1652742299584) " id="svg_116" opacity="0.1">
    <path stroke="null" id="svg_117" d="m21334.882801,14801.390287l-1.58,0.17l0,0.76s3.58,-0.39 8.78,-0.93c8.78,-0.89 22.19,-2.14 31.06,-2.51c-6.14,-0.56 -26.42,1.31 -38.26,2.51z"/>
    <path stroke="null" id="svg_118" d="m21437.922801,14715.680287l-8.69,-8.66l-5.79,1.45l7.28,7.25a16,16 0 0 1 0,2.17c-0.19,5.06 -2.09,18.23 -15.71,31.53c-17.36,16.94 -10,41.29 -10,41.29s-17.13,6.72 -26.94,8.11a24.73,24.73 0 0 1 2.8,0.15a10,10 0 0 0 1.71,0.09c8.93,-0.22 29.63,-8.35 29.63,-8.35s-7.4,-24.35 10,-41.29c13.62,-13.3 15.52,-26.47 15.71,-31.53a16,16 0 0 0 0,-2.21z"/>
   </g>
   <path stroke="null" id="svg_119" fill="#a5636d" d="m154.131072,92.256676s-6.501986,-4.511033 -6.979545,-0.448413s6.979545,3.481925 6.979545,3.481925l0,-3.033513z"/>
   <path stroke="null" id="svg_120" fill="#f7cddd" d="m165.341392,89.265762s-3.517798,2.327262 -5.46391,2.18377c0,0 -5.318176,0.712976 -5.936986,0.356488s-0.995476,5.156747 -0.995476,5.156747l8.74405,-0.616568l5.60516,-0.856468s2.80258,-1.708453 2.80258,-3.181489s-4.755418,-3.042481 -4.755418,-3.042481z"/>
   <path stroke="null" id="svg_121" opacity="0.05" d="m165.341392,89.265762s-3.517798,2.327262 -5.46391,2.18377c0,0 -5.318176,0.712976 -5.936986,0.356488s-0.995476,5.156747 -0.995476,5.156747l8.74405,-0.616568l5.60516,-0.856468s2.80258,-1.708453 2.80258,-3.181489s-4.755418,-3.042481 -4.755418,-3.042481z"/>
   <path stroke="null" id="svg_122" fill="#a5636d" d="m160.182403,101.005209s-7.90776,-0.327341 -6.136529,3.363096s7.764268,-0.789207 7.764268,-0.789207l-1.627738,-2.57389z"/>
   <path stroke="null" id="svg_123" fill="#5c5c8e" d="m168.137246,93.160227s-6.410061,-4.795775 -5.506509,-10.636352s5.506509,4.470676 5.506509,4.470676l0,6.165676z"/>
   <path stroke="null" id="svg_124" fill="#a5636d" d="m166.366016,66.681451a8.111788,8.111788 0 0 1 -2.280179,5.629823a7.623018,7.623018 0 0 1 -1.170357,0.997718a8.360657,8.360657 0 0 1 -2.659088,1.228651a8.448097,8.448097 0 0 1 -1.150179,0.204028c-0.278016,0.026905 -0.558274,0.042599 -0.843016,0.042599a7.905518,7.905518 0 0 1 -2.670298,-0.448413a8.102819,8.102819 0 1 1 10.773118,-7.645438l0,-0.008968z"/>
   <path stroke="null" id="svg_125" opacity="0.1" d="m197.11144,103.659813c-0.726429,0.134524 -1.623254,0.376667 -1.623254,0.753334c0,0.634504 -10.129645,4.053652 -10.129645,4.053652s0.378909,0.883373 -0.632262,2.403493s-9.24403,10.255201 -9.24403,10.255201l0.026905,0.260079l0.105377,1.006687l0.502222,4.811469s-3.165794,-1.138969 -4.179207,-1.013413c-0.327341,0.042599 -0.672619,-0.168155 -1.011171,-0.470833a4.896668,4.896668 0 0 1 0.672619,-1.61877s0.820595,-0.645714 2.058215,-1.499941l0,-16.142861l21.50812,-5.221767l1.948354,1.939385a3.587302,3.587302 0 0 1 -0.002242,0.484286z"/>
   <path stroke="null" id="svg_126" fill="#f7cddd" d="m198.021718,102.767472s-2.533532,0.251111 -2.533532,0.885615s-10.129645,4.053652 -10.129645,4.053652s0.378909,0.883373 -0.632262,2.403493s-9.24403,10.257443 -9.24403,10.257443l0.634504,6.075994s-3.165794,-1.138969 -4.179207,-1.013413c-0.448413,0.056052 -0.952877,-0.360972 -1.367659,-0.8475a8.82028,8.82028 0 0 1 -0.91252,-1.302639s1.141211,-4.813711 -0.378909,-5.95268s1.645675,-9.495141 1.645675,-9.495141s1.430437,-5.94147 1.008929,-8.490696a3.058175,3.058175 0 0 0 -0.121071,-0.502222c0,-0.017937 -0.01121,-0.038115 -0.017937,-0.056052c-0.896826,-2.434882 -10.618415,-22.869053 -10.618415,-22.869053a14.681035,14.681035 0 0 1 0.121071,-1.733115c0.020179,-0.159187 0.047083,-0.325099 0.07623,-0.493254a8.358415,8.358415 0 0 1 0.197302,-0.896826a5.60516,5.60516 0 0 1 0.183849,-0.558274c0.300437,-0.77127 0.76006,-1.365417 1.446131,-1.378869c0,0 0.76006,-0.840774 2.542501,-1.069465c1.304881,-0.170397 3.168036,0 5.690359,1.069465c5.948196,2.529048 7.34276,2.659088 7.34276,2.659088l2.988671,3.923612l0.614326,0.804901a77.550753,77.550753 0 0 1 6.100656,9.259724c0.995476,1.793651 2.405735,3.876529 4.096251,5.129843c3.419148,2.540259 5.445974,10.136372 5.445974,10.136372z"/>
   <path stroke="null" id="svg_127" opacity="0.1" d="m175.829768,88.126794s8.452581,2.089604 11.728237,7.358454l-11.728237,-7.358454z"/>
   <path stroke="null" id="svg_128" opacity="0.1" d="m178.441773,97.384276s1.598592,10.732761 1.154663,11.539904s-1.154663,-11.539904 -1.154663,-11.539904z"/>
   <path stroke="null" id="svg_129" opacity="0.1" d="m177.870046,102.893027c-0.614326,0.804901 -3.109743,7.026629 -3.109743,7.026629l0.719703,10.448018l0.634504,6.075994s-3.163552,-1.138969 -4.176965,-1.013413c-0.448413,0.056052 -0.955119,-0.360972 -1.367659,-0.8475c0.656925,-3.558156 2.062699,-11.00405 2.316052,-11.147542c0.334068,-0.190575 2.044762,-6.172402 2.134445,-7.847224s2.46627,-5.407858 2.46627,-5.407858s1.002203,1.907996 0.383393,2.712897z"/>
   <path stroke="null" id="svg_130" opacity="0.1" d="m175.482248,92.637826c-0.156944,0.473076 -0.399087,3.228572 -0.399087,3.228572c-0.174881,2.425913 -2.017858,3.219604 -3.1501,3.475199a3.058175,3.058175 0 0 0 -0.121071,-0.502222c-0.76006,-2.150139 -10.636352,-22.916137 -10.636352,-22.916137a13.64296,13.64296 0 0 1 0.394603,-3.125437c2.150139,-0.632262 5.553593,0.340794 5.553593,0.340794c0.984266,-0.13004 4.194902,6.253117 4.194902,6.253117s2.138929,4.8877 2.374346,5.553593s0,1.757778 0.094167,2.138929s1.094127,0.708492 1.235377,1.233135s0.049325,1.569445 0.143492,1.755536s0.475318,2.089604 0.316131,2.564921z"/>
   <path stroke="null" id="svg_131" fill="#f7cddd" d="m174.722188,92.256676c-0.156944,0.475318 -0.399087,3.228572 -0.399087,3.228572c-0.143492,2.017858 -1.443889,2.914683 -2.529048,3.298076a5.300239,5.300239 0 0 1 -1.520119,0.302679l-1.526846,1.327302l-7.051291,5.190378s-2.627699,-4.858553 -1.914723,-4.885458s4.824922,-3.479683 4.824922,-3.479683c1.257798,-0.672619 2.517838,-2.914683 3.103017,-4.067104a3.553671,3.553671 0 0 1 -0.07623,-0.417024c-0.253353,-2.150139 -5.571529,-10.382999 -5.571529,-10.382999s-2.055973,-2.419187 -2.85639,-6.901073c-0.022421,-0.103135 -0.038115,-0.208512 -0.058294,-0.316131a3.21512,3.21512 0 0 1 -0.040357,-0.421508c-0.096409,-1.724147 1.159147,-2.351925 2.647878,-2.499901l0,0a10.627384,10.627384 0 0 1 2.331747,0.071746a16.8805,16.8805 0 0 1 2.280179,0.448413c0.636746,-0.085198 2.206191,2.562679 3.235298,4.439287l0,0c0.55379,1.017897 0.952877,1.811588 0.952877,1.811588s2.138929,4.889942 2.374346,5.553593s0,1.76002 0.094167,2.138929s1.094127,0.710734 1.235377,1.235377s0.049325,1.569445 0.143492,1.755536s0.479802,2.094088 0.320615,2.569405z"/>
   <path stroke="null" id="svg_132" opacity="0.1" d="m182.901238,81.301951c-1.345238,1.374385 -3.517798,1.378869 -5.262124,0.672619s-3.221846,-1.970774 -4.838374,-2.95504c-1.049286,-0.64123 -2.16135,-1.165873 -3.194941,-1.827282l0,0c-0.15246,-0.098651 -0.300437,-0.197302 -0.448413,-0.300437c-1.192778,-0.843016 -2.22637,-1.925933 -3.461747,-2.690477a5.380954,5.380954 0 0 0 -2.780159,-0.896826a3.16131,3.16131 0 0 0 -1.32506,0.278016a1.793651,1.793651 0 0 0 -0.224206,0.109861a5.717263,5.717263 0 0 0 -1.121032,0.840774c-0.349762,0.313889 -0.68383,0.647957 -1.051528,0.941667c-0.022421,-0.103135 -0.038115,-0.208512 -0.058294,-0.316131a3.21512,3.21512 0 0 1 -0.040357,-0.421508c-0.278016,0.026905 -0.558274,0.042599 -0.843016,0.042599a7.905518,7.905518 0 0 1 -2.670298,-0.448413c0,-0.033631 0,-0.067262 -0.020179,-0.100893c-0.302679,-1.59635 -0.849742,-3.286866 -2.134445,-4.183691c-0.744365,-0.520159 -1.932659,-0.733155 -2.964009,-1.121032a8.102819,8.102819 0 1 1 15.268456,0.876647c1.304881,-0.170397 3.168036,0 5.690359,1.069465c5.948196,2.529048 7.34276,2.659088 7.34276,2.659088l2.988671,3.923612c-0.322857,0.493254 -0.688314,0.979782 -0.721945,1.555992c-0.056052,1.056012 0.973056,1.793651 1.869881,2.291389z"/>
   <path stroke="null" id="svg_133" fill="#4c3e42" d="m153.436032,69.282245c1.284703,0.896826 1.831766,2.5851 2.136687,4.179207c0.094167,0.497738 0.183849,1.022381 0.48877,1.416984c0.672619,0.883373 2.053731,0.634504 2.94383,0s1.591865,-1.59635 2.5851,-2.044762c1.318334,-0.596389 2.869842,-0.161429 4.105219,0.612083s2.268969,1.856429 3.461747,2.690477c1.154663,0.813869 2.441608,1.394564 3.643354,2.127719c1.616528,0.984266 3.094048,2.255516 4.838374,2.95504s3.923612,0.697282 5.259882,-0.672619c-0.896826,-0.497738 -1.925933,-1.233135 -1.856429,-2.300358s1.311607,-1.863155 1.228651,-2.957282s-1.369901,-1.522361 -2.293632,-2.060457c-1.928175,-1.121032 -2.751013,-3.587302 -3.163552,-5.862997c-0.320615,-1.780199 -0.585179,-3.76891 -1.914723,-4.912362c-0.858711,-0.735397 -2.017858,-0.975298 -2.883294,-1.703969c-0.818353,-0.692798 -1.273492,-1.739842 -1.793651,-2.706171c-0.858711,-1.60756 -1.986469,-3.103017 -3.477441,-4.064862s-3.387759,-1.345238 -5.024466,-0.686072c-0.627778,0.248869 -1.199504,0.634504 -1.818314,0.896826c-1.54254,0.672619 -3.307044,0.57621 -4.83389,1.277976c-1.881092,0.865437 -3.103017,2.775675 -4.221807,4.589505c-0.946151,1.55375 -2.822759,4.293553 -2.291389,6.31141c0.529127,2.051489 3.48641,1.941627 4.880973,2.914683z"/>
   <g stroke="null" transform="matrix(0.2242064034843986,0,0,0.2242064034843986,-4609.417111184347,-3196.1652742299584) " id="svg_134" opacity="0.1">
    <path stroke="null" id="svg_135" d="m21371.762801,14590.710287a6.31,6.31 0 0 0 -0.19,-1.1c-1.52,2.39 -3.41,4.71 -3.59,7.51a6.81,6.81 0 0 0 0.16,1.93c1.69,-2.69 3.86,-5.22 3.62,-8.34z"/>
    <path stroke="null" id="svg_136" d="m21352.802801,14610.410287c-7.78,-3.12 -14.36,-8.79 -21.57,-13.18c-5.37,-3.27 -11.11,-5.86 -16.26,-9.49c-5.32,-3.76 -9.93,-8.59 -15.44,-12s-12.42,-5.39 -18.31,-2.74c-4.43,2 -7.55,6.25 -11.53,9.13s-10.08,4 -13.13,0c-1.36,-1.76 -1.76,-4.1 -2.18,-6.32c-1.35,-7.11 -3.8,-14.64 -9.52,-18.64c-6.23,-4.35 -19.42,-3.86 -21.81,-13a14.2,14.2 0 0 1 -0.31,-5c-1.53,4.08 -2.32,8.18 -1.39,11.75c2.4,9.18 15.59,8.69 21.81,13c5.73,4 8.17,11.54 9.53,18.65c0.42,2.22 0.82,4.56 2.17,6.32c3,3.94 9.16,2.83 13.14,-0.05s7.09,-7.12 11.53,-9.12c5.88,-2.65 12.8,-0.71 18.31,2.74s10.12,8.28 15.44,12c5.15,3.64 10.89,6.22 16.25,9.49c7.21,4.4 13.8,10.07 21.58,13.19s17.5,3.1 23.46,-3a28.72,28.72 0 0 1 -4.37,-2.89c-5.42,1.99 -11.89,1.37 -17.4,-0.84z"/>
   </g>
   <path stroke="null" id="svg_137" fill="#5c5c8e" d="m138.335731,94.918006l17.936512,-6.699287a1.703969,1.703969 0 0 1 2.194981,0.999961l0,0a1.706211,1.706211 0 0 1 -1.002203,2.194981l-17.936512,6.701529l-3.842898,-0.385635l2.65012,-2.811548z"/>
   <path stroke="null" id="svg_138" opacity="0.1" fill="#fff" d="m157.922402,88.680583l0,0a1.708453,1.708453 0 0 1 -1.002203,2.197223l-17.936512,6.699287l-2.887778,-0.289226l-0.414782,0.448413l3.842898,0.385635l17.936512,-6.701529a1.706211,1.706211 0 0 0 1.002203,-2.194981l0,0a1.699485,1.699485 0 0 0 -0.697282,-0.851984a1.856429,1.856429 0 0 1 0.156944,0.307163z"/>
   <polygon stroke="null" id="svg_139" fill="#efc8c4" points="138.33553886413574,94.91812133789062 139.53063774108887,98.115234375 136.37640190124512,97.79898071289062 135.68583488464355,97.72964477539062 136.62969779968262,96.72952270507812 138.33553886413574,94.91812133789062 "/>
   <path stroke="null" id="svg_140" fill="#727a9c" d="m136.627278,96.729593a0.68383,0.68383 0 0 1 0.183849,0.201786a0.289226,0.289226 0 0 1 0,0.311647a0.701766,0.701766 0 0 1 -0.174881,0.123314a0.571726,0.571726 0 0 0 -0.255595,0.432718l-0.690556,-0.069504l0.937183,-0.999961z"/>
   <path stroke="null" id="svg_141" fill="#3acc6c" d="m122.679398,60.275874l-3.024544,-1.475278a0.365456,0.365456 0 0 1 -0.168155,-0.48877l0.320615,-0.659167a0.363214,0.363214 0 0 1 0.48877,-0.168155l2.038036,0.993234l2.127719,-4.363057a0.367699,0.367699 0 0 1 0.48877,-0.170397l0.659167,0.322857a0.363214,0.363214 0 0 1 0.168155,0.48877l-2.609763,5.351807a0.365456,0.365456 0 0 1 -0.48877,0.168155z"/>
   <path stroke="null" id="svg_142" fill="#3acc6c" d="m129.286761,79.147327l-3.024544,-1.475278a0.365456,0.365456 0 0 1 -0.168155,-0.48877l0.320615,-0.659167a0.367699,0.367699 0 0 1 0.491012,-0.168155l2.035794,0.993234l2.125477,-4.367541a0.367699,0.367699 0 0 1 0.48877,-0.170397l0.656925,0.322857a0.365456,0.365456 0 0 1 0.170397,0.48877l-2.609763,5.351807a0.369941,0.369941 0 0 1 -0.491012,0.168155l0.004484,0.004484z"/>
   <path stroke="null" id="svg_143" fill="#3acc6c" d="m126.32051,69.845003l-3.024544,-1.475278a0.367699,0.367699 0 0 1 -0.170397,-0.48877l0.322857,-0.659167a0.363214,0.363214 0 0 1 0.48877,-0.168155l2.038036,0.993234l2.127719,-4.369783a0.365456,0.365456 0 0 1 0.48877,-0.168155l0.659167,0.320615a0.369941,0.369941 0 0 1 0.168155,0.491012l-2.612005,5.356291a0.365456,0.365456 0 0 1 -0.48877,0.168155l0.002242,0z"/>
   <path stroke="null" id="svg_144" fill="#3acc6c" d="m132.156603,87.66717l-3.024544,-1.475278a0.365456,0.365456 0 0 1 -0.168155,-0.48877l0.320615,-0.659167a0.365456,0.365456 0 0 1 0.48877,-0.168155l2.038036,0.993234l2.127719,-4.363057a0.369941,0.369941 0 0 1 0.491012,-0.170397l0.656925,0.322857a0.363214,0.363214 0 0 1 0.168155,0.48877l-2.60752,5.351807a0.369941,0.369941 0 0 1 -0.491012,0.168155z"/>
   <path stroke="null" id="svg_145" fill="#3acc6c" d="m19.080345,145.593137s1.334028,1.744326 -0.614326,4.376509s-3.558156,4.856311 -2.914683,6.501986c0,0 2.941588,-4.889942 5.33387,-4.957204s0.827322,-2.979703 -1.804862,-5.921291z"/>
   <path stroke="null" id="svg_146" opacity="0.1" d="m19.080345,145.593137a2.150139,2.150139 0 0 1 0.273532,0.547064c2.333989,2.744286 3.587302,5.304724 1.334028,5.380954c-2.091846,0.058294 -4.600715,3.798056 -5.199346,4.741965a1.721905,1.721905 0 0 0 0.069504,0.224206s2.941588,-4.889942 5.33387,-4.957204s0.820595,-2.995398 -1.811588,-5.936986z"/>
   <path stroke="null" id="svg_147" fill="#ffd037" d="m21.560068,147.817264c0,0.612083 -0.069504,1.121032 -0.154702,1.121032s-0.15246,-0.497738 -0.15246,-1.121032s0.085198,-0.325099 0.170397,-0.325099s0.136766,-0.289226 0.136766,0.325099z"/>
   <path stroke="null" id="svg_148" fill="#ffd037" d="m22.40981,148.548177c-0.538095,0.29371 -1.008929,0.473076 -1.049286,0.396845s0.363214,-0.372183 0.896826,-0.672619s0.325099,-0.080714 0.365456,0s0.327341,-0.017937 -0.212996,0.275774z"/>
   <path stroke="null" id="svg_149" fill="#3acc6c" d="m12.03578,145.593137s-1.331786,1.744326 0.616568,4.376509s3.555914,4.856311 2.914683,6.501986c0,0 -2.939346,-4.889942 -5.33387,-4.957204s-0.829564,-2.979703 1.802619,-5.921291z"/>
   <path stroke="null" id="svg_150" opacity="0.1" d="m12.03578,145.593137a2.199465,2.199465 0 0 0 -0.27129,0.547064c-2.336231,2.744286 -3.587302,5.304724 -1.334028,5.380954c2.089604,0.058294 4.598473,3.798056 5.199346,4.741965a1.730873,1.730873 0 0 1 -0.071746,0.224206s-2.939346,-4.91012 -5.338354,-4.977382s-0.816111,-2.975219 1.816072,-5.916807z"/>
   <path stroke="null" id="svg_151" fill="#ffd037" d="m9.558299,147.817264c0,0.612083 0.067262,1.121032 0.15246,1.121032s0.154702,-0.497738 0.154702,-1.121032s-0.085198,-0.325099 -0.170397,-0.325099s-0.136766,-0.289226 -0.136766,0.325099z"/>
   <path stroke="null" id="svg_152" fill="#ffd037" d="m8.706315,148.548177c0.540337,0.29371 1.008929,0.473076 1.049286,0.396845s-0.363214,-0.372183 -0.896826,-0.672619s-0.327341,-0.080714 -0.367699,0s-0.322857,-0.017937 0.215238,0.275774z"/>
   <ellipse stroke="null" transform="matrix(0.2242064034843986,0,0,0.2242064034843986,-4609.417111184347,-3196.1652742299584) " id="svg_153" opacity="0.1" fill="#f9a826" ry="9.54" rx="62.19" cy="15003.290365" cx="20628.21286"/>
   <path stroke="null" id="svg_154" fill="#65617d" d="m22.734909,154.117464l-0.067262,0.544822l-0.091925,0.769028l-0.040357,0.320615l-0.091925,0.769028l-0.042599,0.320615l-0.091925,0.769028l-1.067222,8.74405c-0.096409,0.780238 -1.372143,1.39008 -2.914683,1.39008l-5.54014,0c-1.540298,0 -2.81379,-0.609841 -2.914683,-1.39008l-1.067222,-8.74405l-0.094167,-0.769028l-0.038115,-0.320615l-0.096409,-0.769028l-0.038115,-0.320615l-0.094167,-0.769028l-0.067262,-0.544822c-0.051567,-0.448413 0.636746,-0.816111 1.508909,-0.816111l11.342602,0c0.874405,0 1.562719,0.374425 1.506667,0.816111z"/>
   <polygon stroke="null" id="svg_155" fill="#9d9cb5" points="22.6696834564209,154.662353515625 22.575685501098633,155.43124389648438 8.542837142944336,155.43124389648438 8.450868606567383,154.662353515625 22.6696834564209,154.662353515625 "/>
   <polygon stroke="null" id="svg_156" fill="#9d9cb5" points="22.53767967224121,155.75189208984375 22.44362449645996,156.52105712890625 8.676929473876953,156.52105712890625 8.582874298095703,155.75189208984375 22.53767967224121,155.75189208984375 "/>
   <polygon stroke="null" id="svg_157" fill="#9d9cb5" points="22.403032302856445,156.84164428710938 22.30904197692871,157.61050415039062 8.809488296508789,157.61050415039062 8.715435028076172,156.84164428710938 22.403032302856445,156.84164428710938 "/>
  </g>
 </g>
</svg>